<svg xmlns="http://www.w3.org/2000/svg" viewBox="0 0 144 85.31"><defs><style>.cls-1{fill:#fff;}</style></defs><g id="Layer_2" data-name="Layer 2"><g id="Layer_1-2" data-name="Layer 1"><path class="cls-1" d="M58.37,63.19a31.72,31.72,0,0,1-.47,5.92,11.89,11.89,0,0,1-1.68,4.21,8.1,8.1,0,0,1-3.64,3,14.15,14.15,0,0,1-5.59,1,13.76,13.76,0,0,1-5.66-1,8.3,8.3,0,0,1-3.53-3,11.15,11.15,0,0,1-1.69-4.22A34.51,34.51,0,0,1,35.65,63V0h-9V63a35.84,35.84,0,0,0,1.19,9.93A16.59,16.59,0,0,0,32,80.09,17,17,0,0,0,38.4,84,26.12,26.12,0,0,0,47,85.31,26,26,0,0,0,55.68,84,17.52,17.52,0,0,0,62,80.09a16,16,0,0,0,4.24-7.21A36.61,36.61,0,0,0,67.42,63V0H58.37Z"/><path class="cls-1" d="M109,63.19a31,31,0,0,1-.47,5.92,11.89,11.89,0,0,1-1.68,4.21,8.13,8.13,0,0,1-3.63,3,14.15,14.15,0,0,1-5.59,1,13.72,13.72,0,0,1-5.66-1,8.24,8.24,0,0,1-3.53-3,10.84,10.84,0,0,1-1.69-4.22A33.5,33.5,0,0,1,86.26,63V0H77.21V63a35.43,35.43,0,0,0,1.2,9.93,16.59,16.59,0,0,0,4.22,7.15A17,17,0,0,0,89,84a26,26,0,0,0,8.59,1.3A26,26,0,0,0,106.29,84a17.52,17.52,0,0,0,6.32-3.94,16,16,0,0,0,4.24-7.21A36.64,36.64,0,0,0,118,63V0h-9Z"/><path class="cls-1" d="M7.47,6.66V66.55a38.5,38.5,0,0,1-.26,4.72,7.31,7.31,0,0,1-1.09,3.14,5.13,5.13,0,0,1-2.47,1.81,11,11,0,0,1-2.8.58L0,76.89V85l1,0a17.2,17.2,0,0,0,10.89-4c3.08-2.73,4.64-6.64,4.64-11.62V0H7.29Z"/><path class="cls-1" d="M143.15,76.8a11,11,0,0,1-2.8-.58,5.08,5.08,0,0,1-2.47-1.82,7.22,7.22,0,0,1-1.09-3.13,38.5,38.5,0,0,1-.26-4.72V6.68L136.71,0h-9.23V69.26c0,5,1.56,8.89,4.64,11.62a17.2,17.2,0,0,0,10.89,4l1,0V76.89Z"/></g></g></svg>