<svg xmlns="http://www.w3.org/2000/svg" viewBox="0 0 109.71 183.12"><defs><style>.cls-1{fill:#fff;}</style></defs><g id="Layer_2" data-name="Layer 2"><g id="Layer_1-2" data-name="Layer 1"><path class="cls-1" d="M97.12,14.69a.26.26,0,0,0-.28.43c2.91,2.71,9.85,10.7.83,18.84-11.1,10-18.92,2.57-18.45,1.89s10.29-7.58,6.37-20.07C80.24,1.13,67.85-.07,63.31,0a.25.25,0,0,0-.07.5C77.05,4.1,94,26.27,66.89,37.65c-11.12,4.67-20.24-6.74-22.73-11.42a.6.6,0,0,0-1.12.28C42.43,39.39,53,42.69,56.21,46.87c2.74,3.53-2.51,7.84-4.72,9.42a.26.26,0,0,0,.19.46c18.49-2.44,32.42,10,35,12.47a.26.26,0,0,0,.44-.17c.1-2.19.65-10,3.52-13.7a.26.26,0,0,1,.13-.1c5.39-1.64,13.58-5.5,16.73-12.21C115,24.16,101.64,16.63,97.12,14.69Z"/><path class="cls-1" d="M21.33,83.2a3.14,3.14,0,0,0,.8,2.13c2.95,3.62,2.95-2.66,2.95-2.66s0-7.66,3.83-13.41c6.2-9.29,13.41-7.66,13.41-9.57s-19.15,5.74-19.15-1.92,13.4-11.49,13.4-13.4S7.85,50.11,5.93,31,25.08,9.89,25.08,8,2.1,9.89.19,27.13s11.49,23,17.23,24.9C22.43,53.7,21.62,77.21,21.33,83.2Z"/><path class="cls-1" d="M59.53,80.79a.64.64,0,0,0,1,.66,12.74,12.74,0,0,1,8.17-2.62,17,17,0,0,1,8.35,1.84.63.63,0,0,0,.91-.74c-.82-2.76-3.53-6.61-9.62-6.61C62.44,73.32,60.41,77.58,59.53,80.79Z"/><path class="cls-1" d="M40.78,73.32c-5.92,0-8,4.26-8.83,7.47a.64.64,0,0,0,1,.66,12.74,12.74,0,0,1,8.17-2.62,17,17,0,0,1,8.35,1.84.63.63,0,0,0,.91-.74C49.59,77.17,46.87,73.32,40.78,73.32Z"/><path class="cls-1" d="M67.22,61.54C73.36,63.61,84,70.93,84,77.46c-2,22.63.76,31.58.69,28.41a3.05,3.05,0,0,1,2.08-3c6.69-1,5.31-10.53,4.21-14.34-.8-2.78-3.26-2.45-4.53-2.06a.53.53,0,0,1-.69-.56L87.2,75.43C86.58,69.73,67.56,60.31,67.22,61.54Z"/><path class="cls-1" d="M33.75,97.25,38.67,97a.21.21,0,0,0,.13-.07l2.48-3.34,2.63,3.07a.2.2,0,0,0,.14.06l5.21-.28a.15.15,0,0,0,.12-.24l-5.49-5.87,4.67-6.08a.14.14,0,0,0-.14-.23l-4.79.25a.17.17,0,0,0-.13.07l-2.38,3.21-2.6-3a.14.14,0,0,0-.14,0l-5.13.26a.15.15,0,0,0-.12.25l5.3,5.72L33.61,97A.15.15,0,0,0,33.75,97.25Z"/><path class="cls-1" d="M76.65,84.81l-4.79-.25a.24.24,0,0,0-.14,0l-2.7,3-2.28-3.21a.17.17,0,0,0-.13-.07L61.48,84a.14.14,0,0,0-.14.22L66,90.49,60.56,96.2c-.09.09,0,.23.12.24l4.92.26a.2.2,0,0,0,.14-.06l2.81-3,2.3,3.32A.14.14,0,0,0,71,97l5.2.27c.14,0,.23-.12.15-.23l-4.85-6.41,5.29-5.56C76.86,85,76.79,84.82,76.65,84.81Z"/><path class="cls-1" d="M49.18,108.38c1.69,2.51,5.29,3.55,7.25,3.55a7.19,7.19,0,0,0,6.49-3.47c1-1.35.3-4.74-.49-7.18L62,100c.59,1.83,1.05,6.41.09,7.87s-3.61,2-5.59,1.83A7.63,7.63,0,0,1,51.17,107a2.06,2.06,0,0,1-.09-2.13c5-12.3-.26-16.12-.4-16.34,0,0,2.78,4.74-1.79,16A4,4,0,0,0,49.18,108.38Z"/><path class="cls-1" d="M77.44,112.08a19.29,19.29,0,0,0,11.75-3.79c.27-.2.37-.56,0-.67-2.6-1-14.63-3.81-24.36-1a.36.36,0,0,0-.26.31c-.09,1.16-.93,6.22-8.44,6.12a11.71,11.71,0,0,1-8.33-4.59,4.5,4.5,0,0,1-.73-2.12,11,11,0,0,0-1.71-.38s-12.59-4.09-22.22,1.78c-.23.14-.16.4,0,.61,1.26,1.62,4.29,3.72,9.05,4.06a51.72,51.72,0,0,0-25,15.09.36.36,0,0,0,.21.6c2.88.33,14.78,3.71,26.86-2.1a.35.35,0,0,1,.38.58,50,50,0,0,0-17.81,36.55.35.35,0,0,0,.51.34C20.6,161.8,37.69,152.37,45,137.63c-2.11,7.62-3.28,23.13,10.35,45.3a.36.36,0,0,0,.61,0c4.63-6,15.42-27.63,8.82-48.43-.12-.37.44-.59.63-.25,3,5.22,12.22,16,28.83,24a.36.36,0,0,0,.51-.37c-.62-4-1.87-22.78-18.61-34.32-.34-.23,0-.75.38-.56,5,2.65,15.78,4.14,28.11,4.29a.36.36,0,0,0,.28-.59C101.74,121.83,84,113.61,77.44,112.08Z"/></g></g></svg>