<svg xmlns="http://www.w3.org/2000/svg" viewBox="0 0 216 95.13"><defs><style>.cls-1{fill:#fff;}</style></defs><g id="Layer_2" data-name="Layer 2"><g id="Layer_1-2" data-name="Layer 1"><path class="cls-1" d="M58.34,89.63c0-.18-.09-.38-.15-.61-.14-.62-.3-1.24-.49-1.86a13.35,13.35,0,0,1-.4-1.9A15.59,15.59,0,0,0,56.9,83c-.18-.73-.39-1.46-.61-2.19q-.55-1.86-1.14-3.66c-.4-1.2-.79-2.42-1.19-3.66s-.66-2.26-1-3.38c-.06-.24-.14-.47-.21-.71Q65,63,65,54.29,65,47,55,39.06,65.47,31.4,65.47,21.41V17.12a10.17,10.17,0,0,0-2.12-6.4.24.24,0,0,0,.18,0,6.92,6.92,0,0,0,2.25-2.19c.1-.14-.92-1.06-1.82-2.05a23.55,23.55,0,0,0-2,2.76c-2.46-2.24-6.2-3.91-11.25-5-4.8.4-7.2,1-7.2,1.93,0,.45.65.91,1.94,1.39l1-.48A3.74,3.74,0,0,0,46.92,9c-.33,0-.48.16-.48.49V21.9c0,.13,0,1.15-.09,3a4.2,4.2,0,0,0-3.25,3.69,3.81,3.81,0,0,0,3,3.8q-.33,10.85-1,32.85l-.09.08a.25.25,0,0,0-.13.15.21.21,0,0,0,0,.19,1.51,1.51,0,0,1,0,1,2.61,2.61,0,0,0-.19,1c-.14-.31-.27-.62-.38-.91a2.86,2.86,0,0,0-.51-.83,1.29,1.29,0,0,0,.08.51L44,67q.1.27.24.57a1.34,1.34,0,0,1,.08,1v0h-.82a5.78,5.78,0,0,0-2.84.91l1,1.44c.64,0,1.32,0,2,0l-.27.89c-.22.76-.48,1.51-.76,2.26s-.54,1.49-.76,2.22-.44,1.52-.64,2.26-.4,1.49-.63,2.22c-.14.46-.28.9-.4,1.34s-.26.88-.4,1.33a2.24,2.24,0,0,1-.22.4,3,3,0,0,0-.21.4,1.63,1.63,0,0,0-.06.57,1.24,1.24,0,0,1-.06.49c-.23.65-.43,1.32-.62,2s-.39,1.36-.61,2q-.09.25-.3.93c-.14.45-.28.91-.42,1.39s-.28.94-.42,1.38a8.27,8.27,0,0,0-.26.91c-.08.45.07.69.47.72a7.25,7.25,0,0,0,1.52.08l1.31-.1,1.36-.15a1.66,1.66,0,0,0,1-.38,1.48,1.48,0,0,0,.42-.62c.17-.35.33-.74.49-1.16s.29-.82.4-1.18a6.31,6.31,0,0,1,.25-.72,1.29,1.29,0,0,1,.4-.57,1.48,1.48,0,0,1,.7-.11c.74,0,1.47,0,2.2,0h2.2l.4,0,.45,0a.55.55,0,0,1,.59.42,4.61,4.61,0,0,1,.15.53q.06.28.15.57c.16.48.34.95.5,1.4s.35.9.55,1.35a.26.26,0,0,0,.17.17.58.58,0,0,1,.23-.13.54.54,0,0,0,.24-.12.49.49,0,0,1,.19.25,1.4,1.4,0,0,0,.15.3l.16.23a.29.29,0,0,0,.3.06,2.75,2.75,0,0,0,.51-.21l.59-.29a3.21,3.21,0,0,0,.3.5,1.2,1.2,0,0,1,.93-1,1.28,1.28,0,0,0,.53-.32.6.6,0,0,1,.65-.1c0-.37.27-.58.72-.64a.91.91,0,0,0,.72-.8,5.77,5.77,0,0,0,.1-.89,2.21,2.21,0,0,0-.14-.89A4.1,4.1,0,0,1,58.34,89.63ZM53.57,20V8.54c0-.52.32-.85,1-1q5.69,3.63,5.69,9.55,0,11.25-7.62,17.65A105.73,105.73,0,0,0,53.57,20ZM52.12,41.9q6,7.38,6.22,10.46c0,6.19-2.28,10.62-6.79,13.34a3.62,3.62,0,0,0-.49-.91c-.1-.14-.22-.28-.33-.42v-2q1.38-14.51,1.39-20ZM47.74,83.38a11.57,11.57,0,0,1-1.52-.07c.23-.84.45-1.65.68-2.43s.44-1.57.63-2.39h.21a22.54,22.54,0,0,1,.79,2.41c.21.79.46,1.59.74,2.41Z"/><path class="cls-1" d="M100.44,67.11a4.67,4.67,0,0,0-.59-.36h0Q115.57,54,115.58,33.14a33,33,0,0,0-3.45-15.29q0-1,5.44-7.92V8.48h-1c-1.66,0-3.79,1.65-6.41,5h-.54q-8.53-7.92-14.27-7.92h-1a61.94,61.94,0,0,0-9.36,1Q67.77,14,67.77,38.58a43.66,43.66,0,0,0,5,20.19A17.09,17.09,0,0,1,69,64.42l-2.08,0q-1.29,0-2.64-.06l-.61-.07-.66,0-.7,0-.7.07a.46.46,0,0,0-.42.59c.11.31,0,.51-.42.59s-.5.23-.55.36a.84.84,0,0,0,.13.65A5.28,5.28,0,0,1,60.62,68c.05.46.08.94.11,1.42a9.54,9.54,0,0,1,0,1.69c0,.56-.06,1.13-.06,1.69v.63c.05.71.07,1.42.06,2.14s0,1.43-.11,2.14a.43.43,0,0,1-.21.38c-.14.08-.22.17-.23.25s0,.2-.06.34a1,1,0,0,0,.46,1l-.4.53a.56.56,0,0,0-.15.32.35.35,0,0,0,.09.23,2.63,2.63,0,0,0,.25.27l-.17.09a1.35,1.35,0,0,0-.21.13,1,1,0,0,1,.51.69,6.31,6.31,0,0,1,0,.87c-.06.34-.1.69-.13,1.06s-.06.73-.08,1.1c-.06,1-.08,2.08-.05,3.11a22.33,22.33,0,0,0,.3,3.06c.06.4.11.79.17,1.17a1.74,1.74,0,0,0,.59,1,.17.17,0,0,1,0,.13,1.25,1.25,0,0,0,.28.55,3.57,3.57,0,0,0,.44.42.72.72,0,0,0,.81.09l.25-.13a2.32,2.32,0,0,1,.21.25,2.39,2.39,0,0,0,.21.26c0-.12,0-.22.07-.32a3.53,3.53,0,0,0,0-.36l.21.3a1.2,1.2,0,0,0,.17.21c0-.09.11-.18.17-.3a.71.71,0,0,0,.21.17c.2-.48.46-.56.8-.25a2.38,2.38,0,0,1,.3.38,2.27,2.27,0,0,0,.32-.53.66.66,0,0,1,.44-.4,1.87,1.87,0,0,0,.17-.26c.14-.31.25-.47.32-.48s.26.06.57.23a1.74,1.74,0,0,0,.25-.7,5.58,5.58,0,0,0,0-.7c-.05-1.07-.1-2.14-.12-3.21s0-2.14,0-3.21a4,4,0,0,1,0-1c0-.31.07-.63.1-1l.66,0a2.12,2.12,0,0,0,.57,0l1.6-.17,1.53-.17a10.37,10.37,0,0,0,2.15-.46,10.23,10.23,0,0,0,2-.93L77.27,81c.39-.25.78-.53,1.18-.84A6.33,6.33,0,0,0,79.72,79a8.43,8.43,0,0,0,.55-.78c.17-.26.34-.54.51-.82a5,5,0,0,0,.59-1.53,6.38,6.38,0,0,0,.12-1.64,13.78,13.78,0,0,0-.42-2.8,7.73,7.73,0,0,0-2.79-4.27,4.67,4.67,0,0,0-.59-.36l-.64-.31c-.39-.2-.78-.38-1.16-.55s-.77-.36-1.16-.55a10.39,10.39,0,0,0-1.4-.47l-.49-.08a20.47,20.47,0,0,0,2.3-2.58h.55a21.84,21.84,0,0,0,6.85,4.63A4.92,4.92,0,0,1,82.78,68c0,.46.08.94.11,1.42a9.54,9.54,0,0,1,0,1.69c0,.56-.06,1.13-.06,1.69v.63c.05.71.07,1.42.06,2.14s0,1.43-.11,2.14a.43.43,0,0,1-.21.38c-.14.08-.22.17-.23.25s0,.2-.06.34a1,1,0,0,0,.46,1l-.4.53a.56.56,0,0,0-.15.32.35.35,0,0,0,.09.23,2.63,2.63,0,0,0,.25.27l-.17.09a1.35,1.35,0,0,0-.21.13,1,1,0,0,1,.51.69,6.31,6.31,0,0,1,0,.87c-.06.34-.1.69-.13,1.06s-.06.73-.08,1.1c-.06,1-.08,2.08,0,3.11a22.33,22.33,0,0,0,.3,3.06c.06.4.11.79.17,1.17a1.74,1.74,0,0,0,.59,1,.17.17,0,0,1,0,.13,1.25,1.25,0,0,0,.28.55,3.57,3.57,0,0,0,.44.42.72.72,0,0,0,.81.09l.25-.13a2.32,2.32,0,0,1,.21.25,2.39,2.39,0,0,0,.21.26c0-.12,0-.22.07-.32a3.53,3.53,0,0,0,0-.36l.21.3a1.2,1.2,0,0,0,.17.21c0-.09.11-.18.17-.3a.71.71,0,0,0,.21.17c.2-.48.46-.56.8-.25a2.38,2.38,0,0,1,.3.38,2.27,2.27,0,0,0,.32-.53.66.66,0,0,1,.44-.4,1.87,1.87,0,0,0,.17-.26c.14-.31.25-.47.32-.48s.26.06.57.23a1.74,1.74,0,0,0,.25-.7,5.58,5.58,0,0,0,0-.7c0-1.07-.1-2.14-.12-3.21s0-2.14,0-3.21a4,4,0,0,1,0-1c0-.31.07-.63.1-1l.66,0a2.12,2.12,0,0,0,.57,0l1.6-.17,1.53-.17a10.37,10.37,0,0,0,2.15-.46,10.23,10.23,0,0,0,2-.93L99.43,81c.39-.25.78-.53,1.18-.84A6.33,6.33,0,0,0,101.88,79a8.43,8.43,0,0,0,.55-.78c.17-.26.34-.54.51-.82a5,5,0,0,0,.59-1.53,6.38,6.38,0,0,0,.12-1.64,13.78,13.78,0,0,0-.42-2.8A7.73,7.73,0,0,0,100.44,67.11Zm-26.9,5.71a2,2,0,0,1,.55.49,1.74,1.74,0,0,1,.3.74,3.14,3.14,0,0,1,0,1.52.82.82,0,0,1-.51.72,5.15,5.15,0,0,1-.7.36c-.24.1-.48.22-.74.36a1.82,1.82,0,0,1-.91.27,7.46,7.46,0,0,0-.95.11,1.54,1.54,0,0,1-.49,0l-.52,0H68.34c-.34,0-.48-.16-.42-.47v0a9,9,0,0,0,.06-2.2,16.13,16.13,0,0,1-.06-2.2c0-.5,0-.8.15-.88a1.94,1.94,0,0,1,.91-.17c.47,0,.93,0,1.37,0a7.82,7.82,0,0,1,1.33.21,2.87,2.87,0,0,1,.51.23l.55.32a2.86,2.86,0,0,1,.4.28C73.27,72.6,73.4,72.71,73.54,72.82ZM80.1,49.4a83,83,0,0,1-1.51-13.3v-1Q78.59,13.38,92,9q9.54,0,15.29,8.89L80.58,49.4Zm28.59-28.11c1.33,0,2.15,3,2.48,8.89v5.44a21.52,21.52,0,0,1-.49,5.38Q106,64.21,93.88,64.21H92.43q-6.89,0-10.34-10.4Q104.64,28.55,108.69,21.29ZM96.51,75.57a.82.82,0,0,1-.51.72,5.15,5.15,0,0,1-.7.36c-.24.1-.48.22-.74.36a1.82,1.82,0,0,1-.91.27,7.46,7.46,0,0,0-1,.11,1.54,1.54,0,0,1-.49,0l-.53,0H90.5c-.34,0-.48-.16-.42-.47v0a9,9,0,0,0,.06-2.2,16.13,16.13,0,0,1-.06-2.2c0-.5,0-.8.15-.88a1.94,1.94,0,0,1,.91-.17c.47,0,.93,0,1.37,0a7.82,7.82,0,0,1,1.33.21,2.87,2.87,0,0,1,.51.23l.55.32a2.86,2.86,0,0,1,.4.28c.13.09.26.2.4.31a2,2,0,0,1,.55.49,1.74,1.74,0,0,1,.3.74A3.14,3.14,0,0,1,96.51,75.57Z"/><path class="cls-1" d="M158,76.92c0-.36-.05-.72-.07-1.07s0-.7-.06-1c-.06-.56-.11-1.11-.17-1.63s-.11-1-.17-1.54c-.05-.85-.07-1.69-.06-2.54a20.56,20.56,0,0,1,.19-2.5,1.61,1.61,0,0,0-.84-1.6,2.13,2.13,0,0,0-1-.42c-.34-.06-.69-.1-1.05-.13s-.95-.08-1.41-.15a3.25,3.25,0,0,0-1.41.11c-.28.08-.57.15-.86.21s-.6.12-.91.21a.94.94,0,0,0-.46.23c-.63-9.16-1-14.45-1-15.84q1.94-33.79,1.94-38.14a24.76,24.76,0,0,0,3.92-.49V9.14l-2.47-.48h-5.38a6.87,6.87,0,0,0-4.35,1.45c.48,1,1,1.45,1.45,1.45h2.9Q144.83,36,144.83,42.39V49.7h-.48q-1.93-7.92-3.93-13.66-5.5-21.21-9.25-25.45h-4.41l-2.42-.48c-2.29.77-3.44,1.43-3.44,2v.48q.54,1.94,4.41,1.93-1,0-1.51,20.49,1,21.53,1,26.42l.48,3.38-.55.16-.51,0-2-.15a9.1,9.1,0,0,0-1.88,0,4.19,4.19,0,0,1-1.88-.23c-.06,0-.09,0-.11,0s0,0-.1,0c-.57,0-1.12,0-1.68-.07a10.25,10.25,0,0,0-1.66,0l-.45.07-.49,0c-1,0-2,0-3,0h-3c-.4,0-.78,0-1.15,0s-.74,0-1.14,0a1.58,1.58,0,0,0-.8.21,1.41,1.41,0,0,0-.34.76,1.15,1.15,0,0,0,0,.41,1.38,1.38,0,0,1,0,.4v.36a2.81,2.81,0,0,1,0,.36c-.06.48-.09,1-.11,1.42a3.11,3.11,0,0,0,.32,1.42.56.56,0,0,1,0,.21.49.49,0,0,0,.08.25,1.41,1.41,0,0,1,.11.47.93.93,0,0,0,.15.46,1.16,1.16,0,0,1,.21.94c0,.42-.06.83-.08,1.23s-.08.79-.13,1.18c0,.17-.07.35-.11.55a5.66,5.66,0,0,1-.15.59,4.31,4.31,0,0,0-.08.68v1.23a12,12,0,0,0,.08,1.31c0,.31,0,.61,0,.89a1.63,1.63,0,0,0,.25.85.33.33,0,0,1,.06.27c0,.1,0,.21,0,.32,0,.79,0,1.58,0,2.35s0,1.56,0,2.35c0,.62,0,1.24,0,1.85a9.25,9.25,0,0,0,.29,1.84.6.6,0,0,1,.07.34,2.24,2.24,0,0,0,0,.38c0,.54,0,1.08,0,1.63v2c0,.1.07.17.21.23a6.09,6.09,0,0,0,1.1.4,2.44,2.44,0,0,0,1.14,0,.65.65,0,0,1,.38.08,1.15,1.15,0,0,0,.59.23.54.54,0,0,0,.51-.31,1.23,1.23,0,0,1,.36.19c.1.07.18.07.23,0a.74.74,0,0,1,.55-.19,1.76,1.76,0,0,0,.6-.07.48.48,0,0,1,.1.15.55.55,0,0,0,.11.15,2.35,2.35,0,0,0,.65-.34.9.9,0,0,0,.32-.68s.05-.1.15-.14l.23-.11a.78.78,0,0,1,.34,0,2.27,2.27,0,0,1,.3.06l2.15.17c.71.06,1.43.1,2.16.13s1.18,0,1.78,0,1.19,0,1.81-.11a.69.69,0,0,0,.47-.25.72.72,0,0,0,.23-.66,1,1,0,0,1,.15-.69s0-.09-.08-.17-.12-.16-.09-.21c.06-.31.11-.62.17-.91s.11-.6.17-.91a1.37,1.37,0,0,1,0-.19.2.2,0,0,0-.06-.19.72.72,0,0,1-.19-.64,3.49,3.49,0,0,1,.23-.72c-.28-.05-.37-.16-.28-.34a.63.63,0,0,0,.11-.46,3,3,0,0,0-.42-.06l-.38-.07c-.06-.19-.1-.36-.13-.5l-1,.14a6.16,6.16,0,0,1-1,.07l-2.6-.07c-.86,0-1.73,0-2.6-.1l-.63,0-.64-.07c-.34,0-.51-.18-.51-.55,0-.67-.07-1.35-.06-2s0-1.34.11-2v-.09l0,0h2c.65,0,1.3,0,2,.06s1.32,0,2,0,.9-.32.85-1a1.27,1.27,0,0,1,.08-.42l.09-.21a.43.43,0,0,1-.13-.38,2.45,2.45,0,0,1,.13-.38.94.94,0,0,0,.08-.36,3.15,3.15,0,0,1,0-.41,2.45,2.45,0,0,0,.36-.08l.36-.13-.31-.13a1.07,1.07,0,0,1-.24-.12,3.36,3.36,0,0,0,.09-.59,1.16,1.16,0,0,1,.69,0,1,1,0,0,0,.75-.12l-.51-.17a1.6,1.6,0,0,0-.43-.11,3,3,0,0,1-.42-.06c-.28-.06-.38-.21-.29-.47a.44.44,0,0,1,.48,0,.36.36,0,0,0,.49-.17l-.72-.17a3.75,3.75,0,0,1,1.06-.08l.48.08a.92.92,0,0,0,.49,0v-.17l-1-.15-1-.14c0-.26.1-.38.3-.37a.7.7,0,0,0,.55-.19,1.92,1.92,0,0,0-.34-.1l-.25,0c-.77-.06-1.53-.13-2.29-.23a7.27,7.27,0,0,0-2.28.06,3.3,3.3,0,0,1-1.5-.09,4.55,4.55,0,0,0-1.51-.16c-.19,0-.32-.15-.38-.43a12.57,12.57,0,0,1,0-1.63,8.15,8.15,0,0,1,.27-1.54.38.38,0,0,1,.3,0c.53,0,1.07,0,1.6,0s1.08,0,1.61.08a10.2,10.2,0,0,0,1.35.09,6.89,6.89,0,0,0,1.36-.13l1.05-.06,1,0c.31,0,.62,0,.93,0s.62,0,.93,0a1.11,1.11,0,0,0,.64-.08.92.92,0,0,0,.33-.56,3.8,3.8,0,0,0,.15-.51,1,1,0,0,0,0-.46c0-.23,0-.38.13-.45a2.69,2.69,0,0,1,.38-.19l-.09-.13c-.25-.14-.32-.3-.2-.47a.58.58,0,0,1,.15-.16c1,0,2-.06,2.83-.12,0,.29,0,.58,0,.87a1.92,1.92,0,0,0,.4,1.25.92.92,0,0,1,.08.38c0,.34.24.53.64.59h.35a2,2,0,0,1,.41,0l2.05.07,2.09.06c.34,0,.54,0,.59.11a1.32,1.32,0,0,1,.09.65c0,.9,0,1.78,0,2.64a20.52,20.52,0,0,0,0,2.6c.05,1.19.07,2.34,0,3.45s0,2.27,0,3.45v.82a3.48,3.48,0,0,1-.09.79c-.05.56-.1,1.13-.14,1.71a4.51,4.51,0,0,0,.19,1.71.58.58,0,0,1,0,.19v.19c.05.57.1,1.11.15,1.63s.07,1.07.1,1.63a.72.72,0,0,0,.51.63.76.76,0,0,0,.27,0,1.22,1.22,0,0,1,.32,0l.8.17.85.17a1.42,1.42,0,0,1,.3,0,.75.75,0,0,0,.29,0l.43,0a3,3,0,0,1,.42,0,6.83,6.83,0,0,1,1-.08,5.89,5.89,0,0,0,1-.08,1.41,1.41,0,0,0,.77-.34,1.75,1.75,0,0,0,.38-.72A3.93,3.93,0,0,0,141,92c-.06-.39-.11-.79-.17-1.18s-.06-1-.11-1.44-.06-1-.06-1.44c0-.76.07-1.51.13-2.26s.08-1.52.08-2.31c0-1,0-1.91,0-2.85s0-1.9-.06-2.86c0-.31,0-.62,0-.93s0-.63,0-1V74c0-.32,0-.64-.06-1s0-.7-.11-1.1L142,72c.43,0,.83.06,1.23.06a12.83,12.83,0,0,0,2.05-.08,9.73,9.73,0,0,1,2.09,0c.09,0,.15,0,.17,0a1.15,1.15,0,0,1,.17-.06.19.19,0,0,0,.13-.1,1.79,1.79,0,0,1,.36-.61,1.09,1.09,0,0,0,.23-.7V69.37a3.14,3.14,0,0,0,.11-.53,1,1,0,0,0-.15-.52.55.55,0,0,1-.09-.38,4,4,0,0,1-.1-.73,4,4,0,0,0-.11-.74,1.57,1.57,0,0,0-.11-.35,6.65,6.65,0,0,0,1.65-.76c0,.06,0,.12,0,.19a4.74,4.74,0,0,0,0,.63v.64c0,.65-.06,1.27-.08,1.88a12.6,12.6,0,0,0,0,1.84c.13,1.27.27,2.5.41,3.7a21.54,21.54,0,0,1,.14,3.7q0,1,0,1.92c0,.64,0,1.28,0,1.93,0,.82-.05,1.63-.09,2.45s-.08,1.64-.12,2.45c0,.4,0,.79,0,1.17s0,.77-.07,1.16-.05,1-.08,1.46l-.09,1.46v.8a2.17,2.17,0,0,0,.19.66.84.84,0,0,0,.45.44,9,9,0,0,0,.88.32,2.45,2.45,0,0,0,.92.11,5.07,5.07,0,0,1,1.1,0,7.1,7.1,0,0,0,1.13,0c.54,0,1.1,0,1.69,0a1.51,1.51,0,0,0,1.32-.36,1.49,1.49,0,0,0,.53-1.29V90.08c0-.79,0-1.58,0-2.37l.09-2.37c0-.34,0-.67,0-1s0-.66,0-1,0-.94,0-1.39,0-.9,0-1.36c0-.62,0-1.24,0-1.86S158,77.52,158,76.92ZM144.55,64.83c-.9-.06-1.79-.09-2.66-.11l-2.66-.06-1.44,0c-.54-.06-1.07-.1-1.59-.13l-1.63-.08a2.73,2.73,0,0,0-.7,0c-.24,0-.48,0-.74,0l-1.58,0-.81,0-.53-.06q-1-10.45-1-13.66,0-11.91,1-34.21h.48l4.84,16.14q6.9,26.94,9.94,32.33C145.16,64.9,144.88,64.85,144.55,64.83Z"/><path class="cls-1" d="M179.87,72a.2.2,0,0,0,.16,0l.17-.06a.19.19,0,0,0,.13-.1,1.79,1.79,0,0,1,.36-.61,1.09,1.09,0,0,0,.23-.7V69.37a2.39,2.39,0,0,0,.11-.53,1,1,0,0,0-.15-.52c-.06-.06-.08-.18-.08-.38a4,4,0,0,1-.11-.73,4,4,0,0,0-.1-.74,1.9,1.9,0,0,0-.45-.88,1.38,1.38,0,0,0-.82-.51c-.71-.11-1.46-.2-2.25-.25l-1.11,0q2.11-3.65,2.12-10c0-1.29,0-2.74-.09-4.31.34-.08.92-.72.85-.88a2.53,2.53,0,0,0-.93-1.18q-.24-5.14-.8-12c1.53,0,2.46-.44,2.78-1.33v-.9l-2.3-.49h-4.11q-5.5,0-5.5,1.82c.24.92,1.15,1.39,2.72,1.39h2.78v6.4q0,8.17-4.47,21.16l-.29,0-.7,0Q163,58.81,163,36v-6a45.06,45.06,0,0,1,4.11-19.22h1.32c1.54,4.27,2.62,6.4,3.27,6.4h2.24l1.87-1.39q-.79-8.22-6.41-8.22H164.3Q153.77,13.49,153.78,37a80.37,80.37,0,0,0,.48,8.7c1.18,9.46,3.22,16.07,6.13,19.9l-.06,0a1.36,1.36,0,0,0-.17.25c-.14.31-.28.62-.4.91s-.27.6-.41.91a1.71,1.71,0,0,0-.08.47c0,.45-.05.89-.06,1.33a2,2,0,0,0,.4,1.25.92.92,0,0,1,.08.38c0,.34.24.53.64.59h.35a2,2,0,0,1,.41,0l2,.07,2.09.06c.34,0,.54,0,.59.11a1.32,1.32,0,0,1,.09.65c0,.9,0,1.78,0,2.64a20.52,20.52,0,0,0,0,2.6c.05,1.19.07,2.34,0,3.45s0,2.27,0,3.45v.82a3.48,3.48,0,0,1-.09.79c0,.56-.1,1.13-.14,1.71a4.51,4.51,0,0,0,.19,1.71.58.58,0,0,1,0,.19v.19c.05.57.11,1.11.15,1.63s.07,1.07.1,1.63a.72.72,0,0,0,.51.63.82.82,0,0,0,.28,0,1.2,1.2,0,0,1,.31,0l.8.17.85.17a1.42,1.42,0,0,1,.3,0,.75.75,0,0,0,.29,0l.43,0a3,3,0,0,1,.42,0,6.83,6.83,0,0,1,1-.08,6.12,6.12,0,0,0,1-.08,1.41,1.41,0,0,0,.76-.34,1.75,1.75,0,0,0,.38-.72,3.93,3.93,0,0,0,0-1.23c-.06-.39-.11-.79-.17-1.18s-.06-1-.1-1.44a13.88,13.88,0,0,1-.07-1.44c0-.76.07-1.51.13-2.26s.08-1.52.08-2.31c0-1,0-1.91,0-2.85s0-1.9-.06-2.86c0-.31,0-.62,0-.93s0-.63,0-1V74c0-.32-.05-.64-.06-1s-.05-.7-.11-1.1l1.35.15q.64.06,1.23.06a12.83,12.83,0,0,0,2.05-.08A9.81,9.81,0,0,1,179.87,72Z"/><path class="cls-1" d="M3.34,42.82A3.32,3.32,0,0,0,0,45.9c0,1.75,1.39,3.22,4.07,3.2.58-.69,2.16-1.74,2.37-3C6.73,44.31,5.23,43,3.34,42.82Z"/><path class="cls-1" d="M19,54c-1.05,2.1-2.2,3.36-2.09,4.5.09.87,1.66,2.1,2.72,2.26A2.23,2.23,0,0,0,22.23,58C21.93,56.78,20.55,55.86,19,54Z"/><path class="cls-1" d="M16.42,77.83c-.1.46,1.19,1.73,1.77,1.69.87-.08,1.68-1,3.2-2-1.54-1-2.49-2.16-3.18-2S16.62,76.93,16.42,77.83Z"/><path class="cls-1" d="M14.67,24.52c-1.34-.56-2.26-1.33-2.92-1.14s-1.16,1.29-1.72,2c.75.46,1.56,1.35,2.25,1.27S13.59,25.54,14.67,24.52Z"/><path class="cls-1" d="M30.18,72.73c.22.8.86,1.86,1.53,2s1.41-.82,2.61-1.61c-1.13-.84-1.77-1.66-2.5-1.74C31.3,71.35,30.1,72.43,30.18,72.73Z"/><path class="cls-1" d="M34.89,13.55a12.43,12.43,0,0,0,1.65-.64l-3-2.46A31.94,31.94,0,0,0,34.89,13.55Z"/><path class="cls-1" d="M12.06,34.89c.51.33,1,.92,1.51.9s.87-.7,1.68-1.43c-1-.43-1.64-.94-2.09-.81S12.42,34.42,12.06,34.89Z"/><path class="cls-1" d="M32.71,40.18c-.07.16.61.91.92.9a7.22,7.22,0,0,0,2.11-.95c-1-.66-1.5-1.28-1.92-1.22S32.92,39.66,32.71,40.18Z"/><path class="cls-1" d="M51.21,1.38a4.58,4.58,0,0,0,1.25-.17L53,.46,51.65,0a.91.91,0,0,0-.7.54C50.87.79,51.08,1.36,51.21,1.38Z"/><path class="cls-1" d="M212.44,53.77a3.76,3.76,0,0,0-4.12,4,3.64,3.64,0,0,0,3.58,4c2.57,0,4.06-1.09,4.1-3.21S215,53.89,212.44,53.77Z"/><path class="cls-1" d="M192.35,52.3c-1.9.22-3.39,1.49-3.1,3.27.2,1.27,1.79,2.32,2.37,3,2.67,0,4.12-1.44,4.06-3.19A3.31,3.31,0,0,0,192.35,52.3Z"/><path class="cls-1" d="M192,70.25c1.05-.16,2.63-1.4,2.72-2.27.1-1.13-1-2.39-2.09-4.49-1.6,1.85-3,2.77-3.28,4A2.24,2.24,0,0,0,192,70.25Z"/><path class="cls-1" d="M193.34,85c-.69-.15-1.65,1-3.18,2,1.52,1,2.32,1.92,3.2,2,.58,0,1.86-1.24,1.77-1.69C194.93,86.4,194.11,85.15,193.34,85Z"/><path class="cls-1" d="M189,25.63c-.66-.19-1.58.57-2.92,1.14,1.08,1,1.68,2,2.39,2.11s1.5-.8,2.26-1.26C190.16,26.92,189.7,25.83,189,25.63Z"/><path class="cls-1" d="M179.73,80.89c-.73.09-1.37.91-2.5,1.75,1.19.78,2,1.75,2.61,1.6s1.31-1.23,1.52-2C181.44,81.9,180.25,80.83,179.73,80.89Z"/><path class="cls-1" d="M189.43,10.45c.54-1,.95-2,1.4-3.1l-3.05,2.46A11.1,11.1,0,0,0,189.43,10.45Z"/><path class="cls-1" d="M198.39,43c-.45-.12-1.07.38-2.09.82.81.73,1.23,1.41,1.68,1.43s1-.58,1.5-.9C199.13,43.89,198.84,43.15,198.39,43Z"/></g></g></svg>