<svg xmlns="http://www.w3.org/2000/svg" viewBox="0 0 123.84 144"><defs><style>.cls-1{fill:#fff;}</style></defs><g id="Layer_2" data-name="Layer 2"><g id="Layer_1-2" data-name="Layer 1"><path class="cls-1" d="M34.86,113.88c6.8,6.74,14.62-6.37,14.62-6.37C36.49,105.62,34.86,113.88,34.86,113.88Z"/><path class="cls-1" d="M47.83,75.16c-4.56-12.32-12.59-9.8-12.59-9.8C32.58,74.57,47.83,75.16,47.83,75.16Z"/><path class="cls-1" d="M27,89.55c3.24,9,16,.55,16,.55C32,82.8,27,89.55,27,89.55Z"/><path class="cls-1" d="M66.18,39.27a51.5,51.5,0,0,0-.37-7.53c7.87-1.39,29.3-7.4,28.83-31.73,0,0-25.81-1.18-30.84,23.27a25.55,25.55,0,0,0-5.46-9c-5.4-5.6-13.07-7.86-22.78-6.72l1.19,10.22c6.43-.76,11.06.44,14.16,3.63,4.12,4.25,5,11.69,5,17-9.09-4.3-27.37-9.4-45.23,6.83C-14.43,68,9.51,133.38,33.46,141.34a39,39,0,0,0,28.32-1.77S77.55,146.49,86,143s32.7-15.82,37.67-62.83C126.82,30.12,82.18,32.56,66.18,39.27Zm-31.62,90c-10.91-3.87-23.38-25.59-23.38-51.16,0-46,43.41-28.11,49.67-23.66L63,127.42S43.67,132.54,34.56,129.31Z"/></g></g></svg>