<svg xmlns="http://www.w3.org/2000/svg" viewBox="0 0 106.61 180"><defs><style>.cls-1{fill:#fff;}</style></defs><g id="Layer_2" data-name="Layer 2"><g id="Layer_1-2" data-name="Layer 1"><path class="cls-1" d="M78.19,115.56c-1.61-1.45-7.61,1-6,2.47,17.25,15.48,25.85,37.6,22.08,60.64-.38,2.36,6.06,1.26,6.4-.84C104.57,154.23,95.89,131.45,78.19,115.56Z"/><path class="cls-1" d="M105.7,52.48c2.66-14.1-.54-30.73-9.29-41C90.06,4,79.09.07,69.36,0,56.93-.09,47,6.42,42.94,18.27c-.61,1.74,5.71.95,6.37-1,3.81-11,12.11-16,23.41-13.4,12.19,2.75,20.6,10.8,24.34,22.69.47,1.52.87,3,1.23,4.57-7.46-6-17.68-6-26.1-1.45-3.78,2.05,1.89,3,4,1.85,9.21-5,19,2.18,22.58,10.61a14.52,14.52,0,0,1,1.1,4.51A44.31,44.31,0,0,1,89,74.2,108.48,108.48,0,0,1,78.47,84.63c3.3-4.17,6.65-8.42,8.11-13.58,3.39-12-5.83-19.21-17-18.88-2.35.07-6.8,3.71-2.5,3.58,14.41-.43,16.23,12.94,9.73,23a138.85,138.85,0,0,1-18.3,23,1.24,1.24,0,0,0-.3-1.22c-3.75-4.4-8.82-6.19-14.33-7.46a97.6,97.6,0,0,1-11.56-3.2c-3.3-2-6.26-4.55-5.6-8.91.79-5.19,5.57-9.29,10.57-10.17,2.74-.48,5.55-3.6,1.07-2.82-6.11,1.07-12.43,3.81-16,9.16a11.19,11.19,0,0,0-2,5.77,42,42,0,0,1-7.56-8.41c0-11.72,5.09-21.84,16.58-26.07,4.12-1.51.48-4.9-2.81-3.69A29.82,29.82,0,0,0,7.91,64.39,33.53,33.53,0,0,1,6.53,50.91,35.61,35.61,0,0,1,14.42,32a29.26,29.26,0,0,1,7-6.11c3-1.88,1.83-1.38,4-1.77,8-1.47,18,.39,19.92,9.5.54,2.59,7,1,6.41-1.72C49.46,21,37.83,19,28.3,19.78c-10.66.83-19.47,9-24.17,18.3-7,13.78-4.92,29.85,4.73,41.8A46.24,46.24,0,0,0,26.57,93.17c8.23,3.53,19.6,2.83,25.74,10a2.68,2.68,0,0,0,2.25.69,52.7,52.7,0,0,1-7.85,1.57,5.29,5.29,0,0,0-1,.28c-1.63-.34-4.32.37-4.91,1.64A37.38,37.38,0,0,1,26,124c-.56.35-1.44,1.14-1.18,1.92,1,3,.5,6.29,1.48,9.25.36,1.08,1.89,1.11,2.8,1a100.11,100.11,0,0,0,23.67-4.8c4.74,15.79-4,30-12.57,42.73-1.5,2.24,4.86,1.53,5.92-.06,8.91-13.29,18.17-28.34,12.92-44.88h0c4-1.52,7.77-3.38,10.79-6.36,2.7-2.66-3.56-2.82-5.19-1.22-3.94,3.88-10.38,5.65-15.54,7.24a88.34,88.34,0,0,1-16.71,3.34c-.47-2.3-.36-4.74-.89-7a42,42,0,0,0,15.25-17.54l0-.05c4.32-.82,8.49-2.28,12.76-3.32a7.13,7.13,0,0,0,3.09-.66c.95-.17,1.91-.31,2.87-.41a40,40,0,0,1,13,.73,22.85,22.85,0,0,1,3.7,1.12q6.08,1.47-5.06,3.66c-2.43.19-5.1-.68-7.37-1.43-1.44-.47-7.11,1.87-5.27,2.48a29.5,29.5,0,0,0,16.42.64c3-.71,9.47-2.1,10.14-5.67a.37.37,0,0,0-.14-.52c-5.22-4-14.3-4.11-20.58-3.72a38.26,38.26,0,0,0-5.14.69l.77-.84c12.2-11.36,27.68-21,35.64-35.85a39.31,39.31,0,0,0,3.11-7.88,1.6,1.6,0,0,0,.35-.65C105.32,54.78,105.53,53.62,105.7,52.48ZM57.51,102.93c0,.07-.07.14-.09.2l-.47.13A4.34,4.34,0,0,0,57.51,102.93Z"/></g></g></svg>