<svg xmlns="http://www.w3.org/2000/svg" viewBox="0 0 144 78.29"><defs><style>.cls-1{fill:#fff;}</style></defs><g id="Layer_2" data-name="Layer 2"><g id="Layer_1-2" data-name="Layer 1"><path class="cls-1" d="M142.65,63.07c.29-2.34.29-8.34-1-10.39s-.74-7.17-1.47-9.07-2-2.63-2.63-4.39-3.07-10.68-4.68-12c0,0,8.48-8.19,10.24-12.58s.58-6.29-.29-6.44-3.07,4.68-6,8.2-10.24,8-10.24,8l-9.81-.58c-2.19-.15-5.12-2.05-5.12-2.05s2.93-1.9,3.08-4.68a18.68,18.68,0,0,1,.87-4.83s2.34,7.17,3.37,6.14,1.61-10.38,1.9-12.29-3.36-3.51-5.27-3.95a35.73,35.73,0,0,0-5.7-.43A23.72,23.72,0,0,0,102.27,0a15.36,15.36,0,0,0-7,1.46s-.44-1.61-3.52-.29S84.27,4.25,83.1,6s2.2,6.58,3.51,8.63S89.1,17.13,89.83,16A12.31,12.31,0,0,0,91,13.18s-.14,5,1.47,7A22,22,0,0,1,95,24.15a18.24,18.24,0,0,0-2.78,7.46C91.59,36,90.71,36.29,91,40.1s.59,4.83.44,7.9A26,26,0,0,0,92,55.9c.58,2.05.58,9.36,0,12.29s-3.22,2.63-4.25,5.27,1.32,2.92,1.32,2.92A10.28,10.28,0,0,0,92,77a8.9,8.9,0,0,0,4.53-.88c1.61-.88,2-4,2-4s0-10.53.73-12.87.73-9.81.73-9.81S101.83,53,104.76,53h8.34s1.9,3.81,1,6.59l.15,9.51s0,3.36-1.17,4.68a2.51,2.51,0,0,0,.87,4,5.35,5.35,0,0,0,3.37-.15s0,.74,1.61.74,1.9-.88,1.9-.88,2.34-.15,2.34-1.9-1.75-2.2-1.17-6,1.32-11.12,1.9-13.76a18.42,18.42,0,0,0,.15-5.7,15.09,15.09,0,0,0,4.24-1.9A4.61,4.61,0,0,1,130.36,47s2,4,4.1,5.26,1.9,3.08,2.34,5.12,1.17,6.73.88,8.2-1.91,2.92-2.05,5,2.63,2.34,2.63,2.34a2.46,2.46,0,0,0,2.34-.14s2.2-.88,2.49-2.78S142.36,65.41,142.65,63.07Z"/><path class="cls-1" d="M24.67,52a28.34,28.34,0,0,0-4.69-6c-.61-.63-1.87-1.75-3.78-3.34a27.41,27.41,0,0,1-3.65-3.47q-3.21-3.87-3.21-7.6a7.77,7.77,0,0,1,.95-4,3.76,3.76,0,0,1,3.43-2A4,4,0,0,1,17,27a9.46,9.46,0,0,1,1.91,5.21l7.86-1.43a15.66,15.66,0,0,0-1.8-6.3A11.3,11.3,0,0,0,21,20.22a13.84,13.84,0,0,0-7.51-2,12.42,12.42,0,0,0-7.65,2.31c-3.33,2.54-5,6.3-5,11.25a16.47,16.47,0,0,0,1.82,7.65,31.26,31.26,0,0,0,5.78,7.09l7.29,6.91q3.09,3.35,3.09,6.73A6.58,6.58,0,0,1,18,63.81a5.09,5.09,0,0,1-4.3,2.65,4.17,4.17,0,0,1-3.38-1.53Q8.33,62.8,7.82,58L0,58.6a21.31,21.31,0,0,0,1.8,7.71A13.44,13.44,0,0,0,6,71.63,12.94,12.94,0,0,0,14,74a15.54,15.54,0,0,0,4.56-.61,10.57,10.57,0,0,0,5.65-3.87,15.31,15.31,0,0,0,2.95-9.72,14.93,14.93,0,0,0-1.21-5.21A24,24,0,0,0,24.67,52Z"/><path class="cls-1" d="M43.84,19H30.9V73.37h8.21V52.87h4.73a12.29,12.29,0,0,0,9.1-3.82,12.68,12.68,0,0,0,3.75-9.21v-7.9a13.13,13.13,0,0,0-3.3-9.21A12.51,12.51,0,0,0,43.84,19ZM48.75,40a4.61,4.61,0,0,1-1.37,3.34,4.47,4.47,0,0,1-3.32,1.39h-5V27.34h5a4.57,4.57,0,0,1,3.41,1.3,4.7,4.7,0,0,1,1.28,3.43Z"/><path class="cls-1" d="M72.31,18.35a13,13,0,0,0-13,13v29.7a13,13,0,0,0,22.19,9.2,12.43,12.43,0,0,0,3.82-9.2v-7.6H76.78V61a4.47,4.47,0,0,1-1.39,3.32,4.59,4.59,0,0,1-3.34,1.37A4.68,4.68,0,0,1,67.36,61V31.2a4.59,4.59,0,0,1,1.37-3.34,4.47,4.47,0,0,1,3.32-1.39,4.75,4.75,0,0,1,4.73,4.73v6.39h8.51V31.38a12.63,12.63,0,0,0-3.78-9.21A12.42,12.42,0,0,0,72.31,18.35Z"/></g></g></svg>