<svg xmlns="http://www.w3.org/2000/svg" viewBox="0 0 192 117.7"><defs><style>.cls-1{fill:#fff;}</style></defs><g id="Layer_2" data-name="Layer 2"><g id="Layer_1-2" data-name="Layer 1"><path class="cls-1" d="M32.7,85.8s0,0,0,0l-.17-.09-.12-.06c-.07,0-.11-.09-.17-.12a3.71,3.71,0,0,0-.39-.14,5.25,5.25,0,0,0-.63-.22,6.21,6.21,0,0,0-.65-.23c-.08-.07-.13-.17-.21-.25l-.05-.09h0c-.27-.27-.49-.59-.74-.87l-.05-.1-.05,0-.22-.26,0-.09-.05,0-.22-.26,0-.11-.05,0,0,0v-.11l0,0,0,0v0a.46.46,0,0,1-.07-.07l-.13-.27h0v0l0,0c-.1-.14-.24-.25-.34-.4a5.3,5.3,0,0,0-.5-.67h0L27.55,81h-.06l0,0,.07.18c-.05,0-.11,0-.16-.09h0l-.09-.09,0-.13,0-.06-.07,0,0,0v0l0,0h0v-.11l0,0H27l-.17.16a4.28,4.28,0,0,0-.51-.15l0,0v-.06l-.06,0-.27.07-.19,0v0l0,0h-.14l-.11,0c-.25,0-.56,0-.84,0l.17,0,0-.07-.07,0-.3.09v0l0-.06h-.06l-.09.07v-.11l0,0h-.06l-.31.27a10.11,10.11,0,0,0-2.35.38l.06-.06v-.09h-.08L21.4,81v0l0,0-.05,0-.05.07h0l0,0,0,0v.08a6.34,6.34,0,0,0-1.17.57H20v0a3.78,3.78,0,0,0-.4.22h-.07l-.08-.08-.06,0,0,.06.12.15h0a4.07,4.07,0,0,0-.55.69l0-.18-.07,0,0,.07,0,.14h0l0,.06v.07l0,.06h0l-.37.35v0l0,0v.06s0,0,0,0v0l0,0-.06,0,0,0,0,.11v0a2.19,2.19,0,0,1-.35.68,2.77,2.77,0,0,1-.48.34s0,0,0,.05h0l-.08,0,0,.11-.05,0v0l-.05-.06-.06,0L17,85l0-.19,0,0-.05,0,0,.36-.2.22-.06-.08-.15,0v0l0,0h.08l.05.08,0,0,0,0-.06,0-.05.06,0,0a3,3,0,0,0-.24.26l0,0,0,0v0a5.52,5.52,0,0,0-.28.54l0-.1-.06,0,0,0,.06.2L15.7,87,15.64,87h0l0,0v.26h0c-.08.2-.18.38-.26.58h0v-.06l.06,0,0-.07,0-.08-.09,0,0,0-.06,0,0,.06,0,.11-.16,0-.12.13v0l-.09,0a.46.46,0,0,0-.25.08l0,0-.37.12a5.48,5.48,0,0,1-1.39.3h-.19l-.05,0,0,0,.36.08a.81.81,0,0,1,.35.12l-.31,0,0,0h0l-.64.11a2.61,2.61,0,0,0-.56,0c-.09,0-.16.1-.25.14l-.42.07,0,0,0,0,.21,0h0l-1.8.8v0l0,0,.59-.27a1.35,1.35,0,0,1-.42.2c-.12.33-.48.41-.8.46-.48.07-.95.43-1.43.42l-.73-.14-.05,0,0,0,.39.1a2.06,2.06,0,0,0-.26,0,.43.43,0,0,1,.17.28l-1,.13,0,0,0,0,.51,0a6.44,6.44,0,0,0-1.75.79s0,0,0,0h0l0,0a1.74,1.74,0,0,1,.11.18H4.62l0,0,0,0h.23l0,0-.7.27,0,.06,0,0H4.6a2.88,2.88,0,0,0-.72.32l-.46,0,0,0,0,0,.14,0c-.05,0-.1,0-.14.06s.08,0,.11.06l-.12,0,0,.06.06,0,.25,0a.7.7,0,0,0,.17.09s0,0,0,0l0,0,0,0h0l-.86.34,0,.05h0L2,95.25v0H2s0,.11-.06.15h0l-.38.76v0h.05l.25-.5a2.2,2.2,0,0,0-.2.54,2.46,2.46,0,0,1-.09.77s0,0-.05.07l-.09-.23.18-.45v0h0l-.21.49.11.29a3,3,0,0,1-.26.34h0l0,.1,0,0a2.85,2.85,0,0,0-.69,2.11.36.36,0,0,1,.32,0l-.3.6v.06l0,0,.26-.52c0,.46,0,.93,0,1.39a.72.72,0,0,1,.42-.28s0,.06,0,.09l-.08,1.1,0,0,0,0,.06-.89c.05.2.1.4.16.6,0,0,.06,0,.1,0l0,.43,0,0,0,0-.05-.45a.84.84,0,0,0,.19-.07,1.48,1.48,0,0,1,.13.83l.09-.1,0,.36,0,0,0,0,0-.44.22-.27,0,.87,0,0,0,0,.14-.39c0,.09,0,.18.05.27a6.54,6.54,0,0,0,.26.86l-.15.52,0,0,.05,0,.11-.4a.93.93,0,0,0,0,.13l0,.16,0,0,0,.1-.06.23,0,.05.05,0,0-.12c0,.08,0,.17.07.25v0l0,0h0l0,0,.05.23,0,.23,0,0,.05,0v0l.06.26,0,0,0,0-.1-.44V105a3.21,3.21,0,0,0,.21.3l.08.53,0,.36,0,0,0,0v-.41l.26.26,0,.13v.2l0,0,0,0v0l.41.91h.05v0l0-.09,0,0,0-.49.39.4.15.46,0,0,0,0-.1-.32.56.57,0,0h0l.31.31h0v0l-.38-.39-.17-.38.1.07,1,.71h0l.32.22.33.29H7.2l.2.13h0c-.06,0-.13,0-.17,0s-.07.34,0,.52l0,.06,0,0h0l-.06.06v0l0,0,.24.16.17.2.16.09h0c.06.08.1.16.16.24v0l0,.26,0,0,.05,0v-.12h0a.83.83,0,0,1,.08.12l.49,1.25h0v0l.07.22,0,.21A2,2,0,0,1,8,113.86c-.17.11-.37.21-.55.31l-.4.21-.18.17h0l-.16.08.11,0-.11.06,0,.08.07,0,.06,0h0v0l0,.08.06,0,2.65-.14h0l.52,0h0v0l.34.11h.09l.71-.13,1.11,0h-.51l0,0,0,0h4.67l0,.05.09,0,.09-.1h.7l0,0c.45,0,.89,0,1.34,0v0h-.45l0,0,0,0h3.19l-.06.11,0,.07h.08l.1-.17h.65l0,0,0,.08.08,0,.06-.1,2.33,0,.08-.09,0,0h.17v0l-.16.11,0,0,0,0L25,115l0-.09h.14a.69.69,0,0,0-.13,0l0-.09.33.3.06,0,0-.07-.38-.4-.11,0-.09-.11-.28,0,0,0h0v0l0,0-.34,0-.16-.09.61-.09,0,0,0,0-.77.07a4.11,4.11,0,0,0-.62-.21l0,0L23.2,114l-.91-.07c-.06,0-.12,0-.18,0h0l-.13,0-.57,0a2.11,2.11,0,0,1-.66-.2,3.2,3.2,0,0,1-.56-.37v0h0a3.08,3.08,0,0,1-.71-.76c-.25-.37-.55-.8-.86-1.21l-.05-.26,0,0,0,0v0h0a.73.73,0,0,1,0-.09l-.18-.19-.21-.29.08-.22,0,0,0,0-.06.17-.18-.26,0-.11-.06,0v0l-.91-1.3.05-.12,0,0,0,0v0l.06-.06.16-.08h.25l.15-.1,1.09-1v0h.05l.3-.37.3-.08L19,107v0l-.16.06,0,0,0,0,.7-.25h0v0h0l.1-.1,1-.38v0h.06l.15-.17c.11,0,.22,0,.33-.09s.15-.11.23-.15l.34-.1h.07l-.45.28,0,0h0l.68-.42c.26-.09.49-.22.74-.32l-.35.29v0h.05l.62-.48a6.53,6.53,0,0,0,.81-.37,8.75,8.75,0,0,0,1.14-.89h0l0,0A21.24,21.24,0,0,0,27,102.39l-.25.46-.08.21V103l0,0h0l0,.26v0h0l-.93.91-1.26.84V105l.05,0,1.27-.85,1.09-1.07v-.06h0l-.15.14.64-1.18a2,2,0,0,0,.33-.44c0-.07,0-.15.05-.23l.6-1.1,0,0h0l-.5.91c0-.21.1-.42.12-.64s0-.46,0-.69l.45-1.57,0,0h0l-.37,1.3c0-.21,0-.43,0-.64S28,98.28,28,98l0,0,.27-1.23,0,0-.05,0-.18.82c.06-.54.15-1.07.19-1.6,0-.27,0-.54.05-.8l0,0,.21-1.23,0,0,0,0-.15.86c.06-.77.11-1.55.16-2.33a5,5,0,0,0-.07-.83l.09-.19v0h0l0,.08c0-.13,0-.26.05-.38h0l0,0,0-.31.24-.42v0l0,0-.18.3,0-.29h0a0,0,0,0,0,0,0h0s0,0,0,0,.1-.16.13-.25l.48-.56,0,0,0,0,.13-.15v0h0l0,0,.29-.76a3.81,3.81,0,0,1,.32-.24l-.05,0-.2.54h0v0l-.23.41v0h0l.61-1.09v0h0l.11-.12.13-.11h0a5.12,5.12,0,0,1,.66-.49l.42-.21a6.4,6.4,0,0,0,.79-.38l.21-.1.26-.16.14-.25v-.09h0l0,0h0s.11-.07.14-.13S32.77,85.86,32.7,85.8ZM4.4,92.93l0,0,0,0Zm-2.11,9.85,0-.57.08.2s0,.06,0,.09Zm.55-8.28a2.13,2.13,0,0,0-.55.49l.29-.35h0l.5-.32h0l.41-.21A7.37,7.37,0,0,1,2.84,94.5Zm.69,11.07,0-.12s0,0,0,0ZM2.7,94.5,3,94.19l.69-.28Zm.9,11.24v-.14a1,1,0,0,0,.08.11l.08.2Zm.42.54s.08,0,.11.09l.19.19,0,.47Zm.57.45,0,0,.09.07v0Zm.8.81L4.87,107l0-.09s.1.09.16.12l.25.18ZM6.6,91.48h0l0,0-.14,0L7,91.35H7C6.88,91.38,6.74,91.44,6.6,91.48ZM7,114.78v-.08h0l.3,0Zm3.41-5.55h0Zm14.22,5.45h.17l.1.11v.06c-.08-.06-.19-.1-.27-.15Zm-2.23.24c.13,0,.26,0,.39,0Zm-.59,0h0Zm-.2,0h0Zm-.24,0h0Zm-.76,0h0Zm-.74,0c.21,0,.41,0,.62,0h-.63Zm-.18,0h.06v0h-.06Zm-1,0h.88v0h-.89Zm-.27-31.66,0,0h0Zm-.68,24.09.23-.11-.31.39Zm-.51.24.16-.07-.26.27Zm-.75.5,0,.08v0S16.51,108.12,16.52,108.11ZM15.23,88s0,.08-.06.08l-.13,0Zm-.27,22,0,0c0,.07.11.14.16.22l-.2-.24Zm-.69-.82a0,0,0,0,0,0,0h0Zm-.14-.15v0l0,0v.09l-.06,0,0-.06Zm-.14-.28h0l0,.11v.1l-.07-.16Zm-.55-.11.17-.11-.22.16Zm-1.4.09a.4.4,0,0,1,.11,0l-.66.23-.87,0Zm-.83.33-.14,0-.22,0Zm-.43,3.13s0-.06,0-.09l0,.09Zm1.57,2.63.24,0,.76,0Zm5.45-.82c-.06.12-.21,0-.34.07l-.05,0,0,0c-.08,0-.14.08-.22,0s-.09-.18-.18-.24-.19,0-.28,0l-.07,0,.46,0,0-.1-.32-.19-.38.05-.2.09h-.13c-.7,0-1.39-.12-2.08-.18l-.28-.08-.22,0h0c-.5,0-1-.06-1.51-.13,0,0-.11,0-.14-.1a2,2,0,0,1-.35,0l-.41-.46-.1-.17v-.1l0-.19,0,0-.13-.55.05.09h0l0,0-.25-.84c-.05-.36-.1-.73-.13-1.09l.05-.74.36.07h0l0,0,0,0,.13,0,.12,0,0,0,0,0,.23-.08.55,0,0,0,0,0h-.27l.57-.2-.06.05v.06h.06l.27-.15a0,0,0,0,1,0,0l-.53.57v.06h.06l.54-.57a.34.34,0,0,1,.09.08l0,.1,0,.06,0,0-.17.23v.06h0l.29-.33,0,0H13l.16-.15,0,0,0,0-.11.14V109h.06l.64-.47v0l-.09.09v.07h.06l.12-.07s0,0,0,0l0,.12.16.39.38.18.34.4h0l-.36-.42h0v0l.4.46,0,.17,0,.06.06,0,0-.07.89,1.06,0,0h0l.53.63c.37.46.74.92,1.08,1.4v0l0,.05,0,0c0,.08.12.15.17.22S17.89,113.87,17.8,114.06Zm-1.16-5.33v0Zm1,1.4v.05l-.1-.11v0l0,0Zm-.1-.14,0,0-.08-.09c-.13-.14-.2-.33-.32-.48v0l0,0-.18-.27v0l0,0h0c-.05-.08-.1-.14-.14-.22v0h0Zm-1-1.6,0,.07.08,0v.09l-.1.11,0-.06s0,0,0,0l0-.14.12-.2v0l0,0,.11-.23.11-.1.09,0Zm.2-.07,0,.07v-.06l.08-.11-.05.1Zm0,.08Zm.3-.11-.22.08.76-.89-.17.37-.29.29,0,.08h.05Zm.36-.24-.15.1.31-.32v0h0l.49-.6,0,0-.5.66h0Zm1-.83v0h-.08l-.45.43.36-.48.35-.1Zm.31-24.38Zm.82,24-.55.2.14-.17.52-.15Zm.14-.06.1-.1c.1,0,.2-.06.3-.09v0h0Zm.47-.17.05,0,.42-.12Zm4-26h-.13l.14-.12v.1Zm.15,0h0Zm2.58.34-.07,0,.07-.06Zm2.23,8.36-.31.36a3.56,3.56,0,0,1,.27-.51l-.08.17,0,0h.05l.32-.73Zm.65-.79.1-.21.13-.2Zm2.62-2h0Z"/><polygon class="cls-1" points="97.57 8.96 97.56 8.93 97.52 8.94 97.39 9.14 97.41 9.19 97.45 9.18 97.57 8.96"/><polygon class="cls-1" points="97.29 10.13 97.32 10.09 97.09 9.24 97.05 9.22 97.03 9.26 97.25 10.1 97.29 10.13"/><polygon class="cls-1" points="94.16 18.01 94.13 17.98 94.1 18.01 94.13 18.04 94.16 18.01"/><polygon class="cls-1" points="99.35 18.2 99.33 18.23 99.56 19.22 99.59 19.24 99.61 19.21 99.38 18.22 99.35 18.2"/><polygon class="cls-1" points="103.13 30.03 103.18 30.09 103.09 29.94 103.13 30.03"/><path class="cls-1" d="M190.61,49.35l.14.22-.18-.38A28.43,28.43,0,0,0,189,45.52l.23.07.35.67.05,0v-.05l-.31-.61.32.11.42.88h0l0,0-.4-.82.12,0,.54,1h0v0l-.51-.93.3.1.18.51.05,0,0,0-.17-.46a4.81,4.81,0,0,0-.11-1.93l.33.26h0v0l-.36-.28a6.4,6.4,0,0,0-1-2.31l1.33,2.1h0v0l-2-3.22.31.24h0v0l-1.66-1.17-.2-.14-.36-.25-.44-.22a13.68,13.68,0,0,0-1.31-.78A16.75,16.75,0,0,0,180.41,37l-.32-.09h0l.35.09c-.28,0-.55-.07-.83-.09h.48l-.54-.14-.92,0c-.28,0-.56,0-.84,0l-2.25.07H177A16.49,16.49,0,0,0,171.76,38a27.29,27.29,0,0,0-4.55,2.58l-.32.09-.7.48.79-.42c-1.06.7-2.12,1.39-3.2,2.06l2.41-1.64-1.38.74-1.65,1.3A20.87,20.87,0,0,1,160,44.77,22.6,22.6,0,0,1,155,45.88l-1.22-.11-1.92.41a8.28,8.28,0,0,1-1.66-.11l-1.12-.26c-.59-.17-1.17-.41-1.75-.63h0v0l-2-.75c-.48-.21-1-.37-1.45-.55l-1.1-.42h0c-.15,0-.29-.12-.44-.16-.55-.14-1.08-.34-1.62-.51l-.82-.37-.63-.51.22.14h0v0l-.68-.44-.35-.28-2.59-1.75-.71-.67h0v0l.6.57v0l.08.06-.5-.24-.16-.1h0l-.15-.08-.56-.52.59.4h0v0l-1-.68-.12-.11h0v0l-.06,0-.39-.37h-.05v0l.12.11-.22-.14.08,0,0-.11-1.8-1.29h-.06l-.83-1.06a3.1,3.1,0,0,1-.23-1c0-4.92-3.43-8.86-5.2-13.45a.72.72,0,0,1,0-.61l.39.38h.09v-.09l-.35-.35h0l0-.06,0,.06h0c.07.08.15.14.22.23s0-.1,0-.15h0v-.09l-3.6-3.75.4.21.06,0V16.5l-1.94-1.67-1.31-1.36,0,0,0,0-.74-.63.71.42h0v0l-1-.59-.89-.75.36.2.06,0v0l.63.42h0v0l-1.78-1.2h0v0l.73.5-.84-.51h0l0,0-.69-.39-.18-.15.2,0,.88-.1,0,0,0,0-.91.09-.25,0-.3-.23.78.17.07,0,0-.07h0l0-.07-.09,0h.1l0,0,0,0-.24,0-.59-.28.22.05.08-.05,0-.08-.82-.3.26-.16,0-.07,0-.05-.48,0,.07-.07.2-.23V9h0l.07,0,0-.06,0,0-.71,0h0v0h0l-.08,0-.44,0-.25-.06L113,8.73c-.08-.07-.13-.15-.21-.22l-.28-.87V7.58l0-.29.11.26h0v0l-.16-.35-.05-.54-.14-.53,0,0h0l-.08-.28,0-.13,0,.16,0,0,0,0-.07-.29.05-.41.09.26,0,0,0,0L112.3,5V4.88l0,0h0v0l-.07-.1-.18-.89-.26-.27.27.46.11.6-.06-.08-.35-1-.08-.08h0l.3.87-.11-.16-.11-.43h0l0,0,.07.28-.13-.18a6.72,6.72,0,0,0-.32-.66l0,0h0l.15.1,0,0-.35-.35-.38-1V2h0l0,0h0v0l-.08-.08-.17-.33s0,0,0,0l.16.16h0v0l-.23-.23h0l-.09-.08-.05-.09-.53-.66-.19-.07.33.3.23.3-.49-.52h0v0l.11.12v0l.53.53a1.39,1.39,0,0,0-.34-.2l-.58-.61h0l0,0L109.35.4h0v0l0,0v0l.39.4a2.36,2.36,0,0,1-.6-.28,6.63,6.63,0,0,0-.29,1l0,0V1l0,0h0l.1-.47.5-.18-.16-.06-.45.3,0,.53h0v.35l-.2-.27h0v0l.24.35v.27c0,.21-.13.56-.18.83l.13-1.06,0,0,0,0-.21,1.63c0,.19-.06.32-.11.54v0l0-.18h0l0,0-.07.68a1.4,1.4,0,0,1-.79.79A2.76,2.76,0,0,1,105.7,3.2,5,5,0,0,0,104.47.83l-.13-.26h0v0l.08.15-.61-.66.06,0h0v0L103.71,0h0V0h0v0l.37.4c-.09,0-.11-.17-.22-.19a.66.66,0,0,1,0,.14l0,0h0v0h0c-.13-.07-.25-.22-.39-.17s-.12.14-.17.22l-.09-.1h0v0l.09.1c0,.06-.1.09-.12.15-.4,1.09.24,2.51-.49,3.37a9.83,9.83,0,0,1-.85-1c-.19-.25-.45-.54-.76-.47,0,0,0,.06-.07.07l-.21-.24h0v0l.16.18-.07,0,0,0h0l0,0h-.14l-.13.07,0,0h0v0h0l-.07.09-.05.1-.09-.07h0v0l.11.09v.19l.08.18-.07,0,0-.12h0l0,0,0,.07-.06,0h0v0l.1.07.06.35-.09-.06h0v0l.13.09.11.58,0,0,0,0v0l.15.13a.6.6,0,0,1-.33.44l0,0h0v0h0L100,4.71l-.22-.29h0v0l.27.33-.19-.09c-.05-.08-.12-.15-.17-.23s-.05,0-.06,0L99.12,4h0v0l.35.31a.35.35,0,0,0-.13,0l-.22-.19v0h0l-.19-.06-.18.1-.1-.08h0v0l.1.09,0,.08v.09l-.11-.08h0v.05l.17.12,0,.07,0,.06h0v0l.07.27-.15-.1h0v.06l.22.15v0L98.69,5h0v0l.19.15h0l-.08.09-.17-.06,0,0,0,0,.14,0-.09.1s0,0,0,.07l-.06-.08h.09l0,0,0,0-.21.08-.17.14,0,0h0v0l0,0L98.12,6l.11.31h0l0,0L98.19,6l.06-.27.19.18a2.29,2.29,0,0,0-.1.23h0v0l0,0-.06.22-.05-.13h0l0,0,.08.21c0,.16-.08.34-.13.51l-.36-.1,0,0,0,0L98.1,7l0,.12h0v.06l0,0a1.6,1.6,0,0,0,0,.21l-.32-.3h0l.18-.09.18.07h0v0L97.78,7l-.24.15,0,.44.25.4h0V8l-.11-.15.17.17-.06.26-.07-.07h0v0l.09.1-.05.17h0l0-.18-.1-.16h0v0l.12.3-.09.3v0h0c-.06.21-.14.4-.2.61l0,0h-.06v.07l.06.07c-.07.26-.07.53-.12.79h-.06v.06l0,.05c0,.12,0,.23,0,.35l-.06,0-.2.26,0,0v0l0,.26.1.26.06.28a2.85,2.85,0,0,0,0,.29,2.67,2.67,0,0,0,.37,1.44l0,0h0v.05l.22.52h0l0,.18-.17.05,0,0,0,0,.17-.06,0,.08h0v.08l0,0h0l.06.25,0,0,0,0c0,.1,0,.21-.06.3H97.5l.15-.26v0h0l-.32.46-.13,0h0l0,0-.15.06h-.06c-.09,0-.16.09-.25.12l-1.36.56-1.15,1.59,0,.06.06,0,0-.07v.38l.17.35v0l0,0,0,0,0,0,.12-.09h0c.16-.21.46-.19.71-.27a5.38,5.38,0,0,0,1.06,0l.53.09h1.7l.27.19h0v-.06l-.21-.13.18,0,0,.06h.07l.46-.2.11.14h0v0l.28.35c0,.12,0,.23.08.35l-.24-.31,0-.19,0,0,0,0v.11l0,0h0v0l.07.1,0,.37h0v0l.29,3.1,1.67,3.1h0l.15,1.81.45,1.75.59,1h-.07v.07l.22.17v0l.09.07.2.3-.2-.2.27.43.19.12.38.3c.28.8.48,1.61.72,2.42l.08,1.18,0,0,0,0,.09.69h0l.34,2.55v.74l-.41.88.24-.81,0,0,0,0-.38,1.28-.07.15,0-.11,0,0,0,0-.18.53-.87,1.9,0,0h0l.67-1.45-.77,2.29.22-.86,0,0,0,0-.46,1.76h0l-.44,1.68v0h0l.33-.36-.44,1.74,0,.08.06,0-.35,1,.54-2.55,0,0h0l-.62,2.94-.48,1.34,0,.05h0l.49-.52-.2,1,.05.08.09,0,.11-.28.08,1.37,0,0h0l-.07.57,0,0,0,0,.05-.37,0,.29v0l0,0,0,.19v.18l0,0,0,.5,0,0,0,0v-.21l.09.78-.13,4.48,0,0,0,0,.12-4.08.22,2v.17h0l.36,3.25-.08.91,0,0v.34l-.18,2.12,0,0,0,0,.13-1.44.11,2.37,0,0-.1-.78,0,0,0,0,.09,1.92v0h0l0,0,.07.27.21,4.21,0,0,0,0,.33-1.53h0l0,0,0-.09h0l.28,1.16-.08,0,0,.09,2.14,5.23.24,1.06-.07-.13h-.05v0l.2.4.06.27h0l0,0,0-.08.07.15.19,1,0,0,0,0-.1-.6,0,.07.16,1,0,0,0,0-.13-.81.21.4,0,.39h.05l0-.29,1.14,2.24.06,0v-.06l-1-1.87,1.46,1.82,1,1.46h.05v0l-.42-.66.72.9v0l.37.48.07.12v0l1.7,2.17.32.81,0,.08.06,0,0,0,.06.07v0l-.26-.74v-.06l.54,1.15v0l0,0,0,.07.11.13.14.1,0,0,.88.87h.09l0-.09,0-.06.68.56v0l0,0,1.45,1.1h0l0,0,0,.06,0,.06.37.23h0l.31.2,0,0,.33.2,0,.06.3.2-.06-.08,1.52,1h0l.9.47,0,0,.1.07,0-.07.15.07,0,.11.13.09,0-.13.59.32.18,0,.27.48.2.16-.33-.6.94.3.57.83h.06v0l-.41-.66h0l-.06-.08.62.19h0l0,0,.09,0,1.72,1.57h.06v-.05l-1.58-1.42.1,0h0c.09,0,.16.1.25.14L125.9,93h0v0l-.42-.7.08,0,0,0,1.87,1.74h.09l.05-.07,1.15,1.36,0,0,1,1.92h0v0L129,95.44l.49.7.05,0h.05l.19.37L130,97l.65,3.68,0,0,0,0L130,97l.05.1,0,0h0l0,.08v.06l.38,1,.14.6.33,3.62-.19-.63,0,0,0,0,.33,1.54v.06h0l.11.48a8.63,8.63,0,0,0,.12,1.69c0,.19.1.38.16.58v.07c0,.22,0,.44,0,.66l-.28,2.46,0,.28-1.5,2.51-.06-.61,0,0,0,0,0,.69-.29.49-.24.17a7,7,0,0,1-1.09.57h-.15l1.31-1.06v0h0l-1.37,1.08-.56-.05,0,0,0,0,.2.06-.53,0,0,0v0l-.49-.05,0,0,0,0,.34.11h-.83l0,0,0,0,.08,0h-.36l0,0,0,.06.42.15-.23.06h-.2l0,0,0,0h0l-.27-.06,0,0,0,0,.14,0h-.07l-.62-.1,0,0,0,0,.19.09-.12,0-.37-.1,1.24-.46v0h-.05l-1.36.48h0l0,0h0l-.76.27h-.07l-.14-.06h0v0l.06,0a14.06,14.06,0,0,0-5.83,1.36l-.35.09,0,0,.06,0h0c-.11.07-.23.11-.33.18l-.72-.08,0,0,0,0,.71.08-3.76,0,0,.06,0,0,4.4,0h.11l-.84.21,0,.05,0,0,2.55,0c1.55.25,3.12.53,4.63.7a7.5,7.5,0,0,0,2,.07,11.15,11.15,0,0,0,1.78-.48,13.49,13.49,0,0,1,1.68-.19H130l0,0,0,0h0l.48-.06.35,0-1.38.24,0,0,0,0,1.63-.27,3.77.29,0,0,0,0-3.51-.28,1-.17a7.81,7.81,0,0,1,1.78.09h0l0,0h.16a15.37,15.37,0,0,1,2,.47,14,14,0,0,0,5.57.53c.13,0,.3-.07.3-.2a2.58,2.58,0,0,0-1.09-.53l-.06-.06-.2,0-.1,0,0,0,2.58.19,0,0,0,0-2.5-.2,2.15.09,0,0,0,0-2.43-.1-.1-.07c-.2-.17-.37-.37-.56-.55l0,0h0a15.23,15.23,0,0,1-1.29-1.25l-.16-.23,1.18.59,0,0v0l-1.27-.62,0,0h.08l0,0,0,0h-.12c-.08-.15-.2-.27-.28-.42a20.22,20.22,0,0,1-2.21-6.86l.06,0v0h0l0,0c0-.19-.09-.37-.11-.56l.05-.52h0l0,0,0,0,0-.47,0,0,0,0-.05.48h0v-.17h0a2.26,2.26,0,0,0,0-.26l0-.16,0,.15v-.25l0,0v0h0l0,0h0l0,0h0l.25-.57V105l0,0,0,0,.05-2.06v0l.07-.2v-.09h0l0,0,.1-1.54a2.44,2.44,0,0,1,.06-.26,6,6,0,0,0,.08-1l0-.29v0l0,0,.1-1,.14-.59.07.2.07,0,.06,0,.54-1.43.31.29h.05V97l-.3-.43L138,95.1l.18-.23-.22,1.6,0,0,0,0,.13-1.06v0l0,0,.32-.66.22.33-.42,1.26,0,0,.05,0,.4-1.21h0v-.06l0,0,.08-.25.11.55,0,0,0,0,.36-1.43.12.09-.21.83,0,0,0,0,.2-.8.65.51,0,.09,0,0,0,0v0l.09.07h.05v0l-.11-.08.38-1.13.08.06V94l0,0,0,0v-.37l0,0v.1l.05,0,0,0v0l.45.33,1.39,1.6.43.6-.34-.15h-.05l0,0,.46.21,1,1.37-.21-.09h-.05l0,.05.31.14.36.56-.63-.29h0l-.13-.14-.89-1.22h0v0l.78,1.05h0v.08l.55.64,3.23,4.38h0v0L145,99.14l1.57,1.85q.25.38.48.75a15.32,15.32,0,0,0,2.25,2.87c.16.15.3.3.47.44l1,1.4c.21.35.38.73.6,1.08s.42.88.65,1.32c0,.17,0,.35.06.52l-.24-.11,0,0v0l.27.12c.06.49.14,1,.16,1.45,0,.16,0,.33,0,.5l-.16-.06,0,0,0,0,.18.07a2.52,2.52,0,0,1-.2.91l-.56-.19,0,0,0,0,.56.19s0,.09-.05.13l-.21.21-.7-.27,0,0,0,0,.66.25a2.17,2.17,0,0,1-.5.33l-.27.11-1-.33,0,0,0,0,.92.3-.44.18-1.75.5h0l-.4.12a7.32,7.32,0,0,0-1.5.49l-.78-.27,0,0,0,0,.73.26-.15.1-.63-.27-.05,0v0l.6.26a3.41,3.41,0,0,0-.44.3l-.48-.1-.08,0,0,.08.2.08-1.24-.09-.05,0,.05.07,1.23.09c-.13.12-.33.15-.44.3.51,0,1-.06,1.53,0l-.78.34-.41.07h0l-.91.15v0l0,0,.8-.14v0l.23.06,0,0h0l.55-.26,1.12-.2v0l0,0-.92.16.55-.25c.59,0,1.18,0,1.78,0l.44,0,.31.11-1.25.06,0,0,0,0,1.38-.07.34.12,0,0,0,0-.15,0,.94,0,.29.11,0,0,0,0-.15,0,2.74-.14,0,0,0,0-2.86.13-.33-.12c.62,0,1.26.06,1.88,0,.13,0,.25-.09.38-.12h0l.06,0h0l.19.07,0,0,0-.05-.08,0h0l.14,0h0a3.8,3.8,0,0,0,.55-.16h0v.08l.08,0,.29-.23.34.11-.05.14-.42.15,0,0-.06,0-.07.1v.07l.06,0,.47-.17-.11.28-.39.35v0h0l.15-.1.15-.12,0,.07,0,0,0,0,.08-.21.11-.11v.08l0,0,0,0,.06-.24.1-.17.46-.17,0,.06,0,0h.05l.49-.42.63-.78.13.32,0,0-.18.35-.91.92v0h0l.76-.79-.46.7v0h0l.44-.66v.45l0,0,0,0v-.5h0l.17-.26.19-.19v0h0l-.07.07.53-1.1.17-.47h0v-.06h0v.08l0,0,0,0,0-.23.16-.43-.11,1.56,0,0,0,0,.12-1.79.15-.67.11.38,0,0,0,0-.15-.56.05-.21v0l0-.19.11-.29.16-.87h0v0l0-.2,0-.07,0-.14a2,2,0,0,1,.42-.6c.4,0,.83,0,1.24,0l.19.08,0,0,0,0-.07,0h.56l.5.1,0,0,0,0-.31-.06h.21v0h0l.12,0c1.12-.09,2.2-.16,3.3-.27l.28.09-.21-.1.31,0h.09l.24.19.08.16-.48-.22.52.32h0v0l-.07-.15.12.09.06,0,0-.06-.16-.26h.07s-.09-.06-.13-.11h0c.22,0,.45,0,.65-.06-.31-.2-.66-.3-1-.48l-.09-.13-.09-.22h0l0,0,.06.13-.66-.24,0,0,.43.14,0,0,0,0-.52-.17a6.24,6.24,0,0,0-1.08-.49l.48,0h0v0l-.7-.09-.12,0a25.83,25.83,0,0,0-6.24-1.89c-.09,0-.16-.11-.25-.14-.33-.08-.68-.09-1-.18l-.17,0c-.17-.07-.27-.24-.41-.37l-.63-1.07-.12-.12.09,0h0l0,0-.17-.05-.49-.47,0,0,0,0-.13,0,0-.05a33.2,33.2,0,0,1-2.75-4v0l-.15-.2c-.52-1-.85-2.93-1.38-4.26a9.57,9.57,0,0,1,0-2.45l.06.14h0v0l.65,1.17.08,0,0-.07-.54-1.71.11,0,.65,1,.09,0,0-.09-.08-.17,0,0v0h.05v-.05l-.06-.13.12.09h.08l0-.07-.14-.41.17,0s0-.12,0-.18H150l0,0,.09.25,0,0,0,0-.19-.53,0-.18a2.26,2.26,0,0,1,0-.26l.25.52.09,0,0-.08,0-.15.09.15v0h0l.35.68h0l-.54,1.41,0,0,.05,0,.55-1.46,0,0v0l.68-1.81.27.82-.08.23-1.93,3.16v0h.05l1.77-2.9-.08.25-.14.3v0l0,0-.05.17,0,0,.05,0,.16-.48.29-.6v0l.09,0,.05-.09,0-.16,0-.12,1.25-2.64.08.4.08,0,.06-.09-.11-.59.18-.39.09-.06L153.55,89l-.26.6-1.23,2.16v0h.05l.95-1.68v0l0,0,.29-.66,1-1.69v0h0L153.66,89l.58-1.33h0l0,0v-.08l.58-1.34.08,1.64,0,0,0,0-.08-1.75,0-.08.13,1.09,0,.06.06-.06.11-1.35a1,1,0,0,1,.57.13l-.11.78-1.79,3v.06h0l1.81-3L156,86l.17.39-1.21,2.84v0H155l1.18-2.78.1.23.07,0,0-.06-.14-.33,0-.11s0,0,.05,0a5.34,5.34,0,0,1,1.13-2.13l0,0,0,0-1.35,4.72,0,0,0,0L157.57,84c.06,0,.15,0,.22-.1v.79L157.27,87l-.54,1.1v0h0l.43-.87-.28,1.25,0,0,.05,0,.34-1.55.54-1.09V84.7l.21-.94a1.59,1.59,0,0,1,.37-.18l.13,1.74-.92,2.94v0l.05,0,.94-3-.14-1.78a1.68,1.68,0,0,1,.45,0l-.32,4,0,0,0,0,.31-4a1.39,1.39,0,0,1,.57.16l.15,3.34,0,0,0,0-.15-3.32s.09,0,.12,0a3.31,3.31,0,0,0,.54.45l.13,1.45,0,0,0,0-.12-1.41s.05.07.1.08c.56.12.84-.65,1-1.2a3.84,3.84,0,0,1,.79-1.46l.07.07h0v0l-.08-.07a4.38,4.38,0,0,1,1-.82l.09.07h0v0l-.08-.07a4.29,4.29,0,0,1,2.82-.58v.2l0,0,0,0,0-.19a3.84,3.84,0,0,1,.68.09l0-1.85h0v0l0,0c.11-.17.23-.34.35-.5l.77.24,1.06,1h.09l0-.08-.08-.2.34.24.1,0,0-.11-.34-.26.07,0c.08-.17.21-.29.29-.46l.21.18.06,0,.06,0,.5-.94,0,0a2.56,2.56,0,0,0,.27-.45l-.1.26,0,.09.09,0,.74-1.58a4.33,4.33,0,0,1,.8-.8h.09l0,0,0-.09c.22-.15.42-.32.66-.46l.71-.19h0l0,0,.65-.18.13-.1V74l0,0,0,0V73.9l1.34-1v-.1h0a8.55,8.55,0,0,0,2-1.42l.15-.11,0,0,0,0v0l.22-.17v.17l0,0,0,0V71l.42-.31.47-1.53-.16-.47c0-.36.12-.71.14-1.06l.12-.68,0-.5s0-.11,0-.16a6.52,6.52,0,0,1,.88-1.67h0l0,0v0c.15-.24.25-.5.39-.74s.1-.34.18-.49l0,0,.06-.23c.05-.11.08-.23.12-.34l.66-1.35.05.45,0,0,0,0-.06-.55.08-.17-.11-1-.07.29v-.07l.08-.26-.05-.48c0-.12,0-.24,0-.37a2.44,2.44,0,0,0,.06-.26l.13,1.52,0,0,0,0L182,58.67h0s0,0,0-.07l.29,1.69,0,0,0,0-.73-4.14v0l1,1.41,0,0h0l.21.46-.24.54v0h0L183,58l.19.42,0,.17,0,.06.07,0,.18-.3,0,0v-.06l.08-.18s.05.1.08.14c.06-.19.13-.38.19-.57v0h0l0,.13,0,0,0,0,0-.56c0-.11.08-.22.11-.33V57l0,0,0,0,0-.18c.08-.23.15-.47.23-.71l0,0,0-.05,0-.17.24-.72c.11.46.21.92.32,1.39l.14,2.68,0,0,0,0v-.07h.06l0,0,.14-.62c0,.14.07.28.1.42a5.29,5.29,0,0,0,1-1.46v2.27h0v0l-.19,3.54-.46,2.79-.12.44c-.35.82-.79,1.59-1.2,2.37l-.18.3.27-.56,0-.08-.07,0-.63,1.19.31-.85.64-1v0h0l-.53.82.22-.62h0l.06-.21.63-1.71,0,0-.07,0-.18.5.48-1.69,0,0,0,0-.65,2.26L184,69.11l-1.5,2.3v0h0l1.38-2.14-.41,1.12v0h0l-.26.41-.12.16v0l-.52.85v0h0l.69-1.14,0,0-.35.72-.06.09v0l-.22.46-.45.39v0h0l-1,.53v0h0l1-.51-.71.62-.19.1,0,0v0l-.07,0v.07l.07,0,1-.55s.11,0,.17,0l-.78.62v0h.05l.82-.66a1.51,1.51,0,0,0,.52,0l-.7.62v0h.05l.75-.67a3.62,3.62,0,0,0,1-.45,15.56,15.56,0,0,0,3.09-2.69l.61-.42-.24.27v0h0l1.82-2.09.85-1.59.42-1.44.43-1.16.39-.72.05-.45.08-.22-.08.18.09-.88-.65,2.21L191,64l-1.21,2.25A18.81,18.81,0,0,0,191.81,60,23,23,0,0,0,190.61,49.35ZM97.15,11.4l-.08-.12h0v.05l.12.19c0,.09,0,.17,0,.25l0-.09,0,0v0l0-.07,0-.07V11.2l.13.19Zm0-.14-.12-.17.17-.22C97.2,11,97.18,11.13,97.17,11.26Zm-2.59,6.2a1,1,0,0,0,.11.71l-.09.1-.06.05h0l-.05-.21,0,0h0l0-.29.07-.29v-.05l0,0,.63-.74A2.66,2.66,0,0,0,94.58,17.46Zm1-1.34a3.58,3.58,0,0,0-.44.51l.45-.53.34-.14C95.77,16,95.63,16,95.53,16.12Zm1.87-.73.06-.1h0l0,0h.07A1.13,1.13,0,0,0,97.4,15.39Zm.3-1v0Zm-.18-.62a2.51,2.51,0,0,1,.34.53h-.09v0Zm.28.59h0Zm0,.54-.11-.45h0l0,.06,0,0,0-.05,0-.05.11,0,0,0C98,14.6,97.88,14.75,97.83,14.92ZM98,7.61l-.27-.26h-.06v.06l.31.3c0,.06,0,.12,0,.19l-.2-.21h0l0,0-.08-.2V7.3l0-.06,0-.06v0l.35.34A.43.43,0,0,1,98,7.61Zm.51-1.82-.18-.17.08-.1.11-.07h0l.08.1A1.07,1.07,0,0,0,98.47,5.79Zm.42-.64,0,0,0,0,.07,0ZM99,5,98.82,5l-.08-.29.14.18h0v0l-.09-.12-.09-.14.29.21C99,4.85,99,5,99,5Zm.1-.36-.35-.25V4.27l0,0,.37.29A.83.83,0,0,1,99.05,4.68Zm.06-.22-.35-.28.1-.07H99l.18.17C99.16,4.34,99.11,4.4,99.11,4.46Zm.69,13.37h0Zm0,.31L99.6,18l.3.36h0ZM100.26,3l.28.23s0,0,0,.07-.06.09-.06.14v0l-.14-.1V3.34l-.07-.15Zm0,.34.27.2a1.51,1.51,0,0,0,0,.3l-.22-.15Zm.21.85h0l-.08-.4.21.13V4l-.11-.08h0v0l.15.12a.82.82,0,0,1,0,.27Zm.09-1.2c0,.05,0,.11,0,.16L100.27,3l0-.1.07-.09.22.17S100.55,3,100.53,3Zm.12-.12-.22-.17h0l.12-.05h.13l.1.1A.4.4,0,0,0,100.65,2.89Zm.18-.18v0h0ZM103,29.29h0v0l-.21-.9.27.71,0,0Zm-.32-1.38,0,.11-.16-.4,0-.17Zm.32,1.82-1-2.42-.18-2.26c.18.5.34,1,.52,1.48l.18.72,0,0,0,0,0-.15-.05,0,0,.06.08.3v0l0,.12.44,1.75,0,0,0-.05,0,0v.13l.08.32Zm.15-.29h0v0l0,.06Zm-.31-1.07h0l.42,1.11Zm.68,1.7h0l-.16-.29h0l0-.06,0,.08,0,0,0,0,.1.27.07,0,0-.05-.13-.37h0c.07.19.15.37.21.55Zm.25.4.11.1,0,.07Zm-1.21,19.3v-.1l0-.06h-.07l.06-.36.08-.08c0,.19,0,.38,0,.57Zm0-.66,0-.19s0,.1,0,.15Zm0-.85-.21,1.05-.45.47.27-.78h0l0,0,0-.26.45-1.28A7.4,7.4,0,0,0,102.57,48.26Zm2.36-13-.13-1.66a2.76,2.76,0,0,1,.08.27l.19,2.39Zm.06-1,0,.08.07.55.11,1.57,0,0,0,0-.05-.68.18,1.37v.63l0,.29-.08-1v0h0Zm.37,4.62,0,.13,0-.22Zm-.09-.44Zm-.56,1.35.5-1.08v.08l-.14.82v0l0,0-.23.7h0l0,0L104.09,42Zm-.32.72.1-.23-.39,1.31h0l0,0,0,.09Zm-1.61,5.19.59-1.91,0,0,.1-.22,0,.16v0l0,0-.4,1.59ZM103,55v-.09c.12.79.2,1.58.31,2.38l.12,1.57h0Zm.42,9.26,0-.2,0,.2Zm-.11-3.19.09-1.08,0,.2.07.06.06-.06-.1-.89v-.09l.14,1.41,0,0h0c0,.07,0,.14,0,.21.08,1.75,0,3.51.17,5.25l-.39-2.16h0Zm.3,8-.09-3,0,.21.14,1.14,0,0,0,0,0-.37.16.7Zm.42-1.48,0,0,0,0v0l-.23-1-.21-2.08.65,3.53Zm.43,1.54v.17l-.17-.69,0,0-.36-2a15.71,15.71,0,0,0,.39,1.78h0v0c.06.23.08.47.15.7Zm.06.37,0-.25c0,.1.07.19.11.29l.14.55Zm.85-29.44a8,8,0,0,1-.34.8l0-.1,0,0,0,0-.08.36c-.43,1-.94,1.89-1.38,2.85l.18-.72.76-1.85v0l0,.08.08,0,.76-2.32h0l0,0,0,0,0-.17.05-.13A7.17,7.17,0,0,1,105.41,40.08Zm.1-1.34,0,0-.06,0,0-.28.12-.67,0-.56-.09-.69h0l-.17-1.34a.32.32,0,0,0,0,.09,15.9,15.9,0,0,1,.28,1.94l0,.17,0,0v0A8.8,8.8,0,0,1,105.51,38.74Zm3.25-37.11h0v0Zm-3,70.72c.06.14.15.26.22.4l.1.46Zm.46,1.23-.15-.66c.1.23.24.43.34.65l.07.42h0l0,0,0,.25Zm.44,1.93-.22-.94.17.41.14.71Zm.79,1.55h0l-.09-.19v-.06l0,0h0l-.25-.48,0-.19,1.47,2.23ZM107,76h0v0l0,0,0,0,0,.2,0-.08-.36-2.19c.6,1.24,1.22,2.47,1.93,3.65l.17.64-.27-.44,0,0,0,.06.42.75,0,.11Zm1.85,2.42-.1-.36c0,.08.08.16.13.24Zm.54,1.07h0l-.29-.37L109,79l0-.1.41.58Zm-.42-.75-.07-.12,0-.2c.13.22.29.42.44.63l0,0,0,.21Zm.7.92-.12-.39c.22.33.48.61.7.93Zm.1.32,0-.07,1,1v.27Zm1-78Zm1.3,2.64.12.36,0,.39-.23-1Zm-.24-.35.3,1.27,0,.14a2.66,2.66,0,0,0-.35-1.27c0-.12,0-.23-.06-.35Zm-.72-1.43c0-.09-.09-.17-.14-.26l.08.09Zm-.28-.73.19.46-.14-.14,0,0c0-.1,0-.2,0-.3Zm.55,80-.56-.71,0-.37.19.2a.86.86,0,0,1,.07.1h0l0,0,.53.8.09,0,0,0c.13.17.25.35.39.52l.15.37-.88-1.18h-.08l0,.08Zm.86-75.82,0,.07.09.42v.11C112.36,6.6,112.33,6.42,112.29,6.23Zm.21,1.87h0l0,0-.07-.16V7.85l.14.43Zm9.64,8.21-.26-.13c-.14-.14-.25-.3-.4-.43Zm-4.77-4.1,1.24,1.07c-.47-.39-.93-.79-1.41-1.17Zm-2.2-1.92.18.08-.4-.09,0,0Zm-.18-.07-.15,0-.12-.1Zm-.42-.31.12.05-.15-.06Zm0-.42-.15.1-.24-.09h.39Zm-.27.19,0,0h0l-.1-.07Zm.21-.61h0l0,0Zm-.1.06-.09.14-.18.11h-.22l.5-.27Zm-.44,75.81-.2-.3.17.16Zm0-76,.46,0-.62.34-.11-.09.32-.18V9h0l-.33.19-.17-.14.24-.11Zm-.59,0h.21l-.16.07-.1-.08Zm.21,76-.63-1.35,1.1,1.65v.09Zm.88.7-.3-.45,0-.26c.11.12.24.23.35.35l.27.57Zm.28.23h.07l0-.08-.11-.26c.45.47.89,1,1.38,1.38Zm2.09-74.31.29.25h0v.08l.06,0-.27-.17-.63-.53Zm-.39,75.62c.08.07.17.11.24.18l0,0Zm.42.33-.07-.08c.23.19.48.34.72.51l.12.16Zm1.13.87-.14-.19c.27.18.52.39.8.57l.05.06v0Zm.87.55h0l0,0c.11.07.2.16.31.22Zm.79-75,.05,0-.52-.45Zm.21,75.65v0l0,0-.46-.29h0c.17.09.36.14.53.23l.13.21Zm.26.14-.14-.23.49.22.1.25Zm.54.29-.11-.26.17.07.1.27Zm.73.39-.45-.25-.11-.28.64.28.19.34Zm.41.14-.18-.32.16.07v.07l.91.46,0,.06Zm1.07.39,0,0,.2.09Zm2.94,1.79-1.16-1c.28.13.53.31.81.45Zm1,.22-.1-.11.2.11.11.15Zm.7.33s.12.06.18.1.29.4.47.58l.07.14-.06-.06h0l0-.07Zm.63.81h0l.18.18,0,.07Zm.78.84,0,0-.06-.12,0,0c.1.13.21.24.3.37Zm.52.63h0Zm.57.66h0a.6.6,0,0,1,.09.13Zm-11.45,19.8-.15,0-.24,0Zm-.65.07.27,0a.53.53,0,0,1-.12,0l-.16-.06Zm0,.1c-.08,0-.15,0-.24.06l.14-.09Zm-.41.07-.5-.06a4.91,4.91,0,0,1,.67-.09h0l-.12.1v0Zm-.26.31.62-.14c.27,0,.54.08.81.12Zm6.74-2.14h-.14l.42-.16.12.09Zm.5-.07-.1-.07.21.06Zm.55-.07-.08,0,.16,0ZM140,93l.07.31-.17-.23Zm.1.46.11.57v0l-.39-.35-.05-.08.11-.49Zm.11.17,0,0v.07Zm-.5-.09-.1-.15,0-.09.16-.14Zm-8.5,9.34-.29-3.83c.05.22.17.42.2.64l.07.65c0,.85,0,1.71,0,2.56Zm.19-66.5a4.44,4.44,0,0,1-.54-.84l.67.85-.06,0Zm-1.62,76v0l1.29-2.08a2.81,2.81,0,0,1-1.28,2.1Zm1.31,4.19-.27,0a1.2,1.2,0,0,1,.2,0h0c.33,0,.65-.13,1-.11Zm2.29-78.35a9.72,9.72,0,0,1-1.88-1.73l.3.2L132,37l.07,0,0-.06,2,1.38.7.65Zm2.22,66.56,0,.07c0-.22,0-.44,0-.66s.07-.31.11-.47l0,.2-.08.79Zm0-.11.08-.7,0,.26Zm.07-1.1a1.62,1.62,0,0,1,0-.19v0l0,.18Zm.14.19-.05-.15h0v0h0v-.15l.06.14.05.32Zm.1-.19v-.14l-.08-.16,0-.13.06-.1Zm-1.78-64.79,1.17.61.78.74Zm2,60.3,0,0c0-.1,0-.21.06-.31Zm.19-.36,0,.15-.07.37a.41.41,0,0,1-.05-.09l.09-.91c0-.08.07-.16.1-.25Zm.94-2.2h0v0L136.75,98l-.1-.24-.06,0-.06,0-.07.36h0l0,0v-.22a10.53,10.53,0,0,1,.67-1.63l.06.09-.47.94,0,.1.09,0,.45-.88,0,0Zm.07-.17,0,0,.09-.18Zm.1.29,0,0h0Zm0-.83h0v0l-.18.34-.06-.09a.49.49,0,0,1,0-.11c.09-.16.24-.27.35-.43Zm-.59-55.18-.36-.25-.94-.88.9.47,1.1,1.05.05.06C137.32,41,137.05,40.88,136.81,40.71Zm1.1.67-.4-.39,0-.05,0,0h0l-.77-.72.41.26,2.27,1.7h0v0l.15.07.22.17a.38.38,0,0,0-.1,0c-.2-.09-.36-.24-.56-.34l-.57-.41h0v0l.08.06Zm1.58,52.08h0Zm-.54.69h0l-.06-.1.08-.17.23-.21-.09.38-.05.15Zm.08.1,0,0,0-.08Zm-.88,1.12.08-.59a1.56,1.56,0,0,1,.16-.2l.08.12Zm.37-.76-.07-.1c.1-.11.18-.24.28-.35Zm.35-.21,0,0,0,0,0,.27-.1.32-.21-.32.25-.52.16.24-.07.18Zm.53-.58,0,0h-.05v0l.07.06-.33,1.32-.1-.49.09-.29h0l0-.06,0,0,0-.08,0,0h0v0l0,0h0l0-.06.2-.63.07,0,.06.06v0Zm.17.14-.11-.09,0-.18.08.22Zm.05-.17-.06-.13.07.06Zm.08.27v0l-.05-.13,0-.13.25.39H140v-.05l-.08-.13.26.24.05.25Zm.5-.46-.06-.09L140,93l.23-.19Zm.06.56,0-.3v.53Zm.48-.79-.15-.11h0v0l.16.12-.38,1.13h0l0-.16,0,0,0,0V92.88h.05v-.05l0-.07v-.08l.37-.31.06.45V93l0,.09h0v.07Zm.11.08-.06,0,.05-.16h0Zm1.07-.27c.24.48.51.95.76,1.42l-.89-1.28,0-.22.17.4,0,0,0,0Zm-.27-.51.14.35h0l0,.21-.16-.24-.2-.85C141.45,92.33,141.57,92.49,141.65,92.67Zm.06.74,0,.1,0-.16Zm-.08-.16h0Zm-.28-.89.11.49-.12-.18Zm0,.46.18.26,0,.07-.2-.19Zm0,.21.23.23.07.3-.31-.3Zm-.14-.78,0-.1V92l.06,0,0,.14v.47l-.12-.17h0l0,0Zm0-.2v0l0,0v0Zm-.07.55h0v0l0-.07v0l.17.24v.16l-.22-.21,0-.11Zm-.08.15v0l.24.24v.23l-.3-.28,0-.1h0l0,0Zm-.08-.49.12.16h0l-.12-.17Zm.09.24,0,.13h0l0-.13v-.12Zm-.09,1v-.1l0,.11Zm.1.08,0-.15.3.34Zm.72.6.18.13.42.56ZM143,95.6l-.83-1.13.34.24h.05v0l-.52-.37-.26-.36h0v0l.13.18-.24-.17L141,93.3l0-.31.3.29,0,.23,0,0,0,0v-.17l.34.33v0l0,0h0l.48.47h0v0l-.51-.48,0-.2,0,0,.81,1.15h.06v0c.23.42.43.85.68,1.26l-.14-.05,0,0,0,0,.2.08c.07.12.12.24.19.36h0Zm.57.77h0l.24.27c.05.08.08.17.13.24Zm.71,1.78.66.3c.43.68.86,1.37,1.31,2Zm6.2,15.43-.17.07h-.05l-.33.07Zm.19,2-.95,0-.22-.08h.06l.68-.09h.1Zm14.42-7.46,0,0-.06,0Zm-.65-.85.08.11-.51-.25h0Zm-6.54,2v.07l0,.11v-.13Zm-3.48,6h0v0h0Zm0-.17h0l0-.07Zm1.77-1.43-.08-.21.13.14Zm.7-.39-.48.92-.15-.37.1-.11.11.11h.05v0l-.08-.17L157,113Zm-.46.19,0,0-.05.08,0,0v0Zm0-.11.08,0h0l0,0,0,0h0Zm0,0h0l-.05,0,0,0,.11,0Zm0,.24,0,0h0Zm-.06,0h0l0,.07Zm1.09-1.78-.08.24.1-.42Zm0-.6,0-.11,0,0Zm0,.37v-.22l.08-.34,0,0Zm0-.58h0Zm.11-.11V111l0,0h0Zm-.17-1h.08l0-.07,0,0,.09-.13v0l0,0,0,0v-.09a.86.86,0,0,0,.1-.16v0l0,.64,0,.12-.12.23h0l0,0v.06l-.15-.53Zm-.13.21.15.54h0l-.2-.4S157.28,110.29,157.3,110.25Zm.09.66,0,.06,0-.18Zm-.22-.27.1.32,0,.14-.13.25h0v0l0,0,0,0,0-.47A2,2,0,0,0,157.17,110.64Zm-.32,1h0l0,0,0,0,.09-.28,0,.08.05.7.06,0,0,0,0-.53h0l0-.06h0l.13-.15,0,.22-.09.38v-.2l0,0,0,0,0,.44-.1.4-.05.07-.29-.47.08,0,.13.22.06,0v-.06l-.09-.16h0v0h0l-.17-.28C156.8,111.82,156.82,111.73,156.85,111.66Zm-.11.34.06.11-.07,0h0S156.73,112,156.74,112Zm-.11.34s0-.1.05-.14l0,0,0,.08v0h0l0-.06.27.45-.36-.11-.06,0,0,.06.32.1-.38.56-.08-.22,0,0,0,0,0,0-.09,0-.08-.22C156.46,112.68,156.56,112.52,156.63,112.34Zm-.31.63,0,.06,0,0A.08.08,0,0,1,156.32,113Zm-.06.11.11,0,.08.21-.21-.09h0l0-.06A.47.47,0,0,0,156.26,113.08Zm-.09.19h0v0h0l0,.07-.09,0A.25.25,0,0,1,156.17,113.27Zm.09.2,0,.08,0,0-.18-.18Zm-.23.06.12.28,0,0,0,0-.2-.07A2.39,2.39,0,0,0,156,113.53Zm-1.26,1.19.12,0a2.82,2.82,0,0,0,1-.89l.24.09,0,0-.1.18-.41.32h0l-.06,0v.08l.08,0,.09-.06-.28.29-.31.26v0l0,0h0l-.41.14.1-.19Zm-.18,0a.53.53,0,0,1,.12,0l0,.06-.13.25h0Zm-.08.34h0Zm0-.31-.08.2-.3-.11A2.62,2.62,0,0,0,154.47,114.79ZM153.75,103l.33.52,0,.11c-.06-.07-.13-.11-.19-.18h0l-.2-.43Zm-3.59,2.43.33.59-.59-.84Zm-1.1-13.93-.56-1a1.77,1.77,0,0,1,0-.23l.18.06Zm.08-1,.05,0,.08.18Zm.42.3-.1-.2.17,0,.09.28Zm.51-1.37-.09,0,0,.08h0c0-.09.08-.16.13-.25l.1.4Zm.26.49-.21-.75a2.85,2.85,0,0,1,.53-.67l.07,2.17Zm.85-1.86,0,.11,0,.16,0-.25Zm-.32,2.68-.07-2.41s.05-.07.08-.09a.64.64,0,0,1,.14-.08l.15.64-.11,1.29,0,0,0,0Zm.25-.68.1-1.08v.07l.09,0,.06-.08-.12-.51v-.2l.24.71Zm.48-1.26-.28-.81.11-.07.18.84Zm0,.12v0l0,.09Zm.37.91h0l0-.07v0h0Zm0-.51-.42-1.49c.22-.12.43-.26.66-.37Zm.46-2,.29-.17-.51,1.55Zm-.35,2.25,0-.34v-.05l.69-2.08c.13-.08.26-.14.38-.22l.05.25Zm.25-43.38a2.12,2.12,0,0,0-.24,0l1.58-.35,1,.07C153.92,46,153.14,46.14,152.36,46.22ZM154.47,86l-.12.52,0-.45Zm-.25,1.47-.6,1.38.12-2.3c.1-.1.23-.16.33-.25l.15.81,0,0Zm0-.63-.11-.6.16-.12Zm0,.45,0-.2.28-1.18c.08,0,.13-.13.22-.16h0l0,.26Zm.62-1.4v-.15h0v.09Zm.21.61L155,85.8l0,0h.12Zm1.05-.3-.07-.15a.73.73,0,0,1,.09.08Zm1.31-2.15v0h0Zm-.08,2.66.4-1.76v.93Zm.45-2.33v-.54s.09,0,.14-.07Zm10.84-5.84.24.17,0,.08Zm1.14-.24-.16-.13c.06-.11.14-.19.2-.3L170,78Zm.18-.45-.1,0,.24-.14Zm3.84-3.73-.2.08-.42.1.38-.23.09,0,.3-.1Zm.28-.12.05,0h0Zm.21-.09h0l.23-.08Zm.57-.29,0,0,.17-.08Zm.16-.19,0,0,.05,0Zm.34-.17.13-.14.09-.06.07,0h0Zm2.71-2s0,0,0,0v0Zm.33-.26-.23.17v-.08a3,3,0,0,0,.23-.35Zm.32-.75v.06l-.05,0S178.77,70.29,178.78,70.25Zm.5-1.38.09.28L179,70.63l-.41.31v-.27l.38-.29.08-.44v.25l0,0,0,0v-.36s.07-.07.08-.13a5.52,5.52,0,0,0,.1-.71h0l0,0ZM182,58.54c0-.19-.12-.37-.14-.56s-.06-.48-.09-.72Zm.48-2.4,0,.1-.07-.19A.41.41,0,0,1,182.52,56.14Zm-.82-1.6.58,1.13.34,1.06,0,0,0,0-.06-.37.55,1.07-.11.24-.68-1.08-.36-.84H182l0,.05.12.3-.38-.59ZM180.88,53s0-.07,0-.09l0,.09Zm.75,2.78c0-.13,0-.25-.07-.37v0h0s0,0,0-.06l.1.15Zm0-.39-.14-.23a19.59,19.59,0,0,0-.59-2.08h0l.34.65v.16l0,0,0,0v-.07l.18.35.11,1v0h0Zm0-.89,0,0v.2l0-.39a1.51,1.51,0,0,0,.09.18Zm0,1.4v-.33l.48.74.3.75Zm.81.94.55.86-.09.2Zm.77,1.52,0-.22,0,.11Zm.1-.33-.06-.16-.05,0,0,.05-.06.48L183,58l.09-.22,0,0h0v0l0-.07.1-.23.17.33Zm1.79,1,0-1.16.06,0,0,0,0-.31c0,.24.1.48.16.72Zm-3,13.75.13-.11h0Zm.47-.39,0,.06-.19.12.24-.21v0Zm.8-1.4v0l.61-1.27.14-.22C184,70,183.75,70.49,183.47,71Zm2.4-4.79.44-2.35,0,0v0l.17-2.06.05,0,.05,0V57.3c.08-.16.24-.28.31-.45.11.41,0,.83.11,1.24l-.2,1.3,0,0,0,0,.16-1.06a12.33,12.33,0,0,1,.22,2.49l-.59,2.21,0,0h0l.55-2.06A17.75,17.75,0,0,1,185.87,66.17Zm2.44,2.69-.79.61c.27-.31.5-.66.75-1l.58-.62ZM187.62,40l.79.47h0l.49.77A10.17,10.17,0,0,0,187.62,40ZM190,66.67l-.45.75-.53.7Z"/><polygon class="cls-1" points="166 41.01 166.04 41.01 166.8 40.45 166 40.97 166 41.01"/><polygon class="cls-1" points="175.24 36.87 175.5 36.86 175.27 36.86 175.24 36.87"/><polygon class="cls-1" points="166.8 40.45 169.23 38.87 168.22 39.4 166.8 40.45"/><polygon class="cls-1" points="170.55 38.18 170.97 38.05 170.62 38.15 170.55 38.18"/><polygon class="cls-1" points="170.97 38.05 175.24 36.87 174.67 36.88 170.97 38.05"/><polygon class="cls-1" points="169.23 38.87 170.55 38.18 170.06 38.34 169.23 38.87"/><polygon class="cls-1" points="161.42 84.48 161.6 89 161.64 89.03 161.67 89 161.5 84.48 161.46 84.44 161.42 84.48"/><polygon class="cls-1" points="158.35 90.39 158.37 90.44 158.41 90.41 158.98 87.11 158.96 87.07 158.92 87.1 158.35 90.39"/><polygon class="cls-1" points="156.72 87.25 156.21 89.52 156.23 89.56 156.27 89.53 156.79 87.27 156.77 87.23 156.72 87.25"/><polygon class="cls-1" points="160.13 89.91 160.16 89.89 160.61 87.06 160.97 85.88 160.95 85.84 160.91 85.86 160.68 86.61 160.68 86.58 160.66 86.55 160.63 86.57 160.56 86.98 160.21 88.12 160.23 88.16 160.27 88.14 160.49 87.43 160.1 89.87 160.13 89.91"/><polygon class="cls-1" points="161.98 82.69 161.98 82.73 163.19 83.79 163.24 83.78 163.24 83.74 162.03 82.69 161.98 82.69"/><polygon class="cls-1" points="164.52 108.24 164.55 108.25 164.53 108.24 164.52 108.24"/><polygon class="cls-1" points="121.32 91.71 121.21 91.62 121.36 91.99 121.51 92.14 121.32 91.71"/><polygon class="cls-1" points="106.22 75.72 106.18 75.79 106.42 76.71 106.62 76.96 106.29 75.76 106.22 75.72"/><polygon class="cls-1" points="20.69 81.25 20.59 81.13 20.55 81.13 20.53 81.17 20.6 81.3 20.68 81.32 20.69 81.25"/><polygon class="cls-1" points="22.87 80.3 22.82 80.3 22.53 80.48 22.52 80.52 22.57 80.54 22.78 80.44 22.77 80.52 22.8 80.58 22.87 80.57 22.92 80.52 22.95 80.56 22.99 80.59 23.08 80.56 23.12 80.58 23.2 80.58 23.21 80.5 23.12 80.45 23.02 80.45 22.98 80.39 22.94 80.36 22.9 80.37 22.9 80.34 22.87 80.3"/><polygon class="cls-1" points="28.72 90.8 28.7 90.86 28.68 90.84 28.65 90.87 28.63 91.16 28.52 91.61 28.54 91.65 28.57 91.63 28.6 91.52 28.58 91.82 28.61 91.86 28.65 91.82 28.69 91.16 28.78 90.81 28.75 90.77 28.72 90.8"/><polygon class="cls-1" points="8.27 90.55 8.32 90.56 9.47 90.02 9.49 89.97 9.44 89.96 8.29 90.5 8.27 90.55"/><polygon class="cls-1" points="3.73 106.47 3.73 106.52 4.2 107.06 4.25 107.07 4.26 107.01 3.78 106.47 3.73 106.47"/><polygon class="cls-1" points="25.28 104.31 25.25 104.3 24.79 104.57 24.78 104.61 24.82 104.62 25.27 104.34 25.28 104.31"/><polygon class="cls-1" points="14.18 109.53 14.17 109.58 14.38 109.86 14.43 109.86 14.44 109.81 14.23 109.53 14.18 109.53"/><polygon class="cls-1" points="0.52 98.21 0.48 98.22 0 98.97 0.01 99.02 0.06 99.01 0.53 98.25 0.52 98.21"/><polygon class="cls-1" points="0.28 99.08 0.18 99.64 0.22 99.69 0.26 99.67 0.34 99.09 0.32 99.06 0.28 99.08"/><polygon class="cls-1" points="8.11 90.55 8.12 90.5 8.07 90.48 7.37 90.79 7.36 90.84 7.41 90.86 8.11 90.55"/><polygon class="cls-1" points="8.87 90.07 8.89 90.02 8.85 90 8.17 90.25 8.15 90.3 8.19 90.32 8.87 90.07"/><polygon class="cls-1" points="14.53 88.11 14.57 88.1 14.56 88.05 14.31 87.88 14.26 87.89 14.27 87.94 14.53 88.11"/><polygon class="cls-1" points="27.86 100.33 27.88 100.36 27.91 100.34 28.1 99.8 28.08 99.77 28.04 99.78 27.86 100.33"/><polygon class="cls-1" points="53.4 74.86 53.42 74.83 53.4 74.81 53.38 74.83 53.4 74.86"/><polygon class="cls-1" points="57.42 75.46 58.81 76.74 58.85 76.74 58.85 76.7 57.46 75.42 57.42 75.42 57.42 75.46"/><polygon class="cls-1" points="59.49 83.54 59.47 83.55 59.45 83.39 59.42 83.37 59.4 83.39 59.46 84.01 59.5 84.04 59.53 84.01 59.47 83.57 59.69 83.96 59.73 83.97 59.74 83.94 59.51 83.55 59.49 83.54"/><polygon class="cls-1" points="59.72 83.15 59.64 83.21 59.54 83.19 59.54 83.07 59.66 83.03 59.69 83.01 59.68 82.98 59.5 83.03 59.49 83.22 59.65 83.28 59.78 83.17 59.75 83.13 59.72 83.15"/><polygon class="cls-1" points="59.81 82.59 59.81 82.63 59.94 82.87 59.87 83.13 59.88 83.17 59.92 83.17 60 82.86 59.85 82.59 59.81 82.59"/><polygon class="cls-1" points="58.6 86.53 58.58 86.57 58.65 86.88 58.68 86.9 58.71 86.86 58.63 86.55 58.6 86.53"/><polygon class="cls-1" points="57.81 90.18 57.79 90.21 57.87 90.67 57.89 90.69 57.91 90.66 57.83 90.2 57.81 90.18"/><polygon class="cls-1" points="57.7 95.51 57.65 95.72 57.7 95.31 57.68 95.29 57.66 95.31 57.56 96.09 57.55 96.13 57.55 96.14 57.55 96.15 57.51 96.55 57.53 96.58 57.55 96.55 57.6 96.16 57.6 96.15 57.6 96.15 57.76 95.53 57.74 95.49 57.7 95.51"/><polygon class="cls-1" points="46.1 78.95 46.48 78.17 46.47 78.13 46.44 78.14 46.05 78.92 46.06 78.96 46.1 78.95"/><polygon class="cls-1" points="57.98 91.78 57.96 91.78 57.94 91.49 57.91 91.46 57.88 91.49 57.95 92.89 57.98 92.91 58.01 92.89 57.99 92.43 58.17 93.28 58.2 93.31 58.23 93.27 57.99 92.19 57.99 92.17 57.98 92.17 57.96 91.92 58.24 92.9 58.28 92.92 58.31 92.88 57.99 91.8 57.98 91.78"/><polygon class="cls-1" points="58.17 93.5 58.02 94.28 58.04 94.31 58.07 94.29 58.23 93.52 58.2 93.48 58.17 93.5"/><polygon class="cls-1" points="95.53 82.88 95.55 82.86 95.53 82.83 95.51 82.86 95.53 82.88"/><polygon class="cls-1" points="93.88 82.06 94.06 82.57 94.1 82.59 94.12 82.56 93.92 82.05 93.89 82.04 93.88 82.06"/><polygon class="cls-1" points="91.08 80.61 91.11 80.61 91.1 80.58 90.03 80.07 90 80.08 90 80.11 91.08 80.61"/><polygon class="cls-1" points="88.41 79.56 88.43 79.58 89.97 80.11 89.99 80.1 89.98 80.08 88.44 79.55 88.41 79.56"/><polygon class="cls-1" points="95.51 99.16 95.49 99.18 95.79 101.84 95.83 101.86 95.85 101.84 95.53 99.18 95.51 99.16"/><polygon class="cls-1" points="92.66 105.04 91.8 106.31 91.8 106.34 91.84 106.33 92.7 105.07 92.69 105.04 92.66 105.04"/><polygon class="cls-1" points="90.64 106.84 89.89 107.79 89.89 107.83 89.93 107.83 90.67 106.87 90.67 106.84 90.64 106.84"/><path class="cls-1" d="M95.44,96.74l.26.56h0v0l-.32-.69c0-.32-.06-.64-.1-1l.27.82,0,0,0,0-.32-1h0a10.63,10.63,0,0,0-.4-1.57l.19.34h0v0L95,93.93l.21.31h0v0l-.4-.57a3.57,3.57,0,0,0-.1-.35h0l-.11-.54.68.91h0v0l-.72-.95.29.23h0v0l-.34-.27h0l0,0,0,0h0a1.87,1.87,0,0,1-.07-.22l.72.45h0v0l-.76-.47h0s0-.09,0-.13l.35.06h0l0,0L94.38,92a2.08,2.08,0,0,1,0-.23l.49.17h0v0l-.5-.17a5.62,5.62,0,0,1,.19-1.06h0v0a3.9,3.9,0,0,0,.18-.75,2.7,2.7,0,0,0-.09-.79v0h0l0,0,0-.11,0-.26,0,0,0,0,0,.16,0-.2c0-.07,0-.15-.05-.22l0,.08h0v0l-.13-.25q-.09-.3-.15-.6h0v0l0-.16a9.82,9.82,0,0,1,0-2l.1-.19v0h0l0,.1v-.09l.1-.18,0-.07.12-.26v0h0l-.13.29h0a.86.86,0,0,1,0-.16l.33-.66v0h0l-.3.59a2.26,2.26,0,0,0,0-.26l.26-.45v0h0l-.23.39v-.1l.11-.33,0-.1-.12-.52-.06,0-.06,0v0s0-.08-.05-.12l0-.33,0,0,0,0,0,.23a2.66,2.66,0,0,0-.21-.53l-.12-.46-.11-.25-.22-.25,0-.15h0v.11L93,81h-.08v.07l.25.39h0L93,81.29h0v0l.11.18-.22,0a8.9,8.9,0,0,0-1.47-.68,13.79,13.79,0,0,0-5.1-1.07l.12,0h.08l.38-.08,1.29-.07h0l0,0-1,.05.41-.08,0-.07-.07,0-1.2.21-1.2-.07-.07,0,0,.07.16.08s0,0,0,0h0l.15.07a.57.57,0,0,1-.25.28c-.1,0-.18.11-.28.16l-.43.15,0,0,0,0,.07,0-1.92.87v0h0l1.59-.7a14.84,14.84,0,0,0-1.62,1v0h-.09l-.41.39-.67.44v0h0l.49-.33-.53.5,0,0v0h0l-.27.34-.88.83v.08l.08,0,.47-.19.44-.25-.18.2v0h0l-1,.89v0h0l1-.87-.91,1v.09l.09,0,.25-.16-.14.17L80,85v0h0l.24-.17-.24.3v.09h.08l.41-.43-.28.64-.08.38h0l-.5.26v0h0l.51-.25h0l-.06.3,0,0,0,0,.27-.92.49-.82v-.08h-.08v-.09h-.08l-.16.1.9-1a12.16,12.16,0,0,0-1.17,2.9l-.49.77v.07h.09l-.39.36v0l0,0,.15,0v.26l.09.25-.65,0L78.78,88h0l0,0,.15,0h-.07l-.06,0,0,.06.15.12,0,0-.42-.17,0,0,0,0,.36.14-.29.1L78,88.33l0,0,0,0,.44.08h0l0,0a1.15,1.15,0,0,0-.17.06l-.75-.07-.06,0v.07l.08.15h0l-.44-.08-.08,0v.08l0,.08-.34.07-.56-.19-.08,0,0,.09.34.11-.43.09-.09.26-.11,0-.27,0,0,0,0,0,.06,0h0l0,0,0,.06-1.17.29-.06,0h0v0h0l-.47.12,0,0v-.09l-.08,0-.83.43-.08-.09h0v0l.07.08-.29.15-1.29.22-.06,0v.07l.28.23-.07,0-1.89-.08-.06,0,0,.07,1,.28c-.13.06-.26.08-.39.14a1.08,1.08,0,0,1,.78.49l-.77.78-.42.16.31-.25.29-.18v0h0l.22-.17v-.07h-.07l-.91.71-.17.11v0h0v0l.06,0,.54-.21h0l-.89.68v0h0l.7-.52v0l-.45.38v0h0l.42-.34a1.58,1.58,0,0,1,0,.78l-.1.09v0h0l-.07.08-1.52.78,0,.07.08,0,.77-.12L69,95l-1.13.43,0,0,0,0,.64.14a2.85,2.85,0,0,0,0,.92l-.29,0,.2-.82,0-.07-.08,0-.23.89v.07l0,0,.38,0a.89.89,0,0,1,0,.22l-1,1.38v.07l.08,0,.5-.09a1.55,1.55,0,0,1,0,.43l-.2.31v0h0l.09-.15c-.07.22-.14.44-.22.65a4.48,4.48,0,0,0,0,.64l-.2.32v0h0l.14-.24h0a3.73,3.73,0,0,0-.07.82l-.15.33,0,.08h.09a4.29,4.29,0,0,0,.13.6l0,.06v0h0v0a4.59,4.59,0,0,0,.6,1.36l.1.74,0,0,0,0-.08-.57s0,.08,0,.12a3.6,3.6,0,0,1,.39.2l-.06.21,0,.07h.08l.18-.15.08,0,0,.93,0,0,0,0,0-.9c.14.09.3.14.43.24l-.25.29v0h0l.27-.3h0l.13.5.07,0,0-.06v-.22l.17.19-.18.7v0h0l.18-.67c.1.12.2.22.29.34l.08.21,0,0,0,0v0l.08.09a.82.82,0,0,0,.26-.62l.15.91,0,0,0,0-.12-.71,0,0v-.28c0,.07.11.14.16.21l.26.71,0,.23,0,0,0,0v0h.06v0l0-.06.19.24.1.09.14.35,0,0,0,0-.08-.21H72v-.06l-.16-.18,0-.08v-.07c.11.14.2.29.32.42l.13.4,0,0,0,0v-.08l.32.32-.1.81,0,0,0,0,.09-.76c.15.16.33.3.49.45l0,.32,0,0,0,0,0-.25.3.27.07.29,0,0,0,0V108c.07.06.14.14.22.2l.25.54,0,.09-.06.21v.23l0,.07-.09.25v0h0l.09-.21.33.52.23.11a12.74,12.74,0,0,1,2,3.59c0,.1,0,.22-.06.33l-.27.45.14.24s0,0,0,.07.06,0,.07,0l.16.38.06,0h0s.09.09.09.16l2.69-.16h4.22c.38,0,.76,0,1.14.06l0,0,0,0,.12,0a20.1,20.1,0,0,0,2.69-.07H88l0,0,0,0,.31-.07h.13v0h0l-.14.16v0h0L89,115H89s0,0,.09-.06l.16-.08,0,.11.07,0,0-.06,0-.14.2-.08v0l0,0-.17.07h0a.3.3,0,0,0-.09-.25s-.09,0-.12-.09l-.1-.2-.48-.37h0l-.36-.12h0a3,3,0,0,0-.31,0h0v0h0l-.1,0a2.12,2.12,0,0,0-.94,0l-.32-.19h0v0l.27.16a.68.68,0,0,1-.27.07s0,0,0,0v0l0,0h0a1.22,1.22,0,0,1-.44-.31c0-.05-.12-.06-.17-.1l.13-.08v0h0l-.16.09a.57.57,0,0,0-.13-.08l.2-.09v0h0l-.23.1a3.22,3.22,0,0,0-.71-.3l.2-.11v0h0l-.25.13-.55-.17h0l-.21-.07h0v0h0l0,0-.18-.14-.07-.48,0,0,0,0,.06.52.09.08c-.09,0-.15-.1-.23-.14h0l-.3-.31-.08-.15c.11-.16.23-.31.35-.47l.17-.13v0h0l0,0,.11-.13h0l.57-.77,0,0,.28-.38a10.29,10.29,0,0,1,.82-.66l1.32-.65v0h0l-.77.36,1.44-.85v0h-.05l-1.37.79c.09-.06.16-.14.26-.2l1-.56a5.65,5.65,0,0,1,.57-.23l-.34.21v0h0l.55-.34.8-.26-.64.44v0h0l.76-.53a9.19,9.19,0,0,0,1.11-.45l-.94.95v0h0l1-1,.23-.1,0,0v0h0l.13-.18a3.6,3.6,0,0,0,.71-.58l-.33.43v0h0l.47-.6,0,0a5.07,5.07,0,0,1,1-1.2h0l0,0,0,0v0a3.26,3.26,0,0,1,.61-.25l-.46.79v0h0l.49-.84.29-.11c.28-.13.39-.44.59-.66l-.34.86,0,0h0l.38-1c.16-.21.4-.34.51-.58l-.39,1.12,0,0,0,0,.53-1.59v0h0a7.31,7.31,0,0,0,.28-1.23l.07.35L95.1,103l0,0,0,0,.13-1.15.1.52h0l0,0-.13-.71,0-.44,0,0,0,0v.12l-.05-.22a.7.7,0,0,1,0-.14c0-.29,0-.59.08-.89l.16,1.65,0,0,0,0-.19-1.9c0-.35.06-.7.08-1l.18.41h0v0l-.22-.51a12.89,12.89,0,0,0,0-1.39l.33.86,0,0v0l-.37-1C95.47,97,95.45,96.88,95.44,96.74ZM94.33,83.49l0,.31,0,.14c0-.14,0-.29,0-.43Zm-13.15-.26-.59.31.21-.21a1.08,1.08,0,0,1,.57-.24Zm-13.55,15,.31-.39a1.19,1.19,0,0,1,0,.33Zm.55-.71.25-.32A.73.73,0,0,1,68.18,97.52Zm.37-2.24c-.06.08,0,.18-.06.27L68,95.44l.61-.23S68.57,95.25,68.55,95.28Zm.78-.58-.1.07-.62.09,1-.5A1.61,1.61,0,0,1,69.33,94.7ZM70.94,105v0h0Zm-.19-13.71L70.1,91l1.1,0C71.05,91.15,70.89,91.19,70.75,91.25Zm.75,14.31v-.08l.16.21.06.14v.07Zm.67-14.8-.3,0v0h0l-.13.05-.2-.17,1.1-.2.38-.17h0l.06.07C72.79,90.54,72.48,90.64,72.17,90.76Zm1-.34,0-.07.29,0Zm.41-.14-.41,0,.53-.25.22,0,.51,0C74.11,90.06,73.83,90.18,73.55,90.28Zm.74,18.25-.1-.23.15.14Zm.12.94h0l0,0,.07.08Zm-.24-19.53.28-.07.08,0Zm.5,19.84-.11-.11.1.09,0,0ZM74.6,89.91l-.08,0,.43-.1H75C74.89,89.8,74.75,89.87,74.6,89.91Zm.59-.2h0l.06,0Zm1.42,24.74,0-.06.06-.06v0S76.62,114.43,76.61,114.45Zm11.92.67.07-.1h.21Zm0-1.21.25.15.1.1a2.22,2.22,0,0,0-.35-.25Zm-6.77-5.47c.1,0,.19,0,.28-.06s-.07.21-.1.32l0,0-.18-.26h0ZM80.19,86.58l0,.16-.11.06Zm-.48.87-.06,0,.44-.4,0,.15-.11.1v0h-.09l-.08.09Zm.13,0,0-.07.06-.06h0l.09-.08a2.61,2.61,0,0,0-.06.27Zm.12.12c0,.13-.07.25-.08.38l-.09-.15v-.26Zm-.61.59-.06,0,0,0Zm-.24,0,.11,0-.12,0L79,88.2Zm-1.45.52,0-.07.26,0Zm.49,21.41c0-.17,0-.18,0-.3l0,.06v0l.09.57C78.25,110.3,78.18,110.22,78.15,110.12Zm2.06,3.27,0,0,.06,0Zm.25,0-.21-.07L80,113l0,0,0,0,.08.2-.19-.25-.29-.17-.3-.56-.17-.41L79,111.7l-.18-.19-.37-1.06-.18-1.11v-.06a1.93,1.93,0,0,1,.69-.18,1.35,1.35,0,0,0,.34-.11l.68-.14.4-.13.17,0,0,0v.09l.08,0,.38-.23h0l.18,0,.06,0h0l.31,0,.08,0v0l.23.35-.13.27,0,.07.07,0,.1-.19,0,0h0l.07.1,0,.16,0,0h.06l0,0h0a2.17,2.17,0,0,1,0,.36l-.15.11v0h0l.12-.07s0,0,0,.08a3.15,3.15,0,0,1-1.46,1.75l-.06,0-.1,0,0,0h0a1.38,1.38,0,0,0-.38.2s0,0,0,.05h0l.08-.17v-.06h-.06l-.23.42.12.29s0,0,0,0h0l0,.11.29.11.28-.06h.17c.27,0,.46.22.68.38l0,0v0h0l.06,0c.07.06.17.06.22.13l-.69-.07Zm-.38-1.07a0,0,0,0,0,0,0l0-.14,0-.07s0,.06,0,.1v0h0v0Zm1,1.08h-.21l.31,0Zm.12,1.56c.31,0,.62,0,.93,0s.41,0,.62,0Zm5-35.27a5.74,5.74,0,0,0-.71,0h0a0,0,0,0,0,0,0h0s0,0,0,0l.85,0ZM93,81.57l.16,0,0,0h0v0h.08l0,0,.22.28,0,.22A3,3,0,0,0,93,81.57Zm.62.54,0-.2.05.07.08.21S93.63,82.14,93.61,82.11Zm1,10.88c0-.14-.09-.27-.13-.41h0l.07.1.06.29Zm0,0h0Zm.66,8.44v0Z"/><polygon class="cls-1" points="90.03 79.97 90.01 79.93 88.95 79.61 88.91 79.63 88.93 79.67 89.99 80 90.03 79.97"/><polygon class="cls-1" points="91.52 80.6 91.5 80.56 90.54 80.24 90.51 80.25 90.53 80.29 91.48 80.62 91.52 80.6"/><path class="cls-1" d="M34.66,61.65a21.51,21.51,0,0,0-3.56-4.56c-.47-.48-1.42-1.33-2.88-2.54a20.71,20.71,0,0,1-2.77-2.64A9.09,9.09,0,0,1,23,46.14a5.8,5.8,0,0,1,.73-3,2.85,2.85,0,0,1,2.6-1.52,3,3,0,0,1,2.48,1,7.21,7.21,0,0,1,1.45,4l6-1.09a11.9,11.9,0,0,0-1.37-4.79,8.54,8.54,0,0,0-3-3.23A10.58,10.58,0,0,0,26.18,36a9.48,9.48,0,0,0-5.81,1.75q-3.8,2.91-3.79,8.56A12.48,12.48,0,0,0,18,52.09a23.5,23.5,0,0,0,4.39,5.38l5.55,5.26a7.6,7.6,0,0,1,2.34,5.11,5,5,0,0,1-.63,2.75,3.87,3.87,0,0,1-3.27,2,3.2,3.2,0,0,1-2.57-1.16,9,9,0,0,1-1.91-5.24l-5.94.43a16.12,16.12,0,0,0,1.37,5.86,10.18,10.18,0,0,0,3.18,4,9.81,9.81,0,0,0,6.07,1.81A11.67,11.67,0,0,0,30,77.88a8.12,8.12,0,0,0,4.29-2.94,11.64,11.64,0,0,0,2.24-7.39,11.43,11.43,0,0,0-.92-4A20.32,20.32,0,0,0,34.66,61.65Z"/><path class="cls-1" d="M56.68,36.5H46.85V77.8l-.32.27v0h0l.32-.26H47l-.3.28v0l0,0-.23.45-.34.38v0h.05l.14-.16,0,0v0h0l.14-.28h0a3.54,3.54,0,0,0-.21.79l-.08.14v0h0a3.08,3.08,0,0,0-.18.66s0,0,0,0h0l.06-.39,0,0h0l-.08.47h0l-.27.33v0h0l.13,0,.06.06c-.09.13-.21.23-.31.36s0,0,0,0l-.2.18v0h.05l.16-.16c0,.14-.07.32.07.35l0,0-.23.14h0v0h.07L45.5,82a.23.23,0,0,1,.34.1s0,.12,0,.18l-.13.08,0,0,0,0,.13-.08c0,.06,0,.11,0,.17a6,6,0,0,1-.57,2c0,.06-.09.1-.12.16l.11-.26v0h0l-.21.45a2.79,2.79,0,0,1-.3.38v0h-.06l-.25.14h0l-.34.21,0,.06,0,0a1.55,1.55,0,0,1-.29.14s0,0,0,0l-.25,0,0,0,0,0,.37.15-.49.09,0,0,0,0L44,86h0c-.18.13-.33.27-.49.4L42,86.66l0,0,0,.05.28.07-1,.25,0,.06.06,0,.37,0-.45.15v0l0,0,.09,0-.72.38-.75.2,0,.07,0,0-.33.09,0,.07.05,0h.19a9,9,0,0,1-1.58.81l-.55.2,0,0,0,0,.52.09a.59.59,0,0,1-.3.28l-.22.12h-.39l.66-.37v-.06l-.06,0-.82.46,0,.05,0,0h.4l-.55.29s0,0,0,.06l-.39.24,0,.06.05,0,.33-.11a1.23,1.23,0,0,1-.46.77c-.22.19-.43.41-.64.61l-.85.64v.06l0,0,.07,0a.94.94,0,0,0-.1.1l-.41.27V93l0,0,0,0-.48.28v0h.05l.23-.13a5.51,5.51,0,0,1-.43.41l.36,1.22c-.06,0-.14,0-.21-.06l-.27-.9-.07,0,0,.06.16.6v.22c-.06,0-.1-.06-.16-.05s0,.16.06.24l-.2-.12h-.07v.07L34,96.06h0l.19.45-.4-.56h0l0,0,.07,1.2,0,0,0,0,0-.55a3.62,3.62,0,0,0,.06,1l-.27-.32h0v0l.32.38a6,6,0,0,0,.32.9l-.32-.38h0v0l.48.57a7.94,7.94,0,0,0,.34.72,0,0,0,0,0,0,0l-.26-.26h-.05v0l.38.38a.78.78,0,0,1,.09.21,2.51,2.51,0,0,0,0,.27.57.57,0,0,0,.12.18c.08.1.17.19.25.28l-.4-.39h-.05v.05l.69.9h0v0l-.34-.46.52.5h0l.16.18.13.2h0l.18.22v0l0,0h0l.3.35,0,.07v.07h0l.08.14,0,.08h-.16l0,0,0,0h.14l-.08.33,0,0,0,0,.06-.19v0h0l0-.13h0l.11.21h0v0l-.16-.3,0-.09.14.15h0l-.11-.12h0v0l.16.18a3.59,3.59,0,0,1,.2.9v0l-.34.17v0h0l.33-.17c0,.16.12.31.17.47s0,.41.09.61l-.08,0v0h0l.07,0a9,9,0,0,0,.37,1.25v.12h0v0l0,0,0,.14,0,0,0,0v-.06l0,.08.08.17H38v.11l.54.82c.08.14.11.3.2.44v-.11l.26.39.11,0,0-.1-.13-.43a.76.76,0,0,1,.16.11h0v0l.59.82.05.14v0l-.21-.17h0v0l.25.22c0,.39,0,.79,0,1.19l0,.11,0,0h0c0,.5,0,1,0,1.49l0,.12v0h0c0,.26,0,.52,0,.77,0,0,0,0,0,.06l-.06.15,0,0h0c0,.12,0,.23,0,.35l-.07.16v0h0l0,.21,0,0h0a1.34,1.34,0,0,1-.41.56l-.05,0-.09.14s0,.11-.1.13h0l0,.08-.19.05-.2,0,0,0,0,0h.18l.17,0,0,.12v0l0,0h.08l-.09.16v0h0l.2-.23h0l0,0v0h0l0,.07v0h.05l.13-.11h.28l-.21.25v0h0l.35-.29h.2l0,.1v0h0l.06-.13h0l.11,0,0,.13,0,0,0,0,.07-.13h.25l-.08.18,0,0,0,0,.08-.19h.14l0,.06,0,0h0L41,115q.47,0,.93,0h.17l.15.12h0v0l-.1-.08h0l0,0h2.16l5.86,0h0l.06,0,0,0h2.74l.07-.07-.07-.07H53l0-.08h0v0l-.16-.24-.19-.21.2-.09v0h0l-.23.09-.25-.18v0h0l-.13-.06,0,0h0l-.58-.16-.6,0v0h0l-.12.09h0c-.24,0-.46.12-.69.16h0l.29-.12,0,0h0l-.5.17h0a5.81,5.81,0,0,1-.59,0l-.31,0-.5-.12h-1l-.28-.08,0,0v0h-.06l-.07,0v0l-.19,0a2.1,2.1,0,0,1-.83-.19,1.29,1.29,0,0,1-.17-.16h0l1.73.38,2,0,0,0,0,0-2.1-.06-1.8-.43a4,4,0,0,1-.44-.63l-.21-.44L44.68,111l.09-1.59-.05-.08-.08,0-.09.55,0,.55,0-.79,0,0,0,0,0-.31,0,0,0,0,.09,1.47,0,0h0l.09.44h0a4,4,0,0,1-.33-.87,2.45,2.45,0,0,1,.06-1.17l.12-.06-.09.07v0h0l.31-.21v0h0l-.25.11.43-.34v0h0l-.45.35,0-.09.53-.37v0h0l-.29.2.53-.62v0h0l-.34.14.33-.32v0h0l1.25-1.53.52-.38h0l.7-.51h0l0,0,.38-.32h0l1.3-.41,0,.07.08,0,1.78-.62.05-.05v0l1-.71,0,0h0l-.81.62v0h0l1-.77v0l0,0,.33-.25-.26.26v0h0l.51-.51.27-.2.3-.19v0h0l.38-.3v-.05h-.05l-.33.25h0l.09-.1v0h0c.3-.26.61-.49.89-.77s.53-.59.8-.88l-.06.22-.85.86v.05h0l.75-.74-.19.65,0,0,.05,0,.22-.76.74-.75V100h-.06l-.63.63.07-.23a6.87,6.87,0,0,0,.63-.69A6.79,6.79,0,0,0,57,98l0,0,0,0,.45-1.32,0,0h0l-.18.5c.16-.65.25-1.31.35-2v0h0l.12-.53h0l.15-.85,0,0,0,0-.06.29h0l-.16.81c0-.14,0-.28.07-.41.06-.46.08-.92.1-1.39l.06.46,0,0,0,0-.09-.74c0-.06,0-.11,0-.17,0-.63-.16-1.25-.24-1.87l.21.71,0,0,0,0-.24-.77,0,0h0c0-.09,0-.18,0-.27s0-.46,0-.7h0l0,0,0,0a7.58,7.58,0,0,1,.15-1.51h0l0,0,.14-.64s0-.08,0-.11l0,.21,0,0,0,0,0-.31c0-.15.09-.3.15-.44h0l0,0v-.06c.08-.17.1-.36.19-.52l.09-.21,0,.1,0,0h0v.07h0l0,0-.07-.29c0-.09.09-.18.14-.28l.1.22h0v0l-.12-.25c0-.08.08-.15.11-.23s0-.24.06-.35l0,.25,0,0,0,0L59,85h0v-.27l.11.54,0,0,0,0-.16-.7h0v0l0-.46.14.91,0,0,0,0L59.15,84l0,0h0v-.06a8.5,8.5,0,0,1,.29-1.07h0l.49-1.08-.07.34,0,.36,0,0,0,0,0-.37.09-.36,0,0h0l1.84-.89.25,0,.17-.14.09,0,.05-.08-.06-.07v0l0-.11,0-.12v-.09l0,0,0,0V80l0,0h-.08l-.11-.05H62l-.41,0,.21-.06,0,0,0,0-.46.12H61.3l.75-.24.64-.11.16-.09,0-.29L62.67,79h0l-1.87-.34-.22-.07a1.86,1.86,0,0,1-.6-.25,1.58,1.58,0,0,1-.29-.34l-.21-.52h0l0,0,.14.37s0,0,0-.06a6.41,6.41,0,0,0-4.42-3,2.52,2.52,0,0,0-.55,0l.36,0,0,0,0,0-1.4.11v0l.31,0-.1,0-.41,0-.22,0V62.27h3.59a9.34,9.34,0,0,0,6.92-2.9,9.64,9.64,0,0,0,2.85-7v-6a9.94,9.94,0,0,0-2.51-7A9.5,9.5,0,0,0,56.68,36.5ZM37.81,89.29l.16-.06c.07,0,.09,0,.12.12ZM33.63,95l.16.09a7.77,7.77,0,0,0,.26.91Zm.15,1.24v-.13l.53.77h0A3.3,3.3,0,0,0,33.78,96.26Zm2.95,6.25,0,0h0v0l0-.06h0l.07.08ZM36.9,90.4h0Zm1.83,17.22v0l0,0,0,.09Zm.46.29.25.2.16.28.06.16Zm-.15,7,.05-.13.07-.05.06,0h0l-.11.2Zm.21,0h0l0-.1A.28.28,0,0,1,39.25,114.85Zm.55.12,0,0h0Zm.11-26.82h0Zm1.79,23.22-.07.38v-.48S41.67,111.34,41.7,111.37Zm-.24,1.55h0l0,0a.25.25,0,0,0,0-.07c0-.36.07-.73.12-1.09v.52l-.08.52v0l0,0Zm1.31.56,0,.09a.86.86,0,0,1-.12.27.62.62,0,0,1-.48.12h0l0,0H42a1,1,0,0,1-.3-.19l-.09,0h0s0,0-.05,0,0-.27-.09-.4l0-.25,0,.47,0,0,0,0,0-.89,0-.27V112l.09-.57.17.53.06,0L42,112l0-.18c.09.12.17.24.25.37l.22.49.05,0,0,0,0,0a1.27,1.27,0,0,1,.17.73Zm-.45-26.76.58-.09-.35.15h0Zm1-.16h0Zm9.42,28,.17.22-.06.12v0h0a2.08,2.08,0,0,0-.43-.46l.18-.08Zm-.25-.23-.17.07c-.06-.06-.08-.14-.15-.19l.08,0Zm-.43-.22v0h0l.11,0-.07,0h0s0,0,0,0Zm-.64-.21.56.13-.07,0a1.8,1.8,0,0,0-.32-.06,1.26,1.26,0,0,0-.33-.1ZM44,86l-.32-.16.17,0c.06.09.1.2.21.18ZM45,108.29l-.5.61h0v0l-.09.06c0-.14.07-.29.13-.42a.43.43,0,0,1,0-.07h0l0-.06Zm0-.41a3.75,3.75,0,0,1,.24-.36l0,0ZM46,80.77v0l-.16,0,.21-.27A.69.69,0,0,1,46,80.77Zm16.73-1.43h0l0,0-.05,0-.06,0-.2,0,.32-.11Zm-.13-.29,0,0v0l0,.06.06,0,0,0-.11,0-1.17-.34Zm-3,3c0-.1.12-.13.18-.2l-.16.34h0l-.1.22C59.57,82.33,59.58,82.19,59.63,82.08Zm-5.14-7.3c-.18,0-.35,0-.53.06v0Zm-7.8,3.61.12-.25h0l.28-.27h0A3.19,3.19,0,0,0,46.69,78.39ZM50.8,104h0l-.63.34-.09,0,0,0H50l-.63.18c.55-.21,1-.53,1.6-.74l-.15.23Zm.17-.08-.06,0,.07-.1Zm1.42-.74-.55.39-.05-.06h-.07l-.69.38,0-.16v0a10.79,10.79,0,0,0,1.38-.63Zm.18-.13,0,0,0,0Zm7.84-50.54a3.47,3.47,0,0,1-1,2.54,3.4,3.4,0,0,1-2.52,1.05H53.09V42.87h3.76a3.47,3.47,0,0,1,2.59,1,3.56,3.56,0,0,1,1,2.61Z"/><path class="cls-1" d="M85.77,78.37a9.85,9.85,0,0,0,9.87-9.86V62.73H89.17v5.71A3.41,3.41,0,0,1,88.11,71a3.5,3.5,0,0,1-2.54,1,3.43,3.43,0,0,1-2.52-1,3.47,3.47,0,0,1-1-2.53V45.81a3.5,3.5,0,0,1,1-2.54,3.38,3.38,0,0,1,2.52-1.06,3.62,3.62,0,0,1,3.6,3.6v4.85h6.47V45.94a9.62,9.62,0,0,0-2.87-7,9.9,9.9,0,0,0-16.9,7V68.51a9.85,9.85,0,0,0,9.9,9.86Z"/></g></g></svg>