<svg xmlns="http://www.w3.org/2000/svg" viewBox="0 0 144 86.07"><defs><style>.cls-1{fill:#fff;}</style></defs><g id="Layer_2" data-name="Layer 2"><g id="Layer_1-2" data-name="Layer 1"><path class="cls-1" d="M143.69,23c0-19.09-5.21-23-7.84-23H122.73c5.34,1.38,6.43,23.18,6.43,23.18v50h-3v-50S126.36,0,120.9,0s-5.22,8.92-5.22,8.92H29.76S30,0,24.53,0s-5.28,23.18-5.28,23.18v50l-3.16-.78v-50c.41-4.56-.86-15.48,6.06-22.4H9C6.47,0,0,3.92,0,23V86.07H57.76V56.58H84.34V86.07H95.08V73.14L92,75.67V52.49h31.16V73.14H95.09V86.07H144S143.69,42.1,143.69,23Zm-20.52-6.24v0ZM50.09,75.67,47,73.14H22.26V52.49H50.09V75.67ZM59.75,47.4l-13.65-2L47.48,36l13.66,2ZM106,42.82l-3.66-8.72,12.72-5.35,3.67,8.72ZM94.57,35.73l4-.77,1.77,9.29L86.82,46.84l-1.77-9.3.34-.06a94.72,94.72,0,0,1-10.22.9l5.59-.12.2,9.46L67.16,48,67,38.55l7-.14-1.68,0a111.24,111.24,0,0,1-35.71-6.08l6.34,2.37-3.3,8.86L26.64,38.76l3.3-8.86.94.35a83.37,83.37,0,0,1-8.62-4v-.68l.3-.52A108.53,108.53,0,0,0,72.25,37.24c28.45,0,50.39-13.91,50.6-14l.32.5v.7A104.63,104.63,0,0,1,94.57,35.73Z"/><rect class="cls-1" x="71.03" y="40.6" width="1.93" height="4.87"/><rect class="cls-1" x="71.03" y="40.6" width="1.93" height="4.87"/></g></g></svg>