<svg xmlns="http://www.w3.org/2000/svg" viewBox="0 0 144 146.16"><defs><style>.cls-1{fill:#fff;}</style></defs><g id="Layer_2" data-name="Layer 2"><g id="Layer_1-2" data-name="Layer 1"><path class="cls-1" d="M.17,61.65h143.7C139,28.38,109.33-1,69.92,0,32,1.06,4.5,30.4.17,61.65Zm114.49,70.46-42.53-37L29.37,132.29C56.64,152.32,92.76,149.24,114.66,132.11ZM0,84.14a72.79,72.79,0,0,0,14,33.22L52.26,84.14Zm144,.06H92l38,33A73.07,73.07,0,0,0,144,84.2Z"/><path class="cls-1" d="M.17,61.65C4.5,30.4,32,1.06,69.92,0,109.33-1,139,28.38,143.87,61.65Z"/><path class="cls-1" d="M114.66,132.11c-21.9,17.13-58,20.21-85.29.18L72.13,95.13Z"/><path class="cls-1" d="M0,84.14H52.26L14,117.36A72.79,72.79,0,0,1,0,84.14Z"/><path class="cls-1" d="M144,84.2a73.07,73.07,0,0,1-13.94,33l-38-33Z"/></g></g></svg>