<svg xmlns="http://www.w3.org/2000/svg" viewBox="0 0 216 115.86"><defs><style>.cls-1{fill:#fff;}</style></defs><g id="Layer_2" data-name="Layer 2"><g id="Layer_1-2" data-name="Layer 1"><path class="cls-1" d="M79.68,66.77v-.64a.45.45,0,0,0-.44-.45l0,0H77.75a.77.77,0,0,1-.74-.75c0-1.28.15-4.11.15-7.92,0-5.25-2.08-9.31-8.82-9.31a15.29,15.29,0,0,0-9.5,3.12,1.82,1.82,0,0,0-.69,1.59v.29a1.06,1.06,0,0,0,.94,1,1.09,1.09,0,0,0,1.09-.5c.64-1,2.52-2.92,7-2.92,5.94,0,5.44,5.69,5.44,5.69v8.66c-6.88,4.21-10-.69-10-2.87s1-4.25,3.62-4.25a5.55,5.55,0,0,1,3.31.94,1,1,0,0,0,1.14,0,1.16,1.16,0,0,0,.55-1.49c-.45-.94-1.59-2.13-4.36-2.13-4.51,0-9.46,3.32-9.46,8S60.92,69.5,65,69.5a13.07,13.07,0,0,0,7.22-2.38h.5c.35,0,.3,1.39.25,2a.24.24,0,0,0,.25.25h.94a1.29,1.29,0,0,0,.59-.15l4.65-2A.4.4,0,0,0,79.68,66.77Z"/><path class="cls-1" d="M110.23,49.74a.31.31,0,0,0-.39-.29L103,51.08c-.09,0-.19.1-.24.2l-.35,1.19a.32.32,0,0,0,.3.39h2.52a.32.32,0,0,1,.3.3V66.63a.48.48,0,0,1-.35.44l-1.13.35a.32.32,0,0,0-.25.29l-.15,1.64h8l.79-1.93a.37.37,0,0,0-.34-.5l.05,0h-1.44a.45.45,0,0,1-.45-.44Z"/><path class="cls-1" d="M105.88,46.33l3.76-1.14a.78.78,0,0,0,.59-.74V42.61a.43.43,0,0,0-.59-.39l-4.11,1.43a.45.45,0,0,0-.3.3l-.34,1.44A.79.79,0,0,0,105.88,46.33Z"/><path class="cls-1" d="M133.26,64.6a.89.89,0,0,0-1.29.09,6.69,6.69,0,0,1-5.84,2.38,7.9,7.9,0,0,1-6.93-7.62c0-3.22.94-9.46,7.13-9.46,5.1,0,5.49,4.95,5.49,6.73a.62.62,0,0,0,.6.65h.24a1,1,0,0,0,.89-.6l.5-1.19a2.17,2.17,0,0,0,.2-1v-4.1a.9.9,0,0,0-.5-.84,16.18,16.18,0,0,0-8-2c-4.6,0-9.21,3.27-11,8.87a10,10,0,0,0,.4,7.27,8.49,8.49,0,0,0,4.55,4.36c5.45,2.38,11.64.49,13.67-2.48A.84.84,0,0,0,133.26,64.6Z"/><path class="cls-1" d="M136.33,52.86h2.52a.32.32,0,0,1,.3.3V66.63a.48.48,0,0,1-.35.44l-1.13.35a.32.32,0,0,0-.25.29l-.15,1.64h8l.79-1.93a.37.37,0,0,0-.34-.5l0,0h-1.44a.45.45,0,0,1-.45-.44V49.74a.31.31,0,0,0-.39-.29l-6.89,1.63c-.09,0-.19.1-.24.2L136,52.47A.32.32,0,0,0,136.33,52.86Z"/><path class="cls-1" d="M139.55,46.33l3.76-1.14a.78.78,0,0,0,.59-.74V42.61a.43.43,0,0,0-.59-.39l-4.11,1.43a.45.45,0,0,0-.3.3l-.34,1.44A.79.79,0,0,0,139.55,46.33Z"/><path class="cls-1" d="M156.68,57.42a5.61,5.61,0,0,1,3.32.94,1,1,0,0,0,1.13,0,1.16,1.16,0,0,0,.55-1.49c-.45-.94-1.58-2.13-4.36-2.13-4.5,0-9.45,3.32-9.45,8s3.56,6.74,7.67,6.74a13.13,13.13,0,0,0,7.23-2.38h.49c.35,0,.3,1.39.25,2a.24.24,0,0,0,.25.25h.94a1.26,1.26,0,0,0,.59-.15l4.66-2a.39.39,0,0,0,.24-.4v-.64a.44.44,0,0,0-.44-.45l-.05,0h-1.44a.77.77,0,0,1-.74-.75c0-1.28.15-4.11.15-7.92,0-5.25-2.08-9.31-8.81-9.31a15.3,15.3,0,0,0-9.51,3.12,1.85,1.85,0,0,0-.69,1.59v.29a1.06,1.06,0,0,0,.94,1,1.09,1.09,0,0,0,1.09-.5c.64-1,2.52-2.92,7-2.92,5.94,0,5.44,5.69,5.44,5.69v8.66c-6.88,4.21-10-.69-10-2.87S154.06,57.42,156.68,57.42Z"/><path class="cls-1" d="M171,53.75h.15c.3,0,.54-.14,2.37-.24V66.58a.88.88,0,0,1-.49.79l-.5.25a.86.86,0,0,0-.49.74l-.05,1h8.42l.14-.74a.83.83,0,0,0-.49-.9L178.37,67a.88.88,0,0,1-.5-.79V57.62A4.92,4.92,0,0,1,183,52.86c3.07,0,3.22,2.48,3.22,2.48V66.43a.9.9,0,0,1-.7.84l-.79.15a.8.8,0,0,0-.64.54l-.4,1.39H193l.3-.74a.86.86,0,0,0-.55-1.09L191.39,67a.78.78,0,0,1-.6-.74V54.59c0-3-1.33-4.45-5.54-4.45a10.44,10.44,0,0,0-6.58,2.67.41.41,0,0,1-.65-.29V50.19a.67.67,0,0,0-.69-.69h-.45a.78.78,0,0,0-.3,0L171,52.17a.61.61,0,0,0-.35.54v.7A.33.33,0,0,0,171,53.75Z"/><path class="cls-1" d="M197.73,36.08a3.17,3.17,0,0,0-2.53,3.71,3.11,3.11,0,0,0,.5,1.34c.35,1,2.67,1.83,1.23,4.9-1.13,2.43.8,3.37,1.79,2,3-4.45,2.92-7.92,2.72-9.26A3.29,3.29,0,0,0,197.73,36.08Z"/><path class="cls-1" d="M212,56.23c-4.31-1.83-5.65-5-3.17-6.34,1.88-.94,3.66.94,4.4,2a1.6,1.6,0,0,1,.3,1.14l-.2,1.58a.38.38,0,0,0,.25.35l.69.2a.62.62,0,0,0,.75-.25l.39-.59a1.92,1.92,0,0,0,.4-1.19V49.4a1,1,0,0,0-.55-.89,9,9,0,0,0-3.76-.85c-3.22-.14-5.69,1.09-7,3.17s-2,5.65,4,9,4.16,7.23.3,7.23c-3.12,0-3.17-3.46-3.07-4.75a.55.55,0,0,0-.55-.55h-.54a.57.57,0,0,0-.4.15l-.39.45a2.19,2.19,0,0,0-.6,1.53V68a.91.91,0,0,0,.64.89,10.52,10.52,0,0,0,2.93.5H209c4.45,0,7-4.95,7-6S216.29,58.11,212,56.23Z"/><path class="cls-1" d="M58.76,85.16c-.6,0-1.14,0-1.69,0a17.67,17.67,0,0,0-1.88.28c1.52-4.77-1.47-10.39-6-11.79-5.93-1.83-15.44-2.77-23.46-2.42,0-.4,0-1.09,0-1.93,0-5,0-6.88,0-6.88V50.69l.51-.16,8.2,19.61a1.22,1.22,0,0,0,2.28,0L44.57,49.5V66.13a.94.94,0,0,1-.74.94l-1.34.3a.63.63,0,0,0-.49.49l-.15,1.49H52.44l1-1.34a.61.61,0,0,0-.34-1l-2.68-.44a1,1,0,0,1-.79-.94V44.33l.62-.19c.37-.08.67-.23,1-.3a7.11,7.11,0,0,1,1-.37,2.31,2.31,0,0,0,.67-.15,2.5,2.5,0,0,1,.82-.15c.22-.07.52-.07.74-.15s.74-.22,1-.37.74-.22,1.19-.3A4.56,4.56,0,0,0,58,42c.29-.07.59-.22.89-.3L60,41.46c.37-.07.74-.07,1-.15.6-.15,1.19-.37,1.78-.52s1.19-.37,1.79-.52a12.82,12.82,0,0,0,1.63-.52,3.92,3.92,0,0,1,1.56-.29H68a13.46,13.46,0,0,0,2.38-.75c.52-.15,1-.37,1.63-.52a4,4,0,0,1,.89-.15A2,2,0,0,0,74,37.82l1.41-.44A6.56,6.56,0,0,0,77,36.93a2.11,2.11,0,0,1,1.11-.3,2.58,2.58,0,0,0,1.34-.29,2.34,2.34,0,0,1,.67-.3c.22-.08.44-.22.67-.3.07-.07.14-.15.22-.15h.29a.64.64,0,0,1,.38.89,2.38,2.38,0,0,0-.22,1.42l.14,1.26.15.59a1.35,1.35,0,0,0,1.19.89,1,1,0,0,1,.52.08.35.35,0,0,0,.37,0,2.24,2.24,0,0,0,.67-.15,6,6,0,0,0,1.11-.37l.75-.22a11.26,11.26,0,0,0,1.26-.3,3.46,3.46,0,0,1,.89-.15c.15,0,.3-.07.45-.07a5.92,5.92,0,0,1,1-.38c.44-.07.81-.22,1.19-.29a3.87,3.87,0,0,0,1.26-.45,2.47,2.47,0,0,1,1.26-.3h.22l1.27-.44,1-.22a6.64,6.64,0,0,0,1.12-.3c.29-.08.59-.22,1-.3l2.31-.67a3.53,3.53,0,0,0,.89-.15c.22-.07.44,0,.67-.07a1.58,1.58,0,0,0,1.26-.89,2.48,2.48,0,0,0,.29-.82,1.64,1.64,0,0,0-.29-1.33c-.3-.45-.59-.82-.89-1.19s-.45-.75-.67-1.19A7.56,7.56,0,0,0,100.58,29a4.86,4.86,0,0,1-.45-.67c-.15-.37-.29-.59-.44-.89-.3-.52-.67-1-.89-1.41a3.27,3.27,0,0,0-.6-.82c-.14-.07-.22-.22-.37-.29a1,1,0,0,1,0-1.34c.15-.15.23-.37.37-.52.23-.45.37-1,.6-1.41.52-.89.81-1.86,1.26-2.75.3-.59.52-1.19.74-1.71a8.39,8.39,0,0,0,.52-1.26,15,15,0,0,1,.67-1.56,6.29,6.29,0,0,1,.67-1.26,3.51,3.51,0,0,0,.52-1.19,3.57,3.57,0,0,1,.22-.82,1.48,1.48,0,0,0,.08-1.11,1.75,1.75,0,0,0-1.12-1.27,1.52,1.52,0,0,0-.59-.07,5.18,5.18,0,0,0-1.19.3l-1,.22-1,.22c-.29.08-.59.22-.89.3a5.75,5.75,0,0,1-1.19.3,12.92,12.92,0,0,0-1.7.37,2.21,2.21,0,0,0-1,.37,2.65,2.65,0,0,1-.67.3,6,6,0,0,0-1.26.29,3.38,3.38,0,0,0-.82.15,2.13,2.13,0,0,0-1.19.45c-.37.29-.59.15-.81-.15-.15-.15-.15-.22-.08-.45a1.65,1.65,0,0,0,.15-1,4.4,4.4,0,0,1,0-1V7.22a5.32,5.32,0,0,0,.15-1c0-1.49,0-3-.08-4.39a1.51,1.51,0,0,0-.14-.66,1.38,1.38,0,0,0-.9-1,1.83,1.83,0,0,0-1.11,0c-.22,0-.45.07-.59.07l-1,.22a4.28,4.28,0,0,1-.9.37,9.49,9.49,0,0,1-1.33.38,4.84,4.84,0,0,1-1,.22,6,6,0,0,0-1.26.3,5.21,5.21,0,0,1-1.41.44,9.27,9.27,0,0,0-1.49.37,4.47,4.47,0,0,1-1.48.37h-.23a4.07,4.07,0,0,1-1,.23,10,10,0,0,0-1.34.44,4.2,4.2,0,0,1-1.34.37,5.46,5.46,0,0,0-1.19.23,3.38,3.38,0,0,1-1,.29,1.46,1.46,0,0,1-.82.15A4.14,4.14,0,0,0,68.56,5a4.12,4.12,0,0,1-1.11.3,1.52,1.52,0,0,0-.52.07,17.07,17.07,0,0,0-1.78.52,6.87,6.87,0,0,0-.82.3,8.3,8.3,0,0,1-1.41.37,1.46,1.46,0,0,1-.59.15A4.14,4.14,0,0,0,61,6.92a1.28,1.28,0,0,0-.52.15,8.09,8.09,0,0,0-1.34.37,4.67,4.67,0,0,1-.89.3A10.6,10.6,0,0,0,57,8a8.18,8.18,0,0,1-1.19.38,18.51,18.51,0,0,1-1.86.44,7.46,7.46,0,0,1-1.41.37,4.66,4.66,0,0,0-1.41.45,2.39,2.39,0,0,1-1.41.3,3.1,3.1,0,0,0-1.12.29,3.46,3.46,0,0,1-1.11.45l-1.94.44a9,9,0,0,0-1.26.38,2.81,2.81,0,0,1-1.33.22.25.25,0,0,0-.15.07,8.93,8.93,0,0,0-1.34.3,3.63,3.63,0,0,0-1.19.45l-.52.22-2.23.44a2.52,2.52,0,0,0-1,.23,4.23,4.23,0,0,1-.6.29c-.37.15-.81.15-1.19.3a12.06,12.06,0,0,0-1.7.45c-.23.07-.45.07-.67.15A3,3,0,0,0,31,15a2.57,2.57,0,0,1-.67.29l-1.12.23-.81.22-.9.22c-.14,0-.37.08-.59.08a6.74,6.74,0,0,0-1.34.37,4.38,4.38,0,0,1-1.41.44,2.57,2.57,0,0,0-1,.3l-.37.22c-.22.15-.37.08-.59-.07s-.08-.3-.08-.45l.15-.22V16.5a4.51,4.51,0,0,0,0-1,.58.58,0,0,1-.07-.29c0-.23-.08-.38-.08-.6a1.44,1.44,0,0,0-.67-1A1.6,1.6,0,0,0,20,13.31c-.74.22-1.48.44-2.23.59l-.81.23a7.8,7.8,0,0,0-1.34.22,15.07,15.07,0,0,1-1.93.67,3.93,3.93,0,0,0-1,.29,3.77,3.77,0,0,1-1.56.3,2,2,0,0,0-.67.08,14.83,14.83,0,0,1-1.55.59c-.38.07-.67.22-1,.3a1.39,1.39,0,0,1-.53.07,2.31,2.31,0,0,0-.74.15c-.3.07-.52.22-.82.3-.89.22-1.78.59-2.74.74a4.23,4.23,0,0,1-.82.15c-.22.07-.45.07-.67.15a1.9,1.9,0,0,0-1,.44,1.82,1.82,0,0,0-.38,2.16,12.52,12.52,0,0,0,1,1.63c.37.67.74,1.34,1.11,1.93l.52.89a4.15,4.15,0,0,1,.6,1,5.37,5.37,0,0,0,.82,1.48l.66,1.12A6,6,0,0,0,5.72,30a1.21,1.21,0,0,1,.07,1.41L5.57,32l-.45,1a4.09,4.09,0,0,1-.66,1c-.37.67-.67,1.34-1,2-.22.45-.37.89-.59,1.34l-.6,1.26L2,39c-.23.45-.38.89-.6,1.34a4,4,0,0,0-.44.81A15.67,15.67,0,0,0,.15,42.8.22.22,0,0,0,.07,43a3.78,3.78,0,0,0-.07.89,1.22,1.22,0,0,0,.22.74,1.86,1.86,0,0,0,1,.74,1.27,1.27,0,0,0,.74.08,5.82,5.82,0,0,0,1-.3,3.89,3.89,0,0,1,1.19-.37c.52-.15,1-.22,1.49-.37L7,43.91a11,11,0,0,0,1.56-.37l1.93-.44L12,42.65c.67-.15,1.34-.3,2-.52a4.88,4.88,0,0,0,1.63-.59.44.44,0,0,1,.3-.08l.45.22a.34.34,0,0,1,.07.38.57.57,0,0,0-.15.37.64.64,0,0,0-.07.52c0,.29.07.52.07.74s.08.3.08.45-.08.59-.08,1c0,.82-.07,1.64-.07,2.53v.22a1.13,1.13,0,0,0,0,.52c0,.45.07.82.07,1.26v.45a6,6,0,0,0,.08,1.19,1.89,1.89,0,0,0,.29.81.86.86,0,0,0,.82.45,3.8,3.8,0,0,0,1.26,0,.86.86,0,0,1,.37-.07,4.26,4.26,0,0,0,1.34-.3c.3-.08.52-.22.82-.3l1.11-.22.26-.08v11.3s-.05,1.83-.3,6.44a11.32,11.32,0,0,1-.2,1.88c-10,1-18.86,2.33-18.86,7.33.25,6.78,13.47,8.81,18.72,5.2,2.17-1.49,2.72-5.06,3.31-9.16a61.45,61.45,0,0,1,13.37.94c7,1.27,12,7.61,14.12,10.65-5.41,2-7.12,6.51-6.92,9,.35,4.51,5.94,6.09,9.06,3.27a2.54,2.54,0,0,0,.84-2.08s-4.15,1.59-5.24-1.83,11.58-10.25,16.63.74-1.53,17.48-8,17.48A10.39,10.39,0,0,1,51.63,110c-1.54-1.39-2.48-3.27-4.06-7.33L38.31,76.7A.7.7,0,0,0,37,76.6L22,108.18a.6.6,0,0,1-.54.35H20a.43.43,0,0,0-.4.35L19.45,110a.54.54,0,0,0,.54.64h6.09a.51.51,0,0,0,.4-.25l.94-1.19a.35.35,0,0,0-.25-.59H26a.58.58,0,0,1-.54-.84l5.1-10.89a1.15,1.15,0,0,1,1-.65h6.58a1.13,1.13,0,0,1,1.09.75l2.33,7.27a14.61,14.61,0,0,0,3.71,6.29c2.72,2.72,6.34,5.35,14.06,5.35C80.44,115.86,78.11,85.91,58.76,85.16Zm42.79-51L101.4,34a.16.16,0,0,1,.15-.15l.15.15C101.7,34.11,101.62,34.11,101.55,34.18Zm-.08-1.93c.08,0,.15,0,.08.07s-.08.15-.08.08-.07-.08-.15-.08C101.4,32.25,101.4,32.25,101.47,32.25ZM101.1,35h.07a.07.07,0,0,0-.07.07Zm-.82-2,.08.08c0,.07-.08.07-.15.15,0-.08-.08-.08-.08-.15S100.21,33,100.28,33ZM102,12.42c-.07.07-.07,0-.15,0,.08-.08.15-.08.15-.15a.07.07,0,0,1,.08.07Zm-.44-1.64a.69.69,0,0,1,.66-.07l.08.07c0,.08,0,.15-.08.15h-.66ZM100,15.24v-.07h.08A.07.07,0,0,1,100,15.24Zm.08-5.27c.07-.08.22.07.22.14s-.07.15-.22.15-.22-.07-.22-.15S100,10,100.06,10Zm-.22,2.89h.07c.07,0,.07.08.07.08h-.22A.08.08,0,0,1,99.84,12.86Zm.22,1h.3V14h-.3v.07a.48.48,0,0,0-.3-.07C99.84,13.83,100,13.9,100.06,13.9ZM2,19.62c0-.07,0-.07.07-.07a.07.07,0,0,1,.07.07Zm1,1.79a.21.21,0,0,1-.08.14c-.07-.07-.15-.14-.15-.22A.17.17,0,0,1,3,21.18C3.05,21.18,3.12,21.26,3.05,21.41Zm.22,1a.24.24,0,0,0-.15-.08c0-.07.15-.07.22-.07h.15a.07.07,0,0,0,.08.07c-.08,0-.08.08-.15.08Zm.3,1-.08-.07a.07.07,0,0,1,.08-.07.22.22,0,0,1,.14.07A.24.24,0,0,0,3.57,23.48Zm0-1.93a.07.07,0,0,1,.07-.07v.07Zm.14-1.78H3.57l-.23-.15c-.07,0-.07,0-.07-.07h.07a.64.64,0,0,1,.37-.08c.15,0,.3.08.3.15S3.86,19.77,3.71,19.77ZM1.56,42.13l-.08-.07A.08.08,0,0,1,1.56,42h.07A.25.25,0,0,1,1.56,42.13Zm1,1.26s-.08,0-.08-.07l.08-.08c.07,0,.07.08.14.08A.22.22,0,0,1,2.53,43.39Zm.59-.89c-.07-.07-.07-.07-.15-.07l.08-.08H3.2A.24.24,0,0,1,3.12,42.5Zm1-5.57.07.07a.25.25,0,0,1-.07.15c-.08,0-.08-.07-.15-.07Zm0,6.76L4,43.62c0-.08,0-.08.08-.08h.15C4.16,43.62,4.16,43.69,4.09,43.69ZM8.73,78.41h0c1-1.14,7.08-2.43,12.87-3.22C19.22,86.23,7.1,80.24,8.73,78.41ZM36.6,61.28,31.2,49.21l.45-.1.81-.22a6.49,6.49,0,0,0,1.19-.3A19.27,19.27,0,0,1,35.8,48c.75-.22,1.41-.37,2.08-.6a1.12,1.12,0,0,0,.45-.14,9.21,9.21,0,0,0,1.34-.3,2.09,2.09,0,0,0,.89-.22,2.49,2.49,0,0,1,.82-.3c.67-.2,1.35-.35,2.09-.54l-6,15.38A.48.48,0,0,1,36.6,61.28ZM32.91,47v-.08c.07,0,.07.08.15.08A.07.07,0,0,0,33,47,.07.07,0,0,1,32.91,47Zm5.72-2.23c0-.07.15-.15.22-.15l.08.08-.15.15A.24.24,0,0,1,38.63,44.73Zm.59,0c0-.07.08-.07.08-.15l.14.15-.07.08C39.3,44.81,39.3,44.73,39.22,44.73Zm.37.67v-.08h.15a.07.07,0,0,1-.07.08Zm2.53-1.86.15-.07c.15.07.29.07.44.15s.08.07.15.14-.15.08-.22.08a1.14,1.14,0,0,1-.45-.15A.25.25,0,0,1,42.12,43.54Zm1.41,0a.24.24,0,0,1,.22-.22c.08,0,.15.07.23.15-.08.07-.15.15-.23.15A.26.26,0,0,1,43.53,43.54Zm6.39-12c0,.22-.3.37-.3.15S49.84,31.43,49.92,31.58Zm-.15-10.84c.22.07.22.37-.07.29S49.62,20.81,49.77,20.74ZM50,34.11c.08.07-.15.22-.22.29C49.7,34.26,49.92,33.88,50,34.11Zm.08,8.17c0,.07,0,.15-.15.15a.16.16,0,0,1-.15-.15c0-.08.07-.15.22-.15S50.14,42.2,50.07,42.28Zm8.84-2.38c-.15,0-.3.08-.45.08a.29.29,0,0,1-.07-.15l.07-.08a.28.28,0,0,1,.22-.07.3.3,0,0,0,.23.07l.07.08A.07.07,0,0,1,58.91,39.9Zm2.15-.44a1.94,1.94,0,0,0-.52.14l-.07-.07c-.08-.07-.15-.07-.15-.15l.15-.15c.15,0,.29-.07.44-.07h.15c.08,0,.08.07.15.15Zm6.83-1.19v-.08H68A.08.08,0,0,1,67.89,38.27Zm1.71-1.86-.07-.07c0-.08.07-.08.07-.15s.08.07.08.15A.07.07,0,0,1,69.6,36.41Zm8.1-1.56h-.15v-.07c.08,0,.08-.08.15,0h.08A.07.07,0,0,1,77.7,34.85Zm.45.52A.29.29,0,0,0,78,35.3a.15.15,0,0,1,.15-.15c.07,0,.07,0,.22.07Zm.22-.52a.34.34,0,0,1-.3-.22c0-.15.08-.15.15-.15a.23.23,0,0,1,.22.22A.25.25,0,0,1,78.37,34.85Zm3.79.07a.07.07,0,0,0,.07-.07c.08,0,.08.07.15.07a.29.29,0,0,0-.07.15Zm.22,2.46a.07.07,0,0,1,.07-.08l.08.08Zm.52-3.05c-.07,0-.07,0-.15-.07.08,0,.08-.08.15-.08l.07.08Zm.82-.59c-.08,0-.08-.08-.08-.15s.08-.08.15-.15a1.47,1.47,0,0,1,.45.3c.07.07.07.07.22.07h.07c.08,0,.15.07.23.15s-.15.15-.23.07A1.53,1.53,0,0,1,83.72,33.74Zm.81-.82h.23a.85.85,0,0,0,.59,0,.27.27,0,0,1,.22.07.24.24,0,0,1,.15.08c-.07.07-.07.15-.15.15h-.22a.32.32,0,0,0-.37,0c-.15.07-.3,0-.52-.15C84.39,33.07,84.46,33,84.53,32.92Zm1.64,5.2h-.23a.16.16,0,0,1,0-.3h.16c.07,0,.22-.07.22.08S86.32,38.12,86.17,38.12ZM98,35.45a.08.08,0,0,0-.08-.08c.08,0,.08-.07.16-.07a1.71,1.71,0,0,1,.59.07.07.07,0,0,1,.07.08Zm.52-7.81c.07,0,.15.08.22.15-.15.08-.22.15-.29.15s-.15,0-.15-.07Zm.74-11.36a.07.07,0,0,1,.08.07v.08a.08.08,0,0,1-.08-.08Zm-.59-5.57a.29.29,0,0,1,.15.07c0,.08,0,.08-.08.08a.24.24,0,0,1-.15-.08A.07.07,0,0,0,98.65,10.71Zm-.37,1c.15-.15.29-.08.44,0s.08.07.15.15-.15,0-.15.07h-.15l-.29-.07C98.2,11.82,98.2,11.75,98.28,11.75Zm-1.19,0a.43.43,0,0,1,.44,0v.07l-.29.08h-.08c-.07,0-.07-.08-.07-.08Zm-3.71,1.71c-.08.07-.08.07-.15.07s-.08,0-.08-.07Zm-4.31-.08.07.08-.07.07a.07.07,0,0,1-.08-.07A.08.08,0,0,1,89.07,13.38ZM88.25,2.76a.28.28,0,0,1,.22.07c-.15.08-.15.08-.22.08a.08.08,0,0,1-.08-.08ZM88,13.38c0-.07.07-.07.14-.07l.23.15a.07.07,0,0,1-.08.07.36.36,0,0,1-.29.15L88,13.61c0-.08-.07-.08-.07-.15A.24.24,0,0,1,88,13.38Zm-.82-5.2a.24.24,0,0,0-.15.08L87,8.18a.07.07,0,0,1,.07-.07A.25.25,0,0,0,87.21,8.18ZM87.06,3.8a.07.07,0,0,0,.07-.07c0,.07.08.07.08.14a.08.08,0,0,0-.08.08C87.13,3.87,87.06,3.87,87.06,3.8Zm0,9.73h.3a.17.17,0,0,1,.15.15l-.08.07a1.64,1.64,0,0,0-.3.15v-.07h-.07c-.07,0-.22,0-.22-.08A.2.2,0,0,1,87.06,13.53Zm-.07.82h.07c.07,0,.22.07.22.15s-.15.15-.29.15l-.23-.15C86.76,14.42,86.91,14.35,87,14.35ZM87.51,21c.14.15.14.22,0,.3a.61.61,0,0,1-.3.07c-.22,0-.37,0-.45-.22s0-.3.15-.3A.81.81,0,0,1,87.51,21Zm-.3-.59a.26.26,0,0,1,.22-.08c0-.07.08,0,.08,0s-.08.15-.15.22A.16.16,0,0,0,87.21,20.37Zm-.15,3.71h.15l.22.15-.22.15h-.08c-.07-.08-.14-.08-.14-.15A.29.29,0,0,0,87.06,24.08ZM87.51,31c.14.07.22,0,.37,0a.16.16,0,0,1,.15.15s0,.15-.08.15a3.1,3.1,0,0,1-.37.07h-.07c-.15,0-.23-.07-.23-.15A.24.24,0,0,1,87.51,31Zm.37-7.73H87.8a.07.07,0,0,1-.07-.07c0-.08.07-.15.22-.15h.3C88,23,88,23.19,87.88,23.26Zm.29-8.91v-.08a.08.08,0,0,1,.08.08Zm-.66,5.2c-.08-.08-.15-.08-.15-.15s.07-.15.15-.07.22.07.37.07C87.8,19.55,87.65,19.4,87.51,19.55Zm.22-2.75a.24.24,0,0,0-.08.15c-.07-.08-.14-.15-.07-.15a.07.07,0,0,1,.07-.07S87.73,16.73,87.73,16.8ZM87.65,4.39c0,.08-.07.08-.14.08l-.08-.08a.29.29,0,0,1,.15-.07Zm-1-2.08A.88.88,0,0,1,87,2.24a.72.72,0,0,1,.37.07c.15,0,.15.08.07.23a1.62,1.62,0,0,1-.82,0c-.07,0-.07-.08-.07-.15A.07.07,0,0,1,86.61,2.31Zm0,16.05h.15a.94.94,0,0,1,.52.3v.07c-.07.08-.15.15-.22.08a.81.81,0,0,1-.52-.23c-.07,0-.07-.07-.07-.15A.24.24,0,0,1,86.61,18.36Zm1.12,15.82a1.86,1.86,0,0,0,1.41-1.33,3.91,3.91,0,0,0,.07-.9,15.22,15.22,0,0,0-.07-1.78,5.16,5.16,0,0,1,0-1V27.72l.15-.82a3.87,3.87,0,0,0-.15-1v-.3a7.57,7.57,0,0,1,0-1.78c.07-1,0-1.86,0-2.83a3.53,3.53,0,0,1,.15-.89c0-.22-.08-.44-.08-.67s-.07-.52-.07-.74c0-.52.07-1,.07-1.56a2,2,0,0,0-.14-.89c-.08-.07,0-.22.07-.3a.89.89,0,0,1,.6-.67,3.1,3.1,0,0,1,.37-.07l1-.22c.52-.08,1-.23,1.41-.3a12.8,12.8,0,0,0,2.31-.52c.37-.07.66-.22,1-.3a13.58,13.58,0,0,1,1.56-.52,3,3,0,0,0,.67-.37c.07,0,.07-.07.14-.07a.46.46,0,0,1,.67.37c0,.07-.07.15-.07.22a1.16,1.16,0,0,0-.3.22,2.33,2.33,0,0,0-.67,1,2.57,2.57,0,0,1-.37.82c-.37.89-.74,1.71-1,2.53a.58.58,0,0,0-.15.29l-.67,1.42-.22.59a3.63,3.63,0,0,1-.52,1.19A4.35,4.35,0,0,0,94.34,23c-.08.22-.22.51-.3.81a1.68,1.68,0,0,0,.15,1.56,1.74,1.74,0,0,1,.3.52,6,6,0,0,0,.74,1.19,2.81,2.81,0,0,1,.52.74c.22.37.45.82.74,1.27a2.67,2.67,0,0,1,.45.52,2.74,2.74,0,0,1,.37.66,7.56,7.56,0,0,0,.45.82l.52.89.44.37c0,.08.08.08.15.15.37.23.37.38.15.67a.7.7,0,0,1-.52.15,2.46,2.46,0,0,0-1.63.22,3.86,3.86,0,0,1-1.12.3,8.16,8.16,0,0,0-1.26.22,6.37,6.37,0,0,1-.74.37l-1,.23-1,.22a8.88,8.88,0,0,0-1.41.37l-.59.23c-.45.14-.82.29-1.19.37a5.11,5.11,0,0,1-1,.29h-.3a1.27,1.27,0,0,0-1.26.3c-.15.15-.22.3-.37.37a.53.53,0,0,1-.3.15.51.51,0,0,1-.29-.15,1.43,1.43,0,0,1-.38-.52.82.82,0,0,1-.07-.74,2.39,2.39,0,0,1,.59-.89c.08-.15.23-.15.45-.15a2.62,2.62,0,0,0,.74,0C86.84,34.4,87.28,34.26,87.73,34.18Zm9.21-13.44c0,.14-.07.22-.22.14-.08.08-.08-.07-.08-.14s.08-.15.15-.15A.15.15,0,0,1,96.94,20.74Zm-.3.37a.23.23,0,0,1-.15.07.07.07,0,0,1-.07-.07l.07-.08C96.57,21,96.57,21.11,96.64,21.11Zm-10.7-19c.08,0,.16.08.23.08a.24.24,0,0,0,.07.14c-.07.08-.14.08-.14.15l-.23-.15a.22.22,0,0,1-.07-.14A.21.21,0,0,1,85.94,2.09Zm-3.78.67.07.07h-.15C82.08,2.76,82.08,2.76,82.16,2.76Zm-10.33,3c.08,0,.15,0,.15.08a.25.25,0,0,1-.15.07c-.07,0-.07-.07-.15-.07C71.76,5.73,71.76,5.73,71.83,5.73Zm-1.26,1h.74a.07.07,0,0,1-.07.07h-.3a2.76,2.76,0,0,1-.37.08h-.08C70.49,6.77,70.49,6.77,70.57,6.7Zm-.52-1.19v.07a.28.28,0,0,1,.15.08c0,.07-.08.07-.15.07s0,0-.07,0-.08,0-.15-.07ZM68,6.92a1.5,1.5,0,0,1,.37-.22.29.29,0,0,0,.15.07.32.32,0,0,1-.3.3C68,7.14,68,7.07,68,7S68,6.92,68,6.92ZM57.79,9.45a.08.08,0,0,1,.08-.08s0,.08.07.08a.29.29,0,0,0-.15.07ZM56.53,11l.07.07c-.07,0-.07,0-.14.07l-.08-.07C56.38,11,56.46,11,56.53,11Zm-.89.14c.07,0,.15-.07.22-.07a.23.23,0,0,1,.15.07c-.07,0-.07.08-.07.08s-.08.07-.15.07h-.08a.07.07,0,0,1-.07-.07Zm-1-1.11v.07H54.6C54.67,10.11,54.67,10.11,54.67,10Zm-1.33.3a.24.24,0,0,1,.22.22c0,.15-.08.15-.22.15a.16.16,0,0,1-.15-.15C53.19,10.49,53.26,10.34,53.34,10.34Zm-5,1.71c-.07.07-.07.07-.15.07a.07.07,0,0,0-.07-.07Zm-12,3.78c.07.15.15.15.15.23s-.08.22-.15.15-.15-.08-.22-.08A1,1,0,0,0,36.4,15.83ZM35,15.46c.15,0,.22.08.22.15s-.07.15-.22.15-.23-.07-.23-.15S34.84,15.46,35,15.46Zm-3.72,1.86a.3.3,0,0,1,.23-.07.28.28,0,0,0,.22.07l-.22.15a.27.27,0,0,0-.23-.08ZM30.75,17h.15A.07.07,0,0,1,31,17a.08.08,0,0,1-.08.08h-.07c-.08,0-.15-.08-.22-.08A.24.24,0,0,0,30.75,17Zm-.81-.15c.07,0,.37.07.44.22h-.07l-.23.15a.27.27,0,0,0-.22-.07L29.71,17C29.79,16.87,29.86,16.8,29.94,16.8Zm-1.56.37.22.22a.24.24,0,0,0-.15.08c-.07,0-.22,0-.15-.15A.24.24,0,0,1,28.38,17.17Zm-1.56.08.07.07h-.07Zm-6.17-.6H21a.24.24,0,0,1-.15.08h-.22A.07.07,0,0,1,20.65,16.65Zm.08,2.68a5.92,5.92,0,0,0,1.11.07c.15,0,.22.07.15.22a.32.32,0,0,1-.3.3c-.15,0-.3-.07-.44-.07a1,1,0,0,1-.52-.08h-.08c-.15-.07-.3-.15-.22-.3A.39.39,0,0,1,20.73,19.33Zm-1.94,10-.07-.07h.15a.07.07,0,0,1,.07.07Zm.08,6.32a.24.24,0,0,1-.08.15.25.25,0,0,1-.07-.15s0-.08.07-.08A.08.08,0,0,1,18.87,35.67Zm-.15-8.92s-.15,0-.15-.14.15-.08.22-.15l.23.15v.07C18.94,26.68,18.87,26.75,18.72,26.75Zm-.37,16.12c-.08-.07-.23-.07-.3-.15a.24.24,0,0,1-.07-.14l.14-.15h.3a.24.24,0,0,1,.23.22A.34.34,0,0,1,18.35,42.87Zm.3.52a.24.24,0,0,1-.08.15c-.07,0-.22-.07-.22-.15l.15-.15Zm-.3-17.75a.15.15,0,0,1,.15-.15.34.34,0,0,1,.22.22c0,.15-.07.15-.22.15S18.35,25.79,18.35,25.64Zm.15,3.49-.08.07c-.07-.07-.07-.07-.15-.07s.08-.07.08-.15h.07C18.42,29.06,18.42,29.06,18.5,29.13Zm0-7.35h-.75V21.7l.23-.15h.52a.24.24,0,0,0,.15.08C18.57,21.7,18.57,21.78,18.5,21.78ZM18.12,23c.08-.08.15.07.15.07l-.07.07A.27.27,0,0,1,18,23,.24.24,0,0,0,18.12,23Zm.3,7.05a.24.24,0,0,0,.08.15.17.17,0,0,1-.15.15H17.9a.18.18,0,0,1-.07-.3A.86.86,0,0,1,18.42,30Zm-.15,15.16c-.07.07-.07.07-.15.07h-.07c-.07,0-.07,0-.07-.07Zm.45-29.79c.07,0,.07.07.15.07a.08.08,0,0,0-.08.08c-.07,0-.07-.08-.07-.08Zm-3.34.52h.07c.08,0,.08,0,.15.07s-.07,0-.15.08a.07.07,0,0,0-.07-.08H15.3C15.3,15.91,15.38,15.91,15.38,15.91Zm-.75,1.19c-.07.15-.15.07-.22.07s-.07,0-.07-.07.07-.15.14-.15A.15.15,0,0,1,14.63,17.1Zm-.37-.67a.15.15,0,0,1,.15.15c0,.07-.07.22-.22.15s-.15,0-.15-.08A.19.19,0,0,1,14.26,16.43ZM5.5,26.09A.08.08,0,0,0,5.42,26h.15l.08.08Zm-.38,8.54c.16,0,.3.07.3.22a.24.24,0,0,1-.14.07c-.16.08-.3-.07-.23-.14A.25.25,0,0,1,5.12,34.63Zm0,3v.08c0,.07-.07.07-.07.15C5,37.82,5,37.82,5,37.75A.21.21,0,0,0,5.12,37.67Zm1,4.76s0-.08-.07-.08l.14-.15a.08.08,0,0,1,.08.08C6.24,42.35,6.24,42.43,6.09,42.43Zm4.46-1.49a.32.32,0,0,1-.37-.07v-.08a.35.35,0,0,1,.37,0Zm1,.22c-.07.08-.14-.07-.14-.14l.07-.08c.07,0,.15.08.15.22Zm3-1.48a.26.26,0,0,1-.22-.08.07.07,0,0,0,.08-.07c.07-.07.14,0,.22,0a.07.07,0,0,0,.07.07A.22.22,0,0,1,14.48,39.68Zm.6.82c-.07,0-.15-.08-.22-.08l.15-.15c.07.08.22.08.22.15S15.08,40.5,15.08,40.5Zm0-.67c-.07,0-.22-.15-.15-.15a.16.16,0,0,1,.15-.15c.07,0,.15.07.15.22A.28.28,0,0,1,15.08,39.83Zm1.19.22c0,.07-.08,0-.08.07a.07.07,0,0,0-.07-.07s-.07-.07,0-.07a.24.24,0,0,1,.15-.08s.15,0,.15.08S16.34,40.05,16.27,40.05Zm.3-20.58a1.41,1.41,0,0,0-.23,1.34c0,.22.08.45.08.67v2.23a3.34,3.34,0,0,0,0,1.26,6.74,6.74,0,0,1,0,1.19,3.32,3.32,0,0,0,0,.89v2.08c-.08.07-.08.22-.08.37,0,.52-.07,1.12-.07,1.71,0,.22.07.45.07.67a3,3,0,0,1,0,1.19,4.24,4.24,0,0,0,0,1.33,3.92,3.92,0,0,1,0,1c0,.3-.07.59-.07.89a1,1,0,0,0,.15.82.28.28,0,0,0,.07.22c.15.22.08.37-.07.6a.68.68,0,0,1-.82.22h-.52c-.67.22-1.26.37-1.86.59a5.09,5.09,0,0,0-1,.37l-1.56.45-.52.07a2.2,2.2,0,0,0-1.18.15c-.6.15-1.27.3-1.94.52a2.5,2.5,0,0,0-1,.52,2,2,0,0,1-.37.23c-.15.07-.23.14-.37.07s-.16-.07-.16-.15c-.29-.22-.29-.3-.07-.52l.23-.22a1.55,1.55,0,0,0,.51-.67c.3-.67.67-1.34,1-2,.45-.89.82-1.78,1.27-2.74l.22-.45c.15-.45.37-.82.52-1.26l.82-1.71a1.83,1.83,0,0,0,.22-.89,1.63,1.63,0,0,0-.59-1.34,8.63,8.63,0,0,1-.67-1c-.37-.74-.82-1.48-1.27-2.3a15.82,15.82,0,0,0-.81-1.41l-.15-.37a9.93,9.93,0,0,0-.89-1.41,2.66,2.66,0,0,0-.82-1,.68.68,0,0,1,0-.82c.15-.14.3-.07.44-.07a1.57,1.57,0,0,0,1.27-.22,2.26,2.26,0,0,1,1.19-.37l1-.23.59-.14L10,19.7c.37-.15.81-.23,1.26-.37.15,0,.22-.08.37-.15l1.86-.52a5.55,5.55,0,0,1,1-.23c.82-.22,1.63-.37,2.45-.59a1.33,1.33,0,0,0,.6-.15,1.2,1.2,0,0,0,.51-.37.51.51,0,0,1,.45,0c.15.15.37.22.3.52,0,.15-.15.3-.22.45s-.23.22-.45.14H18a1.43,1.43,0,0,0-1.12.6Zm-10,9.44a.16.16,0,0,0,.15-.15c.07,0,.15.07.22.15a.28.28,0,0,1-.22.07C6.69,29,6.69,29,6.61,28.91Zm.08,6.61c0,.07-.08.07-.23.15,0-.08-.07-.08-.07-.15a.16.16,0,0,1,.15-.15A.17.17,0,0,1,6.69,35.52Zm-.15-8.69H6.46c-.07,0-.22,0-.22-.15s.07-.15.22-.15h.08a.48.48,0,0,1,.29.15C6.76,26.75,6.61,26.75,6.54,26.83Zm-.23,6.24a.07.07,0,0,0-.07.07l-.08-.07A.08.08,0,0,1,6.24,33S6.24,33.07,6.31,33.07Zm1-1.27a.07.07,0,0,1,.07-.07H7.5c.15,0,.23,0,.3-.07s.22,0,.3.07.07.07,0,.15S8,32,7.88,32a1.33,1.33,0,0,1-.53-.15Zm9.66,9.59v-.15H17l.07.07A.24.24,0,0,0,16.94,41.39Zm.44-19c-.07-.07.08-.07.15-.07s.08,0,.22.07a.5.5,0,0,1-.22.08C17.46,22.45,17.38,22.45,17.38,22.37Zm.08.67h.07S17.46,23.11,17.46,23Zm.07,1.11h.3l.07.08h-.37Zm.08,21.55h.51l-.07.07h-.37A.07.07,0,0,1,17.61,45.7Zm.66,2.89h-.15a.07.07,0,0,1-.07-.07h.07c.08,0,.08-.08.08,0h.22A.23.23,0,0,1,18.27,48.59Zm.6-3.19a.46.46,0,0,1-.52-.15l.07-.07h.45c.07,0,.07.07.15.14C18.94,45.32,18.94,45.4,18.87,45.4Zm.07-4.61-.07-.07a.07.07,0,0,1,.07-.08l.08.08C18.94,40.72,18.94,40.72,18.94,40.79Zm0-.89c-.07,0-.15-.07-.22-.07l-.07-.15a.15.15,0,0,1,.14-.15c.08-.07.3.07.3.22S19.09,39.9,18.94,39.9Zm.22-2.75a.31.31,0,0,1-.37,0c-.14,0-.14-.07-.14-.15a.22.22,0,0,0,.14-.07h.08c.07,0,.15.07.22.07s.07.08.15.08Zm.08-21.46a.27.27,0,0,1-.08-.23h.15c.15.23.38.15.52.15l.08.08-.08.07h-.22a.28.28,0,0,1-.22-.07Zm.59,4.23a.07.07,0,0,0-.07.07l-.07-.07v-.07C19.76,19.85,19.76,19.92,19.83,19.92Zm-.22,31.27c-.15,0-.22-.07-.15-.15s.08-.07.15-.14.15.07.15.14A.15.15,0,0,1,19.61,51.19Zm.82-1.26-.08-.07h.75c0,.07-.08.07-.08.07Zm.67,1.19C21,51,21,51,21,51l.08-.07a.07.07,0,0,1,.07.07A.25.25,0,0,1,21.1,51.12Zm.37-1.63a.25.25,0,0,0-.15.07h-.15c-.07-.07-.15-.07-.15-.22s.23-.15.3-.08a.17.17,0,0,1,.15.15Zm.67-1.64a16.92,16.92,0,0,0-1.64.74.53.53,0,0,1-.37.15,1.64,1.64,0,0,1-.44-.37.86.86,0,0,1,.07-.37A2.48,2.48,0,0,0,20,46.88V45.32c-.07-.74-.07-1.56-.07-2.3,0-.3.07-.59.07-.89,0-.07.08-.07,0-.15,0-.3-.07-.59-.07-.89a2.76,2.76,0,0,0-.08-.37V40c.15-.82,0-1.64.08-2.38A14.64,14.64,0,0,0,20,35.89c-.15-1.34,0-2.67-.07-4a16.89,16.89,0,0,1-.08-2,4,4,0,0,1,.15-.81,3,3,0,0,0-.07-1.42,2.41,2.41,0,0,1-.08-1V25.27A11.1,11.1,0,0,0,19.91,23a1.93,1.93,0,0,0-.08-.67,1,1,0,0,1,.3-.89c.08,0,.15-.07.22-.07a7.67,7.67,0,0,0,1.34-.23,13.73,13.73,0,0,0,1.78-.37,2.19,2.19,0,0,0,.75-.3,2.24,2.24,0,0,1,1-.37,10.68,10.68,0,0,1,1.56-.29,18.74,18.74,0,0,0,2.75-.75c.82-.22,1.63-.52,2.53-.74.59-.15,1.18-.22,1.78-.37s.89-.22,1.34-.3L37.59,17c.67-.22,1.41-.37,2.08-.59a4.56,4.56,0,0,0,1-.37l1-.23a4.08,4.08,0,0,0,1.41-.37A10.47,10.47,0,0,1,44.42,15l.89-.23a5.27,5.27,0,0,1,.52-.14A3,3,0,0,0,47,14.42a5.72,5.72,0,0,1,1.78-.52c.37-.07.74-.22,1.11-.29a3.88,3.88,0,0,1,1.56-.38c.3,0,.52-.14.75-.14.44-.15.89-.23,1.33-.38a4.28,4.28,0,0,0,.9-.37,6.2,6.2,0,0,1,1-.15,5.25,5.25,0,0,0,1.18-.37,5.79,5.79,0,0,1,1.56-.29,5.15,5.15,0,0,0,1-.3,4.66,4.66,0,0,1,1.41-.45,12.72,12.72,0,0,0,1.71-.37,9,9,0,0,1,1.49-.52,16.39,16.39,0,0,1,1.78-.52A1,1,0,0,1,66,9.3a3.5,3.5,0,0,0,1.27-.23,9.64,9.64,0,0,0,1.7-.52,11.68,11.68,0,0,1,1.34-.37,4.25,4.25,0,0,0,1-.29,12.69,12.69,0,0,1,1.93-.52l1.86-.45c.22-.07.52-.07.74-.15A3,3,0,0,0,77,6.33,2.38,2.38,0,0,1,78,6,3.59,3.59,0,0,0,79,6l.52-.22a3.62,3.62,0,0,1,1.27-.44l1-.23a6,6,0,0,0,1-.29A6.14,6.14,0,0,0,84,4.39,3.55,3.55,0,0,0,85,4,.7.7,0,0,1,85.35,4a1.61,1.61,0,0,1,.45.52v.15a.24.24,0,0,1-.08.15,1.46,1.46,0,0,0-.15,1.11c0,.22.08.37.08.59s.07.15.07.3c0,.67-.07,1.34-.07,2,0,.22-.08.37-.08.59s-.07.15-.07.22a7.53,7.53,0,0,0,.15,1.34,1.68,1.68,0,0,1,0,1v1.86c0,.37-.08.74-.08,1.11a3.2,3.2,0,0,0,.08,1.19l.07.3v1.48l-.15,1v2.68a2.6,2.6,0,0,1,.08.74c-.08,1.19-.08,2.3-.08,3.49v.67a2.24,2.24,0,0,0,.15,1.19v.22a11.64,11.64,0,0,0-.07,1.56,2.19,2.19,0,0,0,.07.67,1.47,1.47,0,0,1-.07.82c-.08.15-.15.22-.22.15a8.16,8.16,0,0,0-1.41.29,1.93,1.93,0,0,1-1,.15,3.57,3.57,0,0,0-.82.22,20.41,20.41,0,0,1-2,.67,6.72,6.72,0,0,0-1.12.38c-.22.07-.52.07-.74.14s-.22-.07-.3,0h-.59a2.65,2.65,0,0,0-.67.3c-.45.22-1,.3-1.41.52l-1,.22a1.69,1.69,0,0,1-.59.08,4,4,0,0,0-1,.22,8.87,8.87,0,0,1-1.48.52,12.2,12.2,0,0,1-1.71.45l-1.26.22a6.29,6.29,0,0,0-1.19.3c-.75.22-1.42.44-2.16.59-1.19.37-2.37.74-3.64,1a4.43,4.43,0,0,0-1,.3,5.51,5.51,0,0,1-1,.22,2.33,2.33,0,0,0-1,.22c-.67.23-1.34.37-1.93.52a6,6,0,0,1-1.12.3,3.1,3.1,0,0,1-.37.07,1.7,1.7,0,0,0-.82.23,4.76,4.76,0,0,1-1.41.52,4.56,4.56,0,0,1-1,.29h-.15a6,6,0,0,0-1.19.15,7.66,7.66,0,0,1-.77.25V35.45l.32-.08a2.08,2.08,0,0,1,.6-.22c.29,0,1.11-.15,1.26-.52a1.6,1.6,0,0,0,.07-.82v-.89a2.3,2.3,0,0,0,0-.74c0-.23.08-.52.08-.67a2.82,2.82,0,0,1,0-.82v-.82c0-.22-.22-1,.3-1.11,1-.37,2-.52,3-.89,0,.07.52-.08.6,0s.07.29.14.37-.07.15-.07.22a.25.25,0,0,0,.07.15c.08.22-.07.45-.07.67-.07.82.15,1.63,0,2.52a.94.94,0,0,0,.07.6,1.69,1.69,0,0,0,.08.59c.07.37.07.67.52.52.22-.07.44-.07.67-.15A3,3,0,0,0,58,33c.07-.14.07-.37.14-.59a.8.8,0,0,0,.15-.6,3.85,3.85,0,0,0,0-1c.08-.3-.07-.52,0-.82a4.59,4.59,0,0,0,0-1.48,11.22,11.22,0,0,0,0-1.64,3.39,3.39,0,0,1,.08-.89,1.89,1.89,0,0,1,0-.67,16,16,0,0,1-.08-1.78c.08-.59-.07-1.11,0-1.63a2.81,2.81,0,0,0,0-.82c0-.23.08-.52.08-.82a2.3,2.3,0,0,1,0-.74c0-.15,0-.3-.08-.37s.08-.3,0-.37v-.9a.7.7,0,0,1,0-.66c.08-.38.15-.75-.22-.9a2.39,2.39,0,0,0-1.56.23A.91.91,0,0,0,56,17.69a10.13,10.13,0,0,1,.07,1.49c0,.52-.07,1-.07,1.48v.89c0,.23.07.45.07.67s-.07.6-.07.82v.74c0,.3.15.6.07.82s0,.52-.07.74.07.45-.07.6a.74.74,0,0,1-.67.29,9.82,9.82,0,0,1-1.64.45l-.81.22c-.15,0-.45.23-.6.08s-.22-.45-.22-.75v-.59c0-.15.07-.37,0-.52a2.8,2.8,0,0,1,0-.82c-.08-1,.07-2.23,0-3.27-.08-.52,0-1-.08-1.56s.23-1.11-.07-1.41a.81.81,0,0,0-.74-.15c-.23.08-.37.3-.67.3a1.6,1.6,0,0,0-.82.15c-.15.07-.45.07-.52.15s-.44.3-.44.44-.23.6-.15.75a7.39,7.39,0,0,0,0,1.33,7,7,0,0,1,0,1.71V24.9a2.62,2.62,0,0,1,0,.74v4.6c0,.23-.15.75,0,.82a2.14,2.14,0,0,1,0,.67,2.82,2.82,0,0,0,0,.82,1,1,0,0,1,0,.4.86.86,0,0,0-.1.16l-3.36,8.66c-.17,0-.33.08-.5.14a11.18,11.18,0,0,1-1.49.37,2.07,2.07,0,0,0-.74.15c-.74.22-1.49.37-2.23.59-.37.15-.74.22-1.18.37a19.15,19.15,0,0,0-2,.6c-.22.07-.45.22-.67.29a6,6,0,0,1-1,.23,6.74,6.74,0,0,0-1.34.37,4.73,4.73,0,0,1-1.48.37,2.39,2.39,0,0,1-.67.15,6.79,6.79,0,0,1-1.19.37l-.79.18L23.83,32.76a.6.6,0,0,0-1.14.25V47.68Zm28.3-21.32h.07c.15.15.08.45-.22.37C50.14,26.9,50.36,26.68,50.44,26.53ZM50.36,24c-.07-.15.08-.15.15-.15v.07C50.51,24,50.36,24.08,50.36,24Zm.08,5.57c-.15,0-.08-.15,0-.23S50.59,29.72,50.44,29.58Zm.07,3.93c-.07.15-.44.45-.44.23S50.44,33.22,50.51,33.51ZM50.88,30c.08-.3.23-.23.3-.08S50.81,30.24,50.88,30Zm6.39-7.06V23c0,.14-.22.22-.15,0S57.2,22.89,57.27,22.89Zm-.07-2.67c.15-.08.22.15.07.22S57.12,20.29,57.2,20.22Zm0,6.91c0,.07-.08.07-.08,0S57.2,27.05,57.2,27.13Zm-.08,3.93c.08-.07.23.08.15.15a.6.6,0,0,1-.29.3c-.08.07,0,.22-.08.29s-.15.15-.22.23c0-.08-.08,0-.08,0-.29-.15,0-.3.23-.45S57,31.21,57.12,31.06ZM37.67,93.48h-5.1a.41.41,0,0,1-.4-.54l2.72-5.85a.43.43,0,0,1,.75,0L38,92.94A.4.4,0,0,1,37.67,93.48Z"/><path class="cls-1" d="M94.8,79.87c2.88-1.1,4.94-3.24,4.94-6.81,0-5.74-5.55-8.41-9.21-8.41-2.82-.05-4-.85-4.51-1.44a1.29,1.29,0,0,1-.34-.94v-.5s1.63,1.78,5.54.5A7.85,7.85,0,0,0,97,55.14a5.86,5.86,0,0,0-1-3.47.39.39,0,0,1,.2-.59l4.16-1.78a.48.48,0,0,0,.3-.5,5.63,5.63,0,0,0-1.49-3.16.48.48,0,0,0-.69,0,19.61,19.61,0,0,1-3.82,2.87.66.66,0,0,1-.74,0c-1.29-1.13-4.2-.94-4.2-.94-8.32,0-7.68,7.83-7.68,7.83-.15,2.62,2.08,5.2,2.08,5.2s-1.68.79-1.68,3.46,3.16,4.36,6.63,4.36,7.43,3.31,6.34,7.27a3.81,3.81,0,0,1-.87,1.62.71.71,0,0,0-.25-.06H91.89a1,1,0,0,0-.54.15L89,78.71h-.06C78.74,76.58,83,69.3,84,67.81v-.15a.27.27,0,0,0-.15-.24l-.64-.2a1.17,1.17,0,0,0-.89.25c-4.5,4.08-4.07,7.53-1.83,9.9a.89.89,0,0,0-.28.07l-3.81,2a.65.65,0,0,0-.4.59V81a.42.42,0,0,0,.5.39L78.22,81a.65.65,0,0,1,.8.65V108a.6.6,0,0,1-.35.49l-1,.45a.53.53,0,0,0-.3.49v1.14h7.18l.84-1.63a.32.32,0,0,0-.29-.45H83.82a.55.55,0,0,1-.55-.54V86.4a59.86,59.86,0,0,1,.4-6.68V79.6a14.12,14.12,0,0,0,3.46,1.08V81a.41.41,0,0,0,.49.39L89.36,81a.65.65,0,0,1,.8.65V108a.6.6,0,0,1-.35.49l-1,.45a.53.53,0,0,0-.3.49v1.14h7.18l.84-1.63a.32.32,0,0,0-.29-.45H95a.55.55,0,0,1-.55-.54V86.4A59.73,59.73,0,0,1,94.8,79.87ZM85.18,53.51a4,4,0,0,1,5.1-2.83,5,5,0,0,1,2.62,2.23,5.06,5.06,0,0,1-.44,6.34v0a4.49,4.49,0,0,1-6.73-1.93A5.1,5.1,0,0,1,85.18,53.51Z"/><path class="cls-1" d="M105.6,83.48l-4.11,1.44a.44.44,0,0,0-.29.29l-.35,1.44a.79.79,0,0,0,1,.94l3.76-1.14a.79.79,0,0,0,.6-.74V83.88A.44.44,0,0,0,105.6,83.48Z"/><path class="cls-1" d="M108,108.18l0,0h-1.44a.44.44,0,0,1-.44-.44V91a.32.32,0,0,0-.4-.3l-6.88,1.63a.33.33,0,0,0-.25.2l-.34,1.19a.3.3,0,0,0,.29.39h2.53a.32.32,0,0,1,.29.3v13.47a.48.48,0,0,1-.34.44l-1.14.35a.32.32,0,0,0-.25.3l-.15,1.63h8l.8-1.93A.38.38,0,0,0,108,108.18Z"/><path class="cls-1" d="M132,107l0,0h-1.43a.77.77,0,0,1-.75-.75c.05-1.28.15-4.1.15-7.92,0-5.24-2.08-9.3-8.81-9.3a15.33,15.33,0,0,0-9.51,3.12,1.83,1.83,0,0,0-.69,1.58v.3a1.11,1.11,0,0,0,2,.44c.64-1,2.53-2.92,7-2.92,5.94,0,5.45,5.7,5.45,5.7v8.66c-6.88,4.21-10-.7-10-2.87s1-4.26,3.61-4.26a5.59,5.59,0,0,1,3.32.94,1,1,0,0,0,1.14,0,1.17,1.17,0,0,0,.54-1.49c-.44-.94-1.58-2.12-4.36-2.12-4.5,0-9.45,3.31-9.45,8s3.56,6.73,7.67,6.73a13.13,13.13,0,0,0,7.23-2.38h.5c.34,0,.29,1.39.24,2a.24.24,0,0,0,.25.25H127a1.26,1.26,0,0,0,.59-.15l4.66-2a.39.39,0,0,0,.25-.39v-.65A.45.45,0,0,0,132,107Z"/><path class="cls-1" d="M155.07,108.78l-1.39-.55a.77.77,0,0,1-.59-.74V95.86c0-3-1.34-4.46-5.55-4.46A10.47,10.47,0,0,0,141,94.07a.41.41,0,0,1-.65-.29V91.45a.67.67,0,0,0-.69-.69h-.45a.61.61,0,0,0-.29,0l-5.55,2.62A.61.61,0,0,0,133,94v.69a.33.33,0,0,0,.34.35h.15c.3,0,.55-.15,2.38-.25v13.07a.89.89,0,0,1-.5.79l-.49.25a.86.86,0,0,0-.5.74l-.05,1h8.42l.15-.74a.83.83,0,0,0-.5-.89l-1.73-.75a.88.88,0,0,1-.5-.79V98.88a4.92,4.92,0,0,1,5.15-4.76c3.07,0,3.22,2.48,3.22,2.48v11.09a.9.9,0,0,1-.69.84l-.79.15a.82.82,0,0,0-.65.54l-.39,1.39h9.3l.3-.74A.87.87,0,0,0,155.07,108.78Z"/><path class="cls-1" d="M177,90.91a16.21,16.21,0,0,0-8-2c-4.6,0-9.21,3.26-11,8.86a10,10,0,0,0,.4,7.27,8.53,8.53,0,0,0,4.55,4.36c5.45,2.38,11.64.5,13.66-2.47a.84.84,0,0,0-.09-1.09.89.89,0,0,0-1.29.1,6.69,6.69,0,0,1-5.84,2.37,7.88,7.88,0,0,1-6.93-7.62c0-3.22.94-9.46,7.13-9.46,5.1,0,5.49,5,5.49,6.74a.62.62,0,0,0,.6.64h.24a1,1,0,0,0,.89-.59l.5-1.19a2.22,2.22,0,0,0,.2-1V91.75A.9.9,0,0,0,177,90.91Z"/><path class="cls-1" d="M191.11,89c-7.62,0-11.93,6.24-11.93,12.23,0,4.51,3.42,9.66,10.7,9.66,6,0,8.56-3.27,9.25-4.41a1.13,1.13,0,0,0,.15-.79l-.15-.55a.44.44,0,0,0-.74-.19,10.84,10.84,0,0,1-6.83,3.66c-3.37.35-6.83-3-7.43-6.09s.85-11,5.55-11c3.56,0,5,3.56,5.49,5.25a.68.68,0,0,1-.64.89h-6.88a1.14,1.14,0,0,0-1.09.74l-.45,1.14a.49.49,0,0,0,.45.69c2.08,0,8.07.05,11.39.1a2,2,0,0,0,2-2.42C199.18,94.42,196.91,89,191.11,89Z"/><path class="cls-1" d="M62.84,25.86a1.5,1.5,0,0,1,0,.6,1.65,1.65,0,0,0,0,.59,3.94,3.94,0,0,1,0,1,2.34,2.34,0,0,1,.08.74c-.08.52.44.67.29,1.19s-.37,1,0,1.34.9.07,1.34.07H65l.44-.22a3.36,3.36,0,0,0,.75-.3,14.89,14.89,0,0,1,1.63-.37c.15,0,.3-.15.45-.15s.15,0,.22,0l.59-.15a5.83,5.83,0,0,0,1.41-.67,3,3,0,0,0,.38-.89,2.42,2.42,0,0,0,.07-.67c.08-.52-.07-1.11.22-1.56l.3-.74c0-.22.22-.52.22-.74,0-.45-.89-.37-1.19-.23a5,5,0,0,0-.59.45,4.75,4.75,0,0,1-.3.67,8.77,8.77,0,0,1-.22,1.41c-.15.3-.07.52-.3.89s-.15.45-.44.52a10.49,10.49,0,0,0-1.41.45h-.08c-.37.07-.67,0-.67-.37a12.8,12.8,0,0,1,0-1.64c0-.3-.07-.52-.07-.82v-.74c-.07-.52,0-1.11-.07-1.63a2.35,2.35,0,0,1,0-.75c-.08-.14,0-.52,0-.66.07-.38.14-.52.44-.45a.7.7,0,0,0,.37-.07c.15,0,.23-.15.37-.15s.45,0,.67-.23a1.38,1.38,0,0,0,.3-.59c0-.08.07-.3,0-.37s-.15,0-.22,0-.3-.22-.52-.08-.23,0-.23,0-.22.08-.37.15a1,1,0,0,1-.67.22c-.37-.14-.14-1-.14-1.33s0-.45-.15-.6a.56.56,0,0,1,.07-.59,1.54,1.54,0,0,0,.08-.82,4.56,4.56,0,0,1-.15-.59c-.08-.15-.23-.15-.23-.37s.23-.45.3-.67a1.1,1.1,0,0,1,.52-.6,1.73,1.73,0,0,1,.6,0c.22.08.44-.14.66-.22s.52-.15.82-.15.52-.07.52.08v.74c.15.52.52.15,1,.07a1.48,1.48,0,0,0,.81-1.18c-.07-.23.08-.52.08-.82s-.08-.37-.08-.67c0-.52-.67-.52-1-.37a3.06,3.06,0,0,1-.81.22,5.83,5.83,0,0,1-.75.37,11.44,11.44,0,0,0-1.48.37c-.23.15-.37.38-.67.3-.07,0-.15-.07-.3,0s-.15.15-.22.15-.3.07-.45.07h-.22a2.86,2.86,0,0,0-.82.08l-.81.15c-.3.07-.38.15-.45.44l-.22.52v.45a1.89,1.89,0,0,0,0,.67c0,.52-.15,1-.15,1.48a23.2,23.2,0,0,1,0,3.12,3.49,3.49,0,0,0,.07.89c.08.15,0,.52,0,.75-.07.44,0,.89-.07,1.33v.6c-.07.15,0,.22,0,.37S62.84,25.56,62.84,25.86Zm.67-2.3c-.07.22-.37.22-.3,0s.3-.3.3-.08Zm0-4.83c.08-.3.6-.3.6,0A.3.3,0,0,1,63.51,18.73ZM64.18,20c0,.15-.07.23-.15.23s-.22,0-.22,0a.23.23,0,0,1,.07-.3C64,19.92,64.11,19.85,64.18,20Zm-.52,4.09c0-.3.52-.3.45-.07-.23.37-.37.44-.45.14Zm.15,4c0-.3.37-.3.37-.07S63.81,28.31,63.81,28.09Zm.82.74c0-.07-.08,0-.08,0-.3.08-.15-.52.08-.44S65,28.61,64.63,28.83Zm-.23-1.48c0-.3.52-.37.52-.08A.26.26,0,0,1,64.4,27.35Zm.9.44c-.08,0-.23,0-.23-.07a.24.24,0,0,1,.23-.22Zm.51-1c.23-.14.38.23.08.38.07-.08-.15,0-.15-.08S65.74,26.75,65.81,26.75ZM65.3,16.8c.22-.07.29.3,0,.37S65.07,16.8,65.3,16.8Zm-.08,1.34c.15,0,.22,0,.22.07s-.29.45-.37.3S65.07,18.14,65.22,18.14Zm.08,1.56c0,.22-.3.22-.23,0S65.3,19.55,65.3,19.7Zm-.08,1c.15-.08.3,0,.22.14s-.07.3-.29.3-.08-.22-.23-.37-.52.15-.52-.22v-.08c0-.14.08-.22.3-.29s.15.22.22.29C65,20.74,65.07,20.74,65.22,20.74Zm.15,1.63c0,.22-.37.15-.3,0a.24.24,0,0,1,.23-.22C65.37,22.15,65.37,22.3,65.37,22.37Zm-.59-.52c0,.15-.3.3-.23.08S64.78,21.85,64.78,21.85Zm0-5.42v.07c0,.08-.08.23-.15.23s-.15-.15-.15-.23S64.78,16.21,64.78,16.43Zm-.23,1.19c.3-.08.23.44,0,.37S64.33,17.69,64.55,17.62ZM64.63,19c.29-.07.29.38,0,.45S64.25,19,64.63,19Zm.29,4.16c.08.08.08.23.15.3s.23.07.3.15-.22.3-.3.3-.15-.23-.29-.3-.53,0-.45-.37A.32.32,0,0,1,64.92,23.11Zm-.29,1.71c-.15,0-.15-.29,0-.44h.07C64.85,24.38,64.85,24.67,64.63,24.82Zm.15,1c.22.07.37.3.52.44s.14.3-.08.38h-.07c-.15.07-.23-.23-.37-.3s-.45-.15-.53-.3-.29-.15-.44-.3-.15-.44.07-.44.23.29.45.37S64.7,25.64,64.78,25.79Zm-.67-2.9L64,23c-.22,0-.44-.15-.15-.38S64.33,22.82,64.11,22.89Zm-.23-7c.15.07.15.07.08.15C63.81,16,63.88,16.06,63.88,15.91Zm-.07,1.26c.22,0,.37,0,.37.22s-.59.6-.59.23C63.59,17.47,63.66,17.17,63.81,17.17Zm-.22.89c-.08.08-.08.37-.23.37s-.22,0-.22-.14Z"/><path class="cls-1" d="M30.83,26.09c.15.52.22,1,.37,1.55.07.23,0,1.27.45,1.19s.88-.67,1.33-1.11a1.18,1.18,0,0,0,.37-.67v-.59c-.07-.23-.07-.52-.15-.75,0-.07-.07-.15-.07-.22v-.3a1.34,1.34,0,0,1,.07-.89c.08-.22.38-.29.6-.29a2.19,2.19,0,0,1,.59-.3c.23.07.45-.08.75-.08.07,0,.44-.15.44,0s0,.38,0,.6l.15.81c0,.23-.15.6-.07.82v1c0,.22.07.44.07.67s0,.37-.07.66a2.63,2.63,0,0,1-.08.75,4.4,4.4,0,0,0,0,1c0,.3-.07.6-.07.82a10.57,10.57,0,0,1,0,1.49v1.7a10.13,10.13,0,0,0,.07,1.49,10.15,10.15,0,0,1,0,1.56,1.91,1.91,0,0,0,.52,1.26c.08.15.3.3.37.45s.37.15.6.07a10.17,10.17,0,0,0,1.19-.29A6.86,6.86,0,0,0,39,38c.22-.22.07-.3.22-.59a3,3,0,0,0,.15-.82,2.15,2.15,0,0,0,0-.67c0-.07-.15-.22-.07-.3s.22-.07.14-.14,0-.45-.07-.6,0-.37-.07-.59a1.9,1.9,0,0,0-.08-.67c-.07-.23.08-.6,0-.82a2.62,2.62,0,0,1,0-.74,10.75,10.75,0,0,1-.15-1.49c0-.59-.07-1.11-.07-1.78,0-.45.15-1,.15-1.49s.07-1,.07-1.63c.08-.37,0-.82.08-1.26v-.9c0-.22-.15-.37-.15-.59.07-.44.82-.52,1.11-.59s.59-.15,1-.15a.44.44,0,0,1,.52,0c.29.3-.15,1-.15,1.33a3.43,3.43,0,0,0-.08.9.87.87,0,0,0-.07.59c.07.15.07.37.22.45a1.22,1.22,0,0,0,.75.14c.29,0,1.11.3,1.33-.14s0-1.12.08-1.56a4.65,4.65,0,0,0,.15-1v-.74c0-.6.22-1,0-1.56s-.52-.52-1-.52a3.53,3.53,0,0,0-.82.07,1.37,1.37,0,0,1-.67.3c-.3-.07-.6.22-.89.22a5.26,5.26,0,0,0-.74.22l-.82.23a2.31,2.31,0,0,1-.67.15,7.3,7.3,0,0,1-1.63.59A1.84,1.84,0,0,0,36,22a3.12,3.12,0,0,1-.82.22c-1,.37-2,.37-3,.75a7.91,7.91,0,0,0-1.26.51,2,2,0,0,0-.37,1.12l.07.74A2.13,2.13,0,0,0,30.83,26.09Zm6,8.76c-.22,0-.14-.3,0-.3C37.14,34.48,37.07,34.85,36.84,34.85Zm-.22-4c.08-.22.37-.45.45-.15v.08C36.92,31,36.47,31.14,36.62,30.84ZM36.84,32c0,.07-.07.07-.07,0Zm.67,4.68a.19.19,0,0,1-.07-.37h.07C37.66,36.34,37.74,36.71,37.51,36.71Zm0-1.56c.15-.08.15.15.08.22S37.37,35.22,37.51,35.15Zm-.07-8.25c.3,0,.22.37-.07.37S37.29,27,37.44,26.9Zm0-1.11c.07-.08.22-.08.22.07v.08C37.59,26,37.29,25.94,37.44,25.79Zm.15,3.71c.22.08.07.45-.15.52S37.21,29.5,37.59,29.5Zm.07-.74c-.15,0-.29,0-.29-.15s0-.3.14-.3S37.81,28.61,37.66,28.76Zm.45.07c.22,0,.29.23.07.37h-.07C38,29.13,37.81,28.76,38.11,28.83Zm0,2.9v-.07C38.18,31.66,38.18,31.66,38.11,31.73Zm.07,4c-.07-.07-.07-.07,0-.15l.08.08A.07.07,0,0,0,38.18,35.74ZM38,34.4c0-.14.3-.22.3,0S38,34.63,38,34.4Zm.08-6.53c-.23.07-.3-.3,0-.45S38.4,27.79,38.11,27.87Zm-.6-4.9c.15,0,.23.22,0,.29S37.37,23,37.51,23Zm-.14,1.26c.29-.08.51.37.74.37s.29.37,0,.52-.37-.3-.6-.37-.3,0-.3-.22A.37.37,0,0,1,37.37,24.23Zm0,6.83c.14,0,.22,0,.22.15a.32.32,0,0,1-.22.22C37.14,31.36,37.14,31.14,37.37,31.06Zm.29,2.75c0,.37-.67.37-.59,0S37.66,33.66,37.66,33.81ZM37,22.59v.08c0,.15-.37.22-.29,0S36.92,22.52,37,22.59Zm-.15,3.94c.23,0,.15.22-.07.3v.07C36.47,26.83,36.62,26.53,36.84,26.53Zm0,1.26c.3-.07.15.15,0,.37h-.07C36.47,28.24,36.55,27.79,36.84,27.79Zm-.29,1.71c0-.07.07-.3.22-.3s.3.08.3.15-.23.23-.3.3S36.47,29.65,36.55,29.5Zm-.37-4.75c.22-.08.37.22.15.29S36,24.82,36.18,24.75Zm.15,9.13c.29-.07.14-.44.44-.59s.37.45.07.45a.43.43,0,0,0-.37.14c-.14.15-.07.3-.22.38C36.1,34.55,35.88,34,36.33,33.88Z"/></g></g></svg>