<svg xmlns="http://www.w3.org/2000/svg" viewBox="0 0 185.66 145.21"><defs><style>.cls-1{fill:#fff;}</style></defs><g id="Layer_2" data-name="Layer 2"><g id="Layer_1-2" data-name="Layer 1"><path class="cls-1" d="M55.87,81.15h7.78l-.31,4L75.27,97.78h42.9a3.32,3.32,0,0,0,3.31-3.55l-.94-13.08H129a11.69,11.69,0,0,0,11.68-11.68V34.71A11.69,11.69,0,0,0,129,23H127.6L126,12.66h-8.22l.83-9.23A3.2,3.2,0,0,0,115.39,0l-7.77.84A132.78,132.78,0,0,1,77.27.72L71.33,0,71,0a3.2,3.2,0,0,0-3.19,3.44l.71,9.22H61.37L59.75,23H55.87A11.69,11.69,0,0,0,44.2,34.71V69.47A11.69,11.69,0,0,0,55.87,81.15ZM78.71,92.7l.73-10.42-10.73-.75,0-.38h0l1.15-14.8h44.48l1.9,26.35Zm38.59-75h4.33l.83,5.29h-5.63Zm-40.62-12a137.61,137.61,0,0,0,31.49.13l5.15-.57-1.49,16.54H74.35L73.08,5.34Zm-11,12h3.23L69.35,23H64.89Zm-16.44,17a6.61,6.61,0,0,1,6.6-6.6H129a6.61,6.61,0,0,1,6.6,6.6V69.47a6.61,6.61,0,0,1-6.6,6.6h-8.81l-.7-9.72h3.75a2.54,2.54,0,1,0,0-5.08H61a2.54,2.54,0,0,0,0,5.08h3.8l-.75,9.72H55.87a6.61,6.61,0,0,1-6.6-6.6Z"/><path class="cls-1" d="M66.67,57a8.21,8.21,0,1,0-8.21-8.21A8.22,8.22,0,0,0,66.67,57Zm0-11.34a3.13,3.13,0,1,1-3.13,3.13A3.13,3.13,0,0,1,66.67,45.61Z"/><path class="cls-1" d="M119,57a8.21,8.21,0,1,0-8.21-8.21A8.22,8.22,0,0,0,119,57Zm0-11.34a3.13,3.13,0,1,1-3.13,3.13A3.13,3.13,0,0,1,119,45.61Z"/><path class="cls-1" d="M18.68,132.71c-.3-.37-.67-.3-1.07,0a7.9,7.9,0,0,1-4.71,1.58A8,8,0,0,1,5,126a7.89,7.89,0,0,1,7.93-8.13,8.65,8.65,0,0,1,4.81,1.55c.4.23.74.23.94,0l1.78-3a.69.69,0,0,0-.2-.84,12.07,12.07,0,0,0-7.33-2.32,12.84,12.84,0,1,0,0,25.67,11.63,11.63,0,0,0,7.29-2.35c.41-.3.51-.57.17-1Z"/><path class="cls-1" d="M31.56,121.69a8.6,8.6,0,1,0,8.7,8.63A8.65,8.65,0,0,0,31.56,121.69Zm0,13a4.27,4.27,0,0,1-4.24-4.37,4.25,4.25,0,1,1,4.24,4.37Z"/><path class="cls-1" d="M47.39,113.59H44.26a.66.66,0,0,0-.7.74v23.45a.65.65,0,0,0,.7.74h3.13a.69.69,0,0,0,.74-.74V114.33A.71.71,0,0,0,47.39,113.59Z"/><path class="cls-1" d="M59.86,121.69a8.6,8.6,0,1,0,8.7,8.63A8.65,8.65,0,0,0,59.86,121.69Zm0,13a4.27,4.27,0,0,1-4.24-4.37,4.25,4.25,0,1,1,4.24,4.37Z"/><path class="cls-1" d="M80.86,121.86a3.23,3.23,0,0,0-.64,0,5.52,5.52,0,0,0-4.2,2.45c0-.23-.3-1.07-.33-1.3-.14-.44-.34-.88-.88-.88H72.66a.85.85,0,0,0-.87.88v14.71c0,.57.3.84.87.84h2.79c.61,0,.91-.27.91-.84v-8.5a3.22,3.22,0,0,1,3.16-3.26,2.62,2.62,0,0,1,1.64.61,3.8,3.8,0,0,0,1,.4.87.87,0,0,0,.7-.47l1.35-2.19a1,1,0,0,0,.17-.46C84.36,123.07,82.1,122,80.86,121.86Z"/><path class="cls-1" d="M95.65,121.66a5.26,5.26,0,0,0-4.4,2.28l-.2-1.08c-.24-.83-.78-.83-1.48-.83H87.92a.91.91,0,0,0-.94,1v21.2a1,1,0,0,0,1.08,1h2.55a1,1,0,0,0,1-1v-7.26a5.32,5.32,0,0,0,3.93,1.72c4.57,0,7.9-3.77,7.9-8.5S100.09,121.66,95.65,121.66ZM95,134.32a4.07,4.07,0,0,1-3.83-4.26A4,4,0,0,1,95,126a4.21,4.21,0,0,1,0,8.36Z"/><path class="cls-1" d="M115.78,121.79c-2.12,0-4.47,1.11-5.21,2.22V114.4a.74.74,0,0,0-.84-.81H107a.75.75,0,0,0-.81.81v23.35c0,.5.27.77.87.77h2.49c.47,0,1-.1,1-.74v-8.53c0-1.82,2.46-3.29,4.14-3.29a3.22,3.22,0,0,1,3.19,3.25v8.51c0,.53.2.8.81.8h2.78a.79.79,0,0,0,.84-.84v-8.47a1.59,1.59,0,0,1,0-.36C122.17,124.88,119.85,121.79,115.78,121.79Z"/><path class="cls-1" d="M132.65,121.69a8.6,8.6,0,1,0,8.71,8.63A8.65,8.65,0,0,0,132.65,121.69Zm0,13a4.27,4.27,0,0,1-4.23-4.37,4.25,4.25,0,1,1,4.23,4.37Z"/><path class="cls-1" d="M154.23,121.82a6.86,6.86,0,0,0-5,2.36c-.3-1.18-.17-2.15-1.51-2.15h-1.82a.89.89,0,0,0-1,1v14.75c0,.54.13.74.8.74h3c.67,0,.84-.16.84-.74v-8.63a3.84,3.84,0,0,1,3.52-2.93,2.92,2.92,0,0,1,3.06,3v8.5c0,.61.07.77.78.77H160c.53,0,.8-.2.8-.8v-9.24C160.78,124.61,158.4,121.82,154.23,121.82Z"/><path class="cls-1" d="M165.73,114.53a2.57,2.57,0,1,0,0,5.14,2.57,2.57,0,1,0,0-5.14Z"/><path class="cls-1" d="M167.27,122h-2.92a.72.72,0,0,0-.77.8v14.92a.69.69,0,0,0,.77.77h2.92c.54,0,.84-.27.84-.77V122.83A.84.84,0,0,0,167.27,122Z"/><path class="cls-1" d="M185.52,136,184.07,134c-.2-.27-.33-.37-.5-.37a1.17,1.17,0,0,0-.47.17,7.51,7.51,0,0,1-3.29.94,4.14,4.14,0,0,1-4.27-4.3,4.47,4.47,0,0,1,4.4-4.53,5.27,5.27,0,0,1,3.06,1,1.4,1.4,0,0,0,.54.23.67.67,0,0,0,.53-.33l1.32-2.25a.79.79,0,0,0,.1-.37c0-.37-.24-.61-.61-.85h0a9,9,0,0,0-5-1.64,8.6,8.6,0,1,0,0,17.2,9.5,9.5,0,0,0,5.17-1.71c.24-.17.58-.37.58-.77A1.16,1.16,0,0,0,185.52,136Z"/></g></g></svg>