<svg xmlns="http://www.w3.org/2000/svg" viewBox="0 0 144 55.77"><defs><style>.cls-1{fill:#fff;}</style></defs><g id="Layer_2" data-name="Layer 2"><g id="Layer_1-2" data-name="Layer 1"><path class="cls-1" d="M95.61,5.51c-3.76-3.1-9-4.66-15.67-4.66h-27V6.44l6.7,2.89V46.44l-6.7,2.89v5.59h28V49.33l-6.71-2.89V37.78h3.72a29.46,29.46,0,0,0,11.84-2.31,20.67,20.67,0,0,0,8.53-6.62,16.37,16.37,0,0,0,3.21-9.92C101.47,13.23,99.5,8.72,95.61,5.51ZM85.38,24.13a9.68,9.68,0,0,1-4.06,3.75,14.5,14.5,0,0,1-6.75,1.46h-.4v-20h4.57a7.31,7.31,0,0,1,5.73,2.4c1.54,1.69,2.28,4,2.28,7.09A10.45,10.45,0,0,1,85.38,24.13Z"/><path class="cls-1" d="M126.13,19.13c-6.17-1.72-6.89-4.56-6.89-6.55a4,4,0,0,1,1.17-2.81,4,4,0,0,1,3.25-1.19c2.61,0,5.3,1.83,8,5.45l3.24,5.34h5.44V4.42l-1.12-.69A25.12,25.12,0,0,0,132.47,1a33,33,0,0,0-8.24-1A22.21,22.21,0,0,0,115,1.87a15.88,15.88,0,0,0-6.73,5.54,14.83,14.83,0,0,0-2.48,8.48,16.22,16.22,0,0,0,4.77,11.85c3,3,7.29,5.34,12.74,6.85,6.55,1.84,7.31,5.23,7.31,7.61a4.94,4.94,0,0,1-1.35,3.62,4.84,4.84,0,0,1-3.7,1.37,9.72,9.72,0,0,1-4.89-1.45,18.63,18.63,0,0,1-5.08-4.65l-3.91-6.74h-5.47V49.41l.9.71c4.77,3.75,10.72,5.65,17.67,5.65,5.52,0,10.12-1.48,13.66-4.38S144,44,144,38.39C144,28.87,138,22.39,126.13,19.13Z"/><path class="cls-1" d="M44.69,34.17c-1.94,5.38-5.66,9.31-9.5,9.31a5.61,5.61,0,0,1-2.66-.66,7.51,7.51,0,0,0-6.93,0,5.66,5.66,0,0,1-2.66.66c-4.69,0-9.22-5.87-10.53-13.1a20.66,20.66,0,0,1,.4-9.23,9.08,9.08,0,0,1,6.73-6.24A8.86,8.86,0,0,1,28,17.18a9.5,9.5,0,0,1,.55-2.56h-4a7.85,7.85,0,0,1-7.94-7.73,1.12,1.12,0,0,1,1.13-1.1h4.54A7.89,7.89,0,0,1,30,12a10.25,10.25,0,0,1,8.11-4,1.11,1.11,0,1,1,0,2.21,7.84,7.84,0,0,0-7.85,6.87,1.38,1.38,0,0,0,.25-.17c1.8-1.85,5.1-2.58,8.22-1.82a8.87,8.87,0,0,1,6.59,6.2h2.73V5.54l-.95-.7a22.8,22.8,0,0,0-7.94-3.71A43.82,43.82,0,0,0,28.45,0,28.67,28.67,0,0,0,14.1,3.7,27.5,27.5,0,0,0,0,27.92,29.58,29.58,0,0,0,3.58,42.64a25.24,25.24,0,0,0,9.64,9.75,26.15,26.15,0,0,0,13,3.38c6.24,0,11.38-1.7,15.28-5.05a27.77,27.77,0,0,0,8.16-11.59l.73-2-5.64-2.72Z"/></g></g></svg>