<svg xmlns="http://www.w3.org/2000/svg" viewBox="0 0 131.89 180"><defs><style>.cls-1{fill:#fff;}</style></defs><g id="Layer_2" data-name="Layer 2"><g id="Layer_1-2" data-name="Layer 1"><path class="cls-1" d="M92.13,81.65a29.63,29.63,0,0,0-3.29-6.59c4.43-5.54,13.07-17.1,16-26.38,0,0,5,8.2,10.69,9.94,0,0,5-14.14,3.25-33.68a4.26,4.26,0,0,0-2.88-3.61,43.34,43.34,0,0,0-25.43-.64,4.19,4.19,0,0,0-2.23,1.58c-3.55,4.86-16.88,24.18-17.48,40.32l.07,0a48.12,48.12,0,0,0-8.55-.78C49.42,3.84,20.12,0,20.12,0,14.65,34.77,41.21,72.54,41.21,72.54h0A29.82,29.82,0,0,0,35.91,82C14.59,84,0,88.19,0,93c0,6.81,29.53,15.25,65.94,15.25S131.89,99.79,131.89,93C131.89,87.9,115.52,83.55,92.13,81.65ZM24.5,7.42S53.4,25.09,56.63,63.09c0,0-6.71,2-10.43,5.46C46.2,68.55,21.52,41.7,24.5,7.42Zm32.38,85c-2,0-3.6-2.28-3.6-5.1s1.61-5.09,3.6-5.09,3.6,2.28,3.6,5.09S58.87,92.4,56.88,92.4Zm18.56,0c-2,0-3.6-2.28-3.6-5.1s1.61-5.09,3.6-5.09,3.61,2.28,3.61,5.09S77.43,92.4,75.44,92.4ZM76,64.33S74.76,47.94,90.66,26.58l10.68,18.87S96.87,63.09,84.2,69.79A18.8,18.8,0,0,0,76,64.33Z"/><path class="cls-1" d="M101.34,119.6c0-3.15,1.83-8,1.83-8s-13,3.45-38.65,3.45-38.42-3.45-38.42-3.45a56,56,0,0,1,1.4,8.6s15,4,37,4S101.34,119.6,101.34,119.6Z"/><path class="cls-1" d="M100.38,129.53s-32.58,11.54-72.49,0c0,0-1.17,23.66-8.5,36.91,0,0,8.45,13.56,46.55,13.56s44-14.34,44-14.34S99.66,149.19,100.38,129.53Z"/></g></g></svg>