<svg xmlns="http://www.w3.org/2000/svg" viewBox="0 0 79.18 144"><defs><style>.cls-1{fill:#fff;}</style></defs><g id="Layer_2" data-name="Layer 2"><g id="Layer_1-2" data-name="Layer 1"><path class="cls-1" d="M39.09,144a4.55,4.55,0,0,1-4.54-4.55V97.08h0V93.33a4.09,4.09,0,1,0-8.17,0v.14l-.07,1.28V116A3.14,3.14,0,0,1,20,116V78.14a4.16,4.16,0,1,0-8.31,0v3.68l-.07-.06-.07,1.81v18.71a4.55,4.55,0,1,1-9.09,0V65l0-.12A49.87,49.87,0,0,1,0,49.48C0,22.2,22.37,0,49.87,0A47.84,47.84,0,0,1,78,9.09a1.87,1.87,0,0,1,.69,2.37L67.29,27.9a1.54,1.54,0,0,1-1.23.59,2.59,2.59,0,0,1-1.66-.73,21.78,21.78,0,0,0-14.53-5.09c-15.06,0-26.41,11.52-26.41,26.81s11.6,27.2,26.41,27.2c4.72,0,9.5-1.65,14.19-4.9a4.38,4.38,0,0,1,2.32-1,1.5,1.5,0,0,1,1.3.79L78.5,87.41c.52.73.74,1.26.66,1.65s-.52.89-1.36,1.45a46.38,46.38,0,0,1-18.4,7.88l-.08,0-.08,0c-3.4,1.42-3.47,7.16-3.47,7.4v5.72a1.87,1.87,0,0,1-3.74,0l-.09-15.3a4.15,4.15,0,1,0-8.3,0v43.19A4.55,4.55,0,0,1,39.09,144Z"/></g></g></svg>