<svg xmlns="http://www.w3.org/2000/svg" viewBox="0 0 144 68.78"><defs><style>.cls-1{fill:#fff;}</style></defs><g id="Layer_2" data-name="Layer 2"><g id="Layer_1-2" data-name="Layer 1"><path class="cls-1" d="M4.87,3H18.32l25,51.59-6.6,14.17ZM54.93,66.47V3H68V66.47ZM0,66.47,7.55,50.71,15.1,66.47Z"/><path class="cls-1" d="M12.35,64.74H2.75l4.8-10Zm24.34,0L41.4,54.63,17.23,4.75H7.63Zm20-60v60h9.6v-60Z"/><path class="cls-1" d="M130.56,66.47l-25.08-52.2L112.08,0,144,66.47Zm-49.92,0,7.67-15.88,7.4,15.88Z"/><path class="cls-1" d="M93,64.74H83.4l4.88-10.11ZM112.11,4.06l29.14,60.68h-9.6L107.39,14.26Z"/></g></g></svg>