<svg xmlns="http://www.w3.org/2000/svg" viewBox="0 0 137.48 109.71"><defs><style>.cls-1{fill:#fff;}</style></defs><g id="Layer_2" data-name="Layer 2"><g id="Layer_1-2" data-name="Layer 1"><path class="cls-1" d="M133.4,38.52,120,42.77l-1.48,2.34,1.7,3.61s5.92,11.7-.46,21.9v4.89s13.64-3.19,16.83-19.13S133.4,38.52,133.4,38.52Z"/><path class="cls-1" d="M132.55,32.65s-7.1-15.07-9-17.23-13.63-8.77-13.63-8.77h-2.08C107.43,27,99.94,25,98.74,26.43s1.76,3.5,2.39,9.88,5.67,7.9,8.22,9.09,5.82,3.75,5.82,1.28,2.39-4,2.39-4c4.54-3.67,15-5.84,15-5.84Z"/><path class="cls-1" d="M94.92,24.27c.77-.47,3.88-.37,5.5-.87.54-.17.54-.17.4-1,.06-2.23-20.86-2.24-22.09-1.67s-1.67,2.63-.48,2.63c10.21,0,20.57,15,20.81,11.88.18-2.34-3.16-7.52-4.38-9.89A.77.77,0,0,1,94.92,24.27Z"/><path class="cls-1" d="M79.29,7.77C84.87,6.18,91,13.67,94.76,9.91c2.5-2.51,8.13,4.16,8,8.86s2.71-7.17,2.71-7.17a26.87,26.87,0,0,0-.56-6.3c-.72-3.43-16.55-9-27.33-1.76S73.71,9.36,79.29,7.77Z"/><path class="cls-1" d="M18.85,45.93,17.37,43.6,4.06,39.38S-2.28,41.28.89,57.13s16.71,19,16.71,19V71.28c-6.33-10.14-.44-21.76-.44-21.76Z"/><path class="cls-1" d="M28,46.22c2.53-1.19,7.52-2.7,8.16-9s3.56-8.4,2.37-9.83-8.63.56-9-19.65H27.4s-11.64,6.58-13.55,8.72S4.9,33.54,4.9,33.54v4.18s10.38,2.16,14.9,5.8c0,0,2.37,1.51,2.37,4S25.42,47.41,28,46.22Z"/><path class="cls-1" d="M38.18,36.16c.23,3.09,10.53-11.81,20.67-11.81,1.19,0,.74-2.06-.47-2.61s-22-.56-22,1.66c-.14.79-.14.79.4,1,1.61.5,4.69.4,5.47.87a.76.76,0,0,1,.23,1.11C41.32,28.68,38,33.84,38.18,36.16Z"/><path class="cls-1" d="M34.53,19.76C34.37,15.08,40,8.46,42.45,11c3.73,3.74,9.83-3.71,15.38-2.13s12.43,3,1.72-4.2S33.11,3,32.39,6.37a26.79,26.79,0,0,0-.55,6.26S34.69,24.43,34.53,19.76Z"/><path class="cls-1" d="M59,75.9s-4.4,7.2-8.4,7.2c-3.1-3.1-4.8-5.52-9.38-5.52-7.67,0-20.43,6.92-20.43,6.92v8.41S30,84.5,68.75,84.5s47.92,8.41,47.92,8.41V84.5S113.67,75.9,59,75.9Z"/><path class="cls-1" d="M68.75,89.77c-26.47,0-47.92,4.46-47.92,10s21.45,10,47.92,10,47.92-4.46,47.92-10S95.22,89.77,68.75,89.77Z"/><path class="cls-1" d="M116.67,75.9V70.45c0-13-15.77-31.83-48.22-31.83-32.94,0-47.62,18.79-47.62,29.27v8S36,68.69,68.75,68.69,116.67,75.9,116.67,75.9Zm-23-28.18a1.48,1.48,0,1,1-1.48,1.48A1.48,1.48,0,0,1,93.69,47.72ZM27.76,66.08a.91.91,0,1,1,.91-.9A.9.9,0,0,1,27.76,66.08Zm13.11-7A2.1,2.1,0,1,1,43,57,2.1,2.1,0,0,1,40.87,59.05Z"/></g></g></svg>