<svg xmlns="http://www.w3.org/2000/svg" viewBox="0 0 107.52 144"><defs><style>.cls-1{fill:#fff;}</style></defs><g id="Layer_2" data-name="Layer 2"><g id="Layer_1-2" data-name="Layer 1"><path class="cls-1" d="M56,20H51.56V35.75H56a4.08,4.08,0,0,0,3-1.25,4.16,4.16,0,0,0,1.23-3V24.31a4.19,4.19,0,0,0-1.16-3.09A4.12,4.12,0,0,0,56,20Z"/><path class="cls-1" d="M0,0V144l53.76-30.47L107.52,144V0ZM35.33,29.29H27.65V23.53a4.28,4.28,0,0,0-4.26-4.27,4,4,0,0,0-3,1.26,4.14,4.14,0,0,0-1.23,3V50.39a4.2,4.2,0,0,0,4.23,4.23,4.14,4.14,0,0,0,3-1.23,4,4,0,0,0,1.25-3V43.62h7.68v6.85a11.25,11.25,0,0,1-3.45,8.31,11.32,11.32,0,0,1-8.26,3.4,11.34,11.34,0,0,1-8.32-3.42,11.29,11.29,0,0,1-3.43-8.29V23.69a11.31,11.31,0,0,1,3.45-8.33,11.34,11.34,0,0,1,8.3-3.42,11.25,11.25,0,0,1,8.3,3.44,11.41,11.41,0,0,1,3.41,8.31Zm32.09,2A11.39,11.39,0,0,1,64,39.62a11.07,11.07,0,0,1-8.2,3.45H51.56V61.56h-7.4V12.49H55.83a11.27,11.27,0,0,1,8.61,3.4,11.86,11.86,0,0,1,3,8.31Zm26.9,26.79a9.57,9.57,0,0,1-5.09,3.48,13.77,13.77,0,0,1-4.11.55A11.63,11.63,0,0,1,77.91,60a12.1,12.1,0,0,1-3.78-4.8,19.34,19.34,0,0,1-1.62-6.95l7-.51c.31,2.86,1.07,4.94,2.27,6.22a3.78,3.78,0,0,0,3,1.38,4.6,4.6,0,0,0,3.88-2.39,6,6,0,0,0,.74-3.26,9,9,0,0,0-2.78-6.07l-6.58-6.23A28,28,0,0,1,74.94,31a14.76,14.76,0,0,1-1.65-6.9q0-6.7,4.5-10.15a11.18,11.18,0,0,1,6.9-2.08,12.57,12.57,0,0,1,6.77,1.76A10.19,10.19,0,0,1,95,17.46a14,14,0,0,1,1.63,5.68l-7.09,1.29a8.55,8.55,0,0,0-1.72-4.7,3.62,3.62,0,0,0-2.94-1.21,3.37,3.37,0,0,0-3.09,1.8,6.9,6.9,0,0,0-.86,3.6,10.79,10.79,0,0,0,2.9,6.86,24.81,24.81,0,0,0,3.28,3.13c1.73,1.43,2.86,2.44,3.41,3a24.94,24.94,0,0,1,4.23,5.41,20.38,20.38,0,0,1,1.14,2.31A13.38,13.38,0,0,1,97,49.34,13.74,13.74,0,0,1,94.32,58.11Z"/></g></g></svg>