<svg xmlns="http://www.w3.org/2000/svg" viewBox="0 0 125.06 144"><defs><style>.cls-1{fill:#fff;}</style></defs><g id="Layer_2" data-name="Layer 2"><g id="Layer_1-2" data-name="Layer 1"><path class="cls-1" d="M123.51,79.32,40.54,0c0,39,25,49.94,37.2,52.94C54.72,50.45,0,54.06,0,54.06H0s18.91,30,67.22,9.81c-3.1,2.77-3.84,10.69-3.84,10.69V144h53.28c0-30.76-25-41.71-25-41.71h21.83c7.61,0,10.57-12.85,11.51-18.54A5,5,0,0,0,123.51,79.32Zm-54-16.41h0L46.34,60l23.17,2.95Zm29.17,24.4c0-10.16-10.55-9.37-10.55-9.37,9.77,0,10.55-11,10.55-11,0,10.56,8.2,10.16,8.2,10.16C98.68,77.15,98.68,87.31,98.68,87.31Z"/></g></g></svg>