<svg xmlns="http://www.w3.org/2000/svg" viewBox="0 0 216.13 82.05"><defs><style>.cls-1{fill:#fff;stroke:#fff;stroke-miterlimit:10;stroke-width:0.13px;}</style></defs><g id="Layer_2" data-name="Layer 2"><g id="Layer_1-2" data-name="Layer 1"><path class="cls-1" d="M1,17.53A1.62,1.62,0,0,0,.07,19v38.5a1.63,1.63,0,0,0,.81,1.41L35,81.93l-.22-44.16L68.26,19.65,34.09.08Z"/><path class="cls-1" d="M65.38,27.1,40.61,40.4a1.13,1.13,0,0,0-.59,1V44a1.12,1.12,0,0,0,.49.93L65.89,62.1a1.11,1.11,0,0,0,1.74-.92V28.45A1.53,1.53,0,0,0,65.38,27.1Z"/><polygon class="cls-1" points="84.37 24.01 91.04 24.01 91.04 19.04 84.37 19.04 84.37 10.1 93.5 10.1 93.5 5.13 79.43 5.13 79.43 37.91 84.37 37.91 84.37 24.01"/><rect class="cls-1" x="96.89" y="5.15" width="4.94" height="32.76"/><path class="cls-1" d="M122.31,29.76a9,9,0,0,0-.73-3.14A15.31,15.31,0,0,0,118,21.47a29.81,29.81,0,0,0-2.27-2,16.32,16.32,0,0,1-2.2-2.1,7.19,7.19,0,0,1-1.93-4.57,4.7,4.7,0,0,1,.57-2.41,2.27,2.27,0,0,1,2.07-1.2,2.42,2.42,0,0,1,2,.81,5.71,5.71,0,0,1,1.15,3.14l4.73-.86A9.52,9.52,0,0,0,121,8.47a6.82,6.82,0,0,0-2.37-2.56,8.38,8.38,0,0,0-4.52-1.17,7.48,7.48,0,0,0-4.6,1.38,8,8,0,0,0-3,6.78,9.92,9.92,0,0,0,1.1,4.61,18.71,18.71,0,0,0,3.48,4.26l4.39,4.16A6,6,0,0,1,117.32,30a4,4,0,0,1-.5,2.17,3.09,3.09,0,0,1-2.59,1.6,2.53,2.53,0,0,1-2-.92,7.17,7.17,0,0,1-1.52-4.15L106,29a12.81,12.81,0,0,0,1.08,4.64,8,8,0,0,0,2.53,3.2,7.75,7.75,0,0,0,4.81,1.44,9,9,0,0,0,2.74-.37,6.35,6.35,0,0,0,3.4-2.33A9.23,9.23,0,0,0,122.31,29.76Z"/><polygon class="cls-1" points="142.26 37.91 142.26 5.16 137.31 5.16 137.31 19.06 131.35 19.06 131.35 5.16 126.41 5.16 126.41 37.91 131.35 37.91 131.35 24.03 137.31 24.03 137.31 37.91 142.26 37.91"/><polygon class="cls-1" points="146.68 37.91 160.74 37.91 160.74 32.95 151.62 32.95 151.62 24.01 158.28 24.01 158.28 19.04 151.62 19.04 151.62 10.1 160.74 10.1 160.74 5.13 146.68 5.13 146.68 37.91"/><path class="cls-1" d="M179.7,17.73V13A8.27,8.27,0,0,0,178,7.43q-1.94-2.28-6.07-2.28h-7.79V37.92h4.94V25.57h3.3l3,12.35h5.35l-3.66-14.31A7.64,7.64,0,0,0,179.7,17.73Zm-4.81.11a2.77,2.77,0,0,1-.83,2,2.69,2.69,0,0,1-2,.84h-3V10.2h3a2.51,2.51,0,0,1,2.83,2.85Z"/><path class="cls-1" d="M87.27,45.69a7.84,7.84,0,0,0-7.84,7.85V71.42a7.83,7.83,0,0,0,15.66,0V60H87.22v5H90v6.43a2.69,2.69,0,0,1-.84,2,2.76,2.76,0,0,1-2,.82,2.82,2.82,0,0,1-2.83-2.82V53.43a2.77,2.77,0,0,1,.83-2,2.69,2.69,0,0,1,2-.84A2.87,2.87,0,0,1,90,53.43v3.84h5.12V53.54A7.63,7.63,0,0,0,92.82,48,7.53,7.53,0,0,0,87.27,45.69Z"/><path class="cls-1" d="M104.06,46.06,98.49,78.82h5.15l1.2-7.53H110l1.15,7.53h5.2l-5.49-32.76Zm1.54,20.42,1.83-12.92,1.83,12.92Z"/><path class="cls-1" d="M136.06,58.63V53.88a8.31,8.31,0,0,0-1.7-5.55q-1.94-2.27-6.06-2.27h-7.8V78.82h5V66.48h3.29l3,12.34h5.34l-3.66-14.3A7.68,7.68,0,0,0,136.06,58.63Zm-4.81.11a2.8,2.8,0,0,1-.82,2,2.7,2.7,0,0,1-2,.84h-3V51.1h3A2.51,2.51,0,0,1,131.25,54Z"/><path class="cls-1" d="M146.62,46.06l-5.57,32.76h5.15l1.2-7.53h5.16l1.16,7.53h5.19l-5.49-32.76Zm1.55,20.42L150,53.56l1.83,12.92Z"/><path class="cls-1" d="M170.15,45.69a7.84,7.84,0,0,0-7.84,7.85V71.42a7.83,7.83,0,0,0,15.66,0V60H170.1v5h2.75v6.43a2.69,2.69,0,0,1-.84,2,2.76,2.76,0,0,1-2,.82,2.82,2.82,0,0,1-2.83-2.82V53.43a2.77,2.77,0,0,1,.83-2,2.69,2.69,0,0,1,2-.84,2.87,2.87,0,0,1,2.85,2.85v3.84H178V53.54A7.63,7.63,0,0,0,175.7,48,7.53,7.53,0,0,0,170.15,45.69Z"/><polygon class="cls-1" points="182.26 78.82 196.32 78.82 196.32 73.85 187.2 73.85 187.2 64.91 193.87 64.91 193.87 59.94 187.2 59.94 187.2 51 196.32 51 196.32 46.03 182.26 46.03 182.26 78.82"/><path class="cls-1" d="M215.33,67.52a14.25,14.25,0,0,0-.75-1.54,17.2,17.2,0,0,0-2.83-3.61c-.37-.38-1.12-1-2.27-2a16.35,16.35,0,0,1-2.2-2.09,7.22,7.22,0,0,1-1.93-4.58,4.63,4.63,0,0,1,.57-2.4A2.27,2.27,0,0,1,208,50.08a2.46,2.46,0,0,1,2,.81A5.78,5.78,0,0,1,211.1,54l4.73-.86a9.47,9.47,0,0,0-1.08-3.79,6.9,6.9,0,0,0-2.37-2.56,8.32,8.32,0,0,0-4.52-1.18A7.47,7.47,0,0,0,203.25,47a8,8,0,0,0-3,6.77,9.77,9.77,0,0,0,1.1,4.61,18.64,18.64,0,0,0,3.47,4.27c2,1.85,3.42,3.23,4.39,4.16a6,6,0,0,1,1.86,4,3.85,3.85,0,0,1-.5,2.17,3,3,0,0,1-2.58,1.6,2.5,2.5,0,0,1-2-.92,7.17,7.17,0,0,1-1.52-4.15l-4.71.34a13,13,0,0,0,1.09,4.64,8,8,0,0,0,2.52,3.2,7.77,7.77,0,0,0,4.81,1.44,9.45,9.45,0,0,0,2.75-.36,6.45,6.45,0,0,0,3.4-2.33,9.26,9.26,0,0,0,1.78-5.86A9.13,9.13,0,0,0,215.33,67.52Z"/></g></g></svg>