<svg xmlns="http://www.w3.org/2000/svg" viewBox="0 0 216 73.05"><defs><style>.cls-1{fill:#fff;}</style></defs><g id="Layer_2" data-name="Layer 2"><g id="Layer_1-2" data-name="Layer 1"><path class="cls-1" d="M88,18.24H70.75V36.53H88a9.08,9.08,0,0,0,9.15-9.15A9.17,9.17,0,0,0,88,18.24Zm5,14.15a6.7,6.7,0,0,1-5,2.09H72.74V20.28H88a6.71,6.71,0,0,1,5,2.1,6.79,6.79,0,0,1,2.09,5A6.7,6.7,0,0,1,93,32.39Z"/><path class="cls-1" d="M178.35,25.44l-1.89-4.9-1.89,4.9-6.44,16.45-1.07,2.76h18.59l-1.07-2.76ZM170,42.61l6.44-16.45,6.23,16.45Z"/><path class="cls-1" d="M188.21,0h-23.3l-3.32,8.51a36.58,36.58,0,0,0-49.23,2.22c-.52.52-1,1.07-1.47,1.61A28.61,28.61,0,0,0,107.32,8,26.4,26.4,0,0,0,88,0H23.35A22.46,22.46,0,0,0,6.85,6.85,22.46,22.46,0,0,0,0,23.35a22.49,22.49,0,0,0,6.85,16.5,22.49,22.49,0,0,0,16.5,6.84h21.3a3.06,3.06,0,0,1,3.06,3,3.14,3.14,0,0,1-3.06,3.06H4V73.05H44.65a23.48,23.48,0,0,0,7.81-1.3v1.3H72.74V54.76H88a26.2,26.2,0,0,0,16-5.18,36,36,0,0,0,8.36,12.8,35,35,0,0,0,24,10.59l0,.08h21.77l3.23-8.24c.72-.6,1.41-1.26,2.1-1.92h27l3.89,10.16H216ZM61.92,2v16.2H54.5V2ZM44.65,71H6.08V54.76H44.65a5.06,5.06,0,1,0,0-10.11H23.35A20.53,20.53,0,0,1,8.28,38.42,20.64,20.64,0,0,1,2,23.35,20.5,20.5,0,0,1,8.28,8.28,20.5,20.5,0,0,1,23.35,2H52.46v16.2H23.35a4.8,4.8,0,0,0-3.58,1.53,5.06,5.06,0,0,0,0,7.15,4.87,4.87,0,0,0,3.58,1.48h21.3a21.18,21.18,0,0,1,7.81,1.44V69.58A21.38,21.38,0,0,1,44.65,71Zm7.81-50.73v7.39a23.23,23.23,0,0,0-7.81-1.31H23.35a2.91,2.91,0,0,1-2.15-.87,3,3,0,0,1-.92-2.14,3.14,3.14,0,0,1,3.07-3.07Zm2,10.49a21.87,21.87,0,0,1,5.22,3.87A20.65,20.65,0,0,1,66,49.71a20.56,20.56,0,0,1-6.23,15.07,22.14,22.14,0,0,1-5.22,3.87ZM88,52.77H70.75V71H54.5v-.1a23.27,23.27,0,0,0,6.65-4.7A22.53,22.53,0,0,0,68,49.71a22.49,22.49,0,0,0-6.85-16.5A23.51,23.51,0,0,0,54.5,28.5V20.28h9.41V2H88a24.4,24.4,0,0,1,17.93,7.41,26.43,26.43,0,0,1,3.61,4.49,35,35,0,0,0-7.81,22.59,37.3,37.3,0,0,0,1.61,11.06A24.18,24.18,0,0,1,88,52.77Zm15.77-16.24a33.05,33.05,0,0,1,6.88-20.7,24.58,24.58,0,0,1,2.74,11.55,24.29,24.29,0,0,1-7.46,17.93c-.28.29-.58.54-.88.81A35.65,35.65,0,0,1,103.73,36.53ZM113.79,61a34,34,0,0,1-8.09-12.72c.55-.48,1.1-1,1.62-1.49a26.37,26.37,0,0,0,8-19.36A26.56,26.56,0,0,0,112,14.14c.58-.67,1.16-1.34,1.8-2a34.49,34.49,0,0,1,47-1.67l-.34.87L149.6,22.27a18.27,18.27,0,0,0-29.68,14.26,17.49,17.49,0,0,0,5.37,12.92,17.49,17.49,0,0,0,12.92,5.37,18.45,18.45,0,0,0,5.61-.86l-6.65,17A33.28,33.28,0,0,1,113.79,61Zm44.82-44.82L144.82,51.39a15.9,15.9,0,0,1-6.61,1.38A16.22,16.22,0,0,1,122,36.53a16.22,16.22,0,0,1,27.69-11.45Zm1.6,46-.5,1.29A33.05,33.05,0,0,1,139.34,71l7.06-18.07a17.41,17.41,0,0,0,3.2-2.06l10.82,10.82ZM156.74,71h-6.28a34.28,34.28,0,0,0,7.81-3.88Zm35.56-8.84-.47-1.28h-29.3L149.66,48a18.8,18.8,0,0,1-2,1.72l14.54-37.18L164,10.73c-.27-.27-.55-.5-.82-.75L166.29,2h20.54L213,71H195.67Z"/></g></g></svg>