<svg xmlns="http://www.w3.org/2000/svg" viewBox="0 0 96.38 144"><defs><style>.cls-1{fill:#fff;}</style></defs><g id="Layer_2" data-name="Layer 2"><g id="Layer_1-2" data-name="Layer 1"><path class="cls-1" d="M38.14,23.64a.73.73,0,0,1-.29-.07L13.47,8.26,26.13,1A7.37,7.37,0,0,1,33.49,1L56.23,14.08a5.14,5.14,0,0,1,2.61,4.47v3.72a1.37,1.37,0,0,1-1.37,1.37Z"/><path class="cls-1" d="M31.53,62.07a7.45,7.45,0,0,1-3.71-1L13.7,53,39.53,38.5a.59.59,0,0,1,.29-.07H59.15a1.37,1.37,0,0,1,1.37,1.37v3.72A5.13,5.13,0,0,1,57.92,48L35.16,61.11a7.32,7.32,0,0,1-3.63,1Z"/><path class="cls-1" d="M21.4,44.3V17.6L9.09,10s-4-.82-6.38,1.56A11,11,0,0,0,0,17.6V43.44s0,5.75,3.75,7.09a10.52,10.52,0,0,0,7,0Z"/><path class="cls-1" d="M7.2,49.19a8.16,8.16,0,0,1-2.8-.48c-2.35-.84-2.47-5.25-2.47-5.29V17.7a9,9,0,0,1,2.14-4.82,4.85,4.85,0,0,1,3.4-1.13c.39,0,.71,0,.94.05l11.06,6.87V43.19l-9.6,5.59a8.78,8.78,0,0,1-2.67.41Z"/><path class="cls-1" d="M38.91,73.26a1.37,1.37,0,0,1-1.37-1.37V68.17a5.14,5.14,0,0,1,2.59-4.46L62.9,50.58a7.3,7.3,0,0,1,3.63-1,7.39,7.39,0,0,1,3.7,1l12.68,7.25L58.44,73.23a.8.8,0,0,1-.2,0Z"/><path class="cls-1" d="M93.67,61.13c-2.37-2.37-6.38-1.55-6.38-1.55L75,67.22v26.7l10.7,6.23a10.51,10.51,0,0,0,6.95,0c3.71-1.34,3.75-7.09,3.75-7.09V67.22A11.11,11.11,0,0,0,93.67,61.13Z"/><path class="cls-1" d="M59.09,98.38c0,1.25.12,2.78.2,3.54.11,5,.2,10.49.2,10.5l-1,23.81a8.09,8.09,0,0,1-8.1,7.77H38c.13-6.53.94-48.49.94-50.86V89.42a2.54,2.54,0,0,1,2.53-2.53H56.56a1.79,1.79,0,0,1,.85.22L85,102.59l-15.88,9.09A8.48,8.48,0,0,1,65,112.83Z"/></g></g></svg>