<svg xmlns="http://www.w3.org/2000/svg" viewBox="0 0 180 115.92"><defs><style>.cls-1{fill:#fff;}</style></defs><g id="Layer_2" data-name="Layer 2"><g id="Layer_1-2" data-name="Layer 1"><path class="cls-1" d="M8.18,37.74V55H0V.65H8.18V20L18.18.65h8.73L15.71,22.8,28.85,55H19.23L10.63,32.9Z"/><path class="cls-1" d="M45.32.69q6.84,0,10,3.77,2.82,3.29,2.82,9.18v7.88a12.65,12.65,0,0,1-4.38,9.74L59.87,55H51l-5-20.44H40.6V55H32.41V.69Zm4.89,13.08q0-4.73-4.68-4.72H40.6V26.41h4.93A4.5,4.5,0,0,0,48.85,25a4.64,4.64,0,0,0,1.36-3.34Z"/><path class="cls-1" d="M75.39,55.56A12.86,12.86,0,0,1,62.45,42.65V.69h8V42.57a4.49,4.49,0,0,0,1.38,3.31,4.6,4.6,0,0,0,3.34,1.36,4.64,4.64,0,0,0,4.67-4.67V.69h8.54v42a12.33,12.33,0,0,1-3.82,9.18A12.68,12.68,0,0,1,75.39,55.56Z"/><path class="cls-1" d="M119.16,41.44a15.33,15.33,0,0,1-3,9.7A10.62,10.62,0,0,1,110.58,55a15.19,15.19,0,0,1-4.55.61,12.88,12.88,0,0,1-8-2.38,13.28,13.28,0,0,1-4.17-5.31,21.4,21.4,0,0,1-1.8-7.68l7.8-.57q.51,4.76,2.51,6.88a4.19,4.19,0,0,0,3.38,1.52,5,5,0,0,0,4.28-2.64,6.57,6.57,0,0,0,.83-3.6q0-3.37-3.08-6.71l-7.27-6.89a30.78,30.78,0,0,1-5.76-7.07A16.24,16.24,0,0,1,93,13.52q0-7.41,5-11.22A12.38,12.38,0,0,1,105.56,0a13.86,13.86,0,0,1,7.49,2A11.24,11.24,0,0,1,117,6.19a15.6,15.6,0,0,1,1.79,6.28l-7.83,1.43A9.48,9.48,0,0,0,109,8.7a4,4,0,0,0-3.24-1.34,3.76,3.76,0,0,0-3.43,2,7.75,7.75,0,0,0-.95,4c0,2.48,1.07,5,3.2,7.57a26.61,26.61,0,0,0,3.64,3.47c1.91,1.59,3.16,2.7,3.77,3.33a28,28,0,0,1,4.68,6,22.74,22.74,0,0,1,1.25,2.55A15,15,0,0,1,119.16,41.44Z"/><path class="cls-1" d="M130.44,8.92h-8.7V.69h25.54V8.92h-8.66V55h-8.18Z"/><path class="cls-1" d="M160.82,32.22,149.86.65h9l6.06,19.49L171,.65H180L169,32.22V55h-8.18Z"/><path class="cls-1" d="M8.18,98.71v17.21H0V61.62H8.18V81l10-19.35h8.73L15.71,83.76l13.14,32.16H19.23l-8.6-22Z"/><path class="cls-1" d="M45.32,61.66q6.84,0,10,3.77,2.82,3.28,2.82,9.18v7.88a12.65,12.65,0,0,1-4.38,9.74l6.07,23.69H51l-5-20.44H40.6v20.44H32.41V61.66Zm4.89,13.08q0-4.72-4.68-4.72H40.6V87.38h4.93A4.5,4.5,0,0,0,48.85,86a4.64,4.64,0,0,0,1.36-3.34Z"/><path class="cls-1" d="M73.91,103.45l-2,12.47H63.4l9.22-54.26H83.88L93,115.92h-8.6l-1.92-12.47Zm4.3-29.36-3,21.39h6.06Z"/><path class="cls-1" d="M96.81,115.92V61.62h12.25a15.65,15.65,0,0,1,8.75,2.55,12,12,0,0,1,4.77,6.71,19.26,19.26,0,0,1,.77,5.76,12.71,12.71,0,0,1-2.9,8.75,8.25,8.25,0,0,1-2.86,2.12,9.54,9.54,0,0,1,4.64,4.11A15.91,15.91,0,0,1,124.09,97a21.74,21.74,0,0,1,.3,3.77,18.25,18.25,0,0,1-1.94,8.75A12.58,12.58,0,0,1,112,115.92Zm8.83-32.13h3.42a5,5,0,0,0,5.12-3.73,10.81,10.81,0,0,0,.47-3.42A7.15,7.15,0,0,0,113,71.53a5.2,5.2,0,0,0-3.94-1.6h-3.42Zm0,24h3.42q4.16,0,5.77-4.29a9.48,9.48,0,0,0,.56-3.37c0-3-.58-5.24-1.74-6.63a5.59,5.59,0,0,0-4.59-1.91h-3.42Z"/></g></g></svg>