<svg xmlns="http://www.w3.org/2000/svg" viewBox="0 0 144 83.1"><defs><style>.cls-1{fill:#fff;}</style></defs><g id="Layer_2" data-name="Layer 2"><g id="Layer_1-2" data-name="Layer 1"><path class="cls-1" d="M31,20.66c0,10.21-5.52,10.21-5.52,20.54C25.47,51.29,31,51.29,31,61.62v6A15.57,15.57,0,0,1,20.66,82.28a15.59,15.59,0,0,1-5.17.82,14.56,14.56,0,0,1-5.16-.82A15.39,15.39,0,0,1,0,67.61v-5H10.33v5a5.06,5.06,0,0,0,5.16,5.16,5.14,5.14,0,0,0,5.17-5.16v-6c0-10.33-5.52-10.33-5.52-20.42,0-10.33,5.52-10.33,5.52-20.54V0H31Z"/><path class="cls-1" d="M68.66,20.66c0,10.09-5.52,10.09-5.52,20.42s5.52,10.21,5.52,20.42v6.11A15.35,15.35,0,0,1,58.33,82.16a14.92,14.92,0,0,1-5.17.94A15.68,15.68,0,0,1,37.67,67.61V61.5c0-10.21-5.52-10.21-5.52-20.42s5.52-10.33,5.52-20.42V0H48V20.66c0,10.09-5.52,10.09-5.52,20.42S48,51.29,48,61.5v6.11a5.21,5.21,0,0,0,5.16,5.16,5.14,5.14,0,0,0,5.17-5.16V61.5c0-10.21-5.52-10.21-5.52-20.42s5.52-10.33,5.52-20.42V0H68.66Z"/><path class="cls-1" d="M106.33,20.66c0,10.09-5.52,10.09-5.52,20.42s5.52,10.21,5.52,20.42v6.11A15.35,15.35,0,0,1,96,82.16a14.86,14.86,0,0,1-5.16.94,15.68,15.68,0,0,1-15.5-15.49V61.5c0-10.21-5.51-10.21-5.51-20.42s5.51-10.33,5.51-20.42V0H85.67V20.66c0,10.09-5.52,10.09-5.52,20.42s5.52,10.21,5.52,20.42v6.11a5.21,5.21,0,0,0,5.17,5.16A5.13,5.13,0,0,0,96,67.61V61.5c0-10.21-5.52-10.21-5.52-20.42S96,30.75,96,20.66V0h10.33Z"/><path class="cls-1" d="M144,82.16H113V61.5c0-10.33-5.51-10.33-5.51-20.42,0-10.33,5.51-10.33,5.51-20.42V0h10.33V20.66c0,10.09-5.51,10.09-5.51,20.42,0,10.09,5.51,10.09,5.51,20.42V71.83H144Z"/></g></g></svg>