<svg xmlns="http://www.w3.org/2000/svg" viewBox="0 0 115.2 189.92"><defs><style>.cls-1{fill:#fff;}</style></defs><g id="Layer_2" data-name="Layer 2"><g id="Layer_1-2" data-name="Layer 1"><path class="cls-1" d="M44.31,140.83C30.68,134.4,8.44,116.68,7.09,102.77c5.33-18.84,5.52-25.7,4.44-25.7S0,103.73,0,103.73c1.44,16.81,40.11,41.07,40.11,41.07l20.17,13C65.57,149.36,54.48,145.64,44.31,140.83Z"/><path class="cls-1" d="M14.65,74.55c5.52-1.8,11.53-20.9,11.53-20.9H45c-.12,2.17,6.25,6.49,6.25,6.49-8.53,4-8.65,9.24-8.65,9.24-2.76,1-2.64-1.32-2.64-1.32,3.72-2.64,1.44-9.6,1.44-9.6,0,6.12-4.32,7.8-4.32,7.8-.72-1.68-3.37-1.68-3.37-1.68.37-6-2.92-6.12-2.92-6.12,2.13,6.12-7.28,15.25-7.28,15.25,2.91,1.94,6.59-2,8.14-3.94a2,2,0,0,1,2.42-.55,23.68,23.68,0,0,0,3.76,1.52A3.43,3.43,0,0,1,40.23,74v8.58C39.63,86.56,30,98.08,30,98.08c-5.52,2.17-7.8-1.44-7.8-1.44,6.12-14.77-2.89-19.57-2.89-19.57S21,78.87,21,88.12s-11,13.69-11,13.69a7.26,7.26,0,0,0,7.68-.84c2.4,4.32,8.29,3.84,8.29,3.84,3.36,3,1.08,13.57,1.08,13.57,4.29-7.72,2.16-13.69,2.16-13.69,5.64-3.24,12.73-16.33,12.73-16.33,6,4.32,18-2.88,22.58-5.77s10.2.36,10.2.36c-5.16-7.08-11.53-2.76-11.53-2.76-15.73,7.33-17.77,3.36-17.77,3.36-2.16-1.68-1.2-12.84-1.2-12.84a10.31,10.31,0,0,1,9.73-8.41c4.2.6,5.16-2.76,5.16-2.76-.12-5.29-5.4-3.48-5.4-3.48-3.24-.85-6.85-7.93-6.85-7.93H24.38C5.28,78.67,14.65,74.55,14.65,74.55Z"/><path class="cls-1" d="M60.68,130.39c-.36-20.87,19.86-35.87,19.86-35.87C78.3,81.39,94.79,68.9,94.79,68.9,75.41,78.19,76.53,92.6,76.53,92.6,50.12,114.22,60.68,130.39,60.68,130.39Z"/><path class="cls-1" d="M114.08,33.7a.64.64,0,0,1,0-.2c3-12.07-1-17.71-2.27-19.19a8.48,8.48,0,0,0-3-.64c-12.37,3.81-8.8,16.89-8.29,19.81.07.37-.29.55-.47.88-4.56,8.15-5.25,20.37-5.25,20.37S93,32.16,91,25.67,74.69-7.23,65.81,1.9C57.88,10,69.63,21.61,72.27,24a.89.89,0,0,1,.15,1.06c-1.55,3.33-.08,11,1.1,15.91C69,30.62,53,20.35,51.3,19.28a.82.82,0,0,0-.34-.12c-22.62-3.3-22.86,3.15-22.86,3.15-1.29,6.24,6.48,8.24,8.11,8.59a.81.81,0,0,1,.5.33c7.28,9.63,12.2,12.26,14,13a.87.87,0,0,1,.55,1c-.65,3.71.89,8.8,3.3,8.6l5.76-.48c-5.76.24-5.28-6.48-5.28-6.48-1-3.36,7.68-1.68,7.92-4.08-11.7,2.44-19-9.13-19-9.13-3.6-2.16,5-4.32,5-4.32-10.32,1.18-14.52-2.75-15.94-4.72a.9.9,0,0,1,.51-1.37,28.31,28.31,0,0,1,13.66.06.49.49,0,0,1,.17.06c1,.56,12.47,7,18.9,13.17C72,42,72.89,49.91,73,52.18a.88.88,0,0,1-.57.85c-2.15,1-1.67,4-1.33,5.36a.87.87,0,0,1-.46,1L65.36,62a.88.88,0,0,0-.4.43A21.41,21.41,0,0,1,50.92,75c6.2,3.91,15.67-7.8,17.1-9.65a.84.84,0,0,1,.53-.3c15.24-2.67,13.58-8.81,12.63-6.66s-4.49,1-4.49,1-3.92-11,6.41-20.42c-1.51,1.31-4.8,1.2-4.8,1.2-6.77-9-.93-16.29.92-18.22-1.44.65-4.53-1.71-4.53-1.71C64,8.83,68.28,2.77,69.41,2.38a.73.73,0,0,1,.46,0C82.82,7.12,89.1,30,89.1,30c.43,1.72-3.07,2.21-3.83,2.9a.88.88,0,0,0,.11,1.33,7.33,7.33,0,0,1,2.76,3.93c-.52,21.65,3.78,26,6.16,26.82a.88.88,0,0,0,1.1-1.14c-1.84-6.38,3.17-9.9,5.29-11.06a.87.87,0,0,0,.24-1.29c-4.64-6.71,1.75-16.23,3.07-18.06a.85.85,0,0,0,.13-.71C101.9,23.39,107.3,19,109,17.85a.91.91,0,0,1,1,0c5.49,3.7,2.52,11.41,2,12.69a.73.73,0,0,0-.06.39c.73,6.89,2.23,24.64-4.1,38-11.53,24.26-9.37,31.47-10.33,58.37s14,29,14,29-7.72-14.59-8.92-19.91c-1-4.37-.39-16.95-.89-17.89a.92.92,0,0,1-.09-.28c-.23-2.12-2.45-24.57,5.79-38.75C116,64.61,114.09,50,114.08,33.7Z"/><path class="cls-1" d="M79.74,21.35s-.21.18-.52.51A1.11,1.11,0,0,0,79.74,21.35Z"/><path class="cls-1" d="M53.58,160.14s-17.95,5.93,2.67,14.41,5,15.37,5,15.37C79.07,187.28,68,168.07,68,168.07c7.69,2.16,43.48-3.12,43.48-3.12V156.3C71.12,162.3,53.58,160.14,53.58,160.14Z"/></g></g></svg>