<svg xmlns="http://www.w3.org/2000/svg" viewBox="0 0 164.57 125.02"><defs><style>.cls-1{fill:#fff;}</style></defs><g id="Layer_2" data-name="Layer 2"><g id="Layer_1-2" data-name="Layer 1"><path class="cls-1" d="M17.37,3.51c11.45,0,13.74,7.61,13.74,7.61s-3.51-1-6,0c0,0,8.19,1,8.19,19.31,0,0,8.58-30.43-15.41-30.43C-2.43,0,.1,27.69.1,27.69V117a10.35,10.35,0,0,0,0,2.87v.35l0-.08c.47,2.83,2.05,4.93,4,4.93,2.26,0,4.09-3,4.09-6.63s-1.83-6.64-4.09-6.64a2.64,2.64,0,0,0-.49.08V27.3S.91,3.51,17.37,3.51ZM3.48,113.74c1.52,0,2.75,2.05,2.75,4.58S5,122.9,3.48,122.9.73,120.85.73,118.32,2,113.74,3.48,113.74Z"/><path class="cls-1" d="M23.35,69.57V58.85l.19-9.45-.92-.58-10,2.41v2l6.81.28c.15,4,.19,7.87.19,12.39v3.68c0,3.73-.05,9.4-.15,13.32L13,83.62v2H29.38v-2l-5.89-.72C23.4,79,23.35,73.3,23.35,69.57Z"/><path class="cls-1" d="M17.65,34.33a3.35,3.35,0,0,0,3.5,3.41,3.41,3.41,0,1,0,0-6.82A3.34,3.34,0,0,0,17.65,34.33Z"/><path class="cls-1" d="M48.2,66.05,45,64.85c-5.15-1.91-7.46-3.62-7.46-7.37s2.76-6.59,8.45-6.59a13.57,13.57,0,0,1,6.92,1.89l.82,6.07h2.55l.22-7.17A18.12,18.12,0,0,0,46.1,48.59c-7.89,0-12.28,4.3-12.28,9.8,0,5.11,3.62,8,9.11,10l3.56,1.3c5.76,2.07,7.78,4,7.78,7.53,0,4.11-3.24,7.11-9.85,7.11a16.87,16.87,0,0,1-7.62-1.53l-1.23-6.72H32.93l.26,8A24.83,24.83,0,0,0,44.27,86.6c9.28,0,13.7-4.78,13.7-10.21C58,71.75,55.34,68.7,48.2,66.05Z"/><path class="cls-1" d="M94.7,69.57V62c0-9.77-3.4-13.41-9.43-13.41-4.69,0-10,2.59-14.78,8V40.18l.22-10.85-1.16-.61-9.42,1.94v2l6.7.31v36.6c0,3.73,0,9.4-.14,13.32l-6.45.73v2H76.58v-2l-5.85-.71c-.1-3.93-.14-9.6-.14-13.34V59.06c5.37-5.62,9.8-7,13.21-7,4.54,0,7.14,2.65,7.14,10.16v7.37c0,3.85,0,9.44-.14,13.32l-6.42.73v2h16.35v-2l-5.88-.72C94.75,79,94.7,73.42,94.7,69.57Z"/><path class="cls-1" d="M134,62.86c0-8.2-5.45-14.27-13.91-14.27-8.88,0-16.74,7.43-16.74,19.07,0,12.65,7.73,18.94,16.88,18.94a15.82,15.82,0,0,0,13.55-7.18l-1.21-1.06a14.76,14.76,0,0,1-11.46,5.11c-7.33,0-13.51-5-13.65-16.33l26.05,0A16.54,16.54,0,0,0,134,62.86Zm-6.56,2.07-19.92,0c.69-8.47,6-14,12.41-14S130.14,56,130.14,61.58C130.14,63.76,129.52,64.93,127.4,64.93Z"/><path class="cls-1" d="M159.37,48.59c-4.89,0-9.68,4.13-12.1,10.3l-.45-9.49-.92-.58-9.3,2.41v2l6.7.28c.15,3.56.23,7.51.23,12.39v3.68c0,3.73-.05,9.41-.14,13.33l-6.36.72v2h17.25v-2l-6.85-.75c-.1-3.92-.14-9.57-.14-13.3v-6.8c2.3-5.8,5.24-9.36,9.17-11l.82.7c1.46,1.24,2.6,2,4.13,2,2.15,0,3.16-1.17,3.16-3.54C163.93,49.61,161.81,48.59,159.37,48.59Z"/></g></g></svg>