<svg xmlns="http://www.w3.org/2000/svg" viewBox="0 0 144 182.88"><defs><style>.cls-1{fill:#fff;}</style></defs><g id="Layer_2" data-name="Layer 2"><g id="Layer_1-2" data-name="Layer 1"><path class="cls-1" d="M79.59,125.28,24.87,135.73v-2q0-44.11,0-88.23c0-1.31.21-1.9,1.73-2.13,12.61-1.93,25.2-4,37.8-6,5-.81,10.05-1.66,15.21-2.52ZM67.7,71.55l-5.06.72v16.5c1.49-.31,2.89-.54,4.26-.91a1.26,1.26,0,0,0,.76-.92C67.71,81.9,67.7,76.85,67.7,71.55Z"/><path class="cls-1" d="M141.48,23.89v90L87,123.68V33.14ZM102.42,81.81V65.35l-5,.66V82.49Z"/><path class="cls-1" d="M138.3,16.82l-24.55,4L79.13,26.4,44.82,32c-7.66,1.24-15.31,2.5-23,3.69a3.2,3.2,0,0,1-2.19-.39C13.28,30.45,7,25.55.66,20.67A6.63,6.63,0,0,1,0,19.94a16.2,16.2,0,0,1,2-.63l29.18-5.26L72.88,6.53Q90.93,3.28,109,.05a3.33,3.33,0,0,1,2.11.33c8.82,5.25,17.6,10.56,26.4,15.85C137.64,16.34,137.8,16.47,138.3,16.82Z"/><path class="cls-1" d="M74.9,139.34v17.82a5.85,5.85,0,0,1-2-.54c-3.08-2.37-6.1-4.83-9.14-7.25-.27-.22-.58-.4-1.13-.78v8.17c0,3.08-.08,3.15-3.58,3.06v-2.35c0-4.47,0-8.95,0-13.42a7.19,7.19,0,0,1,.46-1.72,6.35,6.35,0,0,1,1.68.63c3,2.36,6,4.77,9,7.16.28.23.59.43,1.09.79v-10.8Z"/><path class="cls-1" d="M128.73,139.8V128.91l3.46-.75V146.1a7.55,7.55,0,0,1-2.07-.75c-3.27-2.54-6.49-5.15-10.06-8v3.84a48.35,48.35,0,0,0,0,5.11c.16,1.61-.49,2.22-2,2.31-.47,0-1,.11-1.5.17a5.64,5.64,0,0,1-.17-.92c0-5.11,0-10.22,0-15.33,0-.46.21-1.2.5-1.31a1.79,1.79,0,0,1,1.39.42c3,2.32,5.91,4.7,8.87,7.05C127.64,139,128.06,139.3,128.73,139.8Z"/><path class="cls-1" d="M96.73,149.45a2.38,2.38,0,0,1,.22.48c.24,2.74.23,2.73-2.45,3.24-3.5.67-7,1.37-10.48,2.06-.35.07-.72.09-1.48.18a16,16,0,0,1,.81-2.14c2.2-4,4.44-8,6.67-12,.25-.45.47-.92.86-1.68l-8,1.49V137.8L97.23,135a18.76,18.76,0,0,1-.92,2.48c-2.45,4.41-5,8.79-7.58,13.46Z"/><path class="cls-1" d="M32.68,155.83,41,163.58a37.69,37.69,0,0,1-3.9.73,2.23,2.23,0,0,1-1.5-.61c-1.9-1.69-3.74-3.44-5.84-5.4v7.48l-3.63.71V151.67c0-3.26,0-3.26,3.54-3.31v6.29l.32.12c1.41-2,3-3.82,4.19-5.9s3-2.32,5.27-2.46Z"/><path class="cls-1" d="M143.83,143.54l-3.47.68V135.3c0-2.29.08-4.58,0-6.86-.07-1.42.27-2.23,1.84-2.22a8.34,8.34,0,0,0,1.66-.31Z"/><path class="cls-1" d="M108.5,133v9.79c0,1.91-.13,3.84,0,5.74.14,1.6-.49,2.22-2,2.31-.47,0-.93.11-1.59.19,0-.64-.08-1.2-.08-1.76q0-6.54,0-13.08C104.9,133.05,104.9,133.05,108.5,133Z"/><path class="cls-1" d="M51,144.09v17.56l-3.48.64v-5.52c0-3.34.12-6.69-.05-10-.09-1.72.49-2.41,2.09-2.5C50,144.21,50.45,144.15,51,144.09Z"/><path class="cls-1" d="M32.71,181.84c-2.32-1.45-4.27-.74-6,1l-.27-.45c.77-2.11,1.5-4.24,2.36-6.31.37-.88,1.38-.81,1.79.08.77,1.69,1.47,3.4,2.2,5.11Z"/><path class="cls-1" d="M34.77,181c0-.32,0-.63-.05-.94v-5.37a14.55,14.55,0,0,1,2.65-.45c.77,0,2.09.19,2.17.54a6.52,6.52,0,0,1-.43,2.57c0,.13-.18.23-.3.39L40.17,180c-1,.5-1.57.34-2-.57a1.82,1.82,0,0,0-.5-.8,2.16,2.16,0,0,0-1.16-.49c-.17,0-.38.61-.48,1C35.84,179.88,36.6,181.24,34.77,181Zm1.47-3.73,2.33-1.39c-.32-.17-.64-.49-.94-.48C36.18,175.43,36.09,175.55,36.24,177.23Z"/><path class="cls-1" d="M105.74,168V161.5c1.14-.16,2.22-.37,3.32-.43,1.29-.07,1.93.71,2.1,1.91.38,2.62-.66,4.12-3.29,4.7C107.21,167.83,106.52,167.9,105.74,168Zm1.25-1.58c2.34-.4,3-1.06,2.88-2.63-.07-.95-.51-1.44-1.51-1.42s-1.48.35-1.38,1.42C107.06,164.66,107,165.51,107,166.45Z"/><path class="cls-1" d="M93.62,170.38v-7l4.2,3.3c.81-1.28-.66-3.16,1.46-4.14v6.93l-4.12-3.19C94.18,167.49,96,169.56,93.62,170.38Z"/><path class="cls-1" d="M139.76,158.06c-.18,1.39-.3,2.57-.51,3.74,0,.12-.55.14-.93.23v-6.74c1.56,1.2,2.86,2.22,4.17,3.22,1-1.2-.79-3.26,1.51-4.1v7C142.47,160.18,141.18,159.16,139.76,158.06Z"/><path class="cls-1" d="M136.29,157.08a16.16,16.16,0,0,0-1.95.63,6.15,6.15,0,0,0-2.38,1.44,2.3,2.3,0,0,0,.41,2.17c.7.71,1.62.35,2.22-.32l-1-1.23,2.28-.93c.29,1.77.45,3.14-1.36,3.83-1.53.59-3,.35-3.75-.74a3.48,3.48,0,0,1,.46-4.13C132.52,156.33,134.09,156,136.29,157.08Z"/><path class="cls-1" d="M113.43,166.48c0-1.87-.07-3.62,0-5.37a1.75,1.75,0,0,1,1.06-1.18,11.62,11.62,0,0,1,3.79-.38c-.28.35-.49.85-.85,1-.56.25-1.27.19-1.84.43-.39.17-.65.63-1,1l.29.4,2.29-.27.33.41a8.29,8.29,0,0,1-1.18.89c-.65.33-1.89,0-1.43,1.62l3-.36C118.23,165.87,116.9,166.41,113.43,166.48Z"/><path class="cls-1" d="M80,168.83l2.8-.47c.51-2.62.51-2.62,1.53-2.62,0,1.8,0,3.61,0,5.41,0,.41-.54.79-.83,1.19l-.37-.23-.15-2.45-2.69.45c-.83.95.53,2.65-1.4,2.88-.75-3-.34-6.23,1-6.64Z"/><path class="cls-1" d="M88,167.3l2.23-.23c.62,1.23-.37,1.29-1.1,1.37-.93.11-1.57.32-1.14,1.6l3-.48c.39,1.37.14,1.48-4.45,1.93v-6.42l4.51-.83.35.36c-.28.33-.51.8-.87,1-.57.24-1.27.17-1.84.41-.41.16-.7.63-1,1Z"/><path class="cls-1" d="M58.36,176.63c-2,1.24-2.53-1.1-4-1.53a6.15,6.15,0,0,1,0,1.73c-.12.41-.57.71-1.08,1.29-.66-4.48-.34-6.66,1-7l.2,2,2.94-2.9.43.42-2.27,3.24Z"/><path class="cls-1" d="M125.17,159.2l-3.36.88,0,.62c.57.11,1.14.23,1.71.33a1.58,1.58,0,0,1,1.13,2.67c-1,1.38-2.84,1.69-4.6.51a8.37,8.37,0,0,1,1.39-.52c.51-.1,1.07,0,1.56-.16a.87.87,0,0,0,.51-.69c0-.21-.37-.41-.58-.61,0,0-.1,0-.15,0-.94-.14-2.3.28-2.34-1.21a3,3,0,0,1,1.14-2.06A2.47,2.47,0,0,1,125.17,159.2Z"/><path class="cls-1" d="M76.54,168.09c-.87.3-1.43.44-1.94.68a6.69,6.69,0,0,0-2.34,1.28,2.08,2.08,0,0,0,.12,2c.34.41,1.29.38,2,.39a14.87,14.87,0,0,1,1.67-.13,3.13,3.13,0,0,1-4.27,1.27,3.08,3.08,0,0,1-.58-4.28C72.29,167.51,74.23,166.93,76.54,168.09Z"/><path class="cls-1" d="M69.18,168.91c-.36.28-.72.77-1.1.79-1,.07-1.18.64-1.15,1.49a18.9,18.9,0,0,1,0,3c-.06.48-.53.9-.81,1.34l-.54-.23v-5l-2,.1c.08-1.23,2.12-1.93,5.27-1.93Z"/><path class="cls-1" d="M43.71,174.25l-2,.3-.35-.3c.29-.34.53-.88.89-1,1.54-.38,3.11-.63,4.82-.95.37,1.84-1.3,1.19-2,1.78-.13,1.66-.26,3.42-.44,5.17a5.29,5.29,0,0,1-1,.09Z"/><path class="cls-1" d="M128.45,157.6c0,1.8.05,3.61,0,5.42,0,.39-.51.76-.79,1.14l-.48-.25c0-1.85,0-3.71,0-5.56,0-.38.54-.74.84-1.11Z"/><path class="cls-1" d="M60.24,176.28c0-1.89-.05-3.78,0-5.66,0-.35.55-.67,1.08-.87-.13,2.3.91,4.65-.33,6.67Z"/><path d="M67.7,71.55c0,5.3,0,10.35,0,15.39a1.26,1.26,0,0,1-.76.92c-1.37.37-2.77.6-4.26.91V72.27Z"/><path d="M102.42,81.81l-5,.68V66l5-.66Z"/><path d="M36.24,177.23c-.15-1.68-.06-1.8,1.39-1.87.3,0,.62.31.94.48Z"/><path d="M107,166.45c0-.94.07-1.79,0-2.63-.1-1.07.41-1.4,1.38-1.42s1.44.47,1.51,1.42C110,165.39,109.33,166.05,107,166.45Z"/></g></g></svg>