<svg xmlns="http://www.w3.org/2000/svg" viewBox="0 0 180 103.5"><defs><style>.cls-1{fill:#fff;}</style></defs><g id="Layer_2" data-name="Layer 2"><g id="Layer_1-2" data-name="Layer 1"><polygon class="cls-1" points="36.54 50.02 36.54 42.76 15.98 42.76 15.98 90.68 23.21 90.68 23.21 70.35 32.95 70.35 32.95 63.09 23.21 63.09 23.21 50.02 36.54 50.02"/><rect class="cls-1" x="41.51" y="42.8" width="7.22" height="47.88"/><path class="cls-1" d="M66.84,84.6a3.72,3.72,0,0,1-3-1.34q-1.76-1.89-2.21-6.07l-6.88.49a18.77,18.77,0,0,0,1.59,6.79A11.79,11.79,0,0,0,60,89.15a11.38,11.38,0,0,0,7,2.1,13.49,13.49,0,0,0,4-.54,9.29,9.29,0,0,0,5-3.4,13.43,13.43,0,0,0,2.6-8.56,13,13,0,0,0-1.07-4.58,20.22,20.22,0,0,0-1.11-2.26,24.27,24.27,0,0,0-4.12-5.27Q71.54,65.8,69,63.7a24.35,24.35,0,0,1-3.21-3.06A10.56,10.56,0,0,1,63,54a6.76,6.76,0,0,1,.84-3.51,3.29,3.29,0,0,1,3-1.76,3.56,3.56,0,0,1,2.87,1.18,8.32,8.32,0,0,1,1.68,4.59l6.92-1.26a13.84,13.84,0,0,0-1.59-5.54,10,10,0,0,0-3.46-3.75,12.25,12.25,0,0,0-6.61-1.71,10.92,10.92,0,0,0-6.72,2q-4.4,3.38-4.4,9.91a14.43,14.43,0,0,0,1.61,6.73,27.54,27.54,0,0,0,5.08,6.23l6.42,6.09a8.78,8.78,0,0,1,2.71,5.92,5.85,5.85,0,0,1-.72,3.18A4.5,4.5,0,0,1,66.84,84.6Z"/><polygon class="cls-1" points="107.81 90.68 107.81 42.8 100.58 42.8 100.58 63.13 91.87 63.13 91.87 42.8 84.65 42.8 84.65 90.68 91.87 90.68 91.87 70.39 100.58 70.39 100.58 90.68 107.81 90.68"/><polygon class="cls-1" points="134.82 50.02 134.82 42.76 114.26 42.76 114.26 90.68 134.82 90.68 134.82 83.42 121.49 83.42 121.49 70.35 131.23 70.35 131.23 63.09 121.49 63.09 121.49 50.02 134.82 50.02"/><path class="cls-1" d="M162.53,61.18v-7q0-5.19-2.49-8.1-2.82-3.33-8.86-3.32H139.79V90.68H147v-18h4.82l4.38,18H164l-5.35-20.91A11.19,11.19,0,0,0,162.53,61.18Zm-7,.15a4,4,0,0,1-1.21,2.94,3.91,3.91,0,0,1-2.92,1.22H147V50.17h4.36q4.13,0,4.13,4.17Z"/><polygon class="cls-1" points="10.88 27.78 169.13 27.78 164.44 23.09 14.66 23.99 10.88 27.78"/><polygon class="cls-1" points="0 0 0 33.35 11.25 22.1 11.25 9 168.75 9 168.75 22.1 180 33.35 180 0 0 0"/><polygon class="cls-1" points="23.28 15.38 19.5 19.16 160.5 19.16 156.72 15.38 23.28 15.38"/><polygon class="cls-1" points="168.75 94.5 11.25 94.5 11.25 42.38 0 42.38 0 103.5 180 103.5 180 42.38 168.75 42.38 168.75 94.5"/><polygon class="cls-1" points="1.88 36.78 1.88 38.63 178.13 38.63 178.13 36.78 174.13 32.78 5.87 32.78 1.88 36.78"/></g></g></svg>