<svg xmlns="http://www.w3.org/2000/svg" viewBox="0 0 177.83 180"><defs><style>.cls-1,.cls-2{fill:#fff;}.cls-1{fill-rule:evenodd;}</style></defs><g id="Layer_2" data-name="Layer 2"><g id="Layer_1-2" data-name="Layer 1"><path class="cls-1" d="M144.84,131.12A1.94,1.94,0,0,0,143,129a2.14,2.14,0,0,0-2.43,1.78c-.08,1.09.81,1.88,2.23,2A1.75,1.75,0,0,0,144.84,131.12Z"/><path class="cls-1" d="M137.5,125.15c.15.47.63,1.09,1.05,1.16s.82-.59,1.59-1.2c-.84-.47-1.3-.92-1.75-.92S137.43,124.92,137.5,125.15Z"/><path class="cls-1" d="M177,124.8c-.39.43-.87.73-.87,1s.54.91.7.86a1.72,1.72,0,0,0,1-.83C177.89,125.7,177.36,125.26,177,124.8Z"/><path class="cls-1" d="M169.52,146.65c.49.35.93.84,1.11.76.38-.17.62-.64.92-1-.33-.22-.66-.63-1-.62S170,146.26,169.52,146.65Z"/><path class="cls-1" d="M109.58,169.45c-.29.06-.7.25-.78.48s.24.55.49,1.06c.35-.44.64-.67.7-.94S109.68,169.43,109.58,169.45Z"/><path class="cls-1" d="M144.13,153.9c-.12.23-.37.51-.31.68a.73.73,0,0,0,.62.41c.17,0,.41-.37.43-.59a2.24,2.24,0,0,0-.2-.85Z"/><path class="cls-1" d="M62.05,13.24h.14V10.75h-.14Z"/><ellipse class="cls-2" cx="62.14" cy="4.41" rx="0.13" ry="0.81"/><path class="cls-1" d="M62.29,8.92c0-.24,0-.48,0-.72l-.24,0,.09.71Z"/><path class="cls-1" d="M17.93,58.45a4,4,0,0,0,.27,2.69,1.14,1.14,0,0,0,1.8.32,8.94,8.94,0,0,0,1-1.05c.22-.24.42-.61.65-.66,1.23-.26,2.47-.44,3.74-.65-.2,2.72.17,3.95,1.12,4.07s1.79-1.36,1.84-3-.5-2.3-2.2-2.46c-.9-3-2.78-4-4.37-2.31a1.16,1.16,0,0,1-1.43.27C18.94,55.21,18.21,56.13,17.93,58.45Z"/><path class="cls-1" d="M15.54,47.81c-.16,1.67.51,2.7,1.51,2.61.38,0,.75-.2,1.13-.26.59-.09,1.1-.33,1.12-1.62a2.48,2.48,0,0,0-1.06-2.42,1.85,1.85,0,0,0-1-.26c-.58.06-1.1.09-1.35-1.1,0-.14-.33-.11-.51-.16L15.2,45A5.38,5.38,0,0,1,15.54,47.81Z"/><path class="cls-1" d="M23.27,67.71c.9,0,1.6-1.26,1.59-2.8,0-1.29-.54-2.24-1.26-2.24-.87,0-1.56,1.26-1.56,2.87C22,67,22.45,67.72,23.27,67.71Z"/><path class="cls-1" d="M10.14,43.73c-.46-.27-1,.59-1.08,1.48s.15,1.55.66,1.84.8.45,1.2.64c1,.49,1.42.14,2-1.95C12.12,44.35,11.06,44.29,10.14,43.73Z"/><path class="cls-1" d="M25.21,54c.8-.05,1.59-1.56,1.56-3,0-1.16-.56-2-1.26-2-.86,0-1.57,1.23-1.56,2.66S24.53,54,25.21,54Z"/><path class="cls-1" d="M10.4,36.4c.78,0,1.28-.78,1.25-1.93s-.49-1.7-1.12-1.65-1.24,1-1.2,2.12C9.36,35.84,9.77,36.4,10.4,36.4Z"/><path class="cls-1" d="M4.86,35.94c-.57,0-1.09.9-1.07,1.78s.5,1.38,1.12,1.34S6,38.42,6,37.6,5.46,35.92,4.86,35.94Z"/><path class="cls-1" d="M32.5,64.4c.57,0,1-.86,1-1.83S33,61,32.59,61.08s-1,1-.92,2S32,64.38,32.5,64.4Z"/><path class="cls-1" d="M13.9,36c-.17,0-.32.49-.47.77.17.28.33.73.52.78s.34-.42.61-.79C14.27,36.38,14.08,36,13.9,36Z"/><path class="cls-1" d="M.48,48.61a3.13,3.13,0,0,0-.48,1c.19.21.38.59.56.58s.32-.45.56-.84C.83,49,.59,48.53.48,48.61Z"/><path class="cls-1" d="M20.51,43.22c-.21-.38-.36-.83-.45-.8a1.15,1.15,0,0,0-.51.66c0,.11.19.75.29.74S20.22,43.5,20.51,43.22Z"/><path class="cls-1" d="M22.91,52.87c0-.16-.18-.52-.36-1a3.81,3.81,0,0,0-.44,1c0,.19.22.47.34.72A2.71,2.71,0,0,0,22.91,52.87Z"/><path class="cls-1" d="M16.77,41.29a1.46,1.46,0,0,0-.49-.76c-.08-.05-.4.51-.37.65a4.37,4.37,0,0,0,.5,1C16.58,41.79,16.81,41.41,16.77,41.29Z"/><path class="cls-1" d="M28.86,57.23c.16-.08.28-.34.54-.68-.27-.21-.41-.43-.52-.38a.79.79,0,0,0-.29.55C28.58,56.88,28.8,57.27,28.86,57.23Z"/><path class="cls-1" d="M82.37,159.36l-.93,0-1,0a1.15,1.15,0,0,0-.72.18,1.05,1.05,0,0,0-.35.39c-.15.23-.29.48-.44.76l-.39.79a3.34,3.34,0,0,1-.24.48.9.9,0,0,1-.33.36,1.11,1.11,0,0,1-.5,0L76,162.05l-1.55-.19-.29,0-.31,0a.4.4,0,0,1-.38-.35,2.32,2.32,0,0,1-.06-.38c0-.13,0-.27-.06-.41-.08-.35-.15-.69-.23-1s-.18-.66-.27-1a.2.2,0,0,0-.11-.13.38.38,0,0,1-.17.07.33.33,0,0,0-.18.07.39.39,0,0,1-.11-.2,1,1,0,0,0-.08-.21.77.77,0,0,0-.1-.18c0-.06-.1-.08-.2-.07a2.66,2.66,0,0,0-.38.1l-.44.16a1.63,1.63,0,0,0-.17-.38,1,1,0,0,1-.31.43.86.86,0,0,1-.42.16.84.84,0,0,0-.41.18.44.44,0,0,1-.47,0c0,.25-.24.38-.56.38a.63.63,0,0,0-.58.5q-.09.31-.15.6a1.69,1.69,0,0,0,0,.63l.06.38c0,.14,0,.28,0,.45.05.44.11.88.18,1.33a7.73,7.73,0,0,1,.12,1.36,13.86,13.86,0,0,0,.09,1.59q.11.79.24,1.59c.15.89.32,1.77.49,2.64s.35,1.75.52,2.65.27,1.63.4,2.43.26,1.64.42,2.45a1.42,1.42,0,0,0,0,.22l.08.21a2.76,2.76,0,0,0,.34,1c.18.3.37.6.57.91a.48.48,0,0,1,.31-.27,2.49,2.49,0,0,1,.37-.09H73a3,3,0,0,1,.52,0H74a.76.76,0,0,0,.27-.05.28.28,0,0,1,.22,0,.5.5,0,0,0,.44-.08,1.28,1.28,0,0,1,.39-.24.18.18,0,0,0,.1-.09.16.16,0,0,0,0-.13,1.06,1.06,0,0,1,.1-.71,1.7,1.7,0,0,0,.22-.69,6.19,6.19,0,0,1,.19.67,1.8,1.8,0,0,0,.29.61.75.75,0,0,0,0-.35,3.56,3.56,0,0,0-.09-.39c0-.13-.07-.27-.11-.41a.89.89,0,0,1,0-.72l.45-1.07.48-1.08c.23-.51.47-1,.73-1.51s.51-1,.73-1.48.44-1,.65-1.52.41-1,.64-1.48c.13-.3.27-.6.39-.89s.26-.59.4-.89a1.34,1.34,0,0,1,.19-.26,1.59,1.59,0,0,0,.18-.27,1.12,1.12,0,0,0,.1-.39.67.67,0,0,1,.08-.33c.22-.43.42-.88.61-1.34s.39-.91.61-1.35c0-.11.14-.32.28-.62l.42-.93c.14-.32.28-.63.42-.92a5.51,5.51,0,0,0,.26-.61q.14-.47-.27-.54A4.64,4.64,0,0,0,82.37,159.36Zm-7,8.91c-.23.51-.44,1-.65,1.6h-.15c-.15-.6-.26-1.18-.35-1.75S74,167,73.9,166.37l1.08.08a9,9,0,0,1,1.07.19C75.82,167.2,75.59,167.75,75.36,168.27Z"/><path class="cls-1" d="M63.67,156.66a.8.8,0,0,0,0-.43,2.73,2.73,0,0,0-.13-.41.52.52,0,0,0-.46-.34h-.2a1,1,0,0,1,0-.23,1.06,1.06,0,0,0,0-.23,2.09,2.09,0,0,0-.14.17.7.7,0,0,0-.14.21,1.3,1.3,0,0,1,0-.26.84.84,0,0,0,0-.18l-.21.12a.45.45,0,0,0-.07-.18c-.29.22-.48.18-.58-.14a1.94,1.94,0,0,1,0-.33,1.17,1.17,0,0,0-.38.21.53.53,0,0,1-.42.08l-.19.1c-.2.13-.32.2-.36.18a1.08,1.08,0,0,1-.28-.35,1.32,1.32,0,0,0-.4.34c-.09.13-.19.27-.27.41-.34.67-.69,1.33-1.05,2s-.72,1.32-1.1,2a3.72,3.72,0,0,1-.35.58l-.41.55-.39-.24a1.58,1.58,0,0,0-.36-.19l-1-.47-1-.44a7.64,7.64,0,0,0-1.49-.49,7.1,7.1,0,0,0-1.55-.14l-1,0c-.33,0-.68,0-1,.09a5.29,5.29,0,0,0-1.2.27l-.61.28-.6.32a3.67,3.67,0,0,0-.9.71,4.91,4.91,0,0,0-.65,1,10,10,0,0,0-.72,1.84A5.37,5.37,0,0,0,44,166.6a3.09,3.09,0,0,0,.24.44l.28.41c.17.26.34.51.52.75s.35.49.52.75a7.26,7.26,0,0,0,.7.77c.36.3.71.6,1.07.88a8.09,8.09,0,0,0,1.13.78l1.62.88c.54.3,1.07.63,1.61,1l.35.26.4.24a8,8,0,0,0,.89.45.32.32,0,0,0,.47-.21c0-.23.19-.3.46-.21a.68.68,0,0,0,.47,0c.08-.06.13-.2.15-.44a3.38,3.38,0,0,1,.29-.95c.14-.3.28-.6.43-.9a7,7,0,0,1,.58-1c.22-.33.44-.66.63-1l.22-.39c.22-.45.46-.88.71-1.32s.54-.85.82-1.26a.29.29,0,0,1,.26-.15.3.3,0,0,0,.23-.07l.16-.19a.72.72,0,0,0,.06-.75l.43-.18a.37.37,0,0,0,.2-.14.25.25,0,0,0,0-.17c0-.06,0-.15-.06-.26h.31a.7.7,0,0,1-.07-.6,2.92,2.92,0,0,1,.31-.53l.45-.6.43-.63c.41-.62.78-1.24,1.12-1.87a17.51,17.51,0,0,0,.9-2l.3-.76a1.24,1.24,0,0,0,0-.85A.1.1,0,0,1,63.67,156.66Zm-9.82,7.68v0a6,6,0,0,0-.81,1.32A11,11,0,0,1,52.3,167c-.18.31-.31.47-.4.49a1.38,1.38,0,0,1-.62-.22c-.3-.17-.57-.34-.83-.51a6.07,6.07,0,0,1-.75-.61,1.54,1.54,0,0,1-.23-.32c-.07-.12-.14-.25-.23-.39l-.15-.31-.13-.33a1.44,1.44,0,0,1-.17-.49,1.27,1.27,0,0,1,.07-.56,2.28,2.28,0,0,1,.57-.91.56.56,0,0,1,.56-.25,2.63,2.63,0,0,1,.56,0,5.11,5.11,0,0,0,.58,0,1.33,1.33,0,0,1,.65.16,4.27,4.27,0,0,0,.63.27,2.25,2.25,0,0,1,.3.16l.32.21.73.42C54,164,54,164.17,53.85,164.34Z"/><path class="cls-1" d="M45.75,149.22a15.81,15.81,0,0,0,1.58-1.48l.57-.59a1.16,1.16,0,0,0,.32-.78.18.18,0,0,1,.05-.08.8.8,0,0,0,.19-.38,3,3,0,0,0,0-.43.5.5,0,0,0-.3-.49L48,144.9a1.32,1.32,0,0,1,0-.23,1.32,1.32,0,0,0,0-.23l-.2.1a1.28,1.28,0,0,0-.21.14c0-.09,0-.17.07-.24a.72.72,0,0,0,0-.19l-.23,0a.6.6,0,0,0,0-.19c-.35.1-.52,0-.49-.34a1.93,1.93,0,0,1,.08-.33,1.21,1.21,0,0,0-.43.05.52.52,0,0,1-.41-.08.92.92,0,0,0-.22,0c-.23,0-.37.06-.4,0a1,1,0,0,1-.12-.42,1,1,0,0,0-.5.15,4.21,4.21,0,0,0-.41.28c-.57.48-1.14,1-1.73,1.44s-1.17.94-1.77,1.39a2.27,2.27,0,0,1-.55.4l-.58.36c-.1-.13-.19-.25-.27-.37a3.23,3.23,0,0,0-.26-.32l-.8-.83c-.24-.27-.5-.53-.75-.79A7.2,7.2,0,0,0,35.41,143l-.93-.34c-.31-.11-.64-.22-1-.31a4.6,4.6,0,0,0-1.21-.21c-.23,0-.45,0-.68,0l-.67.06a3.54,3.54,0,0,0-1.11.32,4.47,4.47,0,0,0-1,.63,10.2,10.2,0,0,0-1.37,1.43,5.43,5.43,0,0,0-1.16,3.4,2.44,2.44,0,0,0,.05.48c0,.16.07.32.1.5s.13.6.2.88.14.59.2.9a7.65,7.65,0,0,0,.34,1c.22.42.44.82.66,1.22a9.44,9.44,0,0,0,.75,1.15l1.16,1.44c.38.48.75,1,1.11,1.52l.23.37.27.38c.1.13.21.25.32.38s.22.25.34.37a.31.31,0,0,0,.5,0c.13-.19.3-.2.52,0a.67.67,0,0,0,.44.16c.09,0,.2-.14.31-.36a3.5,3.5,0,0,1,.62-.76l.74-.66a6.65,6.65,0,0,1,.94-.74c.33-.21.65-.45,1-.68l.36-.27a14.86,14.86,0,0,1,1.15-.95c.41-.3.82-.59,1.24-.85a.28.28,0,0,1,.3,0,.26.26,0,0,0,.24,0l.22-.1a.77.77,0,0,0,.34-.68h.47a.39.39,0,0,0,.24-.05.26.26,0,0,0,.09-.15c0-.06,0-.15,0-.26l.12.06.17.07a.69.69,0,0,1,.16-.59,3.79,3.79,0,0,1,.48-.37,7.3,7.3,0,0,0,.65-.38l.64-.42C44.61,150.11,45.19,149.67,45.75,149.22Zm-9.48.42,0,0a6.5,6.5,0,0,0-1.25.9,11,11,0,0,1-1.19,1c-.28.22-.47.32-.56.3s-.25-.17-.49-.44-.4-.53-.57-.79a5.6,5.6,0,0,1-.45-.84,1.72,1.72,0,0,1-.1-.39c0-.14,0-.28-.06-.45s0-.22,0-.34v-.36a1.27,1.27,0,0,1,0-.52,1.15,1.15,0,0,1,.28-.48,2.08,2.08,0,0,1,.86-.63.6.6,0,0,1,.62,0,3.31,3.31,0,0,1,.5.24,3.6,3.6,0,0,0,.52.26,1.37,1.37,0,0,1,.55.4,5.5,5.5,0,0,0,.47.49,1.23,1.23,0,0,1,.22.27l.22.3.51.67C36.49,149.39,36.46,149.54,36.27,149.64Z"/><path class="cls-1" d="M27.51,134.32a7.47,7.47,0,0,0,.87-.3l.6-.18a1.12,1.12,0,0,0,.53-.33.26.26,0,0,1,.17-.09l.22,0c.54-.12,1.08-.25,1.6-.39s1.06-.27,1.6-.39a12,12,0,0,0,1.25-.33,5.3,5.3,0,0,0,1.2-.53.49.49,0,0,1,.22-.1l.26,0c.36-.12.72-.22,1.1-.32l1.13-.3.22-.06q.09,0,.12-.18a4.73,4.73,0,0,0,.07-.83,1.73,1.73,0,0,0-.19-.79.42.42,0,0,1,0-.27.91.91,0,0,0,.05-.45.41.41,0,0,0-.31-.3,1.91,1.91,0,0,1,.07-.28c0-.08,0-.13,0-.16a.53.53,0,0,1-.23-.34,1.22,1.22,0,0,0-.15-.4.49.49,0,0,1,.08-.1.21.21,0,0,0,.08-.1,1.45,1.45,0,0,0-.34-.39.67.67,0,0,0-.52-.1s-.08,0-.12-.07l-.12-.15a.63.63,0,0,1-.07-.22.77.77,0,0,1,0-.21c-.1-.52-.19-1-.28-1.52s-.19-1-.3-1.51-.19-.82-.3-1.22-.26-.82-.4-1.23a.56.56,0,0,0-.26-.28.51.51,0,0,0-.49,0,.64.64,0,0,1-.49,0s-.06,0-.11.09-.08.1-.12.09l-.65,0-.65,0-.13,0a.16.16,0,0,0-.12.08.49.49,0,0,1-.39.24,2,2,0,0,1-.53,0c0,.21-.05.29-.18.25a.49.49,0,0,0-.34,0l0,.3a1.49,1.49,0,0,1,0,.28l-.32.18.29.68c.08.22.15.43.21.64.14.61.28,1.21.43,1.8s.28,1.2.39,1.81a3.93,3.93,0,0,1,.1.44c0,.14,0,.29.07.45s0,.38-.28.44a11.1,11.1,0,0,1-1.36.4c-.47.12-.92.21-1.37.29h-.06l0,0-.37-1.39c-.1-.46-.2-.91-.31-1.37s-.22-.91-.34-1.36-.38-.55-.81-.4a1,1,0,0,1-.3,0l-.16,0c-.08.11-.15.16-.24.16l-.28,0a.53.53,0,0,0-.25,0,1.26,1.26,0,0,1-.28,0,2.09,2.09,0,0,0-.13-.23,1.11,1.11,0,0,0-.15-.23q0,.16,0,.24a1.16,1.16,0,0,1,0,.18,2.37,2.37,0,0,0-.42,0,.8.8,0,0,1-.15-.47.76.76,0,0,0-.22-.49l0,.38a1.06,1.06,0,0,0,0,.31l0,.3c0,.2-.08.3-.26.29a.33.33,0,0,1-.12-.33c0-.14,0-.24-.2-.3,0,.14,0,.32,0,.52a2.43,2.43,0,0,1-.25-.71l0-.35a.74.74,0,0,0-.12-.33l-.11,0c0,.23,0,.46.07.7l.09.72c-.18,0-.28,0-.3-.14a.6.6,0,0,0-.23-.34,1.12,1.12,0,0,0,0,.25.86.86,0,0,0,0,.17c.1.54.18,1.08.25,1.62a5.38,5.38,0,0,0,.46,1.56,2.35,2.35,0,0,1,.21,1,3.49,3.49,0,0,0,.16,1.06c0,.13,0,.25-.22.33a8.2,8.2,0,0,1-1.11.28,5.72,5.72,0,0,1-1.09.08.31.31,0,0,1-.09-.19c-.08-.38-.16-.75-.26-1.12s-.17-.73-.23-1.12a6,6,0,0,0-.19-.94,5.23,5.23,0,0,0-.33-.91c-.08-.25-.16-.48-.23-.71s-.14-.47-.2-.7-.1-.43-.14-.64-.08-.44-.13-.65a.82.82,0,0,0-.18-.43.64.64,0,0,0-.43-.13h-.37a.63.63,0,0,0-.32.07c-.15.06-.26.06-.33,0a1.5,1.5,0,0,1-.2-.23l-.07.08c0,.2-.14.28-.28.23a.36.36,0,0,1-.25-.24.7.7,0,0,1-.07-.22.67.67,0,0,0-.08-.24c0-.1-.05-.19-.06-.28a.42.42,0,0,0-.21-.27c.05.23.09.45.13.65a3.7,3.7,0,0,1,.07.57,1.13,1.13,0,0,1-.53-.06.57.57,0,0,1-.15-.41c0-.14,0-.28-.06-.41a.6.6,0,0,0-.23-.36l0,.83-.07-.07a.43.43,0,0,0-.1-.1c0,.2,0,.38.05.53a3.64,3.64,0,0,1,0,.48h-.06a.63.63,0,0,1-.17-.2.57.57,0,0,0-.27,0L15.75,122h0s0,0,0,0a2.29,2.29,0,0,0,0,.37l0,.36a0,0,0,0,1-.05,0h0l-.27-1H15.3a2.73,2.73,0,0,0,.06.5,4.29,4.29,0,0,1,.06.53h-.06l-.31-1.19a1.47,1.47,0,0,0,0,.23c.08.46.17.92.26,1.39s.18,1,.26,1.42a6.8,6.8,0,0,0,.36,1.3,3,3,0,0,1,.18,1.33s0,.07,0,.08,0,0,0,.06c.11.39.19.78.26,1.17a7,7,0,0,0,.32,1.14l.12.29c0,.11.07.22.1.33.17.71.34,1.41.52,2.11s.37,1.38.54,2.06c.08.27.15.53.24.78s.16.51.23.78a1.15,1.15,0,0,0,.29.51.93.93,0,0,0,.58.1.88.88,0,0,0,.28-.06.76.76,0,0,1,.27-.05l.25-.07a.9.9,0,0,1,.25,0c.33,0,.66-.11,1-.18a2.17,2.17,0,0,0,.9-.47.31.31,0,0,1,.14-.07.39.39,0,0,0,.16-.1.9.9,0,0,1,.29-.16.79.79,0,0,0,.29-.18.81.81,0,0,1,.59-.32l.85-.15c.27-.06.55-.09.83-.13l.39,0h.43a2.47,2.47,0,0,0,.48-.07Z"/><path class="cls-1" d="M15.63,110.54l.6.37a.8.8,0,0,0,.31.1l.92.18a1.43,1.43,0,0,0,.91-.17.59.59,0,0,1,.27,0c.23,0,.39-.11.47-.39l0-.25c0-.09,0-.18.07-.28.09-.47.16-.95.24-1.44s.16-1,.24-1.47c0-.23.08-.37.13-.4a.85.85,0,0,1,.47,0c.63.06,1.24.15,1.83.26a15.71,15.71,0,0,0,1.81.23c.83.07,1.63.17,2.4.29s1.56.25,2.39.36l.57.08a2.5,2.5,0,0,1,.54.13l1.17.26a3.08,3.08,0,0,0,1.21,0,.28.28,0,0,1,.13,0l.14,0,1.14,0c.37,0,.75,0,1.14.07a.49.49,0,0,0,.49-.29.41.41,0,0,0,0-.19c0-.07,0-.14.06-.22l.2-.55c.06-.18.13-.37.2-.59a1.18,1.18,0,0,1,0-.2.68.68,0,0,0,0-.21c0-.1,0-.2,0-.3a1.53,1.53,0,0,1,0-.3,4.18,4.18,0,0,1,0-.71,3.87,3.87,0,0,0,0-.68.91.91,0,0,0-.16-.56,1.11,1.11,0,0,0-.46-.34,2.33,2.33,0,0,0-.85-.14h-.84l-1-.06a8.44,8.44,0,0,1-1-.09q-.8-.13-1.56-.3c-.51-.11-1.05-.2-1.59-.27s-1.33-.18-2-.26l-2-.22-.64-.1-.67-.11-1.24-.17c-.21,0-.44,0-.68,0a6.31,6.31,0,0,0-.77,0l.23-.94c.07-.3.12-.58.16-.86A7.74,7.74,0,0,0,21,98.35a7.39,7.39,0,0,1,.18-1.48.24.24,0,0,0,0-.13l0-.12a.12.12,0,0,0-.06-.1,1.26,1.26,0,0,1-.38-.31.75.75,0,0,0-.46-.23l-.76-.1a2.28,2.28,0,0,0-.36-.13.68.68,0,0,0-.38.06.41.41,0,0,1-.27,0,2.23,2.23,0,0,1-.52,0,2.23,2.23,0,0,0-.52,0,1.33,1.33,0,0,0-.66.22,1,1,0,0,0-.42.54A15.24,15.24,0,0,0,16,98.16c-.13.64-.24,1.26-.33,1.87s-.19,1.24-.3,1.87l-.16,1c-.1.37-.18.74-.24,1.1s-.14.75-.22,1.15a1.93,1.93,0,0,0-.06.49c0,.17,0,.34,0,.52-.06.38-.11.75-.17,1.12s-.13.73-.2,1.1c0,.09,0,.17,0,.26a.52.52,0,0,0,0,.23,2.91,2.91,0,0,0,.32.58,1.94,1.94,0,0,1,.3.57l.16.14Z"/><path class="cls-1" d="M21.29,82.38c-.17.3-.34.58-.53.86a2.29,2.29,0,0,0-.36.93,6.19,6.19,0,0,1-.13.62c-.05.21-.1.42-.14.65a.61.61,0,0,0,0,.36.53.53,0,0,0,.27.23,2.56,2.56,0,0,0,.39.22l.4.19,1.17.62a8.87,8.87,0,0,0,1.17.53c.85.29,1.67.58,2.47.84a15.52,15.52,0,0,1,2.39,1A12.16,12.16,0,0,0,29.6,90c.41.17.82.37,1.22.58l1.53.79,1.51.82.73.37q.36.18.72.39l.89.49.9.49.51.25a1.49,1.49,0,0,0,.47.07.64.64,0,0,0,.42-.15c.15-.14.31-.3.47-.47a1.65,1.65,0,0,0,.35-.56,3.82,3.82,0,0,1,.31-.72,6.18,6.18,0,0,0,.34-.73c.15-.34.32-.7.52-1.07a1.1,1.1,0,0,0,.17-1A1,1,0,0,0,40,88.9l-1.58-.75-1.49-.74-1.47-.77c-.21-.12-.41-.23-.61-.32s-.42-.21-.62-.33l-.88-.43-.85-.43-1.18-.54-1.17-.51-.7-.28-.68-.27-1.08-.39-1-.35c-.55-.22-1.1-.46-1.63-.73a14.23,14.23,0,0,1-1.52-.87,1.1,1.1,0,0,0-1.27.06,1.58,1.58,0,0,0-.56.49C21.55,81.94,21.42,82.15,21.29,82.38Z"/><path class="cls-1" d="M56.58,115.46a.22.22,0,0,0,0,.1h0l0,0v-.19a.06.06,0,0,0-.06,0A.2.2,0,0,1,56.58,115.46Z"/><path class="cls-1" d="M112.51,103.63l-.56.5a.56.56,0,0,0-.19.22l-.16.26c.23-.21.47-.42.7-.61s.48-.4.73-.64a.11.11,0,0,0,0-.08.22.22,0,0,1,0-.08l-.06-.06Z"/><path class="cls-1" d="M117.08,123.25h.36l.38,0v0l-.38,0Z"/><path class="cls-1" d="M109.64,115.06a1.31,1.31,0,0,0,0,.4.74.74,0,0,0,.2.38c0-.12-.09-.26-.13-.41S109.67,115.18,109.64,115.06Z"/><path class="cls-1" d="M111.34,104.8l.07.06a.47.47,0,0,0,.09-.12.41.41,0,0,1,.1-.13.51.51,0,0,1-.13.09A.57.57,0,0,0,111.34,104.8Z"/><path class="cls-1" d="M56.36,106.81a.66.66,0,0,0-.15-.22,2.25,2.25,0,0,0-.41-.34q-.22-.14-.45-.3a3.4,3.4,0,0,0-1.23-.46l-1.29-.25a1.45,1.45,0,0,0-.29,0l-.28,0-.1,3.64h.25l.23,0a3.45,3.45,0,0,0,1.16-.07,9.92,9.92,0,0,0,1.1-.31c.24-.11.47-.22.69-.34a2,2,0,0,0,.59-.49.75.75,0,0,0,.3-.29.62.62,0,0,0,0-.38Z"/><path class="cls-1" d="M122.05,82.27a124,124,0,0,0-11.12-9.49,21.35,21.35,0,0,0-3.5-2.1c0-.5,0-1-.07-1.5C107,64.41,107,59.59,107,54.8c0-2.12.25-4.24.28-6.35.06-4.19.09-8.38,0-12.57-.06-6.44-.21-12.89-.3-19.33h0V1.84h-6.9c-.08-.24-.15-.51-.23-.86l-.48.86H97.12A3.25,3.25,0,0,0,96.6.29c-.15.4-.26.72-.4,1.09L95.41.5l-5,.42c-.24-.25-.52-.56-.87-.92-.24.33-.41.74-.56.74-1.42,0-2.69.76-4.17.59-1.19-.14-1.53-.09-1.85.51h-1.6a1.33,1.33,0,0,0-1,0h-5C75,1,74.71.31,74.42.19a.58.58,0,0,0-.48,0c-1.08.85-2.15.56-3.27.08-.27-.12-.66,0-1,0C69,.25,68.4.14,67.76.13a14.39,14.39,0,0,0-2.46.1c-.88.15-.61,1.08-.92,1.64a1.3,1.3,0,0,0-.2.45c-.26,1.8-.88,3.57-.32,5.44a8.93,8.93,0,0,1,.4,2.61c-.09,7-.23,14-.36,21a10.68,10.68,0,0,1-.18,1.48,17.67,17.67,0,0,0-.46,2.76q0,9.55,0,19.1c0,1.5.22,3,.24,4.51,0,2.34,0,4.69,0,7,0,2-.26,3.9-.26,5.85V73.5a64,64,0,0,0-10.14,6.73s0,0,0,0c-1.19-1-2.35-2.08-3.51-3.13-.56-.51-1.09-1.07-1.65-1.59Q46.28,74,44.61,72.49l-5.2-4.69-.7-.64.08-.07a7.33,7.33,0,0,0,.63-.61,9.34,9.34,0,0,0,1-1.1,7.42,7.42,0,0,1,1-1.11.17.17,0,0,0,.06-.11l0-.12a.11.11,0,0,0,0-.11,1.56,1.56,0,0,1-.14-.48.72.72,0,0,0-.24-.45l-.56-.53a1.94,1.94,0,0,0-.21-.3A.61.61,0,0,0,40,62a.38.38,0,0,1-.24-.14,3.25,3.25,0,0,1-.43-.29,2.73,2.73,0,0,0-.42-.3,1.32,1.32,0,0,0-.67-.19,1,1,0,0,0-.66.18c-.4.31-.81.66-1.22,1s-.92.89-1.35,1.33-.65.67-1,1l-.48-.35.31.52-.17.18-.08.07a3.31,3.31,0,0,0-.68-.47l.24.33-.34-.1c-.21.3-.38.56-.55.82l-.36-.1c0,.12.14.24.12.26-.2.19-.15.57-.39.74s-.23.22-.07.46c0,.05-.11.1-.16.16s-.22,0-.23.23a1.9,1.9,0,0,0-.24.25,4.12,4.12,0,0,1-.33.4c-.27.28-.52.55-.79.81s-.52.53-.8.8a1.75,1.75,0,0,0-.16.2.41.41,0,0,0-.1.21,2.56,2.56,0,0,0-.07.66,2,2,0,0,1-.09.63,1.33,1.33,0,0,0,.05.21l.27.65c.09.2.18.42.27.64a1.17,1.17,0,0,0,.19.27l.65.67a1.38,1.38,0,0,0,.84.39.51.51,0,0,1,.23.14.44.44,0,0,0,.61,0l.18-.18a1,1,0,0,1,.22-.19l.48-.49.06,0v0l-.05,0c.1-.09.19-.19.28-.28l4.79,4.48.37.39c.23.25.43.51.67.74l5.08,4.65c.4.36.82.7,1.22,1.06.63.56,1.25,1.14,1.87,1.71l.73.71a38.54,38.54,0,0,0-2.83,5,52.61,52.61,0,0,0-4.86,19.77c-.09,2,.39,4.05.35,6.06a21,21,0,0,0,1.2,7.3c.8,2.34,1.55,4.71,2.4,7a10.72,10.72,0,0,0,1.47,3c2.5,3.17,4.61,6.68,7.83,9.24a47.45,47.45,0,0,1,4.65,3.92,20,20,0,0,0,7.3,4.74,76.52,76.52,0,0,0,17.33,4.83c1.25.17,2.39.31,2.61,1.91,2.71-.63,5.24-1.3,7.81-1.79,1.93-.37,3.93-1.08,5.77.43.19.16,1-.06,1-.1,0-1.8,1.7-1.58,2.36-1.42,2.44.59,4.19-1.11,6.28-1.59,1.72-.39,3.66-1,4.69-2.84.19-.34.74-.49,1.11-.75,1.16-.82,2.33-1.64,3.47-2.5.35-.26.88-.61.9-.95.1-2,1.66-2.9,2.79-4.14s2.36-2.53,3.42-3.88c.6-.74,1.17-1.67.11-2.57v0c-.16.47-.32.94-.47,1.4l-.43-.22.9-1.18v0h0c.27-.53.53-1.07.82-1.6.93-1.71,1.9-3.41,2.81-5.14a2.66,2.66,0,0,0,.42-2.36l-1.41,1.3c1-2.72,2-5.24,2.95-7.76a3.27,3.27,0,0,0,0-2,6,6,0,0,1,1.26-5.43,4.45,4.45,0,0,0,1.33-3.12,33.31,33.31,0,0,0-1.28-11.37C129.93,93.38,127.15,87.13,122.05,82.27Zm-20-44.33h-.11V24.23h.11Zm0,5.09v4.29l-.08,0V43ZM102,57.77h.11v9.71l-.11,0Zm-.21-39.89h-.08V16.55h.08Zm0,34.83v1.75h-.08V52.71ZM52.28,80.94l-2.57-2.36h0l2.58,2.36ZM38.81,67.38c1.54,1.38,3.08,2.75,4.61,4.14.75.68,1.45,1.39,2.19,2.08l2.21,2L51.59,79,53,80.31l-.15.13c-1.39-1.23-2.77-2.45-4.14-3.7-2-1.81-3.92-3.69-5.94-5.48-1.46-1.29-2.89-2.6-4.33-3.9l.15-.14Zm7.33,7.9.35.32c-.07-.07-.16-.13-.24-.2ZM61.51,116.8c0,.09-.07.13-.09.13a.82.82,0,0,0-.47.46,5.7,5.7,0,0,0-.17.56,1.94,1.94,0,0,1-.15.24c-.05.07-.1.14-.14.21l-.06.06a3.71,3.71,0,0,1-.55,1.12,4.49,4.49,0,0,1-.79.92c-.45.35-.91.67-1.38,1a9.83,9.83,0,0,1-1.43.83,6.28,6.28,0,0,1-1.22.5,8.4,8.4,0,0,1-1.27.24,10.09,10.09,0,0,1-1.09.12l-1.08.07a2.62,2.62,0,0,1-.56,0,5.41,5.41,0,0,0-.59,0h-.54a6.8,6.8,0,0,1-1,0,4,4,0,0,1-1-.17.42.42,0,0,0-.21-.06,1,1,0,0,1-.24,0l-.37-.06c-.12,0-.2-.11-.27-.26a.5.5,0,0,0-.18-.11l-.2-.11c0-.34-.09-.67-.15-1a3.32,3.32,0,0,1,0-1,1.68,1.68,0,0,0-.13-1,.46.46,0,0,1,0-.48,2.06,2.06,0,0,0,.21-.48s0-.06.11-.06a.65.65,0,0,0,.2,0,1,1,0,0,1,.29,0,.36.36,0,0,0,.23,0,.63.63,0,0,0,.35-.16.73.73,0,0,0,.06-.35c0-.68,0-1.35,0-2s0-1.3,0-2c0-.3,0-.57.05-.83s0-.51,0-.77c0-.42,0-.86,0-1.3s0-.9,0-1.35,0-.72.08-1.1.05-.74.05-1.1v-.88c0-.28,0-.59,0-.9,0-.11-.08-.2-.25-.26a1.13,1.13,0,0,1-.27-.13l-.24-.13a.5.5,0,0,1-.27-.27,1.46,1.46,0,0,1-.08-.4,4.74,4.74,0,0,1,0-1.19L47,102a.57.57,0,0,1,0-.13.17.17,0,0,0,0-.12.72.72,0,0,1,0-.5c.06-.16.11-.31.16-.46s.17-.27.44-.23c.43,0,.86.08,1.3.11l1.29.12a2.23,2.23,0,0,0,.73,0,16.35,16.35,0,0,1,5.33.44,8,8,0,0,1,2.35,1,7.17,7.17,0,0,1,1.84,1.81,4.93,4.93,0,0,1,.76,4.4,2.73,2.73,0,0,1-.49,1c-.23.27-.47.54-.72.8a1.52,1.52,0,0,1-.22.22,2.82,2.82,0,0,0-.29.25,7.67,7.67,0,0,1,.67.77,9.68,9.68,0,0,1,.92,1.13,3.69,3.69,0,0,1,.58,1.33,4.5,4.5,0,0,1,.14,1.45A5.84,5.84,0,0,1,61.51,116.8Zm24.07-1.91a5.62,5.62,0,0,0-.22.73c-.07.25-.14.52-.23.8a16.17,16.17,0,0,1-1,2,6.57,6.57,0,0,1-1.5,1.72c-.17.13-.32.26-.46.39a4,4,0,0,1-.46.35,8.88,8.88,0,0,1-1.44.89,12.49,12.49,0,0,1-1.28.62,7.25,7.25,0,0,1-1.34.44l-1,.19c-.34.06-.68.13-1,.22a4,4,0,0,1-.56.08,1.82,1.82,0,0,1-.59-.08.92.92,0,0,0-.38,0l-.48,0a.25.25,0,0,1,0-.08.31.31,0,0,0,0-.08l-.86,0-.87,0a5.32,5.32,0,0,1-1.24-.29,10,10,0,0,1-1.15-.51c-.38-.22-.76-.44-1.12-.69a4.18,4.18,0,0,1-1-.88,7.12,7.12,0,0,1-.71-1c-.21-.35-.41-.71-.6-1.07a11.32,11.32,0,0,1-1-2.19,10.15,10.15,0,0,1-.51-2.31c-.07-.47-.13-.94-.18-1.42a4.24,4.24,0,0,1,.08-1.42,1,1,0,0,0,0-.29,2.33,2.33,0,0,1,0-.29,10.54,10.54,0,0,1,.18-2,6.53,6.53,0,0,1,.65-1.89c.06-.15.13-.31.19-.48a2.46,2.46,0,0,1,.26-.51,2.21,2.21,0,0,1,.67-.89,6.47,6.47,0,0,0,.52-.53l.5-.56a9.47,9.47,0,0,1,3-2.3l1-.47a3.91,3.91,0,0,1,1-.32,7.12,7.12,0,0,1,1-.12,2.77,2.77,0,0,1,1,.18,4.76,4.76,0,0,0,.66.08l.65,0,.86,0h.83a2.13,2.13,0,0,1,1.47.51l.64.4a4.34,4.34,0,0,1,.58.46L81,103a2.74,2.74,0,0,1,.64.72c.42.53.83,1.09,1.23,1.66s.77,1.15,1.13,1.73a7.75,7.75,0,0,1,.59,1.19,10.09,10.09,0,0,0,.56,1.2c.17.36.32.72.46,1.08a4.48,4.48,0,0,1,.27,1.15,9.93,9.93,0,0,1,.08,1.62A4.56,4.56,0,0,1,85.58,114.89Zm20.25-.27c0,.64,0,1.3,0,2a1.06,1.06,0,0,1-.07.38,2.71,2.71,0,0,0-.09.41,14.93,14.93,0,0,0,0,1.5,6.72,6.72,0,0,0,.21,1.54c-.28,0-.45.1-.51.25a1.65,1.65,0,0,0-.13.54,4.6,4.6,0,0,1-.06.63c-.05.26-.09.46-.13.59a1.2,1.2,0,0,1-.26.32,2.47,2.47,0,0,0-.16-.26,1.11,1.11,0,0,0-.12-.16l-.79.5a6.93,6.93,0,0,1-.75.43,1.23,1.23,0,0,1-1,0c-.14-.07-.29-.14-.42-.22l-.44-.26a.65.65,0,0,1-.38.14.88.88,0,0,1-.38-.27l-.3-.36-.31-.37c-.68-.94-1.35-1.93-2-3s-1.35-2-2-3a8.08,8.08,0,0,1-.5-.78,5,5,0,0,0-.56-.82c0,.34.09.69.15,1s.1.68.14,1c0,.1,0,.21,0,.31s0,.22,0,.32-.06.13-.19.26a23.57,23.57,0,0,1-.51-3.93.13.13,0,0,0-.08,0l-.05,0v.41a2.74,2.74,0,0,0,0,.48l.12.89c0,.3.09.6.13.9,0,.1,0,.2,0,.3s0,.2,0,.3,0,.57,0,1,0,.89,0,1.36,0,.92,0,1.35v1a3.89,3.89,0,0,1-.08.78l-.15.75c-.06.3-.28.47-.67.51a1.18,1.18,0,0,0-.35,0,1,1,0,0,1-.38,0q-.42,0-.81,0c-.27,0-.53,0-.79-.09s-.54-.09-.79-.15l-.77-.17c-.17,0-.28-.16-.32-.42s0-.9,0-1.5,0-1.21-.06-1.85,0-1.25-.07-1.85,0-1.1,0-1.5,0-.52,0-.8a5.16,5.16,0,0,0-.08-.8A11.81,11.81,0,0,1,89,112c0-.76,0-1.54,0-2.33,0-.23,0-.47,0-.71a4.27,4.27,0,0,0,0-.72c0-.51-.06-1-.06-1.55a9.44,9.44,0,0,0-.13-1.58c0-.36-.07-.73-.08-1.1a3,3,0,0,1,.18-1.1,1.6,1.6,0,0,0,.06-.51c0-.15,0-.29,0-.42s0-.27,0-.45a1.45,1.45,0,0,1,.32,0,.86.86,0,0,0,.67-.38.66.66,0,0,1,.73-.22,1.71,1.71,0,0,0,.63.06l.62-.06a.64.64,0,0,0,.16.17c.06.06.14.12.22.21a.57.57,0,0,1,.48-.18,1.54,1.54,0,0,1,.48.24,1.66,1.66,0,0,0,.43.32,1.58,1.58,0,0,1,.43.35,1.23,1.23,0,0,1,.32.42,3.82,3.82,0,0,0,.29.48,11,11,0,0,1,1.16,1.77c.33.63.68,1.25,1,1.87a10.46,10.46,0,0,0,1.15,1.88,17.63,17.63,0,0,1,1,1.5c.3.51.57,1,.83,1.57a5.68,5.68,0,0,0,.67,1q0-.36,0-.72c0-.25,0-.48,0-.72,0-.55,0-1.12,0-1.69s0-1.15,0-1.72,0-1.31,0-1.95,0-1.29,0-2q0-.45,0-1.08c0-.43,0-.79-.06-1.09a2.6,2.6,0,0,1,.06-.56,2,2,0,0,1,.22-.56,1,1,0,0,0,.53.16,2.18,2.18,0,0,0,.52-.06s0,0,0,0h0a7.31,7.31,0,0,0,.88.19,4.54,4.54,0,0,0,.91,0,.08.08,0,0,1,.11,0,.69.69,0,0,0,.11.13.61.61,0,0,0,.27.13,1.65,1.65,0,0,0,.4-.1s0,.08.1.1a1.58,1.58,0,0,1,.72.78,3.16,3.16,0,0,1,.17,1.07c0,.89,0,1.86,0,2.89s0,2,0,2.89c0,.66,0,1.31,0,2s0,1.29,0,1.93S105.82,114,105.83,114.62Zm-.25-62.27c-.06-7.49.36-15,.11-22.45-.15-4.45-.21-8.9-.27-13.35h1.11c.13,5,.26,10.07.3,15.11,0,2.78-.21,5.57-.26,8.36s0,5.57,0,8.35c.07,4.68.2,9.37.3,14.05q.09,4,.16,8.07c-.34-.16-.67-.35-1-.49C105.76,64.12,105.63,58.23,105.58,52.35Zm21,59.76c0,.19,0,.38,0,.57-.08.71-.13,1.41-.14,2.11s0,1.41,0,2.14c0,.25,0,.51,0,.77s0,.5,0,.76v.86c0,.17,0,.33,0,.47a2.5,2.5,0,0,1,0,.46c0,.25,0,.51,0,.76a2.69,2.69,0,0,0,.08.83.94.94,0,0,1,0,.56,3.33,3.33,0,0,1-.25.5l-.19.14c-.09.06-.15.07-.2,0-.44-.15-.71,0-.79.51a.88.88,0,0,0-.11-.13.09.09,0,0,1,0-.09.42.42,0,0,0-.58-.13,1,1,0,0,1-.7.06,1.33,1.33,0,0,0-.35,0,1,1,0,0,1-.78.07c-.25-.09-.5-.18-.75-.29a.41.41,0,0,1-.16-.16,1.35,1.35,0,0,0-.16-.19l-.83.24-.86.24h-1.19a.35.35,0,0,0-.22.13.27.27,0,0,1-.19.06h-.26a4.37,4.37,0,0,1-1-.1,7.21,7.21,0,0,1-.91-.25c-.47-.17-.92-.36-1.36-.56a5.43,5.43,0,0,1-1.19-.75,15.58,15.58,0,0,1-1.29-1.15,6.61,6.61,0,0,1-1.08-1.34l-.35-.42a4.61,4.61,0,0,1-.32-.44,7.71,7.71,0,0,1-1.25-2.6,12.52,12.52,0,0,1-.41-2.89c0-.13,0-.27,0-.42s0-.3,0-.48a.74.74,0,0,0,.08.15l0,0,0,0a3.45,3.45,0,0,0,.14-1,8,8,0,0,1,0-1,16.86,16.86,0,0,1,.49-2.45,9,9,0,0,1,1-2.33,6.58,6.58,0,0,1,.46-.67,1.59,1.59,0,0,1,.68-.52.4.4,0,0,0,.13-.15,2.09,2.09,0,0,1,.36-.47,4.55,4.55,0,0,1,.46-.4l.06,0a.23.23,0,0,0,.07-.09.89.89,0,0,1,.44-.66l.67-.39a10,10,0,0,1,1.78-.78,12.4,12.4,0,0,1,1.89-.46,8,8,0,0,1,3.16.06c.34.07.68.13,1,.21a5.65,5.65,0,0,1,1,.3,8.89,8.89,0,0,1,1.15.59c.36.22.72.48,1.09.75l.11.11a.57.57,0,0,0,.11.11,1.08,1.08,0,0,1,.38.39,1.66,1.66,0,0,1,.19.48l-.25.32c-.09.1-.18.21-.29.32a1.57,1.57,0,0,1,.13.38c-.17.23-.33.46-.46.67l-.44.64a.82.82,0,0,0-.08.29.46.46,0,0,1-.08.25,1.15,1.15,0,0,1-.28.48.78.78,0,0,1-.37.19c-.08,0-.19-.07-.34-.22a1.18,1.18,0,0,0-.57-.32,1.14,1.14,0,0,1-.67-.32,4.67,4.67,0,0,0-3.58-.89,6.73,6.73,0,0,0-2.14.7,4.54,4.54,0,0,0-1.27,1,3.49,3.49,0,0,0-.73,1.42,8.25,8.25,0,0,0-.4,2c-.06.67-.11,1.34-.15,2a5.22,5.22,0,0,0,.1,1.3,3.06,3.06,0,0,0,.54,1.23c.15.29.32.6.52.92a.51.51,0,0,0,.17.21.74.74,0,0,1,.18.17c.3.24.57.45.83.64s.53.38.8.55a.84.84,0,0,0,.45.19l1.4,0a8.24,8.24,0,0,0,1.33-.1.61.61,0,0,1,.3,0l.31.08a1.77,1.77,0,0,0,.32.09.45.45,0,0,0,.38-.06.66.66,0,0,0,.13-.38q0-.39,0-.78v-.75c0-.17,0-.32,0-.45s0-.28,0-.45a.46.46,0,0,0,0-.28s-.12-.08-.27-.1l-1.54-.1c-.53,0-1,0-1.55-.09a4.36,4.36,0,0,0-.51,0h-.52l-.12-.31c0-.09-.09-.19-.13-.3a.55.55,0,0,1-.1-.32,1.77,1.77,0,0,1,0-.4.88.88,0,0,0,0-.37,1.87,1.87,0,0,1,0-.84,5,5,0,0,1,.24-.78c0-.13.08-.25.1-.35a.76.76,0,0,0,0-.36v-.09c0-.3,0-.49,0-.56a1,1,0,0,1,.51-.18,12.15,12.15,0,0,1,1.9-.09c.63,0,1.27.06,1.93.13l.4.09a1.16,1.16,0,0,0,.4.07l1,0,1,0,.66,0a1.42,1.42,0,0,1,.68.15h.1a1.12,1.12,0,0,0,.27,0,.28.28,0,0,1,.2.06.7.7,0,0,1,.18.29c0,.11.07.21.11.32a.33.33,0,0,1,0,.1l-.06.12a.41.41,0,0,1,.32.52C126.6,111.73,126.59,111.92,126.58,112.11Z"/><path class="cls-1" d="M109.51,109.86c.1-.57.21-1.14.32-1.74a6.46,6.46,0,0,0-.27,1c-.07.36-.12.71-.17,1a7.38,7.38,0,0,0-.06.89,1.45,1.45,0,0,0,.09.59A7.35,7.35,0,0,1,109.51,109.86Z"/><path class="cls-1" d="M55.72,114.21c-.06-.06-.06-.14,0-.25a1,1,0,0,1,.19.16l.1.08.1.08c-.2-.28-.39-.53-.58-.75a.92.92,0,0,0-.92-.21,3.51,3.51,0,0,1-.91.08c-.31,0-.62,0-.92,0s-.48.07-.55.16a1,1,0,0,0-.15.57c0,.62,0,1.25,0,1.9a8,8,0,0,1-.16,1.9.12.12,0,0,0,0,.09l.11.13a.69.69,0,0,0,.11.13.44.44,0,0,0,.32,0,4.51,4.51,0,0,0,2.14-.62,4.74,4.74,0,0,0,1.57-1.58,1.76,1.76,0,0,0,.25-.88,1.14,1.14,0,0,0-.51-.85A1.22,1.22,0,0,1,55.72,114.21Z"/><path class="cls-1" d="M109.46,113.64c0-.23,0-.46,0-.67s0-.44,0-.67h-.1a7.24,7.24,0,0,1,0,.8,2.93,2.93,0,0,0,0,.73,5,5,0,0,0,.14.61c0,.14.07.28.11.41,0-.18-.07-.37-.09-.54S109.48,113.87,109.46,113.64Z"/><path class="cls-1" d="M117.28,101.54v-.09l-.2.06-.18.06h.18Z"/><path class="cls-1" d="M116.82,101.59l-.6.11a1.29,1.29,0,0,0-.57.29,5.67,5.67,0,0,1,.62-.21A3.58,3.58,0,0,0,116.82,101.59Z"/><path class="cls-1" d="M114.47,102.47s-.07,0-.07-.06a1.18,1.18,0,0,0-.22.14l-.19.14.24-.11Z"/><path class="cls-1" d="M113.76,102.91a1.61,1.61,0,0,1,.23-.22.79.79,0,0,0-.26.13s0,0,0,0S113.76,102.87,113.76,102.91Z"/><path class="cls-1" d="M119.22,101h-.17a.52.52,0,0,0-.18,0v0a1.56,1.56,0,0,1,.35,0Z"/><path class="cls-1" d="M79.64,112a6.94,6.94,0,0,0-.86-2.55l-.37-.7a3.52,3.52,0,0,0-.43-.68,2.7,2.7,0,0,0-.44-.52c-.17-.16-.35-.33-.51-.5a.82.82,0,0,0-.37-.16l-.4,0c-.36,0-.74,0-1.13,0s-.82,0-1.27,0l-.54.07a1.25,1.25,0,0,0-.57.19,4.35,4.35,0,0,0-.75.57,3.34,3.34,0,0,0-.59.77c-.11.25-.22.5-.34.75s-.23.49-.33.75a.25.25,0,0,0-.08.17,1.08,1.08,0,0,1,0,.21c0,.43,0,.85,0,1.28s0,.87,0,1.34a3.89,3.89,0,0,0,0,.6,3.46,3.46,0,0,0,.12.61L71,115l.31.9a2.28,2.28,0,0,0,.63.88,2.41,2.41,0,0,0,.94.49c.34.11.67.2,1,.29s.67.18,1,.29a1.6,1.6,0,0,1,.33.11.51.51,0,0,0,.34,0c.38-.08.77-.17,1.15-.27a2.13,2.13,0,0,0,1-.59c.23-.21.46-.43.67-.65l.67-.69.14-.12.15-.13a3.1,3.1,0,0,0,.44-.72,1.47,1.47,0,0,0,.1-.81c0-.34-.09-.68-.14-1S79.68,112.34,79.64,112Z"/></g></g></svg>