<svg xmlns="http://www.w3.org/2000/svg" viewBox="0 0 149.26 96.81"><defs><style>.cls-1{fill:#fff;}</style></defs><g id="Layer_2" data-name="Layer 2"><g id="Layer_1-2" data-name="Layer 1"><path class="cls-1" d="M41.21,59.75a1.77,1.77,0,0,0-.92.29c-.31.19-.58.36-.81.52a39.57,39.57,0,0,1-4.33,2.31A14.62,14.62,0,0,1,29,64a16.29,16.29,0,0,1-13.34-6.23q-5-6.24-5-17.43,0-8.09,3.4-12.82a10.46,10.46,0,0,1,8.84-4.73,7.83,7.83,0,0,1,5,1.44,12.62,12.62,0,0,1,2.83,3.12c.69,1.12,1.33,2.16,1.9,3.12A2.66,2.66,0,0,0,35,31.93q.23,0,1.56-.12a24.33,24.33,0,0,0,2.77-.4,14.19,14.19,0,0,0,2.59-.75c.77-.31,1.16-.69,1.16-1.16a7.53,7.53,0,0,0-1.33-4.21A11.91,11.91,0,0,0,38,21.77a21.74,21.74,0,0,0-5.89-2.42,28.21,28.21,0,0,0-5.51-.8h-.4c-1-4.53-4.57-13.4-16.84-13.4v5.37c8,0,10.62,5.18,11.46,8.4a28,28,0,0,0-4.93,1.47A27.19,27.19,0,0,0,8,25.81a27.9,27.9,0,0,0-5.77,8.37A25.58,25.58,0,0,0,0,45,29.57,29.57,0,0,0,1.85,55.88a22.1,22.1,0,0,0,5,7.8,20.79,20.79,0,0,0,7.39,4.67,25.51,25.51,0,0,0,8.94,1.56,33.71,33.71,0,0,0,7.45-.75,25.74,25.74,0,0,0,5.71-2,23.8,23.8,0,0,0,4.16-2.6,20.86,20.86,0,0,0,2.89-2.77,7.57,7.57,0,0,0-.93-1.27A1.84,1.84,0,0,0,41.21,59.75Z"/><path class="cls-1" d="M98.93,24.83a18.41,18.41,0,0,0-14-6.41,18,18,0,0,0-10.67,3.06A35.91,35.91,0,0,0,66.5,29c0-2.46,0-4.33.17-5.6s.17-2.36.17-3.29c0-1.15-.5-1.73-1.5-1.73a13.7,13.7,0,0,0-2.94.52,39.49,39.49,0,0,1-4.56.87,35.49,35.49,0,0,1-4.33.52c-1.74.11-3.1.17-4.1.17a7.06,7.06,0,0,0-.23,1.62c0,.84.5,1.35,1.5,1.5,2.61.23,4.29.81,5,1.73s1.1,2.46,1.1,4.62V89.53a2.76,2.76,0,0,1-1.62,2.66A18.43,18.43,0,0,1,51,93.57,1.26,1.26,0,0,0,50,95a9.47,9.47,0,0,0,.23,1.85c2-.16,4.11-.29,6.35-.41s4.34-.17,6.35-.17c2.69,0,5.58.06,8.65.17s5.51.25,7.28.41A10.31,10.31,0,0,0,79.08,95a1.38,1.38,0,0,0-1.27-1.5,33.14,33.14,0,0,1-8.66-1.68,4,4,0,0,1-2.65-4.09V66.79a33.39,33.39,0,0,0,7.32,2.43,37.52,37.52,0,0,0,7.22.69,20.14,20.14,0,0,0,7.79-1.79,25.74,25.74,0,0,0,7.79-5.2,28.59,28.59,0,0,0,6-8.37,25.61,25.61,0,0,0,2.43-11.42,30.86,30.86,0,0,0-1.67-10.51A24.34,24.34,0,0,0,98.93,24.83Zm-5.6,29.09a19.6,19.6,0,0,1-2.54,6.23,12.49,12.49,0,0,1-4.21,4.1,11.34,11.34,0,0,1-5.89,1.5A16.78,16.78,0,0,1,72.84,64a24,24,0,0,1-6.34-4.79V38.86a12.34,12.34,0,0,1,1.21-5.26,18,18,0,0,1,3.11-4.67A17.67,17.67,0,0,1,75,25.52a9.23,9.23,0,0,1,4.61-1.32,10.94,10.94,0,0,1,6.06,1.73,15,15,0,0,1,4.62,4.73,23.54,23.54,0,0,1,2.89,7,35.14,35.14,0,0,1,1,8.37A33.93,33.93,0,0,1,93.33,53.92Z"/><path class="cls-1" d="M148.11,48.49a12.56,12.56,0,0,0-3.18-4.38,19.06,19.06,0,0,0-4.84-3.06,54,54,0,0,0-6.18-2.31q-6.23-2-8.6-4a6.33,6.33,0,0,1-2.36-5,6.16,6.16,0,0,1,2.59-5.26,9.77,9.77,0,0,1,5.94-1.9,12.67,12.67,0,0,1,7.34,2q2.94,2,3.75,6.75a1.9,1.9,0,0,0,.52.87,1.81,1.81,0,0,0,1.33.4l2.65.12c0-.77,0-1.64-.06-2.6s-.07-1.92-.11-2.89-.1-1.88-.18-2.77-.15-1.63-.23-2.25a28.65,28.65,0,0,0-6.4-2.6,30.93,30.93,0,0,0-8.72-1.21,18.54,18.54,0,0,0-6.7,1.16,15.33,15.33,0,0,0-5.07,3.11,13.73,13.73,0,0,0-3.23,4.62A13.88,13.88,0,0,0,115.21,33q0,6.47,3.87,9.81a29.24,29.24,0,0,0,10.68,5.43A27.87,27.87,0,0,1,138,51.84a6.77,6.77,0,0,1,2.77,5.83,7.21,7.21,0,0,1-2.54,5.83c-1.69,1.43-4.12,2.14-7.27,2.14-3.93,0-7-1-9.18-3A11.49,11.49,0,0,1,118,54.9a1.64,1.64,0,0,0-.93-1.33,4.44,4.44,0,0,0-2-.4h-1.15c0,2.23.06,4.45.17,6.64s.25,4.29.41,6.29A26.61,26.61,0,0,0,122.77,69a44.42,44.42,0,0,0,8.26.87,23.21,23.21,0,0,0,8.13-1.27,17,17,0,0,0,5.66-3.35,13.14,13.14,0,0,0,3.35-4.85,15.53,15.53,0,0,0,1.09-5.77A15.18,15.18,0,0,0,148.11,48.49Z"/><path class="cls-1" d="M27.63,16.91S44.61,15.68,44.3,0C44.3,0,27.63-.76,27.63,16.91Z"/></g></g></svg>