<svg xmlns="http://www.w3.org/2000/svg" viewBox="0 0 144 144.28"><defs><style>.cls-1{fill:#fff;}</style></defs><g id="Layer_2" data-name="Layer 2"><g id="Layer_1-2" data-name="Layer 1"><path d="M0,0V144H8V53.37l95.74-26.56a17.31,17.31,0,0,1,1.62,1.24Q120.12,42.8,134.9,57.53a3.69,3.69,0,0,1,1.18,2.91q0,41,0,81.95v1.66H144V0ZM21.91,107.84v36.44H90.29V96.77ZM21.81,95c2.31-.42,4.4-.79,6.49-1.18q30.23-5.69,60.45-11.35c1.09-.21,1.46-.51,1.45-1.66,0-10.45,0-20.91,0-31.36v-1.4c-.5.1-.88.15-1.26.25q-33,8.77-66,17.53c-.9.23-1.16.61-1.15,1.53,0,8.76,0,17.53,0,26.29Z"/><path class="cls-1" d="M0,0H144V144.05h-7.94v-1.66q0-41,0-81.95a3.69,3.69,0,0,0-1.18-2.91q-14.82-14.7-29.59-29.48a17.31,17.31,0,0,0-1.62-1.24L8,53.37V144H0Z"/><path class="cls-1" d="M21.91,107.84,90.29,96.77v47.51H21.91ZM80,126.53h0v-9.6c0-1.64-.31-2-1.77-2-1.82,0-2.22.32-2.22,2q0,9.6,0,19.21c0,1.59.33,1.92,1.83,1.93,1.78,0,2.15-.31,2.16-1.91C80,132.94,80,129.73,80,126.53Z"/><path class="cls-1" d="M21.81,95V93.69c0-8.76,0-17.53,0-26.29,0-.92.25-1.3,1.15-1.53q33-8.75,66-17.53c.38-.1.76-.15,1.26-.25v1.4c0,10.45,0,20.91,0,31.36,0,1.15-.36,1.45-1.45,1.66Q58.52,88.14,28.3,93.86C26.21,94.25,24.12,94.62,21.81,95ZM43,77.62l.38-.07q9.88-2.08,19.77-4.19c1.32-.28,1.53-.91,1.12-2.72-.25-1.1-.92-1.39-2-1.17-2.77.61-5.55,1.18-8.33,1.77L42.65,73.63a1.41,1.41,0,0,0-1.28,1.81C41.56,76.4,41.51,77.59,43,77.62Z"/><path d="M80,126.53c0,3.2,0,6.41,0,9.61,0,1.6-.38,1.91-2.16,1.91-1.5,0-1.83-.34-1.83-1.93q0-9.61,0-19.21c0-1.66.4-2,2.22-2,1.46,0,1.77.36,1.77,2v9.6Z"/><path d="M43,77.62c-1.49,0-1.44-1.22-1.63-2.18a1.41,1.41,0,0,1,1.28-1.81L54,71.24c2.78-.59,5.56-1.16,8.33-1.77,1.05-.22,1.72.07,2,1.17.41,1.81.2,2.44-1.12,2.72q-9.87,2.11-19.77,4.19Z"/></g></g></svg>