<svg xmlns="http://www.w3.org/2000/svg" viewBox="0 0 144 143.61"><defs><style>.cls-1{fill:#fff;}</style></defs><g id="Layer_2" data-name="Layer 2"><g id="Layer_1-2" data-name="Layer 1"><path class="cls-1" d="M42.26,85a41.25,41.25,0,0,1-21.19-5.7A42.78,42.78,0,0,1,5.7,63.89,41.58,41.58,0,0,1,0,42.55,43.05,43.05,0,0,1,5.52,21,41,41,0,0,1,20.73,5.65,42.13,42.13,0,0,1,42.26,0,41.17,41.17,0,0,1,72.33,12.68l.64.67L60.5,25.82l-.67-.69a23.84,23.84,0,0,0-17.57-7.75,23.21,23.21,0,0,0-12.19,3.38,24.88,24.88,0,0,0-8.85,9.14A25.41,25.41,0,0,0,18,42.55,25,25,0,0,0,30.07,64.11a23.21,23.21,0,0,0,12.19,3.38,23.59,23.59,0,0,0,9.66-2,24.37,24.37,0,0,0,7.9-5.64l.67-.71L73,71.63l-.64.67A41.17,41.17,0,0,1,42.26,85Z"/><path class="cls-1" d="M60.51,60.51a25.08,25.08,0,0,1-8.2,5.85,24.43,24.43,0,0,1-10.05,2.07,24,24,0,0,1-12.68-3.51A26,26,0,0,1,17,42.55,26.12,26.12,0,0,1,20.4,29.44,25.65,25.65,0,0,1,29.58,20a24,24,0,0,1,12.68-3.51q10.44,0,18.25,8L71.65,13.34A40.28,40.28,0,0,0,42.26.94,41,41,0,0,0,21.2,6.46a40,40,0,0,0-14.86,15A41.85,41.85,0,0,0,1,42.55,40.47,40.47,0,0,0,6.51,63.41a41.57,41.57,0,0,0,15,15A40,40,0,0,0,42.26,84a40.18,40.18,0,0,0,29.39-12.4Z"/><path class="cls-1" d="M65.44,143.61V90.08H83.05l.4-.4.45.4h.59l0,.6A24.42,24.42,0,0,0,92.08,96a23.55,23.55,0,0,0,9.66,2,23.18,23.18,0,0,0,12.19-3.38A25,25,0,0,0,126,73a25.41,25.41,0,0,0-3.26-12.65,24.8,24.8,0,0,0-8.85-9.14,23.21,23.21,0,0,0-12.19-3.38,23.84,23.84,0,0,0-17.57,7.75l-.67.69L71,43.81l.64-.67a41.17,41.17,0,0,1,30.07-12.68,42.13,42.13,0,0,1,21.53,5.65,41,41,0,0,1,15.21,15.34A43.05,43.05,0,0,1,144,73a41.58,41.58,0,0,1-5.7,21.34,42.7,42.7,0,0,1-15.37,15.39,42.52,42.52,0,0,1-37.81,2.35l-.57-.26v31.78Z"/><path class="cls-1" d="M137.66,51.92a39.92,39.92,0,0,0-14.86-15,41,41,0,0,0-21.06-5.52A40.28,40.28,0,0,0,72.35,43.8L83.49,54.93q7.8-8,18.25-8a24,24,0,0,1,12.68,3.51,25.65,25.65,0,0,1,9.18,9.49A26.09,26.09,0,0,1,127,73a26,26,0,0,1-12.57,22.37,24,24,0,0,1-12.68,3.51,24.43,24.43,0,0,1-10-2.07,25.12,25.12,0,0,1-8.09-5.74V91h-.06l-.05,0,0,0h-17v51.65H83.6V110.29c.63.32,1.24.65,1.9.94a41.54,41.54,0,0,0,37-2.31,41.57,41.57,0,0,0,15-15A40.47,40.47,0,0,0,143.05,73,41.85,41.85,0,0,0,137.66,51.92Z"/></g></g></svg>