<svg xmlns="http://www.w3.org/2000/svg" viewBox="0 0 145.21 144.06"><defs><style>.cls-1{fill:#fff;}</style></defs><g id="Layer_2" data-name="Layer 2"><g id="Layer_1-2" data-name="Layer 1"><path class="cls-1" d="M145.21,144.06h-1.8q-15.58,0-31.16,0a3,3,0,0,1-1.92-.63q-10.78-10.72-21.47-21.56c-.17-.17-.29-.37-.5-.63L109.55,106Z"/><path class="cls-1" d="M57.18,98.85v2c0,14.78.06,26.37.1,41.15,0,.79,0,1.38-1.09,1.37-8.21,0-16.43,0-24.64,0a6.15,6.15,0,0,1-.83-.13V139c0-4.88,0-6.55,0-11.43a2.3,2.3,0,0,1,.52-1.53c5.43-4.78,9.35-10.76,13.48-16.6A83.3,83.3,0,0,1,51,101.67,7.43,7.43,0,0,1,57.18,98.85Z"/><path class="cls-1" d="M96.71,92.64l9.06,10.09L88,121l-9.5-10.68Z"/><path class="cls-1" d="M84.38,82.91l8.54,9.54L74.65,110l-7.91-8.91Z"/><path class="cls-1" d="M136.16,0C107.88,21.14,82.5,45.56,57.08,70.61V10.68H30.72v2q0,41.76,0,83.5a3.44,3.44,0,0,1-1.08,2.66q-12,12.38-23.95,24.82c-2.34,2.44-4.63,4.94-5.46,8.39s.4,5.93,3.55,7.32a13.57,13.57,0,0,0,8.93.59c3.58-.89,5-2.54,5.49-6.18a2.83,2.83,0,0,0,0-.29,8.27,8.27,0,0,1,4.25-7.1,52.6,52.6,0,0,0,13.77-11.65c3.15-3.9,5.9-8.12,9-12.1a62.87,62.87,0,0,1,6.63-7.81c3.24-3,6-2.81,9.38.06,1.45,1.22,3,2.36,4.78,3.83,2.56-2.67,5.59-6.06,8.85-9.21a318.38,318.38,0,0,0,50-62.13c4.26-6.9,8.17-14,10.64-21.79.54-1.71.8-3.51,1.19-5.27ZM8.7,135.91a3.19,3.19,0,1,1,3.16-3.12A3.2,3.2,0,0,1,8.7,135.91ZM65.34,92.64l-2.73-2.73S110.3,42.62,133,5.23C133,5.23,115.05,46.49,65.34,92.64Z"/></g></g></svg>