<svg xmlns="http://www.w3.org/2000/svg" viewBox="0 0 111.06 144"><defs><style>.cls-1{fill:#fff;}</style></defs><g id="Layer_2" data-name="Layer 2"><g id="Layer_1-2" data-name="Layer 1"><path class="cls-1" d="M109.28,110.83a1.54,1.54,0,0,0,1.55-1.55V1.55A1.54,1.54,0,0,0,109.28,0H1.55A1.54,1.54,0,0,0,0,1.55V109.28a1.54,1.54,0,0,0,1.55,1.55ZM107.73,3.1V44.57L59.38,3.1Zm-2.19,43.24H5.3l50.14-43ZM3.1,3.1H51.51L3.1,44.57Zm0,46H107.73V66.86H3.1Zm0,20.52H107.73V87.38H3.1Zm0,20.52H107.73v17.58H3.1Z"/><path class="cls-1" d="M16.5,120.53H1.67c-.47,0-.69.25-.69.72V143c0,.47.22.66.69.66H3c.47,0,.72-.19.72-.66v-9h10.2a.68.68,0,0,0,.69-.71v-1.28a.65.65,0,0,0-.69-.72l-10.2,0v-8.06H16.5a.7.7,0,0,0,.71-.71v-1.28A.63.63,0,0,0,16.5,120.53Z"/><path class="cls-1" d="M22.86,120.53H21.55a.63.63,0,0,0-.69.69V143a.6.6,0,0,0,.69.69h1.31a.61.61,0,0,0,.69-.69V121.22A.66.66,0,0,0,22.86,120.53Z"/><path class="cls-1" d="M36.91,130.27c-2.69-.72-5.56-1.59-5.56-3.72,0-1.81,1.5-3.74,5-3.74A8.65,8.65,0,0,1,42,125.34a.91.91,0,0,0,.57.31.67.67,0,0,0,.4-.22l.94-.91a.71.71,0,0,0,.25-.49c0-.25-.35-.6-.6-.88a10.91,10.91,0,0,0-7.08-3c-4.87,0-8,2.65-8,6.46,0,3.15,2.56,4.83,7.68,6.15,3.24.84,6.3,1.59,6.3,4.15,0,3-3.37,4.43-6,4.43a10.15,10.15,0,0,1-6.24-2.9c-.1-.1-.41-.47-.69-.47a1,1,0,0,0-.47.15l-1,.85a.65.65,0,0,0-.28.5,1.15,1.15,0,0,0,.25.56A10.43,10.43,0,0,0,36.41,144c4.86,0,8.74-2.78,8.74-7.24S40.62,131.3,36.91,130.27Z"/><path class="cls-1" d="M67.68,120.53H66.4a.66.66,0,0,0-.69.69v9H51.92v-9a.72.72,0,0,0-.72-.69H49.92a.66.66,0,0,0-.69.69V143a.6.6,0,0,0,.69.69h1.25c.53,0,.75-.22.75-.69V132.86H65.71V143a.6.6,0,0,0,.69.69h1.28c.5,0,.72-.22.72-.69V121.22A.7.7,0,0,0,67.68,120.53Z"/><path class="cls-1" d="M89.46,141H76.35v-8.11H86.68a.69.69,0,0,0,.69-.72v-1.28a.65.65,0,0,0-.69-.72H76.35v-6.9h13a.68.68,0,0,0,.71-.71v-1.28c0-.5-.25-.72-.68-.72h-15a.64.64,0,0,0-.69.72V143c0,.47.25.66.69.66H89.49a.63.63,0,0,0,.69-.69v-1.28A.65.65,0,0,0,89.46,141Z"/><path class="cls-1" d="M106.78,134.54a7.34,7.34,0,0,0-3.06-14h-9c-.43,0-.68.25-.68.75V143a.61.61,0,0,0,.68.69H96a.6.6,0,0,0,.69-.69v-7.8h5.46c.41,0,1.72,0,1.94,0l3.77,7.92a.87.87,0,0,0,.82.6h1.71c.38,0,.56-.16.56-.41a1.8,1.8,0,0,0-.06-.28Zm-3-2H96.7v-9.37h7a4.71,4.71,0,0,1,4.65,4.68A4.64,4.64,0,0,1,103.76,132.55Z"/></g></g></svg>