<?xml version="1.0" encoding="utf-8"?>
<!-- Generator: Adobe Illustrator 25.0.1, SVG Export Plug-In . SVG Version: 6.00 Build 0)  -->
<svg version="1.1" id="Layer_1" xmlns="http://www.w3.org/2000/svg" xmlns:xlink="http://www.w3.org/1999/xlink" x="0px" y="0px"
	 viewBox="0 0 540.8 198.1" style="enable-background:new 0 0 540.8 198.1;" xml:space="preserve">
<style type="text/css">
	.st0{fill:#FFFFFF;}
</style>
<g id="Layer_2_1_">
	<g id="Layer_1-2">
		<path class="st0" d="M64,126.5c0,14.1-6.7,24.9-23.4,24.9H19.4v23.7H0v-72.6h40.6C57.3,102.5,64,113.3,64,126.5z M43.9,126.6
			c0-5.6-2.6-9.4-9.5-9.4h-15v19.3h14.8C41.2,136.6,43.9,132.3,43.9,126.6L43.9,126.6z"/>
		<path class="st0" d="M69.2,160.7c0-8.7,3.6-14.5,18.7-17l12.3-2.2c5-0.9,6.3-2.2,6.3-5c0-3.3-2-5.2-8.2-5.2
			c-6.6,0-9.7,2.6-9.8,7.4H70.3c0.6-11.6,10.6-19.9,27.8-19.9s25.8,7.1,25.8,19.5V160c0,5,0.3,10.1,1,15.1h-16.2
			c-0.6-3.8-0.9-7.6-0.9-11.4c-2.7,8-9.5,12.8-20.5,12.8S69.2,170.3,69.2,160.7z M106.5,149.4v-2.1c-2.6,2-5.1,2.6-8.5,3.5l-3.2,0.8
			c-5.2,1.3-7.2,3.2-7.2,6.9s2.9,5.8,6.8,5.8C101.5,164.3,106.5,159.3,106.5,149.4z"/>
		<path class="st0" d="M191.1,120.5L173,175.1h-26.8L128,120.5h19.1l13.1,40.4l13.1-40.4L191.1,120.5z"/>
		<path class="st0" d="M196.7,120.5h18.8v54.6h-18.8V120.5z"/>
		<path class="st0" d="M285.3,141.9v33.2h-18.8v-30c0-7.2-3-11.1-9.5-11.1c-7.5,0-11.9,4.8-11.9,15.5v25.7h-18.8v-54.6h18.8v10.2
			c3.6-7.2,9.9-11.9,19.6-11.9C279.1,118.8,285.3,127.6,285.3,141.9z"/>
		<path class="st0" d="M356.3,120.5v51.4c0,17.7-8.8,26.2-31.9,26.2c-19.8,0-28.7-9.2-29.5-21h18.2c0.7,4.8,4.1,8.1,12.2,8.1
			c8.3,0,12.1-3.1,12.1-10.4v-9.7c-3.7,5.2-9.7,8.3-18.7,8.3c-18,0-25.3-12.9-25.3-27.3c0-14.7,7.3-27.3,25.3-27.3
			c9,0,15,3,18.7,8.2v-6.5L356.3,120.5z M337.5,146.5c0-8.7-3.1-13.1-12.2-13.1c-9.4,0-13,3.7-13,13.1s3.6,13.2,13,13.2
			C334.5,159.7,337.5,155.3,337.5,146.5L337.5,146.5z"/>
		<path class="st0" d="M49.1,39c8.7-1.9,15.2-6.5,15.2-17.2c0-9.8-6.4-17.9-21.9-17.9H0v72.6h41.6c15.5,0,23.8-7.3,23.8-19.8
			C65.4,44.8,58.3,40.6,49.1,39z M19.2,18.2h17c5.7,0,8,2.7,8,7.4c0,4.3-1.9,7.5-8.1,7.5H19.2V18.2z M36.7,62H19.2V45.7h16.9
			c6.9,0,9.2,3.5,9.2,8.2S43.2,62,36.7,62z"/>
		<path class="st0" d="M92.7,54.6c0-11,3.8-15.4,12.9-15.4h6.7V21h-4.6c-8.8,0-13.3,4.3-15.5,12V21.8H73.9v54.6h18.8V54.6z"/>
		<path class="st0" d="M147,78.2c23.1,0,31.3-14.4,31.3-29s-8.2-29-31.3-29s-31.2,14.4-31.2,29S123.9,78.2,147,78.2z M147,34.7
			c8.9,0,12.4,3.5,12.4,14.4S156,63.5,147,63.5s-12.4-3.5-12.4-14.4S138.1,34.7,147,34.7z"/>
		<path class="st0" d="M215.9,42.8L203.6,45c-15.1,2.5-18.7,8.3-18.7,17c0,9.6,7.2,15.8,18.1,15.8s17.8-4.8,20.5-12.8
			c0,3.8,0.3,7.6,0.9,11.3h16.2c-0.7-5-1-10-1-15.1V39.6c0-12.4-8.5-19.5-25.8-19.5S186.5,28.4,186,40h18.2c0.1-4.8,3.3-7.4,9.8-7.4
			c6.2,0,8.2,2,8.2,5.2C222.2,40.6,220.9,41.9,215.9,42.8z M222.2,50.8c0,9.8-5,14.8-12.1,14.8c-3.8,0-6.8-2-6.8-5.8s2-5.6,7.2-6.9
			l3.2-0.8c3.4-0.9,5.9-1.5,8.5-3.5L222.2,50.8z"/>
		<path class="st0" d="M272.2,78.2c9.2,0,15.3-3.4,19.1-9.2v7.4h18.8V0h-18.8v29.2c-3.8-5.8-9.9-9.2-19.1-9.2
			c-18,0-25.1,13.8-25.1,28.9C247.1,64.6,254.2,78.2,272.2,78.2z M278.5,34.7c9.6,0,12.9,4.7,12.9,14.4s-3.3,14.4-12.9,14.4
			c-9.3,0-12.4-4.3-12.4-14.4S269.2,34.7,278.5,34.7z"/>
		<polygon class="st0" points="356.2,76.4 365.9,40.5 375.5,76.4 401.5,76.4 414.9,21.8 397.4,21.8 388.7,62.2 376.6,21.8 
			356.8,21.8 344.7,62.1 335.6,21.8 316.8,21.8 330.1,76.4 		"/>
		<path class="st0" d="M449.1,42.8L436.7,45c-15.1,2.5-18.7,8.3-18.7,17c0,9.6,7.2,15.8,18.1,15.8S454,73,456.7,65.1
			c0,3.8,0.3,7.6,0.9,11.3h16.1c-0.7-5-1-10-1-15.1V39.6c0-12.4-8.5-19.5-25.8-19.5s-27.3,8.3-27.8,19.9h18.2
			c0.1-4.8,3.3-7.4,9.8-7.4c6.2,0,8.2,2,8.2,5.2C455.4,40.6,454.1,41.9,449.1,42.8z M455.4,50.8c0,9.8-5,14.8-12.1,14.8
			c-3.8,0-6.8-2-6.8-5.8s2-5.6,7.2-6.9l3.2-0.8c3.4-0.9,5.9-1.5,8.5-3.5L455.4,50.8z"/>
		<path class="st0" d="M496.2,106.3c17.1,0,22.8-15.6,27.2-29.8l17.3-54.7H523l-10,31.7l-2.8,10.2L507,53.5l-10.7-31.7h-19.1
			l17.7,53h11.9l-6.1,16.6H72.5v14.8H496.2z"/>
	</g>
</g>
</svg>
