<svg xmlns="http://www.w3.org/2000/svg" viewBox="0 0 179.11 179.04"><defs><style>.cls-1{fill:#fff;}</style></defs><g id="Layer_2" data-name="Layer 2"><g id="Layer_1-2" data-name="Layer 1"><rect class="cls-1" x="2.85" y="87.92" width="35.89" height="22.93" transform="translate(-64.19 43.82) rotate(-45.01)"/><rect class="cls-1" x="42.14" y="48.63" width="35.89" height="22.93" transform="translate(-24.89 60.09) rotate(-45)"/><rect class="cls-1" x="81.44" y="9.33" width="35.89" height="22.93" transform="translate(14.41 76.38) rotate(-45.01)"/><rect class="cls-1" x="61.78" y="146.78" width="35.89" height="22.93" transform="translate(-88.55 102.74) rotate(-45.01)"/><rect class="cls-1" x="101.07" y="107.49" width="35.89" height="22.93" transform="translate(-49.25 119.02) rotate(-45.01)"/><rect class="cls-1" x="140.37" y="68.19" width="35.89" height="22.93" transform="translate(-9.95 135.28) rotate(-45)"/><rect class="cls-1" x="130.38" y="18.89" width="35.89" height="22.93" transform="translate(21.98 113.77) rotate(-45)"/><rect class="cls-1" x="51.79" y="97.48" width="35.89" height="22.93" transform="translate(-56.61 81.22) rotate(-45)"/><rect class="cls-1" x="91.08" y="58.19" width="35.89" height="22.93" transform="translate(-17.32 97.5) rotate(-45)"/></g></g></svg>