<?xml version="1.0" encoding="utf-8"?>
<!-- Generator: Adobe Illustrator 25.0.1, SVG Export Plug-In . SVG Version: 6.00 Build 0)  -->
<svg version="1.1" id="icon" xmlns="http://www.w3.org/2000/svg" xmlns:xlink="http://www.w3.org/1999/xlink" x="0px" y="0px"
	 viewBox="0 0 32 32" style="enable-background:new 0 0 32 32;" xml:space="preserve">
<style type="text/css">
	.st0{fill:#FFFFFF;}
	.st1{fill:none;}
</style>
<g>
	<polygon class="st0" points="21.8,16.5 21.8,9.2 14.5,9.2 14.5,6.1 24.9,6.1 24.9,16.5 	"/>
	<polygon class="st0" points="22.1,16.2 24.6,16.2 24.6,6.4 14.8,6.4 14.8,8.9 22.1,8.9 	"/>
	<polygon class="st0" points="7.1,23.9 7.1,13.5 10.2,13.5 10.2,20.8 17.5,20.8 17.5,23.9 	"/>
	<polygon class="st0" points="7.4,23.6 17.2,23.6 17.2,21.1 9.9,21.1 9.9,13.8 7.4,13.8 	"/>
	<path class="st0" d="M3.8,30C2.2,30,1,28.8,1,27.2V2.8C1,1.2,2.2,0,3.8,0h24.5C29.8,0,31,1.2,31,2.8v24.5c0,1.6-1.2,2.8-2.8,2.8
		H3.8z M27.9,26.9V3.1H4.1v23.9H27.9z"/>
	<path class="st0" d="M28.2,29.7H3.8c-1.4,0-2.5-1.1-2.5-2.5V2.8c0-1.4,1.1-2.5,2.5-2.5h24.5c1.4,0,2.5,1.1,2.5,2.5v24.5
		C30.7,28.6,29.6,29.7,28.2,29.7z M3.8,2.8v24.5h24.5V2.8C28.2,2.8,3.8,2.8,3.8,2.8z"/>
</g>
<rect id="_Transparent_Rectangle_" class="st1" width="32" height="32"/>
</svg>
