<?xml version="1.0" encoding="utf-8"?>
<!-- Generator: Adobe Illustrator 25.0.1, SVG Export Plug-In . SVG Version: 6.00 Build 0)  -->
<svg version="1.1" id="icon" xmlns="http://www.w3.org/2000/svg" xmlns:xlink="http://www.w3.org/1999/xlink" x="0px" y="0px"
	 viewBox="0 0 32 32" style="enable-background:new 0 0 32 32;" xml:space="preserve">
<style type="text/css">
	.st0{fill:#FFFFFF;}
	.st1{fill:none;}
</style>
<g>
	<path class="st0" d="M17,25.7c-1.7,0-3.4-0.7-4.6-1.9c-1.3-1.3-1.9-2.9-1.9-4.7c0-1.7,0.7-3.4,1.9-4.6l1.7-1.7l1.8,1.8l-1.7,1.7
		c-0.8,0.8-1.2,1.8-1.2,2.8c0,1,0.4,2,1.2,2.8s1.8,1.2,2.8,1.2s2-0.4,2.8-1.2l8.4-8.4c0.8-0.8,1.2-1.8,1.2-2.8S29,8.8,28.2,8
		s-1.8-1.2-2.8-1.2s-2,0.4-2.8,1.2l-0.2,0.2l-1.8-1.8l0.2-0.2c1.2-1.2,2.9-1.9,4.6-1.9c1.8,0,3.4,0.7,4.6,1.9c1.3,1.2,2,2.8,2,4.6
		c0,1.7-0.7,3.4-2,4.6l-8.4,8.4C20.4,25,18.8,25.7,17,25.7z"/>
	<path class="st0" d="M29.9,6.3c-2.4-2.4-6.4-2.5-8.9,0l0,0l1.5,1.5c1.7-1.7,4.3-1.7,6,0c1.7,1.7,1.7,4.3,0,6L20,22.2
		c-1.7,1.7-4.3,1.7-6,0c-1.7-1.7-1.7-4.3,0-6l1.5-1.5L14,13.3l-1.5,1.5c-2.4,2.4-2.5,6.4,0,8.9l0,0c1.2,1.2,2.8,1.8,4.4,1.8
		c1.7,0,3.2-0.6,4.5-1.9l8.4-8.4C32.4,12.7,32.4,8.8,29.9,6.3z"/>
	<path class="st0" d="M6.6,28.8c-1.7,0-3.4-0.6-4.7-1.8C0.7,25.7,0,24,0,22.3c0-1.7,0.7-3.4,1.9-4.6l8.4-8.4
		c1.2-1.2,2.9-1.9,4.6-1.9s3.4,0.7,4.6,1.9c2.5,2.5,2.5,6.8,0,9.3L17.2,21l-1.8-1.8l2.4-2.4c0.8-0.8,1.2-1.8,1.2-2.9
		c0.1-1.2-0.5-2.2-1.1-2.9c-0.7-0.7-1.7-1.2-2.8-1.2s-2,0.4-2.8,1.2l-8.4,8.4c-1.6,1.6-1.6,4,0,5.6c0.8,0.8,1.8,1.2,2.8,1.2
		s2-0.4,2.8-1.2l0.2-0.2l1.8,1.8l-0.2,0.2C10,28.1,8.4,28.8,6.6,28.8z"/>
	<path class="st0" d="M3.7,25.2c-1.7-1.7-1.7-4.3,0-6l0,0l8.4-8.4c1.7-1.7,4.3-1.7,6,0l0,0c0.7,0.8,1.3,1.9,1.2,3
		c0,1.2-0.4,2.2-1.3,3l-2.2,2.2l1.5,1.5l2.2-2.2c2.4-2.4,2.4-6.5,0-8.9s-6.5-2.4-8.9,0l-8.4,8.4c-2.4,2.4-2.5,6.4,0,8.9l0,0
		c1.3,1.2,2.8,1.8,4.5,1.8s3.2-0.6,4.5-1.9l-1.5-1.5C8,26.9,5.4,26.9,3.7,25.2L3.7,25.2z"/>
</g>
<rect id="_Transparent_Rectangle_" class="st1" width="32" height="32"/>
</svg>
