<?xml version="1.0" encoding="utf-8"?>
<!-- Generator: Adobe Illustrator 25.0.1, SVG Export Plug-In . SVG Version: 6.00 Build 0)  -->
<svg version="1.1" id="icon" xmlns="http://www.w3.org/2000/svg" xmlns:xlink="http://www.w3.org/1999/xlink" x="0px" y="0px"
	 viewBox="0 0 32 32" style="enable-background:new 0 0 32 32;" xml:space="preserve">
<style type="text/css">
	.st0{fill:#FFFFFF;}
	.st1{fill:none;}
</style>
<g>
	<path class="st0" d="M4.8,0C3.4,0,2.2,1.1,2.2,2.5v4.8h2.8V2.8h21.9v4.5h2.8V2.5c0-1.4-1.1-2.5-2.5-2.5H4.8z"/>
	<path class="st0" d="M27.2,7V2.5H4.8V7H2.5V2.5l0,0c0-1.2,1-2.2,2.2-2.2h22.5c1.2,0,2.2,1,2.2,2.2l0,0V7H27.2z"/>
	<polygon class="st0" points="4.4,18.2 6.3,20.2 14.6,12 14.6,32 17.4,32 17.4,12 25.7,20.2 27.6,18.2 16,6.6 	"/>
	<polygon class="st0" points="27.2,18.2 25.7,19.8 17.1,11.3 17.1,31.7 14.9,31.7 14.9,11.3 6.3,19.8 4.8,18.2 16,7 	"/>
</g>
<g id="_Transparent_Rectangle_">
	<rect class="st1" width="32" height="32"/>
</g>
</svg>
