<?xml version="1.0" encoding="utf-8"?>
<!-- Generator: Adobe Illustrator 25.0.1, SVG Export Plug-In . SVG Version: 6.00 Build 0)  -->
<svg version="1.1" id="Layer_1" xmlns="http://www.w3.org/2000/svg" xmlns:xlink="http://www.w3.org/1999/xlink" x="0px" y="0px"
	 viewBox="0 0 4536.8 656.3" style="enable-background:new 0 0 4536.8 656.3;" xml:space="preserve">
<style type="text/css">
	.st0{fill:#FFFFFF;}
</style>
<g id="Layer_2_1_">
	<g id="Layer_1-2">
		<path class="st0" d="M4496.5,182.8c0.6-6.6,6-3.7,9.4-4.7c0.6,0,1.2,0.3,1.7,0.7c-0.2,1.1-0.6,2.1-1.1,3
			c-3.3,4.7-6.9,2.8-10.4,0.4L4496.5,182.8z"/>
		<path class="st0" d="M4524.6,162.4c-0.8,1.1-1.4,2.7-2.4,3.2c-2.6,1.1-4.2-0.8-4.5-3c-0.2-1.1,1.1-3.3,1.9-3.4
			C4521.8,158.9,4524,160.3,4524.6,162.4z"/>
		<path class="st0" d="M4496,182.2l-7.7,5.5l0.5-0.5c0.4-5.1,3.1-6.4,7.7-4.4L4496,182.2z"/>
		<path class="st0" d="M4536.8,214.4c-0.5,0.4-1,1.2-1.4,1.1c-1.1-0.4-2.1-0.8-3.1-1.4c0.5-0.4,1-1.3,1.3-1.2
			C4534.7,213.4,4535.8,213.9,4536.8,214.4z"/>
		<path class="st0" d="M4471.3,332.4c0.2,1.7,1.3,2.4,2.6,1.4s1.1-2.5-0.3-3c-1.7-0.6-2.5,0.3-2,2.1
			C4471.6,332.9,4471.3,332.4,4471.3,332.4z"/>
		<path class="st0" d="M4517.3,538.9c-0.6,0.3-1.1,0.4-1.8,0.5c-0.2,0-0.3-0.9-0.5-1.4c0.6-0.3,1.1-0.4,1.8-0.5
			C4517,537.5,4517.2,538.4,4517.3,538.9z"/>
		<path class="st0" d="M4499.4,129.2l4.5-0.2l0.6-0.2l-5.3,0.1L4499.4,129.2z"/>
		<path class="st0" d="M4503.9,129c0.5,1.1,1,2.2,1.3,3.3c0.1,0.3-1,0.9-1.5,1.3l0.6,0.3c0.1-1.7,0.1-3.4,0.2-5.1L4503.9,129z"/>
		<path class="st0" d="M4517.3,137.6c-2.8-1-0.8,2.2-1.5-0.6c-0.2-0.9,1-0.7,1,1.3L4517.3,137.6z"/>
		<path class="st0" d="M4516.8,138.2l0.5-0.7L4516.8,138.2z"/>
		<path class="st0" d="M4488.2,187.8c-1.4-2.6,2.2-0.7-0.6-1.2c0.4,0.2,0.8,0.4,1.2,0.7C4488.8,187.2,4488.2,187.8,4488.2,187.8z"/>
		<polygon class="st0" points="4475.7,209.2 4476.2,210.6 4474.9,210.4 		"/>
		<path class="st0" d="M289.4,580.5c-17.7-7.3-36.9-5.7-55.3-9.2c-17.7-3.4-35.9-3.7-54-5.4c-1.5-0.1-3.4,0-4.3-0.8
			c-13.1-12.2-31.3-14-46.1-22.9c-36.9-22.3-67.3-50.5-88.9-88.4C30.3,435.3,22.4,416,15,396.4c-3.7-9.8-4.6-20.6-6.4-31
			C5.4,347,0.3,328.9,0,309.9s0.8-37.6,2-56.4c0.7-11.9,2-23.7,3.2-35.5c1.2-10.6,4.2-18.6,11.9-25.7c4.5-4.2,6.1-8.7,3.8-16
			c-2.9-9.1,1.4-12.3,13.6-13.8c1.3-0.2,2.6-1.4,3.7-2.1c-0.1,0-1-0.6-1-0.6l1.5,0.9c-7.4-3.4-7.5-10.7-8.7-17.2
			c-0.3-1.6,2-5.3,3-5.3c11.7-0.1,18.3-13.8,31.1-11.1c2.9,0.6,4.4-4.3,2.1-6.7c-2.1-2.1-5.1-3.5-6.8-5.9c-2.6-3.6-5.4-7.6-6.2-11.8
			c-0.9-4.5,6.6-4.2,7.2-7.5c2.4-13.9,14.4-20.4,22-30.3c2.7-3.6,6.7-6.2,9.7-9.6c5.5-6.1,11.3-10,19.8-6c1.9,0.9,4.4,0.3,6.7,0.3
			c4.3-0.1,6-3.4,3.5-7.7c-1.2-2.2-5.8-3.6,0.1-5.4c2.8-0.9,7.5-1,8-2.6c2.7-7.6,8.9-9.5,15.5-11.6c10.5-3.3,21.1-5,32.1-4
			c2.2,0.2,5.9,1.6,6.2-0.2c2-12.7,14.3-8.6,21.2-13.2c7.1-4.8,16-3.5,24.2-4.5c9-1.1,17.4-1.9,24.7,6.7c5.2,6,15.8,6,20.1-0.7
			C279.7-2.2,286,2.4,292,2c4.7-0.3,5.5,8.5,10.6,6.8c4.5-1.4,8.4-2.5,13.1-1.6c45.9,8.6,85.1,29.4,117.5,63.4
			c26.4,27.4,44.7,61.6,53,98.7c0.9,3.7,2.5,7.1,3.6,10.7c3.1,9.2-0.7,16.9-9.7,18.7c-5.2,0.9-10.5,1.4-15.8,1.4
			c-21.9,0.4-43.7,0.7-65.6,0.6c-7.4,0-12.6-4.5-15.9-10.9c-1.3-2.7-1.7-5.8-2.6-8.7c-12.3-42.2-41.3-67.5-82.6-79.5
			c-21.2-6.2-42.7-8.3-64.8-2.5c-8.5,2.3-17.8,1.6-26.5,4.7c-6.5,2.3-13.1,4-17.2,9.9c-1.9,2.7-4.4,3.6-7.2,4.8
			c-25.5,10.7-40.5,30.3-47.8,56.5l0.3,0.6c-4.9,0-7,4.6-7.4,7.4c-1.8,12-9.3,21.5-12.8,32.6c-2.5,7.8-5.8,15.6-4.3,24.3
			c1,6,0.8,11.7-2.7,17.3c-2.5,3.9-2.9,10.2,0.6,12.8c7.7,5.5,6.2,10.5,2.2,17.2c-3.6,5.9-2.5,12.7-2.9,19.4
			c-1.2,16.9,2.7,33,5,49.3c1.3,9,4.1,17.9,9.1,25.5c4.6,6.9,7.2,14.2,9.7,22.1c2.6,8.3,8.6,16,14.4,22.9
			c22.1,26.2,48.6,44.3,83.9,49.6c14.7,2.2,30.4-1.6,44.3,6.6c1.3,0.8,4.2-1,6.3-1.8c16-5.7,33.1-8.8,47.6-18.6
			c8.5,0.7,15.8-3.3,23.1-6.5c4-1.7,11.1-3.2,7.5-11.1c-0.2-0.5,1.6-2.8,2.8-3c7.8-1.4,11.1-4.6,10.6-13.7c-0.5-8.8,2.7-18,7.4-25.8
			c3.5-5.8,2.3-16,13.4-15.5c6.3,0.3,12.3-7.2,19.1-0.6c1,1,4.5,0.3,6.3-0.5c15.3-7.4,20.9-8.8,34.1-6c9,1.9,17.4,3.6,26.4-1.1
			c5.3-2.8,12.4,3.5,11.9,9.8c-0.5,7.5,0,15.9-3.3,22.1c-7.1,13.6-8.9,29-15.8,42.2S454.1,477,444.1,488
			c-6.6,7.3-14.6,13.5-20.2,21.5c-9,12.9-21.6,21-34.6,28.8c-6.3,3.7-14.2,5-16.8,13.7c-1.1,3.7-6.2,4.5-9.9,4.3
			c-15.8-1.1-29,6.9-43.1,11.8c-8.3,2.9-17.3,4-22.2,13.1c-1.5,2.8-5.4-0.4-8.1-1.3C289.3,580.2,289.4,580.5,289.4,580.5z
			 M352.9,465.4c-0.5,1.9-1.5,2.1-2.7,0.6c-0.3-0.4-0.1-1.2-0.1-1.9c1.1,0.1,2.2,0.3,3.3,0.6c-1.9,0.4-2.1,0-0.6-1
			C352.8,464.3,352.8,464.9,352.9,465.4z M380.8,56.7c-1.7-2.1-3.9-1.9-6-1.4c-0.6,0.2-1.7,1.1-1.6,1.3c0.9,2.4,3.1,2.7,5.1,2.2
			C379.2,58.6,380,57.4,380.8,56.7z M191.2,48.2c0.6,0.2,1.2,0.4,1.8,0.5c0.2,0,0.4-0.8,0.6-1.3c-0.6-0.2-1.1-0.4-1.7-0.4
			C191.6,47.1,191.4,47.8,191.2,48.2z"/>
		<path class="st0" d="M1519.5,206.4c4.5-5.9,9-11.8,13.5-17.7c15.7-20.8,36.1-33.3,62-37.3c5.5-0.9,10.2-3,13.8,3.1
			c0.3,0.5,1.6,1.1,2,0.9c11.1-6,21.8,1,32.6,0.6c7-0.2,10.2,1.2,10.9,7.4c1.1,10.4,3.5,20.5,1.9,31.4c-2,13.4-1.2,27.2-1.4,40.8
			c0,2.9,2.1,6.1-1.1,8.3c-4.3,2.9-8.8,6.1-14.4,5.7c-2.2-0.2-4.2-1.5-6.4-2.3c-22.6-8.4-44.8-5.7-66.5,2.8
			c-14.5,5.6-25.5,15.5-32.2,29.8c-3.5,7.5-7.1,15-10.8,22.4c-3.8,7.7-5.7,15.3-4,24.1c1.6,8.1,0,16.5-0.8,24.9
			c-1.7,18-3.4,36.2,1.5,54.2c0.8,2.9,1.6,6.3,0.8,8.9c-3.4,11.2-3.5,22.2,0.4,33.3c0.8,2.2,0.9,4.5,0.3,6.8
			c-8.6,24.3-3.6,49.2-3.8,73.9c-0.1,12.8-3.3,25.5-1.4,38.4c0.5,3.4-2.7,5.3-5.9,5.7c-4.5,0.6-9,0.8-13.6,1.2
			c-16.5,1.1-33.1,2.1-49.6,3.4c-3,0.2-5.8,1.2-8.3,2.8c-3.4,2.3-6.8,3.7-10.4,1.5c-3.8-2.4-7.9-4.8-9.7-9.2
			c-0.5-1.3-0.2-2.9-0.5-4.4c-0.9-5,9-8,3.3-13.4c-4.4-4.1-1.8-8.4-2.5-12.6c-0.9-5.1-1.6-10.4-3-15.4c-4.5-17-1.8-34.2-1.7-51.2
			c0.1-15.1,2.3-30.1-1.1-45.1c-0.6-2.5,0.6-7.6,2.2-8.2c10.4-4,2.9-10.1,2.3-15.3c-0.5-2.2-1.3-4.3-2.4-6.3
			c-3.3-6.8-1-11.4,5.1-15.2c5.8-3.6,5-6.4-1.4-8.7c-3.1-1.1-3.2-4.8-3.5-7.8c-2.5-25.5-2.2-51.1,1-76.5c1.2-9.5,2.3-19.6-2.6-28.9
			c-2.7-5.2,2-10.8,0.3-15.5c-3.8-10.8,1.9-21.1,0.6-31.4c-1.3-10.6-2.6-20.8-0.8-31.5c0.8-5.1-0.9-10.5-1-15.7
			c-0.3-7.5,3.3-12,10.4-11.7c16.5,0.9,32.7-5.4,49.6-0.4c7.5,2.2,16.5-1.4,24.8-1.3c11,0.1,15.7,5.8,15.6,17.1c0,9,0,18,0.2,27
			C1514,202.8,1516.4,204.7,1519.5,206.4z"/>
		<path class="st0" d="M591.9,189.5c3.3,0.6,7.6-0.8,6.3-3.6c-3.4-7.1-1.3-11.7,4.2-15.4c11.8-8,23.8-15.8,35.8-23.5
			c3.2-2,6.9-3.1,10.7-3.1c5.2-0.1,11-0.3,15.4-2.5c22.2-11.1,46.1-6,69.2-8.1c0.8,0,1.5,0.1,2.2,0.2c6.4,0.3,3.2,10.7,10.4,9.9
			c5-0.6,3.6-9,11.7-8.1c15.9,1.9,30.5,7.4,45.5,12.1c0.7,0.3,1.4,0.7,2,1.2c21.2,11,21.2,11,29.6,30.5c2.6-1,2.5-3.4,2.9-5.6
			c0.2-2,2-3.4,3.9-3.2c0.3,0,0.7,0.1,1,0.2c2.8,1.1,5.3,2.7,7.4,4.8c9.6,9.7,19.7,19.1,28.1,29.7c13.6,17.2,23.8,36.8,30.1,57.9
			c5.2,18,8.9,36.4,12.8,54.7c2,9.7,0.2,19.5-0.9,29.2c-0.1,0.9,1.3,2,1.9,3c1.2-0.9,2.3-1.7,3.5-2.5c1.7-1.3,3.4-3.6,5-3.6
			c3.2,0.2,5.8,2.6,6.2,5.8c0.9,6.7,1.3,13.5,1.2,20.3c-0.3,2.2-1.5,4.1-3.4,5.2c-3.9,1.9-5.2-1.5-6.3-4.4s-2-5.6-5.2-6.8
			c-4.3,11.8-6.5,16.9-2.7,19.7c9.1,6.7,0.4,8-1.3,12.4c-4.4,11.3-7.4,23-9.2,35c-1.5,10.8-6.1,18.9-12.2,27.9
			c-6.2,9.3-9.9,21-15,31.6c-1.5,3-1.4,3-10.4,8.6c-3.9,2.5-7.3,5.4-7.7,10.5c-0.5,8.3-1.1,16.5-1.6,24.8l0.4-0.1l-5.3,5.3l0.1-0.5
			c-2.2-1.6-3.6-3.4-1.8-6.3c0.3-2.2,0.8-4.2,1.1-6.3c0.1-0.5-0.3-1.4-0.6-1.5c-1.8-0.5-2.7,0.3-2.2,2.3s1.4,4,2.1,6
			c-1.8-1.4-3.7-2.7-5.3-4.2c-4.5-4.1-9.3-4.7-14.4-1.2c-1.9,1.3-4,2.4-5.4,4.1c-8.5,10.7-20.8,14.1-33,18c-9.2,2.9-18.4,6-27.5,9.7
			c-10.6,4.4-23.7,2.8-35.8,3.6c-9.7,0.6-19.5-1-29.2,2.1c-3.9,1.3-8.8-0.5-13.3-1.1c-7.2-1-14.3-5.2-21.6,0.7
			c-2.7,2.2-5.9-0.4-7.8-2.5c-6-6.6-13-10.1-22-9c-3,0.5-6.1-0.3-8.4-2.3c-14-12.4-32.1-18.9-45.3-33.1
			c-13.4-14.4-25.6-29.7-36.7-46c-4.5-6.7-10.5-13.4-6-22.7c1.5-1.5,5.6-0.8,3.9-4.8c-0.5-0.5-1.1-0.7-1.8-0.6
			c-4.1,1.1-2.6,3.6-1.4,6.1c-9.9-5.7-10.7-15.5-11.5-25.4c-0.5-7,2.1-15.3-7-19.4c-0.9-0.4-1-2.7-1.4-4.2
			c-5.1-19.1-4.5-38.5-3.6-58c0.4-8.1,2.8-9.3,9.5-6.6c3.5,1.4,6.6,3.3,10.6,3.2c6-0.2,10.3-4,10.2-9.6c-0.1-3-0.4-6-0.8-9
			c-0.5-3.9-2-7.5-5.9-8.8c-6.6-2.1-5.8,4.9-8.6,7.6c-0.6,0.4-1.3,0.8-2,1l0.4,0.5c-0.6-0.5-1.1-1-1.6-1.6c-3.3-5-9.8-8.6-10-14.8
			c-0.3-7.9,8.8-6.9,13.3-10c6.1-4.2,8.3-9.7,7.2-15.1c-1.8-8.5,2.3-11,8.7-12.7c5-1.3,10.1-1.9,15.5-2.9
			c-3.1-6.8-10.4-5.9-14.9-9.7c-2.2-1.9-3.2,1.4-4,3.6c-0.8,2.4-3.1,3.2-5.4,2.9s-3.3-1.9-3.8-4.5c-2.2-11,2.7-19.6,10.5-25.9
			c3.9-3.1,6.5-5.2,6.2-10.4c-0.1-2,0.8-5.5,2.2-6c13-4.9,12.8-19.1,20.2-27.8c2.4-2.9,4.5-6.9,8.6-4.9c2,1,2.3,5.2,3.4,7.9
			c-0.2,2.9-0.1,5.9,0.1,8.8c0.1,0.9,1.9,1.9,3.1,2.1s1.4-1.2,0.5-3C594.3,194.8,593.2,192.2,591.9,189.5z M628.9,387.3l0.4-1.4
			l-0.9,1.1c2.1-2.2-2.5-1.7,0.5-1.6c1.7,0,2.2,0.7,1.7,2.2C629.5,390.5,631.7,386.3,628.9,387.3L628.9,387.3z M631.9,410
			c2.5-2.6,4.8-5.5,7.7-7.6c1.9-1.4,3.5-2.7,1.9-4.7c-1.4-1.6-3.2-2.6-5.3-2.9c-2.5-0.3-4,1.9-4.2,4.2c-0.3,3.6,0,7.3,0.1,11
			c1.3,0.4,3.8,1,3.8,1.3c-0.8,9.7,2.7,16.8,10.9,22.4c3.5,2.4,7.5,6.9,7.8,10.7c1.1,15.3,13,21.3,23.5,27.1c7.2,4,14.3,7.1,20.4,13
			c4.3,4.1,10.2,6.7,15.8,0.5c3.3-3.7,8-4,12.6-3.6c6,0.5,12,0.4,17.8-1.6c1.8,5.5,3.3,1.1,5-0.1c2.2-0.2,5.1,0.4,6.6-0.8
			c11.7-9.1,26-15.5,32.2-30.5c1.3-3.5,3.5-6.7,6.3-9.3c15.9-13.3,14.6-34.1,22.4-50.8c-3-26.6,8.2-53.8-2.8-80.2
			c-0.3-0.7-0.4-1.5-0.2-2.2c3.1-7.2-2.6-14.7,0.8-21.9c-4.5-5.5-11-10.3-13.1-16.5c-4.8-14.4-14.6-24.3-25.5-33.8l0.5,0.5
			c-6.9-5.2-15.6-7.2-21.9-13.8c-2.8-3-8.3-5.6-12.1-5.1c-11.8,1.8-23.6-3.6-35.3,0.5c-4.7,1.6-20.2,9.6-22.8,12.7l0.6,0.6
			c-0.7-2.9,0.9-8.6-5.5-5.4c-11.3,5.7-8,17.3-10.2,26.6c5.2,5-0.8,9.4-0.8,14.1h0c-0.3-5.4-7.1-3.8-8.7-8.9c-2.7-8-8.8-9.1-12-2.6
			c-6.4,13.4-16.8,25.3-17.2,41.2c-0.1,2.9-1.7,6.7,2.2,7.3s4.1-2.9,3.6-6.1c-0.4-2.4,0.7-4.6,3.3-4.2c3,0.7,5.8,1.6,8.6,2.9
			c3.1,1.2,4.8,7.1,2.6,9c-2.8,2.5-5.7,5.9-9,6.4c-9.2,1.6-12.6,5.9-11.8,15.3c0.5,5.7-1.1,11.8-2.7,17.5c-0.8,2.9-2.6,6-1,8.6
			c8,12.7,8.5,28.5,17.5,40.9c6.2,8.4,4.2,12.1-6.2,16.4C636.2,409.1,634,409.6,631.9,410L631.9,410z M843,459.4
			c-4.2,3.1-4.1,8-5.5,12.1s2.2,6.8,4.7,9.5s1.2,5.6,1.5,8.5c0.7,5.1,1.4,10.4,3.1,15.3c1.2,3.4,3.8,6.2,6.2,9.1
			c1.1,0.9,2.5,1.2,3.8,0.8c1.1-0.9,1.7-2.3,1.6-3.7c-0.5-2.1-1.4-4.2-2.8-5.9c-4.3-5.4-9.3-10.4-3.5-17.7
			C849.3,477.9,854.3,465.9,843,459.4z M594.8,359.9c0.2-4.3-3.4-7.3-7.1-5.8c-2.1,0.7-4.1,1.8-5.9,3.2c-1.6,1.4-2.6,3.5-3.9,5.3
			c1.9,1.1,3.8,2,5.8,2.8C591,367.7,594.5,365.9,594.8,359.9L594.8,359.9z M568.5,324.3c1.2-0.6,3-0.8,3.5-1.8s0.1-3.2-0.7-3.7
			c-2.3-1.5-3.9,0.2-4.3,2.3C566.8,322,567.9,323.2,568.5,324.3L568.5,324.3z M752.4,162.8l-0.6-1.8c-0.4,0.4-1,0.8-1.1,1.2
			s0.3,1.1,0.5,1.6L752.4,162.8z M825.6,351.3l3.4-1.2c-0.4-0.5-0.9-1.4-1.3-1.4c-1.2,0.3-2.3,0.7-3.4,1.1L825.6,351.3z
			 M546.7,433.3l0.8-1.3l-1.4-0.1L546.7,433.3z M824.4,339.8l-0.9,1.5l1.6,0.1L824.4,339.8z M569,276l-0.8,1.3l1.4,0.1L569,276z"/>
		<path class="st0" d="M858.6,563.4c2.4-2.6,5.4-1.2,8.2-1s5.8-0.2,6.8,3.6c0.8,2.7-3.5,3.8-8.2,2
			C862.9,566.9,859.5,566.9,858.6,563.4z"/>
		<path class="st0" d="M929,474.5c-0.5-2.1-1.2-4.1-1.4-6.3c-0.5-3.6-0.9-7.3,3.7-8.7c0.7-0.2,1.5-0.1,2.1,0.3
			c3.2,3.3,1.7,6.5-0.4,9.5C931.7,471.1,930.3,472.8,929,474.5L929,474.5z"/>
		<path class="st0" d="M940.3,500.9c-0.4,1.6,1,4.8-2.4,3.9c-1.1-0.3-1.6-3.8-1.8-5.8c-0.1-1.1,1.1-3.3,1.5-3.3
			C940.7,496,939.9,498.7,940.3,500.9z"/>
		<path class="st0" d="M899.5,484l0.5,3.1l-1.9,0.3c-0.1-1.1-0.3-2.2-0.4-3.3L899.5,484z"/>
		<path class="st0" d="M923.1,440.4l-3.3,1.9c-0.4-1.2-0.5-2.5-0.6-3.8c0.2-1.7,1.7-2.6,3-1.6C923,437.4,922.8,439.2,923.1,440.4z"
			/>
		<path class="st0" d="M931.8,331.4c-0.4,0.4-0.7,1.1-1.2,1.2c-1.6,0.4-2.4-0.4-2.3-2c0.2-0.6,0.5-1.2,0.9-1.7L931.8,331.4z"/>
		<path class="st0" d="M535.5,320.9c-0.8,0.8-1.7,2.3-2.5,2.3c-1.5,0-1.8-1.4-0.5-2.2c0.8-0.4,2.2,0.2,3.4,0.4L535.5,320.9z"/>
		<path class="st0" d="M929,474.5c1-1,2.7-3,3-2.8c1.8,1.2,1.4,1.9-1.1,1.7C930.4,473.4,929.7,474,929,474.5
			C929.1,474.5,929.1,474.5,929,474.5z"/>
		<path class="st0" d="M863,534.4c0.2,1.8,0.4,3.6,0.5,5.3h0.1c-0.1-1.8-0.2-3.6-0.2-5.5L863,534.4z"/>
		<path class="st0" d="M863.5,539.7l-5.3-0.6l-0.1,0.5L863.5,539.7L863.5,539.7z"/>
		<polygon class="st0" points="883.8,567.9 884.2,569.2 883.1,569 		"/>
		<polygon class="st0" points="692.4,572.6 693,574 691.6,573.8 		"/>
		<path class="st0" d="M685.7,266.6c2,2.8,4,5.6,6.2,8.4c1,1.4,0.9,2.7-0.8,3c-1.4,0.1-2.8-0.4-3.8-1.3c-3.2-2.8-2.9-6.1-0.9-9.5
			L685.7,266.6z"/>
		<path class="st0" d="M719.6,225.7c-0.7,2-2.8,2.7-5,2.3c-2.5-0.5-3.8-2.2-2.5-4.7c0.8-1.3,2.1-2.1,3.5-2.3
			C717.9,221.1,719.9,222.3,719.6,225.7z"/>
		<path class="st0" d="M651.8,273.1c3.7-2.8,8.5-3.5,12.9-1.9c0.5,0.3,0.9,0.8,1,1.4c0,0.5-0.5,1.6-0.7,1.6c-4.5-0.4-9-1-13.5-1.5
			L651.8,273.1z"/>
		<path class="st0" d="M735.7,269.2c-1.2-0.6-2.8-1-3.6-1.9c-0.6-0.8-1-2.8-0.5-3.3c1.7-1.7,3.8-0.9,5.4,0.5c0.9,1,1.7,2.1,2.3,3.4
			L735.7,269.2z"/>
		<path class="st0" d="M781.1,283.6l2.5,2.4c-1.2,0.5-2.4,1-3.7,1.3c-0.5,0.1-1.1-0.7-1.7-1.1L781.1,283.6z"/>
		<path class="st0" d="M776.4,233.6c-0.4,1.4-0.3,3.1-1.2,4c-1.2,1.3-2.9,0.8-3.6-0.9c-0.2-0.4,0.5-1.6,1-1.8
			c1.4-0.4,2.8-0.7,4.3-0.8L776.4,233.6z"/>
		<path class="st0" d="M686.3,267.3c-0.1-2-0.2-4.1-0.2-6.1c0.1-0.6,0.3-1.3,0.6-1.9c0.8,0.9,2.4,2.1,2.2,2.5
			c-0.9,1.7-2,3.3-3.2,4.8L686.3,267.3z"/>
		<path class="st0" d="M654.1,347c-1.7,0.6-2.9,0.1-3.3-1.6c-0.1-0.3,1.1-1.4,1.5-1.3c1.2,0.4,2.4,1,3.5,1.6
			C655.2,346.1,654.7,346.5,654.1,347z"/>
		<path class="st0" d="M750,480.3l-5.7-0.3L750,480.3z"/>
		<polygon class="st0" points="660.2,414.7 659.8,413.5 660.9,413.7 		"/>
		<path class="st0" d="M667,297.1l-0.9,3.3l-1.9-1.5l3.2-1.2L667,297.1z"/>
		<path class="st0" d="M667.4,297.8c0,0-0.4-0.6-0.4-0.7C667.1,297.4,667.2,297.6,667.4,297.8z"/>
		<polygon class="st0" points="664.8,287.4 664.4,286.1 665.6,286.3 		"/>
		<path class="st0" d="M651.4,272.7l0.8-0.9c0,0-0.4,1.2-0.4,1.3C651.6,273,651.5,272.8,651.4,272.7z"/>
		<path class="st0" d="M668.9,264.4c1.3-0.8,3.3-2.5,3.7-2.2c1.8,1.6,1.1,2.2-1.4,1.5C670.6,263.5,669.7,264.1,668.9,264.4
			C669,264.4,668.9,264.4,668.9,264.4z"/>
		<path class="st0" d="M684.8,228.4l-0.7,3.9c-3.8-2.8,0.5-2.3,1.3-3.3L684.8,228.4z"/>
		<path class="st0" d="M1078.2,170.6c4,2.8,6.3,6.4,5,11.6c-1,3.7-1.6,7.2,1.1,10.7c2.1,2.8,6.1,4.7,7.4,2.6
			c5.9-9.3,21.6-8.9,22.3-23.3c0.2-3.6,4-6.1,7.4-8c10.4-5.7,20.5-11.8,30.9-17.4c9.4-5.1,18.7-8.5,29.6-2
			c5.5,3.2,13.1,2.9,19.8,4.1c1.4,0.2,3.9,0.5,4.2-0.1c6.4-11.5,16.8-7.2,25.7-5.9c7,1,13,8.4,21.2,3.3c1-0.6,3.1,0,4.4,0.6
			c20.6,9.2,41.4,17.9,55.7,36.8c9.1,12.1,20.4,22.9,23.9,38.1c4,17,12.3,32.9,10.7,51.5c-0.8,9.4,0.2,19.3,1.7,29.1
			c1.5,10.3,1.5,20.8,0.2,31.1c-1.5,13.5-1.5,27.1,0.2,40.6c0.6,5.3,0.6,10.3,4.7,14.5c1.3,1.3,2.5,5.1,1.9,5.8
			c-11.8,11.3-3.5,24.8-3,36.7c0.7,14.3-1.5,30,9.1,42.5c2.1,2.5,1,5.9-0.8,8.5c-2.5,3.7-5.3,7.3-8,10.9c0.5-2.6-0.2-4-2.4-1.5
			c-0.6,0.7,1.3,1.9,2.8,1c0.2,10.4,1.7,20.9-0.4,31.3c-2,10,2.7,20.6-3.2,30.5c-1,1.7,5.8,7.3,1.3,9.4c-9.1,4.3-18.5,9.5-29.5,5.9
			s-23.5-3.2-34.6-2.3c-6.4,0.6-13.1-2.7-19.9,0.3c-1.2,0.6-4.6-1.1-5.5-2.6c-3.5-6-12.1-9.3-8.7-19.1c2.2-6.2-9.6-10.6-4.2-18.4
			c-2.6-12.3,5.1-21.2,10.2-29.9c-1.1-4.5-4-5.6-6.4-7.3c-6.4-4.6-8.5-10.3-3.5-17.5c2.7-3.8,3.7-7.5,1.4-12.5
			c-3-6.7-1.7-13.3,4.1-18.4c-1.5,0.7-1.7,0.5-0.7-0.5c0.1,0.4,0.2,0.8,0.3,1.1c-10.7-8.1-10.7-8.1-3.8-16.2
			c2.5-2.8,4.8-5.8,6.9-8.9c3.2-4.9,2.2-6.1-6.8-9.6l0.5,0.6c4.8-2.6,6.2-6.6,4.1-11.4c-1.6-3.8,4.2-9-2.6-11.6
			c-4.3-1.7-4.7-5.5-4.2-9.4c2.4-21.8-1.7-43.6,1.4-65.5c1.9-13.5-3.6-26.2-5.1-39.4c-0.2-2-1.8-4.2-3.4-5.6
			c-9.2-8.9-18.4-17.8-28.1-26.2c-6.5-5.7-8.5-6.3-14.8,1.2c-4.4,5.3-7.8,1.7-11.4,1.7c-5.7,0,5-9.4-3.8-8c-3.3,0.5-5.7,5-10,3.6
			c-0.7-0.2-1.5-0.3-2.2-0.5l0.2,0.5l0.1-5.5l-0.6,1c4.8-1.7,3.3-3.6,0.1-5.4l0.7,0.5c-11.2-4.8-11.2-4.8-13.6,6.6
			c-0.3,1.2-1.3,2.3-2.1,3.5c-0.7-0.2-1.7-0.2-2.1-0.7c-2.8-3.4-2.8-9.7-7.9-10.1c-5.9-0.5-12,1.1-15.9,6.5c-2.2,3-3.6,6.9-7.8,7.5
			c-20.1,2.7-21.4,23.3-32.8,34.3c-1.3,1.3-1.6,4.3-1.5,6.5c0.6,12.7-2,25-4,37.4c-1.9,11.7,2,23.7-1.6,35.5c-1,3.3,1.8,5.3,3.8,7.5
			c2.2,2.3,2.2,5.3,1.7,8.4c-2.4,13.7-1.4,19.2,4,30.2c2.4,4.8,4,10.1,0.2,14.9c-3.2,4-2.2,8.5-3.1,12.8l0.3-0.3
			c-1.2,1.9-3,3.7-3.4,5.8c-3.1,15.7-2.3,31.6-0.8,47.4c0.6,5.8,2.5,12.5,6.2,16.8c4.9,5.8-6.2,11.3,1,16l-0.6-0.2
			c0.3,5.1-7,10.5,1,15.5c2.7,1.7,2.5,5.4,1.5,8.2c-3,8.3,1.7,14.3,5.6,20.7l0.2-0.5l-11.3,7.6c2.7-4.7-0.9-6.3-3.9-8.2
			c-0.4-0.3-1.8-0.1-1.8,0.2c-0.4,1.2-1,2.7-0.5,3.6c1.3,2.8,3.3,4.7,6.8,4c-2.7,8.8-3.5,9.4-6.8,4.2c-4.4-6.8-9.1-7.6-16.9-6.8
			c-11.5,1.2-20.5,7.4-30.3,11.7c-6.2,2.7-5.7,3.6-8.6-3c-3.4-7.9-4.8-9.1-11.1-4.9c-7,4.6-12,5.1-17.5-1.6c-1.8-2.2-5.2-3-7.4-5
			c-4.3-3.9-3.2-7.8,1.1-11c1,1.5-3.9,2.6-0.2,4.2c0.1-1.3,0.2-2.7,0.2-4c-7.1-6.6-13.5-13.4-9-24.5c1.1-2.7,0.5-6,1-8.9
			c2.4-14,2.4-13.9,17.1-10c5.3-3.2,0.6-8.2,1.9-12.2c0.7-2-0.7-3.5-3.6-3.8c-11.3-1.4-16.3-5.9-14.7-13.8c1.8-9,2.4-18.5-0.5-26.7
			c-4.2-12,1.2-23.9-2.4-35.6c-0.8-2.4,1.3-5.8,2.2-8.6s2.3-5.3,1-8.5c-5.4-13.8-0.6-28.2-2-42.2c-1.4-14.3-1.9-28.6-2.2-43
			c-0.4-21.4,2-42.7,1.1-64.2c-1.1-28.4-1.3-56.8-1.2-85.3c0.1-13.5,7.8-19.5,22-18.1c10.4,1.1,20.8-0.7,31.2-0.5
			c12.1,0.2,23.8,3.1,35.8,3.1c4.7,0,8.7,1.5,10.9,6.5c2.9,6.7,5.1,12.9-1.8,18.5l0.4-1.5L1078.2,170.6z M1016.3,499.5
			c-0.8-1.5-0.4-2.5,1.4-2.5c0.3,0,0.8,0.8,1,1.3c1.1,2.8,0-1.6-1.3,1l-1.4-1.1C1017.6,497.5,1017.7,498,1016.3,499.5L1016.3,499.5z
			 M1156.3,172.8c-0.4-1.9,0.4-2.7,2.2-2.1c2.9,0.9,0.1-2.9,0.6,0c0.2,1.4-0.9,2.7-2.3,2.8c-0.3,0-0.7,0-1-0.1
			c1.9-0.3,2,0.1,0.5,0.9C1156.3,173.8,1156.3,173.3,1156.3,172.8L1156.3,172.8z M1004.5,467.9c-1.3-0.2-2.5-0.5-3.8-0.7
			c-0.1,0.4-0.2,0.8-0.3,1.2l4.7-1.1c1.8,1.2,1.6,2.2,0.3,3.8c-0.7,0.9-0.3,2.6-0.4,3.9c0.5-0.3,1.3-0.7,1.3-1
			c-0.1-0.7-0.3-1.4-0.6-2.1C1005.4,470.5,1005,469.2,1004.5,467.9z M1284.7,505.3c-0.8-3.5-3.7-6.2-7.3-6.6
			c-1.5-0.2-1.9,1.8-1.4,3.5c1,3.1,3.4,4.6,6.1,5.5C1282.7,507.8,1283.8,506.2,1284.7,505.3z M1296.5,497.2c-0.6-2.3-2.2-3.5-4.3-3
			c-0.8,0.2-1.5,2.3-1.4,3.5c0.1,2.3,1.6,3.7,3.9,2.7C1295.6,499.9,1295.9,498.2,1296.5,497.2z M1315.9,460.5
			c-0.4-1.2-0.8-2.5-1.1-3.7c-1.2,0.4-3,0.4-3.6,1.2c-1.3,2-0.2,3.9,1.9,4.5C1313.8,462.6,1315,461.2,1315.9,460.5L1315.9,460.5z
			 M1178.4,183.2c-1.2-0.5-2.7-1.5-3.7-1.2s-1.5,2-2.2,3.1c1.2,0.5,2.5,0.9,3.9,1.1C1178.2,186.2,1178.9,185,1178.4,183.2z
			 M1154.1,188.4l-1.9,0.7c0.2,0.5,0.4,1.4,0.6,1.4c0.6-0.1,1.3-0.3,1.9-0.6C1154.5,189.4,1154.3,188.9,1154.1,188.4z M1124.2,186.6
			l3.5-1.6c-0.4-0.5-0.8-1.4-1.3-1.4c-1.1,0-2.3,0-3.4,0.2L1124.2,186.6z M1180.3,156.7l-1.6,0.3c0.1,0.4,0.2,1.2,0.4,1.2
			c0.6-0.1,1.1-0.2,1.6-0.4L1180.3,156.7z M1153.2,157.1l1.4,1l0.4-1.4L1153.2,157.1z M1332.2,563.4l1,0.7l0.1-1.1L1332.2,563.4z
			 M1269.7,461.8l-0.8,1.2l1.3,0.2L1269.7,461.8z M1018.5,147.2l-0.7,1.3l1.3,0.1L1018.5,147.2z M1168.7,208.3l0.8-1l-1.1-0.2
			L1168.7,208.3z"/>
		<path class="st0" d="M1369.8,433.6c5.4-0.1,12.5,4.7,13.2,9.2c0.1,0.9-1.5,2.8-2.4,2.9c-5.7,0.7-9.6-2.8-13-6.7
			c-0.6-0.7,0.3-2.7,0.7-4C1368.5,434.5,1369.3,434,1369.8,433.6z"/>
		<path class="st0" d="M1047.9,582.8c-0.1,1.2,0.1,1.9-0.2,2.4s-1.3,0.7-1.5,0.5c-1.3-1.5-2.5-3-3.7-4.7c-0.1-0.2,0.5-0.9,0.8-1.3
			L1047.9,582.8z"/>
		<path class="st0" d="M1171.3,237.3c-2.8,1.6-5.6,2.5-7.1-1.6c-1.1-3.1-0.7-5.7,3.2-6.5c1.4-0.3,2.9-0.6,4.3-0.9l-0.7-0.5
			c0,1.8,0,3.6-0.1,5.4l0.6-1c-3.7,1.8-2.8,3.6-0.1,5.5L1171.3,237.3z"/>
		<path class="st0" d="M1124.8,318.5c-7.9-0.5-11.4-0.6-14.9-1.2c-0.7-0.1-1.5-2.3-1.4-3.4c0.1-0.9,2-2.4,2.4-2.2
			C1114.2,313.1,1117.3,314.8,1124.8,318.5z"/>
		<path class="st0" d="M1122.9,506.6c-1.4-0.3-2.8-0.7-4.2-1c-6.2-1.2-7.9-3.5-5-7.7c1.5-2.3,4.3-3.8,6.5-5.6l-0.7-0.6
			c2.2,5-1.1,11.3,3.7,15.6L1122.9,506.6z"/>
		<path class="st0" d="M1121.3,396c-0.1,2.4-1,4.4-3.5,4.9c-1.3,0.2-2.8-0.5-4.2-0.7c0.7-1.9,1.1-4,2.2-5.7c0.7-1.1,2.4-1.6,3.7-2.3
			C1120.1,393.4,1120.7,394.7,1121.3,396z"/>
		<path class="st0" d="M1099.8,558.7c1.6,3.1,2.9,6.3,4.2,9.5c0.2,0.8-1.4,2.2-2.1,3.3c-0.9-0.8-2.6-1.7-2.6-2.5
			c0-3.6,0.3-7.2,0.7-10.7C1100,558.2,1099.8,558.7,1099.8,558.7z"/>
		<path class="st0" d="M1104.8,300.8c-0.7,1.1-1.2,3-2.1,3.2c-2.7,0.5-3.9-1.7-4-3.9s0.8-4,1.3-6.1
			C1103.2,295.3,1104.1,298,1104.8,300.8z"/>
		<path class="st0" d="M1135.1,584.2c-0.6,3.5-3,4.6-6.2,4.2c-1.8-0.2-2.5-1.7-1.9-3.4c1-2.9,2.8-5.1,6.1-4.4
			C1134,580.8,1134.4,583,1135.1,584.2z"/>
		<path class="st0" d="M1091.5,585c2.7,0.1,3.8,2,4.1,4.1c0.1,0.8-1.3,2.3-2.3,2.5c-2.8,0.6-3.9-1.4-3.9-3.7
			C1089.4,587,1090.8,586,1091.5,585z"/>
		<path class="st0" d="M1092.4,514.6c5.2-1.3,10.4-3.6,15.3,0.7l0.5-0.5c-5.4-0.1-10.8-0.3-16.3-0.5L1092.4,514.6z"/>
		<path class="st0" d="M1137.9,243.5l-1.6,0.4c-0.2-0.6-0.2-1.3-0.1-1.9c0.5-1.8,1.4-2,2.2-0.4
			C1138.6,242.1,1138.1,242.9,1137.9,243.5z"/>
		<path class="st0" d="M1361.8,572.1c-0.9,0.7-1.7,2-2.7,2.1c-0.7,0-1.5-1.4-2.2-2.2c0.5-0.5,1.1-0.9,1.7-1.3
			C1360.2,569.6,1361.3,570.1,1361.8,572.1z"/>
		<path class="st0" d="M1117.2,562.9c-1,1.2-0.8,2.2,0.7,2.9c0.6,0.2,1.2,0,1.6-0.4c0.8-1.4,0.2-2.2-1.4-2.2L1117.2,562.9z"/>
		<path class="st0" d="M1120.3,492.3c2.1-3.2,5-3.3,8.2-2.3l-0.6-0.3c-2.7,0.7-5.5,1.4-8.2,2
			C1119.6,491.7,1120.3,492.3,1120.3,492.3z"/>
		<path class="st0" d="M1128.5,490c-0.5-0.4-1.3-0.8-1.5-1.3c-0.2-1-0.3-2.1-0.2-3.1l1.5,0.1c-0.2,1.3-0.4,2.6-0.5,3.9
			C1127.9,489.7,1128.5,490,1128.5,490z"/>
		<path class="st0" d="M1123.3,507.4l-1.3-0.7c0.3,1.6,0.5,1.5,0.8-0.1C1123,506.8,1123.2,507.1,1123.3,507.4z"/>
		<path class="st0" d="M1107.6,515.3l3.1,1.8l-2.5,1.3c0-1.2-0.1-2.4-0.1-3.6L1107.6,515.3z"/>
		<path class="st0" d="M1132.6,554.3c-0.3-0.3-0.6-0.6-1-0.9c-1.2,1-1,1.5,0.5,1.3L1132.6,554.3z"/>
		<path class="st0" d="M1132.1,554.7c0.1,1.3,0.2,2.6,0.4,3.8c-3.9-1.3-0.2-2.7,0.1-4.2L1132.1,554.7z"/>
		<path class="st0" d="M1118,563.2c-2.7,1.4-2-2-1.4,0.8c0.2,1.3,1.6,0.7,0.7-1.2C1117.2,562.9,1118,563.2,1118,563.2z"/>
		<path class="st0" d="M1061.5,584c-1.9,0-3.6-2.2-3-2.5c4.1-2,3,0.9,2.5,3.1L1061.5,584z"/>
		<path class="st0" d="M1061,584.5l3.5,0.2c-2.1,3.6-2.1,0-2.9-0.8C1061.5,584,1061,584.5,1061,584.5z"/>
		<path class="st0" d="M1114.6,461.3c0.5,0.6,1.4,1.1,1.4,1.7s-1.2,1.6-1.5,1.5C1112.4,463.4,1112.4,462.3,1114.6,461.3z"/>
		<path class="st0" d="M1089.1,428.9c1.8-0.6,3.9,0.9,3.3,1.5c-2.4,2.6-3.6,1.4-3-1.8L1089.1,428.9z"/>
		<polygon class="st0" points="1114.1,427.3 1113.7,425.9 1115,426.1 		"/>
		<path class="st0" d="M1251,407.7c3-0.4,0.4,2.6,1.3-0.2c0.3-1-0.9-1.1-0.8,0.8C1251.5,408.3,1251,407.7,1251,407.7z"/>
		<path class="st0" d="M1793.6,155.4c27.2-5.7,54-10.5,81.3-10.9s54.1,5,79.8,14.6c5.6,2.2,11,4.9,16.2,7.9c4.3,2.4,10.4,4,8,11.4
			c-0.1,0.3,2.1,1.9,3.1,1.8c11.6-1.8,17.9,6,24.8,13.1c20.1,20.8,30.9,45.4,34.5,74.3c3.2,25.7,2.2,51.3,3.7,76.9
			c0.7,12.7-2.4,25.3-1,38.2c0.8,8.1,0.9,16,2.6,24.1c1.5,7.3,1.1,15.4,4,22.8c3.4,8.6,6.5,16.9-3.4,24.1c-2.3,1.7-3.4,7.3-2.6,10.6
			c3.2,14.4-1.9,28.5-0.8,42.7c0.7,8.7-3.2,18.4,4.9,25.8c0.8,0.8,1.1,2.9,0.7,4.1c-3.9,10.5-8.3,20.8-10.9,31.9
			c-1.6,6.8-12.9,11.8-20.3,10.7c-4.4-0.7-8.8-2-13.1-3.2c-1.4-0.4-3.5-1.8-4.1-1.3c-11.3,8.6-23-0.3-34.5,0.9
			c-11.7,1.2-18.2-3.2-22.8-13.1c-1.3-2.8-2.7-5.4-3.8-8.2c-5.8-14.5-8.3-15.8-20-7.6c-5.5,3.8-10.7,8-16.3,11.8
			c-8.2,5.5-14.7,12.1-12.7,24c1.3,7.5-2.3,13.5-12,10.6c-0.5-0.2-1.3,0.6-1.9,1c-4.2,3.2-8.3,8-13.8,6.8
			c-6.5-1.4-12.7-5.4-16.2-11.1c-3.9-6.5-8.9-5.5-15.1-6.2c-14.2-1.7-28.2,1-42.3,0.3c-6.2-0.3-12.3-0.2-17.2-3.7
			c-8.8-6.3-19.2-8.4-28.7-12.6c-10.4-4.5-20.8-9.3-25.6-21c-0.8-2-2.1-4.8-3.8-5.4c-18-6.6-19.8-25.5-29.4-38.4
			c-1.1-1.5-0.8-4.2-0.5-6.3c1.6-13,2.9-14.4-4.5-21.4s2-12.9-1.6-18.7c1.1-0.7,2.2-1.7,3.4-2.1c6.4-1.7,12.9-3.1,19.3-4.9
			c3.6-1,4.3-5.4,0.8-6.3c-8.2-2.2-6.7-8.6-8.5-14.1c-1.4-4.2-8.7-6.8-2.9-12.9c0.7-0.8,0.4-2.8,0.2-4.2c-0.5-3.9-10.3-2.4-5.5-9.4
			c4-5.8,4.2-15.2,14.5-15.4c3.2,0,5-2.5,6.6-5.4c12.6-23,25-32.9,50.2-40.5c0.7-0.2,1.5-0.4,2.2-0.7c21.3-11.9,45.3-13.4,68.4-18.3
			c2.2-0.5,4.6-1,6.7-0.6c11.9,2.2,23.5,0.5,35.2-1.9c11.1-2.3,22.4-3.9,33.7-4.7c11.5-0.8,18.1-10.6,28.1-13.8
			c0.1-7.4,11-12.5,4-21.8c-2.9-4-2.8-10.1-4.5-15.1c-7.1-20.2-26.2-32.1-47.9-29.5c-4.6,0.6-8.5,1.8-12.6-1.9
			c-6.5-5.9-13.8-3.4-18,2.1c-4.7,6.1-7.2,9.1-15.4,4.6c-9.7-5.3-14.3-1.2-14.3,10.3c0.1,0.7,0.1,1.5,0.1,2.3
			c-0.3,1.4-0.2,3.6-1.1,4.1c-2.3,1.4-4.1-0.2-5.4-2.1c-2.5-3.6-5.1-5.5-8.7-1.1c-4.3,5.3-8.4,10.8-13,15.7
			c-8.7,9.4-18.2,14.8-32.1,9.9c-8.3-2.9-18-3.3-26.9-2.8c-10.4,0.6-19.4-3.2-28.4-6.6c-13-5-15.9-12.2-11.6-25.1
			c6.6-19.8,18.6-35.9,33.2-50.4c3.2-3.2,6.7-6.1,10.2-9c14.7-12.2,14.7-12.2,28.9,1.3c1.1,1,2.2,2.3,3.6,2.7s2.8-0.1,4-0.6
			c0.5-0.2,0.9-1.3,0.9-2c0.3-3.9-1.7-7.1-3.2-10.6c-3.3-7.9-2.6-9.6,5.1-14.8c4.5-3.1,6.6-1.1,6.9,4c0.2,3.9,0.8,7.8,6.3,7
			c4.8-0.7,6.1-3.4,4.6-10.1C1794.9,160,1794.3,157.9,1793.6,155.4z M1882.9,550.2c-1.7-0.8-2.1-2-0.9-3.3s2.9-1.4,3.5,0.1
			c1,2.3,0.1,4.1-2.7,4.2c1.6-1.3,2-1.2,1.2,0.5L1882.9,550.2z M1966.5,331.6c1.2-0.5,2.5-0.8,3.8-1.1c1.9-0.2,4.6,0.6,4.4-2.3
			c-0.1-2.5-2.5-2.6-4.5-2c-1.3,0.5-2.5,1-3.7,1.7c-6.5-11.2-18.4-18.2-24.3-30c-2.7,4.1-1.3,10-8,12.5c-5.7,2.1-5.3,3.9,2.1,7.9
			c2.3,1.2,3.7,2.5,3.8,4.7c0.2,4.4-1.5,8.8,2.1,12.9c2.9,3.3,3.6,7,9.5,1.9c6.2-5.4,10-2.5,11,6.5c0,1.5-0.1,3.1-0.4,4.6
			c-2,0.8-3.9,2-6,2.3s-3.1,0.8-2.1,1.4s3.2,1,3.9,0.4c1.5-1.2,2.4-3.2,3.6-4.9c4,0.2,4.6-2.4,4.6-5.5
			C1966.2,338.9,1966.4,335.3,1966.5,331.6L1966.5,331.6z M1788.2,463.6l-0.6-0.5c2.9,18.2,15,28.1,31.2,33.9
			c4.1,1.5,8.7,0.8,13,2.9c8.7,4.3,17.7,4.9,26.8-0.1c3.9-2.2,7.1-0.4,9,3.7c1.1,2,2.3,3.9,3.7,5.6c0.1,3.3,0.2,6.5,0.3,9.7
			c1.6,3.5,4.5,3.3,7.1,2c4.6-2.2,8.2-6,10-10.8l-0.6,0.5c1.4-3.2,6.2-5,4.5-9.4c-2.2-5.4-1.6-7.8,4-11.7c9.1-6.4,15.8-16,24.1-23.6
			c6.4-6,3.5-15.9,10.7-22c3.3-2.8,0.2-9.6,2.5-14.7c3.8-8.6,0.6-17.9,0.5-26.9c-0.1-15.4-7.4-19.7-22.4-14.3
			c-1.4,0.5-2.5,1.4-3.3,2.7c-2.3,4.3-5.7,4.2-9.5,2.8c-5.9-2.2-11.2-2-17.4,0.5c-7.5,3.1-16.1,6-24,5.5c-16.6-1-31,4.8-45.8,10.2
			c-13.5,5-13.5,5-12.5,21.5l0.5-0.3c-10.8,2.2-18.3,7.1-15.4,20c0.3,1.2-0.8,2.8-1.3,4.1C1780.9,460.4,1786.4,460.9,1788.2,463.6
			L1788.2,463.6z M1734.3,369.5c-1.7,0.1-3.3-0.2-4.7,0.3c-6.6,2.6-13.8,11.5-10.8,14.8c6.9,7.6,9-2.5,13.3-5.1
			c1.6-0.9,4.4,0.4,6.5,0.1c1.3-0.4,2.3-1.5,2.7-2.8c0-1.4-0.6-2.8-1.6-3.7C1738.1,371.7,1736.2,370.5,1734.3,369.5L1734.3,369.5z
			 M1764,454.8c1.4-1,4.1-1.8,4.6-3.4c0.9-3-0.9-5.4-4.2-6.1c-2.9-0.5-5.9-0.2-6.2,3.5C1757.9,452.2,1760.8,453.5,1764,454.8z
			 M1867.6,547.8c0.8-1.7,0.4-3-1.3-3.7c-0.5-0.2-1.8,0-1.9,0.3c-0.3,1.3-0.4,2.7-0.5,4L1867.6,547.8z M1750.5,415.5
			c-2.1-2.1-4.1-2.8-6.1-1.4c-1,0.7-2.1,2.1-2,3.1c0.3,2.3,2.2,3.6,4.3,2.5C1748.3,418.8,1749.2,416.9,1750.5,415.5L1750.5,415.5z
			 M1796.5,224.2c-0.4,0.4-1.3,0.9-1.2,1.1c0.3,1.2,0.6,2.8,1.5,3.4c1.3,1,2.6,0.1,2.1-1.5C1798.5,226.1,1797.3,225.2,1796.5,224.2
			L1796.5,224.2z M1917.6,324.8c-1.1-0.9-2.1-2.2-3.3-2.6c-2.2-0.7-4.6,0.4-5.4,2.6c-0.2,0.4,1.9,2.2,3.1,2.5
			C1914.2,327.9,1916.6,326.8,1917.6,324.8L1917.6,324.8z M1854.4,356.8c-0.2,0.6-0.7,1.3-0.6,1.9c0.5,2.4,1.5,2.5,2.5,0.3
			c0.2-0.7,0.1-1.4-0.3-2C1855.8,356.7,1855,356.8,1854.4,356.8L1854.4,356.8z M1901.2,524.2l-0.8,1.2l1.3,0.2L1901.2,524.2z
			 M1995.4,520.2l1.2,0.9l0.2-1.3L1995.4,520.2z M1759.5,508l0.9-1.3l-1.3-0.2L1759.5,508z M1954.7,343l1.2,0.8l0.2-1.2L1954.7,343z
			"/>
		<path class="st0" d="M1925.7,617.6c-0.2,2.3-0.9,4.7-3.3,5.1c-4.3,0.8-8.9,0.5-12.9,1.8c-2.8,0.9-5,2.9-7.5-0.2
			c-2.5-2.8-3.1-6.9-1.5-10.4c2.1-5,7.8-8,12.6-7.2C1919.1,607.9,1924.6,612.6,1925.7,617.6z"/>
		<path class="st0" d="M1854.2,258.3c-5-0.1-7.3-3.6-5.6-6.1c2-3,4.1-6.3,6.9-8.5c3.7-2.9,4.5-0.5,4.2,3.1c-0.1,0.8,1.8,1.7,2.5,2.7
			c3.5,4.6,3.3,6.3-1,7.3C1858.3,257.7,1855.4,258.1,1854.2,258.3z"/>
		<path class="st0" d="M1948.9,605.3c-1,5.5-6.9,6.9-9.4,11.3l-15.5-11.8l0.2,1c8.4-7.6,16.8-6.3,25.3-0.1L1948.9,605.3z"/>
		<path class="st0" d="M1892.1,248.3c0.6-0.1,1.2-0.1,1.8,0c6.9,3,12.8,8,16.7,14.4c1,1.6,0.7,3.2-1,3.6c-1.3,0.3-3.3,0.5-4.1-0.3
			c-4.8-4.5-7.7-11-14.3-13.8c-0.3-0.1-0.4-1.4-0.3-2.1C1891.2,249.4,1891.6,248.8,1892.1,248.3z"/>
		<path class="st0" d="M2082.7,329.5c2-0.4,5-1.8,5.8-1c3,3.2,0.9,6.9-1,9.7c-0.7,1.1-2-0.2-1.4-2.2c1.1-3.4-0.8-5.5-3.6-7
			L2082.7,329.5z"/>
		<path class="st0" d="M2085.7,395.3c-1.3,0.4-2.7,1.3-4,1.1c-2.5-0.4-6.1,0.9-6.8-3.1c-0.1-0.9,1.3-2.7,2.4-3.1
			c4.7-1.5,8.4-0.8,7.9,5.5L2085.7,395.3z"/>
		<path class="st0" d="M1914.4,590.5c0.6,1,1.6,2,1.5,2.8c-0.4,1.9-1.2,3.7-2.3,5.2c-0.2,0.3-2.3-0.6-3.5-1L1914.4,590.5z"/>
		<path class="st0" d="M1920.7,276.1c-0.5,1.1-1,2.2-1.5,3.3c-0.4-0.5-1.2-1.2-1.2-1.6c0.4-1.1,0.8-2.3,1.4-3.3L1920.7,276.1z"/>
		<path class="st0" d="M1850.8,283.6c0.2,0.6,0.7,1.2,0.6,1.7s-0.7,0.9-1.1,1.3C1849.2,285.4,1849.4,284.4,1850.8,283.6z"/>
		<path class="st0" d="M2073.9,284.7c-1.3,0.6-2.5,1.6-3.7,1.6c-0.6,0-1.9-1.7-1.8-2.5c0.2-1.7,1.7-2.3,3.2-1.5
			C2072.5,283,2073.2,283.8,2073.9,284.7z"/>
		<path class="st0" d="M2063.7,326.6l2.9,1.8l-2.1,3.2c-0.6-0.4-1.7-0.9-1.7-1.3C2063,329.1,2063.3,327.8,2063.7,326.6z"/>
		<path class="st0" d="M1949.4,605.7c-0.1-1.2-0.7-2.8-0.1-3.4c1.1-1.2,2.5-0.6,2.3,1c-0.1,0.8-1.8,1.3-2.7,2L1949.4,605.7z"/>
		<polygon class="st0" points="1857.3,608.1 1855.9,607.3 1857.6,606.9 		"/>
		<path class="st0" d="M1804.4,620.5c-0.1,0.5,0.1,1.3-0.2,1.4c-0.6,0.4-1.3,0.5-1.9,0.4c-2.1-0.9-2-1.8,0.3-2.4
			C1803.1,619.8,1803.8,620.3,1804.4,620.5z"/>
		<path class="st0" d="M1923.9,604.8l1.2,0.8c0-1.6-0.3-1.5-0.9,0.2C1924.1,605.5,1924,605.1,1923.9,604.8z"/>
		<polygon class="st0" points="1836.7,602.7 1837.9,602.4 1837.7,603.5 		"/>
		<polygon class="st0" points="1917.8,571 1919.2,570.5 1919.1,571.8 		"/>
		<polygon class="st0" points="2052,557.5 2050.6,557.9 2050.8,556.6 		"/>
		<path class="st0" d="M2085.2,395.8l3.1,1.1c-2.8,2.7-2.6,0.3-2.7-1.6L2085.2,395.8z"/>
		<polygon class="st0" points="2095.6,333.8 2097.2,333.2 2097.1,334.7 		"/>
		<path class="st0" d="M2082.5,329l1.2-0.5c0,0-1,0.9-1,1S2082.5,329,2082.5,329z"/>
		<polygon class="st0" points="2069.6,271.2 2069,269.8 2070.4,270 		"/>
		<path class="st0" d="M1871.1,519.1c0-3.3,0-6.6,0-10C1877.6,512.4,1877.6,512.5,1871.1,519.1z"/>
		<path class="st0" d="M1888.7,510.2c-1.7-1.3-3.6-2.3-4.8-3.9c-0.7-0.9-0.6-2.6-0.6-4c0-0.3,1.2-0.7,1.9-0.8
			c2.3-0.2,4.3,0.7,4.4,3.1c0.1,2-0.9,4-1.4,6.1L1888.7,510.2z"/>
		<path class="st0" d="M1788.2,463.6l3.5-2.3c0,3.5-2.9,0.8-4.1,1.9L1788.2,463.6z"/>
		<path class="st0" d="M1799.4,431.3l-1,0.4c0,0,1.3-0.6,1.4-0.6S1799.4,431.3,1799.4,431.3z"/>
		<path class="st0" d="M1967.2,326.9l0.1,5.1c-2,1.2-4.5,0.9-5-1.1C1961.3,327,1964.7,327.2,1967.2,326.9z"/>
		<path class="st0" d="M2490.9,578c-10.4-2.2-20.6,2.4-31.3,0.6c-10.4-1.9-21.1-1.5-31.4,1.2c-7.5,2-16.1-1.7-24.6-0.8
			c-5,0.5-9.1-5.7-9.8-11.2c-1.1-8.2-0.6-16.6-1.3-24.9c-0.4-4.9,3.2-11.6-3.2-14.2c-7.4-3-10.8,3.9-14.3,8.5
			c-23.4,31.2-56.4,45.2-93.6,49.4c-14,1.6-28.5-2.1-42.8-3.5c-24.9-2.5-45.6-15.3-65.9-28.3c-9.2-5.9-18.9-13.3-18.2-26.9
			c0.1-2.1-1.4-3.9-3.5-4c-0.3,0-0.5,0-0.8,0c-5.5,0.7-9-2.8-11.2-6.4c-7.9-13.2-21-24.3-18.2-42.2c0.5-3.4-1.6-5.7-3.9-7.6
			c-7-5.9-10-13.1-8.3-22.2c0.6-3.3-1.4-5.6-2.4-8.5c-7.1-20.9-9.9-42.4-6.6-64.3c0.8-5.5-2-9.9-1.7-14.5c0.3-4.9,3.3-9.6,5-14.5
			c2.7-7.6,3-16.6,12.8-19.8c1.6-0.5,1.9-3.5,0.9-5.9c-5.8-14.5-5.8-14.5,5.4-23.4c5.7-4.5,6.9-7.9,4-12.9
			c-2.3-3.9-5.2-7.4-7.4-11.4c-1-1.8-1.9-4.6-1.2-6.2c2-4.1,4.9-1.2,7.5-0.2c1.3,0.5,3.6,0.9,4.2,0.2c5.4-5.6,9.4-12,8.6-20.2
			c-0.3-2.3-2.1-4.1-4.4-4.4c-4-0.7-4.6-2.2-2.6-5.9c2.4-4.4,6.7-6,10.5-8.4c0.5,2.1,1.8,1.9,1.2,0.8c-1.4-2.6,1.4,0-1.7-0.2
			c0.2-4.2-3.4-8.6,1.1-12.6c11.2-9.9,21.8-20.4,33.4-29.8c6.3-5.1,13.2-10.1,22.3-9.5c1.4,0.1,3.6,0.1,4.2-0.8
			c11.1-15.5,29.7-11.9,44.6-17.6c2.6-1,6.1-2.5,8.2,0.7c5.8,8.9,10.1,6.2,15.2-0.8c3.1-4.2,8.5-2.2,12.8-1.8
			c35.8,4.1,67.4,16.5,90.7,45.6c2.8,3.6,6,6.8,9.2,10.1c1.6,1.7,4.1,2.2,6.1,1.1c2.6-1.1,2.7-3.4,2.7-5.6
			c-0.1-15.1-0.1-30.2-0.5-45.4c-0.6-26.3-2-52.7,1.6-78.8c2-14.4-2.6-27.8-1.9-41.9c0.6-11.5,4.6-18,15.6-16.9
			c23.9,2.3,47.6-0.2,71.4-1.2c10.2-0.4,17.4,5.6,18.6,15.8c0.8,6,1,12.1,0.7,18.2c-1.2,21,2.1,42-0.1,63c-0.3,3-0.4,6-0.3,9.1
			c2.3,48.2-1.9,96.6,2.4,144.8c-4.2,29.1,1.7,58.5-3.2,87.7c-1.9,11,0.9,22.5-1,33.8c-0.9,5.6,8.1,9.7,17.4,8.3
			c2.2-0.3,4.3-1.3,6.8,2.1c-5,4.8-9.4,12-15.6,14.2c-8.4,2.9-8.2,7.4-7.2,13.7c0.4,2.2,1.8,4.8,1.1,6.6c-4.9,12.6-1.6,25.1-1,37.9
			c1.3,27.1,0.5,54.3,0.2,81.5c-0.1,7.5,0.1,15.3-5.9,21.3L2490.9,578z M2129.9,313.9c0,1.6-1.2,1.5-0.8,0.7
			c1.1-2.8-1.7,0.2,1.3-0.3c0.3,1.8-0.9,2.3-1.5,0.7C2127.8,312.2,2127.7,316.1,2129.9,313.9L2129.9,313.9z M2303.1,505.3
			c0.6-1.7,1.7-2.2,3-1c0.3,0.6,0.2,1.3-0.2,1.8c-1.4,1.1-2.5,0.6-3.1-1.1c3.9-5.8,10.1-6.2,16.1-6.8c15.7-1.5,26.5-13.5,40.5-18.9
			c4.5-1.7,5.1-10.6,10.7-13.9c8-24.8,21.5-47.4,22.7-75.1c1.2-29-0.4-56.5-9.5-84.3c-9.7-29.5-27.7-50-56.3-60.5
			c-17.2-6.4-35.5-9.9-53.1-1.1c-14,7-28.1,13.7-39.6,25.6c-9.2,9.6-17.1,19-20.1,32.1s-5.2,26.4-9.3,39.1c-2.4,7.2-3.1,14.8-2,22.2
			c3,21.3,5.6,42.7,8.9,64c5.4,35,37.4,66.6,72.5,71.9C2290.9,500.3,2298.1,499.4,2303.1,505.3L2303.1,505.3z M2353,236.6
			c-0.4-0.6-0.8-1.2-1.3-1.8c-1.2,0.6-2.7,1.2-3.3,2.2s-0.3,2.6-0.3,4c0,0.2,1.3,0.6,1.4,0.5C2350.7,240,2351.8,238.2,2353,236.6z
			 M2146.7,251.6c0.6-1.8,0.1-3-1.7-3.6s-3.3,0-3.5,1.7c-0.1,1.3,0.9,2.6,1.5,3.9L2146.7,251.6z M2409.9,412.6
			c0.8-1.7,0.3-3.2-1.5-3.4c-0.9-0.1-2.6,1.2-2.7,1.9c-0.1,1.2,0.9,2.4,1.5,3.6L2409.9,412.6z"/>
		<path class="st0" d="M2527,389.1c7.1,1.1,9,7.2,9.5,11.5c1.1,10.2,0.3,20.6,0,31c0,0.8-2.2,2-3.4,2c-1.4,0-2.7-0.7-3.6-1.8
			c-6.7-10-4.8-21.4-4.7-32.5C2524.8,395.9,2526.2,392.5,2527,389.1z"/>
		<path class="st0" d="M2536.7,576.9c-5-9.6-3.9-19.2-1.6-30.7C2547.1,557.5,2537,567.3,2536.7,576.9z"/>
		<path class="st0" d="M2494.8,605.3c1.4-0.4,2.9-1.3,4.2-1.1c1.9,0.2,2.4,1.8,1.6,3.5s-2.1,2-3.8,1.2S2494.4,607.1,2494.8,605.3z"
			/>
		<path class="st0" d="M2485.2,593.1c0.7-1.1,1.2-2.8,2.1-3.1c2.3-0.9,4.3,0.2,4.5,2.7c0.1,1.2-1,3.5-1.8,3.6
			C2487.9,596.7,2485.8,595.3,2485.2,593.1z"/>
		<path class="st0" d="M2527.2,369c0.5-0.4,1-1.3,1.4-1.2c1.1,0.3,2.2,0.8,3.2,1.3c-0.4,0.5-1,1.4-1.3,1.3
			C2529.4,370.1,2528.3,369.6,2527.2,369z"/>
		<path class="st0" d="M2271,621.1l-1.2-1.4c0.5-0.4,1-1.1,1.4-1s0.8,0.8,1.2,1.3L2271,621.1z"/>
		<path class="st0" d="M2490.4,578.6l3.3-1.9c0.6,4.1-1.9,0.6-2.8,1.2L2490.4,578.6z"/>
		<path class="st0" d="M2254.2,357.3c-0.2,0.6-0.2,1.5-0.6,1.7c-1.2,0.6-1.9-0.2-1.6-2c0.1-0.5,0.8-0.9,1.2-1.4L2254.2,357.3z"/>
		<path class="st0" d="M2959.9,421.4c-3.5,1.6-7.1,2.8-10.3,4.8c-4,2.3-6.4,6.8-6.1,11.4c1.8,35.2-0.2,70.4,0.3,105.7
			c0.1,7.5,2.8,15.2,2.4,22.2c-0.5,7.4-2.1,14.7-0.5,22.3c1.1,5.4-3.1,8.5-7.4,10.1c-3.4,1.3-7.8,2.5-11.1,1.5
			c-21.1-6.4-41.5,1.9-62.2,2.8c-7.6,0.3-12.7-1.6-18.6-4.8c-4.5-2.5-6.5-6-6.9-10.9c-0.6-7.5-2.1-15-1.7-22.5
			c0.6-12.8,3.8-25.6,2.9-38.2c-0.7-12-0.5-23.9,0.7-35.9c0.1-1.5,1.6-3.3,1.1-4.3c-7-13.9,1.4-20.6,11.9-26.5
			c3.2-1.8,3.4-4.7,2.9-7.8c-1.1-6.8,6.9-4.6,8.5-8.7c-3.4-4-8.5-1.5-12.6-3.1c-4.9-2-8.4,8.9-13.4,2.3c-3.4-4.4,0.1-10.3-0.1-15.4
			c-0.9-19.3,3.4-38.7-0.6-57.9c-1.4-6.9,1-13.2,1.9-19.7c0.9-6.3,4.1-12-1.2-18.5c-2.4-2.9-2.7-9.2-1.4-13
			c3.8-11.1-0.4-21.6-1-32.4c-0.6-10.5,1.4-20.8,0.2-31.4c-1.1-9.9-4.6-20.5,4.6-29.8c4.3-4.4,1.9-12.2-0.8-17.3
			c-3.2-5.9-3.1-11.2-2.4-17.4c1-9.5,3.3-19.1-0.2-28.6c-0.6-2.2-0.6-4.5,0-6.6c4.3-15.9,3.7-31.7-0.1-47.5
			c-0.7-2.9-2.2-7.1-0.9-8.8c8.1-10.9,0.6-21.2-0.8-31.5c-0.7-4.4-0.5-9,0.8-13.3c2.6-8.1,7.4-12.4,16.3-13.2
			c13.6-1.2,27,4.1,40.5,0.4c1.2-0.3,3,0.4,4.2,1.2c12.6,8.8,27.3,7.6,40.7,8c7.5,6.6,4.4,15.2,4.9,22c0.9,12,2.4,24.3,1,36.6
			c-1.9,16.3-4.4,32.8,1.2,49c-3.3,7,0.1,14.2-1,21.6c-2.9,19.2-0.4,39-4.4,58.3c6.6,15.1-2.3,31,2.1,46.2c0.4,1.4,1.3,3.7,2.1,3.8
			c2,0.2,4.9,0,6.1-1.3c8.8-9.3,17.4-18.9,25.9-28.4c-0.4,0.8-0.7,1.7-1,2.5c0.3-0.1,0.6-0.3,0.9-0.6c1.9-2.4-0.3,1.4-0.5-1.6
			c8.5-10.9,16.3-22.2,29.2-29c4.6-2.4,8.9-6.1,8.3-14c-0.5-6.4,6.3-11.2,11.7-15.4c0.1-0.1,0.2-0.1,0.4-0.1l-0.7,0.9
			c5.9-7.8,10.9-16.6,20.4-20.9c-0.4-10.7,9.4-14.8,14.8-21.5c15.3-19.1,32-36.9,46.8-56.5c11.9-15.7,24.6-30.7,37.1-46
			c9.1-11.1,20.2-15.1,35.3-15.8c23.3-1,46.6-0.4,69.9-0.8c4.5-0.1,9.1,0.6,13.6,0.5c8.2-0.2,12.2,5.3,15.6,11.4
			c0.9,1.6,1.1,4.9,0,6.3c-7.7,10.1-16.1,19.7-23.8,29.8c-6.2,8.4-13.3,16.1-21.2,23c-15.7,13.3-24.8,32.2-40,46
			c-3.8,3.4-6.2,8.5-1.7,14.1c2.4,3,1.2,5.1-3.3,4.5c-4.6-0.8-9.2,0.8-12.3,4.3c-7.5,9-20.4,13.4-22.7,26.9
			c-0.8,4.9-5.8,6.6-8.9,9.7c-5.6,5.6-13.4,10.3-10.7,20.6c0.9,3.6-2.7,5.4-5.5,6c-12.6,2.8-21.1,9.7-27,21.5
			c-3.9,7.9-10.3,14.8-16.3,21.4c-6.4,7.1-5.1,14-0.7,20.8c8.7,13.3,17.8,26.4,27.2,39.2c35.9,48.6,68.8,99.4,104.8,148
			c19.8,26.8,38.9,54.1,58.3,81.2c2.6,3.7,5,7.6,7.1,11.6c4,7.4-1.4,16.6-9.6,14.9c-13-2.7-25.6-1.7-38.3,0.8
			c-5.9,1.1-11.6,2.9-17,5.4c-4.8,2.4-10.2,11-9.6-3c0-0.6-2.6-2.2-3.5-1.8c-5.6,2-12.1,1.8-16.8,6.1l0.5-1.1l-1,0.6
			c-16.4-5.2-27.9-15.8-37.6-30c-37.4-54.8-75.7-109-113.7-163.4c-9-12.9-17.6-26.2-27.1-38.8c-7.1-9.6-12.1-9.5-19,0.6
			c-5.1,7.5-10.2,15-17.4,20.2s-4.1,17.8-15.4,20c-1.4,0.3-0.5,5.5,2.5,7.3L2959.9,421.4z M2907.2,252.4c0.1-4.4-3.1-8.1-8.1-9.1
			c-4.4-0.9-9.1-1.4-12.8,1.6c-4.6,3.7-0.6,8,0,12.1c0.8,5.5,4,7.7,9.2,6.7C2903,262.3,2907,258.2,2907.2,252.4L2907.2,252.4z
			 M2878.5,347.3c-2.6-6.6-6.7-10.4-12.5-12.3c-2.8-0.9-5.6-1.7-7.3,1.8c-1,2-2.7,3.9-2.8,5.8c-0.1,3.5,3.1,4.4,6,4.8
			C2867.3,348,2872.8,350,2878.5,347.3L2878.5,347.3z M2875.3,429.6c-2-3.8-5.6-5-9.4-5.2c-3.2-0.2-6,1.4-6.3,5.1s2.3,5,5.5,5.6
			c3,0.5,6.1,0.9,8.5-1.4C2874.7,432.7,2874.8,431,2875.3,429.6L2875.3,429.6z M2878.2,298.5c-0.1,3.6,3.5,7.3,7,6.6
			c1.8-0.4,4.7-2.3,4.8-3.7c0.3-4.5-3.2-6-7.1-6.2C2880.8,295.1,2878.5,295.5,2878.2,298.5L2878.2,298.5z M2853.9,195.7
			c0.9-0.8,3-1.9,4-3.6c1.1-2-3.2-4.7-6.2-3.9c-2.2,0.6-4,2-3.4,4.4C2848.9,194.7,2850.2,196.7,2853.9,195.7L2853.9,195.7z
			 M3068,238.6c0.6-1.7,0-3-1.9-3c-2.1,0.1-4.1,0.5-6.1,0.9c0.2,1.2,0.1,2.9,0.8,3.4C3063.6,242.1,3066.1,241.3,3068,238.6z"/>
		<path class="st0" d="M3025.9,534c-2.4-0.8-3.5-2.8-2.7-4.9c0.9-2.7,2.7-5.5,6.2-4.8c2.1,0.5,3.4,2.6,2.9,4.7
			c0,0.1-0.1,0.2-0.1,0.3C3031.4,532.2,3029.5,534.4,3025.9,534z"/>
		<path class="st0" d="M2875.7,609.9c0.6,0.2,1.6,0.3,1.7,0.7c0.4,1.3-0.6,2-2.3,1.6c-0.4-0.1-0.7-0.9-1-1.3L2875.7,609.9z"/>
		<polygon class="st0" points="2950.4,638.4 2951.6,638 2951.4,639.2 		"/>
		<path class="st0" d="M2959.9,422.4l-1.2-1.1c-0.4,1.7-0.1,1.7,1,0C2959.9,421.4,2959.9,422.4,2959.9,422.4z"/>
		<path class="st0" d="M3328.9,446.9c-4.2-41.2,0.5-79.6,0.1-118c-0.1-14.2,0.4-28.4,0.6-42.6c0.1-13.4-2.3-27,1.3-40.3
			c-7.2-25.1-0.8-50.9-3.2-76.4c-2.4-24.7,0-49.9-0.4-74.9c-0.1-5.5-0.2-10.2,3.4-14.7c5.4-6.9,13-12.4,13.4-22.7
			c0.1-1.8,4.6-5.1,6.8-5c18.2,1.5,35.5-6.3,54.1-4c9.6,1.2,16.3,7,24.9,9.5c3.7,1,4.6,5.8,5,9.6c0.9,9.6-1.6,19.5,4.6,28.5
			c1.5,2.1-1,7.2-1.9,10.8c-1.4,5.9-2.8,11.8-0.8,17.8c2.3,6.8,2.2,13.1-1.7,19.5c-1.4,2.3-1.4,6-0.9,8.9c4.7,26.8-3,53.9,2.7,80.6
			c-4.9,20.7-1.9,41.8-2.4,62.7c-0.4,15.9-1.4,32,0.9,47.5c1.9,12.7,0.2,25.2,0.2,37.7c0,16.4-0.4,32.8,0.2,49.2
			c0.6,15.6-0.4,31.4-1.3,47.1c-0.7,12.6,2.7,25.4-1.1,37.9c5.1,9.1,1.3,18.5,0.7,27.8c-0.6,9,1.1,18-1,27.1
			c-1.1,4.9-0.2,10.7,1.3,15.6c1.4,4.7,2.1,8.6-1.6,12.4c-4.7,4.8-8.2,10.8-16.5,10.4c-10.6-0.6-21.2-0.4-31.8-0.5
			c-13.6-0.1-27.3,0-40.9-0.2c-6.7-0.1-11.1-3.4-13.1-10.2c-1.3-4.4-2.5-8.4-2.3-13.2c0.5-12.9,0.1-25.8,0.6-38.6
			C3330,512.1,3325.3,478.1,3328.9,446.9z"/>
		<path class="st0" d="M3446.4,618.1l-1.5,1.4c-0.5-1.2-1-2.5-1.3-3.7c-0.1-0.3,1-0.9,1.5-1.4L3446.4,618.1z"/>
		<path class="st0" d="M3521,655.7c1.4-1,1.4-2-0.1-2.7c-0.3-0.1-1,0.4-1.4,0.8c-2.1,2.2,0.5-1.7,1,1.3L3521,655.7z"/>
		<path class="st0" d="M3520.6,655.1c3,0,0.4,2.9,1-0.1c0.2-1.1-0.9-1.2-0.6,0.6L3520.6,655.1z"/>
		<polygon class="st0" points="3443.4,143.7 3442,144 3442.9,144.3 		"/>
		<path class="st0" d="M3442.9,144.3l0.4-1.5v1C3443.2,143.9,3443.1,144.1,3442.9,144.3z"/>
		<path class="st0" d="M3806.9,414.2c-17.4,0-34.8-0.2-52.2,0.1c-7.4,0.1-15.3-1.9-21.5,4.5c-0.8,0.8-3.1,1.3-3.9,0.8
			c-11.4-7.9-24.6-1.3-36.6-4.5c-12.6-3.3-25.7-0.8-38.5-0.6s-25.7,0.3-38.6,0.6c-11.7,0.3-16.4,5.6-14.4,17.6
			c6.8,39.5,27.3,68.5,66.4,81.6c7.3,2.5,14.3,4.1,19.6,10.1c2.8,3.1,8.5,3.6,10.3,0.9c5.2-7.9,13.1-6.7,20.3-7.9
			c25-4.2,45.9-14.9,59.5-37c5-8.1,12-11.2,20.4-12.4c3.7-0.5,7.5-0.1,11.3,0.1c9,0.3,18,1.7,26.7,4.2c8.2,2.4,17.7,0.4,26.7,0.8
			c3,0.3,5.8,1.2,8.4,2.7c8.3,4.3,11,9.9,8.2,18.7c-7.5,23.3-18.5,44.4-38.5,59.6c-5.4,4.1-10.6,8.6-15.9,12.8
			c-26.6,20.8-57.9,29.1-90.4,33.2c-13.3,1.7-26.8,5.9-40.4,1.7c-1.5-0.4-3-0.5-4.5-0.2c-8,1.1-15.3,3.7-24.2,0.6
			c-26.5-8.9-54.7-12.8-78.8-28.4c-34-22.1-58.5-51.9-74.5-89.2c-4.6-10.7-6.8-21.7-8.5-32.8c-3.1-19.3-7.3-38.8-6.6-58.1
			c0.6-15.4-2.9-31.2,2.2-46.5c5-15,6.7-30.8,12.3-45.8c3.9-10.5,3.9-22.2,16.5-27.3c2.8-1.1,3.6-4.6,3.6-7.8
			c-0.1-6.4,3.9-9.8,9.4-11.2c10.1-2.5,12.8-11.2,12.2-18.7c-1-12,4.9-18.1,13.4-24c9.8-6.8,19.1-14.4,29.2-20.9
			c6.9-4.4,13.9-9.1,22.7-9.9c17.7-1.5,34.2-8.2,51.7-11.2c31.4-5.5,61.7-3.5,91.5,7c11.3,4,22.8,7.7,33.5,13.8
			c20.1,11.5,37.4,25.9,50.7,44.5c9.3,12.9,17.7,26.3,25.1,40.4c4.4,8.5,6.2,18.3,8.7,27.7c1.4,5.2,4.1,7.6,9.4,7.9
			c4.6,0.2,4.9,4.5,3,6.3c-7.5,7.4-7.3,14.9-5,24.8c3.7,16.1,1.7,33.1,4,49.6c0.8,5.7-4.4,12.5-7.5,18.5c-0.8,1.6-3.7,2.6-5.8,2.9
			c-6.8,0.9-13.5,1.5-20.4,1.6c-16.6,0.2-33.3,0.1-49.9,0.1C3806.9,414.9,3806.9,414.5,3806.9,414.2z M3660.7,259.9
			c-7.2,3.2-12.9,5.4-18.2,8.2c-10.9,5.8-20.2,14-25.9,24.9c-5.2,9.9-8.7,20.9-12,31.6c-3.2,10.6,0.8,15,12.5,15.5
			c3.8,0.1,7.6,0,11.4,0c40.1,0.4,80.3,0.9,120.5,1.1c7.6,0,15.1-0.6,22.6-1.9c9.1-1.6,11.9-5.2,10.9-14.1
			c-2.4-22.4-13.8-39.9-31.3-53.4c-14.8-11.3-32.3-15.9-50.5-18.2c-3.9-0.5-6.8,1-9.6,4.4c-11.4,14-11.6,13.9-26.1,4.7
			C3663.9,262.1,3662.6,261.2,3660.7,259.9z M3547.5,328.4c-1.9-0.9-3.8-1.7-5.8-2.3c-2.1-0.6-4.3,0.5-5.1,2.5
			c-0.1,0.3,1.9,2.1,3,2.1C3542.2,330.8,3545.1,331.3,3547.5,328.4z M3676.7,214.5c-1.2-0.6-2.5-1-3.8-1.4c-0.4-0.1-1,0.9-1.6,1.4
			c0.9,0.8,1.9,2,2.8,2.1C3674.9,216.8,3675.8,215.4,3676.7,214.5L3676.7,214.5z"/>
		<path class="st0" d="M3655.2,289c1.1,0.6,3.4,1.3,4.2,2.7c1.1,2.1-0.4,4.1-2.7,4.5c-2.9,0.6-5.9,0.1-6.4-3.4
			C3650.1,290.4,3652.3,289.5,3655.2,289z"/>
		<path class="st0" d="M4088.7,304.6c1.3-0.6,3.2-0.8,4-1.9c3.3-4.1,6.3-8.5,9.1-13c2.9-5,9.3-2.9,13.1-7.8c5.3-7,13.1-12,16.6-20.8
			c3.1-7.8,7.9-15.9,15.4-18.9c8.2-3.3,7.9-13.9,18.1-15.7c8.5-1.5,8.8-13.3,14-19.7c4.3-5.2,7.9-11.1,12.6-15.8
			c5.4-5.2,11.3-9,20-8.9c27.3,0.4,54.5-0.4,81.8-0.6c3.8-0.1,7.5,0.4,11.1,1.6c3.9,1.4,6,5.1,4.2,9.1c-2.2,4.8-4.2,10.6-8.1,13.5
			c-13.5,10.1-20.5,25.5-32.2,36.9c-9,8.8-17.5,18-26,27.3c-3.6,3.9-7.1,7.9-9.7,12.5c-5.7,10.3-9.5,22.2-23.6,24.3
			c-14.6,17.3-31.6,32.5-44.7,51.1c-2.8,4-3.4,8.5-0.7,12.8c2.8,4.5,5.7,8.9,8.8,13.2c15.4,21.5,30.9,43,46.4,64.5
			c20.7,28.9,41.4,57.9,62.1,86.8c12.3,17.2,24.6,34.3,37,51.5c2.4,3.3,3.2,6.8,0.6,10.4c-1.7,2.5-4.6,4-7.7,3.8
			c-28-0.5-55.9-0.9-83.9-1.2c-1.5,0-3.2-0.6-4.5-0.1c-13.9,6-20.9-2.4-27.7-12.4c-15.3-22.5-30-45.5-46.5-67.1
			c-11-14.4-19.3-30.5-31.7-44c-9.1-9.9-15.7-22.2-23.6-33.3c-2.6-3.7-5.6-7.1-8.8-10.3c-2.2-2.1-5.4-3.1-8.2-0.9
			c-9.1,6.9-17.2,14.9-24.3,23.9c-3.3,4.3-4.8,9.6-4.4,14.9c1.6,24.2,1,48.4,0.7,72.6c-0.3,18.8,0.8,37.7,0.9,56.5
			c0,3-2.3,6.3-5.9,4.7c-17.6-7.8-35.9-2.1-53.8-2.7c-12.1-0.3-24.2-0.5-36.2-2.2c-4.8-0.7-7.8-3.8-7.8-9.5
			c0.3-26.4,0.5-52.7,0.6-79.1c0-6,0.2-12.1-0.2-18.1c-0.5-10.6-0.5-21.2,0.1-31.7c1.1-24,1.6-48.1-0.5-72.1c-0.8-8.9-0.1-18.1,1-27
			c0.9-7.6,2.2-14.8-1.2-22.2c-1.2-2.6-1.8-6.5-0.7-8.8c5.4-11.7,1.4-23.3,1.2-35.1c-0.9-37-1.2-74.1-1.4-111.1s-0.1-74.1,0-111.2
			c0-3.8-0.2-7.7,0.3-11.4c1.9-12.2,6.3-15.6,19.6-15.9c22.6-0.5,45.3-1.2,67.9-1.4c10.7-0.1,14.1,2.5,15,12.5
			c0.9,9.7,3.1,19.1,2.5,29c-1.6,25.6-3.8,51.3,0.7,76.8c-4.2,16.4,1.4,33.1-2,49.5c-0.5,2.2-0.7,4.5-0.6,6.8
			c1,11.9,4.9,24.4,2.4,35.4c-2.6,11.6-1,22.6-1.8,33.8c-0.9,12.1-0.3,24.2-0.4,36.4c-0.1,6-0.2,12,2.6,17.5c6.4,2.8,7-4,10.4-6
			c8.6-5.3,11.9-18.3,25-17.3c2.4,0.2,2.9-2.6,3-4.9c0.1-3,0.5-6,0.8-9L4088.7,304.6z M4207.2,292c0.1-2,0-4-0.3-6
			c-0.4-1.8-1.6-2.2-2.7-1.2c-0.5,0.4-1.1,1-1.1,1.5c-0.1,3.1,1.1,5.2,4.4,5.6c-0.4,2.1-1.6,4.7-0.9,6.3c1.6,3.1,4.9,3.4,7.4,0.9
			c1.4-1.4,1.5-3.8,0-5.2c-0.2-0.2-0.4-0.4-0.6-0.5C4211.7,292.2,4209.3,292.4,4207.2,292z M4154.7,280c1.3-0.5,3.4-0.8,3.7-1.6
			c1.2-4-2.1-4.5-4.8-4.8c-1.2-0.2-3.6,0.6-3.8,1.3C4149,278.6,4152.1,279.1,4154.7,280z"/>
		<path class="st0" d="M4112,305.1l-1.2,0c0,0,0.8-0.5,0.7-0.6L4112,305.1z"/>
	</g>
</g>
</svg>
