<?xml version="1.0" encoding="utf-8"?>
<!-- Generator: Adobe Illustrator 25.0.1, SVG Export Plug-In . SVG Version: 6.00 Build 0)  -->
<svg version="1.1" id="Layer_1" xmlns="http://www.w3.org/2000/svg" xmlns:xlink="http://www.w3.org/1999/xlink" x="0px" y="0px"
	 viewBox="0 0 32 32" style="enable-background:new 0 0 32 32;" xml:space="preserve">
<style type="text/css">
	.st0{fill:#FFFFFF;}
</style>
<g>
	<path class="st0" d="M17.2,18V6h2.6v12H17.2z M12,18V6h2.6v12H12z"/>
	<path class="st0" d="M12.2,6.2h2.1v11.6h-2.1V6.2z M17.4,6.2h2.1v11.6h-2.1V6.2z"/>
	<path class="st0" d="M14.7,28v-0.2c0-1.4-0.7-2.2-1.9-2.2H7.4c-1.4,0-2.4-1-2.4-2.4v-2.5h2.4v2.1h5.4c1.5,0,2.8,0.9,3.2,2.3
		c0.4-1.3,1.7-2.3,3.2-2.3h5.4v-2.1H27v2.5c0,1.4-1,2.4-2.4,2.4h-5.4c-1.2,0-1.9,0.8-1.9,2.2V28H14.7z"/>
	<path class="st0" d="M26.8,23.2c0,1.3-0.9,2.2-2.2,2.2h-5.4c-1.4,0-2.1,1-2.1,2.4h-2.2c0-1.4-0.7-2.4-2.1-2.4H7.4
		c-1.3,0-2.2-0.9-2.2-2.2v-2.3h1.9v2.1h5.6c1.5,0,2.8,1,3.1,2.5h0.2c0.3-1.4,1.6-2.5,3.1-2.5h5.6v-2.1h1.9V23.2z"/>
</g>
</svg>
