<?xml version="1.0" encoding="utf-8"?>
<!-- Generator: Adobe Illustrator 25.0.1, SVG Export Plug-In . SVG Version: 6.00 Build 0)  -->
<svg version="1.1" id="icon" xmlns="http://www.w3.org/2000/svg" xmlns:xlink="http://www.w3.org/1999/xlink" x="0px" y="0px"
	 viewBox="0 0 32 32" style="enable-background:new 0 0 32 32;" xml:space="preserve">
<style type="text/css">
	.st0{fill:none;}
	.st1{fill:#FFFFFF;}
</style>
<rect id="_Transparent_Rectangle_" class="st0" width="32" height="32"/>
<g>
	<path class="st1" d="M10,24.6v-3.9H8.1c-0.8,0-1.4-0.6-1.4-1.4v-6.5c0-0.8,0.6-1.4,1.4-1.4H10V7.4h12v3.9h1.9
		c0.8,0,1.4,0.6,1.4,1.4v6.5c0,0.8-0.6,1.4-1.4,1.4H22v3.9H10z M20.5,23.1v-6.4h-9v6.4H20.5z M23.8,19.2v-6.4H8.2v6.4H10v-3.9h12
		v3.9H23.8z M20.5,11.3V8.9h-9v2.4H20.5z"/>
	<path class="st1" d="M10.3,24.3v-3.9H8.1c-0.6,0-1.1-0.5-1.1-1.1v-6.5c0-0.6,0.5-1.1,1.1-1.1h2.1V7.7h11.5v3.9h2.1
		c0.6,0,1.1,0.5,1.1,1.1v6.5c0,0.6-0.5,1.1-1.1,1.1h-2.1v3.9H10.3z M11.3,23.4h9.5v-6.9h-9.5V23.4z M21.7,19.4H24v-6.9H8v6.9h2.3
		v-3.9h11.5V19.4z M11.3,11.6h9.5V8.6h-9.5V11.6z"/>
</g>
</svg>
