<?xml version="1.0" encoding="utf-8"?>
<!-- Generator: Adobe Illustrator 25.0.1, SVG Export Plug-In . SVG Version: 6.00 Build 0)  -->
<svg version="1.1" id="icon" xmlns="http://www.w3.org/2000/svg" xmlns:xlink="http://www.w3.org/1999/xlink" x="0px" y="0px"
	 viewBox="0 0 32 32" style="enable-background:new 0 0 32 32;" xml:space="preserve">
<style type="text/css">
	.st0{fill:#FFFFFF;}
	.st1{fill:none;}
</style>
<path class="st0" d="M30.7,7.6l-6.2-6.2c-0.3-0.3-0.6-0.4-1-0.4H3.5C2.1,1,1,2,1,3.4v25C1,30,2.1,31,3.5,31h25
	c1.4,0,2.5-1.1,2.5-2.5V8.5C31.1,8.2,31,7.8,30.7,7.6z M11,3.4h10v5H11V3.4z M21.1,28.6h-10v-10h10V28.6z M23.5,28.6v-10
	c0-1.4-1.1-2.5-2.5-2.5h-10c-1.5-0.1-2.6,1-2.6,2.4v10h-5v-25h5v5C8.5,9.9,9.6,11,11,11h10c1.4,0,2.5-1.1,2.5-2.5V4l5,5v19.5H23.5z"
	/>
<rect id="_Transparent_Rectangle_" class="st1" width="32" height="32"/>
</svg>
